<?xml version="1.0" encoding="UTF-8"?>
<!DOCTYPE svg PUBLIC "-//W3C//DTD SVG 1.1//EN" "http://www.w3.org/Graphics/SVG/1.1/DTD/svg11.dtd">
<!-- Creator: CorelDRAW 2021 (64-Bit) -->
<svg xmlns="http://www.w3.org/2000/svg" xml:space="preserve" width="4.33333in" height="4.33333in" version="1.1" style="shape-rendering:geometricPrecision; text-rendering:geometricPrecision; image-rendering:optimizeQuality; fill-rule:evenodd; clip-rule:evenodd"
viewBox="0 0 4333.33 4333.33"
 xmlns:xlink="http://www.w3.org/1999/xlink"
 xmlns:xodm="http://www.corel.com/coreldraw/odm/2003">
 <defs>
  <style type="text/css">
   <![CDATA[
    .fil0 {fill:white}
   ]]>
  </style>
   <clipPath id="id0">
    <rect x="-12666.67" y="3593.34" width="4266.66" height="4266.66"/>
   </clipPath>
 </defs>
 <g id="Capa_x0020_1">
  <metadata id="CorelCorpID_0Corel-Layer"/>
  <g style="clip-path:url(#id0)">
   <image id="_1000164675.png" x="-12666.67" y="3593.34" width="4266.66" height="4266.66" xlink:href="Informacion_Tutorias_Images\Informacion_Tutorias_ImgID1.png"/>
  </g>
  <g id="_2373243522304">
   <path class="fil0" d="M1015 2991.66c0,-21.17 56.5,-40 80,-40 81.51,0 59.33,43.33 113.33,43.33 13.69,0 22.64,-8.81 28.64,-18.03l18.03 -28.64c48.6,4.04 78.27,106.11 137.52,47.52 8.41,-8.31 9.25,-10.12 21.38,-15.29 46.14,-19.66 82.98,-1.6 110.68,31.52 76.6,91.59 30.43,84.59 30.43,126.25 0,20.09 7.88,30.74 22.25,37.91 33.55,16.75 36.3,-25.78 89.83,10.02 39.71,26.56 -19.74,70.49 -52.9,77.92 -24.32,5.44 -54.5,16.7 -46.19,51.03 8.13,33.57 44.01,30.37 57.01,49.79 -55.13,29.17 -77.68,7.41 -96.69,43.31 -7.6,14.35 -5.3,44.58 -14.29,55.71 -6.01,7.44 -31.69,23.64 -46.48,27.39 -14.95,3.79 -14.63,1.16 -41.5,-20.78 -118.46,-96.74 -283.76,-177.67 -438.69,-197.98 -22.22,-2.91 -42.43,-2.19 -64.77,-5.22 -29.38,-4 -38.98,0.91 -67.58,0.91 -8.74,-16.51 -8.59,-13.46 -23.33,-23.33 4.97,-21.32 10.2,-28.81 23.58,-43.08l12.6 -10.73c13.87,-7.1 44.03,-1.1 54.65,-35.62 5.59,-18.17 -3.74,-31.09 -7.5,-47.23 8.96,-2.09 22.5,-10 30,-10 10.56,0 46.07,19.69 66.68,-16.66 12.64,-22.3 3.32,-58.07 3.32,-90.01zm1756.66 70c0,13.37 1.06,22.69 8.98,31.02 33.69,35.44 108.2,-23.33 224.41,-24.3 17.98,-0.15 21.14,-4.06 36.37,-3.37 9.65,0.44 24.61,4.56 33.57,6.65l-24.6 8.73c-11.28,2.73 -15.41,3.65 -27.33,6 -20.37,4.02 -36.69,7.39 -54.74,11.93 -38.17,9.61 -168.98,43.18 -204.44,62.22 -39.7,21.31 -48.98,32.46 -69.05,67.61 -29.27,51.25 -20.88,32.15 -42.67,90.67 -20.99,56.39 -80.64,239.89 -150.5,256.16 -0.39,-17.29 -14.02,-60.87 -20,-73.33 37.33,-8.7 101.59,-77.27 122.04,-107.96 23.2,-34.81 43.98,-77.55 52.72,-120.62 15.26,-75.22 1.91,-59.15 1.91,-88.09 0,-40.99 92.24,-146.34 128.59,-174.74 11.87,-9.27 12.55,-17.3 28.08,-18.59 11.13,47.78 -43.33,29.33 -43.33,70zm-666.67 106.67c-59.45,-28.53 -192.91,-30 -263.33,-30 -27.12,0 -22.04,9.14 -48.58,2.15 -17.61,-4.64 -36.34,-8.52 -52.42,-11.15 -26.75,-4.38 -23.54,-7.9 -42.3,-17.7 -12.96,-6.78 -28.02,-16.2 -46.71,-16.62 -7.87,-94.51 -99.39,-203.33 -210,-203.33 -30.73,0 -62.88,15.85 -83.33,26.67 -38.25,-25.61 -81.17,-70.91 -141.26,-41.26 -15,7.4 -14.32,10.5 -25.41,17.93 -13.43,-7.1 -17.58,-11.77 -33.9,-16.1 -74.26,-19.7 -179.36,0.15 -214.03,71.5 -10.88,22.39 -8.73,37.19 -8.73,67.93 -38.92,3.24 -76.23,24.5 -92.34,57.66 -6.24,12.85 -7.66,24.19 -7.66,42.34 -43.3,11.56 -83.33,81.11 -83.33,126.67 0,19.11 5.32,23.84 6.67,40 -60.07,1.34 -157.52,65.81 -197.72,115.61l-41.21 65.46c-82.09,164.17 35.48,352.26 95.6,352.26 33.83,0 50.28,-40.11 30.98,-64.31 -1.28,-1.61 -6.7,-7.39 -7.98,-8.69l-8.48 -8.18c-91.54,-98.56 -69.55,-245.26 33.99,-323.66 120.28,-91.07 328.09,-75.7 462.5,-22.83 97.89,38.5 224.64,111.11 303.23,186.77 20.5,19.74 36.78,48.22 61.32,62.01 33.41,18.77 41.11,40.6 41.11,82.22 22.24,14.89 48.28,13.33 76.67,13.33 0,-51.96 -41.3,-120.74 -72.85,-160.48 -7.79,-9.81 -7.45,-7.48 -13.81,-19.52 14.21,-3.8 40.46,-25.36 50.94,-35.73 19.04,-18.85 22.28,-31.81 29.06,-60.94 25.11,-0.56 54.11,-18.19 70.73,-29.28 69.35,-46.24 27.88,-94.31 22.6,-114.06 35.54,-23.8 55.43,-51.77 66.67,-100 10.14,4.87 64.49,17.52 132.23,51.11 76.36,37.86 149.04,106.15 191,179 22.36,38.83 41.96,83.93 53.44,133.22 15.52,-3.62 32.99,-18.19 36.24,-33.77 3.54,-16.96 -0.7,-11.69 6.86,-26.47 5.72,-11.2 6.86,-13.04 16.91,-19.76 -13.56,-28.27 -20.8,-54.07 -37.72,-82.28 -51.57,-86 -91.91,-124.06 -166.56,-183.44 -3.67,-2.92 -6.24,-5.16 -9.06,-7.61 46.76,0 140.19,32.33 174.49,48.84 49.16,23.67 100.5,54.03 136.36,90.31 37.78,38.22 71.8,78.98 94.73,128.6 50.4,109.06 68.47,257.78 -4.15,363.68 -8.73,12.74 -24.76,26.17 -24.76,45.23 0,29.39 18.67,40 43.33,40 30.83,0 61.11,-60.24 73.33,-83.33l1246.67 3.33c17.9,0 36.67,-18.77 36.67,-36.67 0,-54.72 -62.69,-43.33 -116.67,-43.33 -54.44,0 -108.89,-0 -163.33,0 -53.72,0 -102.93,-3.33 -160,-3.33l-813.33 -3.33c0,-15.92 2.26,-13.82 3.33,-26.67l1180 0c37.06,0 126.43,15.33 129,-40.4 0.44,-9.57 -5.34,-20.68 -11.28,-27.32 -23.34,-26.11 -78.56,-15.61 -111.06,-15.61 -394.44,0 -788.89,0 -1183.33,0 3.33,-9.2 11.91,-11.2 21.08,-15.59 76.85,-36.76 118.35,-116.6 150.35,-192.98 16.87,-40.27 46.76,-133.76 64.09,-165.91 4.78,-8.87 9.93,-14.57 14.34,-22.32 16.74,-29.44 31.31,-37.93 68.16,-48.51 41.1,-11.8 78.33,-24.05 118.62,-34.71 36.09,-9.55 156.07,-29.74 184.63,-45.37 64.17,-35.12 22.24,-154.6 -94.61,-154.6 -30,0 -126.52,8.6 -143.33,16.67 0,-50.99 -53.09,-126.98 -137.81,-74.48 -10.35,6.41 -10,8.14 -18.39,14.94 -31.49,25.56 -62.36,57.39 -87.14,89.53 -33.16,43.02 -62.51,79.27 -75.32,134.77 -9.98,43.24 25.76,82.33 -43.24,183.34 -14.25,20.86 -64.59,76.33 -91.44,78.57 -11,-47.2 -107.13,-140.2 -146.67,-166.67 0.87,-10.43 3.33,-11.84 3.33,-23.33l0 -463.33c0,-47.61 -60.5,-56.94 -76.92,-16.92 -7.81,19.02 -3.08,426.67 -3.08,456.92l-33.29 -16.76 0 -316.62c0.14,-24.85 -3.56,-35.06 -3.42,-59.91 0.15,-27.01 8.02,-63 -15.87,-80.8 -20.17,-15.03 -46.51,-8.03 -58.22,13.29 -11.81,21.48 -5.87,144.83 -5.87,174.14 0,80 0,160 0,240z"/>
   <path class="fil0" d="M3318.33 2158.33c0,-26.62 36.05,-118.31 120.5,-83.83 26.21,10.7 40.81,34.15 52.17,57.83 8.01,16.71 19.8,37.56 35.52,47.81 14.16,9.24 15.15,1.11 15.15,24.85 0,17.78 -35.96,156.42 -127.7,124.41 -19.77,-6.9 -35.81,-25.3 -38.48,-28.23 -32.22,-35.41 -57.15,-87.78 -57.15,-142.85zm-160 -6.67c0,105.73 30.94,171.95 82.35,240.98 44.49,59.75 120.07,102.35 200.98,102.35 58.67,0 111.34,-26.34 146.67,-50 3.19,11.96 16.91,30.03 26.04,37.3 32.75,26.06 78.65,27.07 110.72,-0.54 25.46,-21.92 33.46,-63.68 15.56,-95.73 -12.15,-21.77 -13.59,-22.12 -19.3,-50.7 -26.72,-133.72 -6.35,-151.6 -6.35,-290.32 0,-53.06 -1.37,-96.3 -36.05,-123.95 -28.38,-22.63 -71.81,-22.11 -99.75,1.49 -11.13,9.4 -17.5,19.78 -24.2,32.46 -56.19,-29.73 -73.97,-50 -163.33,-50 -38.55,0 -67.59,12.17 -94.46,25.54 -76.24,37.94 -138.87,134.36 -138.87,221.13z"/>
   <path class="fil0" d="M1391.66 1845c-25.89,0 -99.04,7.83 -118.94,14.4 -91.7,30.25 -64.93,155.6 18.94,155.6 38.56,0 69.1,-7.15 103.33,-10 0,64.93 14.56,259.87 25.74,317.59 12.73,65.74 42.67,131.27 106.33,150.33 46.54,13.94 180.25,17.33 223.9,-28.63 23.22,-24.45 27.48,-68.56 13.46,-92.06 -34.66,-58.15 -77.06,-39.97 -116.92,-34.72 -10.36,1.37 -20.6,1.1 -31.2,2.34 -17.49,2.05 -12.7,-1.52 -31.31,-1.52 -0.97,-11.67 -4.63,-24.44 -7,-36.33 -10.02,-50.2 -14.87,-151.29 -19.49,-207.17l-3.51 -86.49c33.74,-7.86 129.72,-12.24 172.42,-17.57 126.66,-15.83 121.42,-115.53 71.51,-153.03 -19.99,-15.02 -43.5,-17.46 -72.5,-11.31l-171.44 18.58c0,-75.51 10,-126.89 10,-203.33 0,-67.63 -98.78,-105.38 -144.84,-38.18 -21.41,31.24 -23.69,169.29 -25.05,214.95 -0.52,17.65 -3.44,25.18 -3.44,46.56z"/>
   <path class="fil0" d="M298.33 1678.33c-54.86,0 -67.33,-19.3 -104.68,-1.35 -77.44,37.23 -60.09,161.35 74.68,161.35l80 0c22.17,0 28.85,-3.33 50,-3.33 5.28,63.41 3.33,108.13 3.33,173.33l3.29 306.71c-0.12,20.31 2.53,27.3 3.39,43.28 1.53,28.37 -4.7,61.67 1.92,88.07 18.85,75.13 121.76,83.25 151.46,8.68 15.33,-38.47 3.15,-122.81 3.26,-170.07l0.14 -223.47c-0.56,-45.18 -6.04,-14.09 -0.31,-83.37 2.79,-33.64 -3.16,-120.23 -3.16,-153.16 12.44,-1.03 11.08,-3.05 26.56,-3.44 28.79,-0.72 62.74,-0.07 92.06,-4.65 27,-4.22 34.4,4.34 56.72,0.26 19.35,-3.54 33.82,-10.39 45.58,-21.25 21.61,-19.97 32.55,-58.85 16.83,-92 -18.85,-39.75 -54.6,-48.92 -97.75,-48.92l-251.93 14.74c-45.47,6.8 -106.69,8.59 -151.4,8.59z"/>
   <path class="fil0" d="M2048.33 2348.33c-17.81,0 -27.03,-1.33 -42.9,-3.77 -12.08,-1.86 -25.88,-4.18 -31.7,-14.96 -5.58,-10.35 -15.4,-65.66 -15.4,-81.27 0,-64.14 22.44,-112.76 79,-137.87 30.38,-13.49 3.98,5.18 80.57,13.45 9.95,1.07 25.81,12.84 32.84,18.67 10.46,8.69 20.93,18.03 20.93,35.74 0,55.61 -20.4,107.57 -54.59,142.08l-12.59 10.74c-13.09,8.95 -34.76,17.18 -56.16,17.18zm-250 -110c0,76.65 16.2,154.94 54.05,199.28 5.76,6.75 7.49,9.3 14.39,15.61 5.49,5.02 10.49,9.43 16.24,13.76 51.33,38.74 120.11,41.34 185.32,41.34 52.69,0 113.28,-29.37 150.81,-62.52 59.03,-52.15 112.53,-151 112.53,-247.48 0,-118.24 -32.97,-150.86 -120.67,-209.33 -25.75,-17.17 -49.28,-35.11 -82.57,-37.43 -31.49,-2.19 -15.5,-9.9 -73.43,-9.9 -42.53,0 -115.42,32.57 -147.74,58.92 -70.64,57.57 -108.92,141.97 -108.92,237.75z"/>
   <path class="fil0" d="M728.33 2118.33c0,108.61 5.59,189.23 56.63,283.38 59.39,109.55 189.93,125.29 293.41,73.33 10.98,-5.52 21.83,-14.04 33.3,-16.7 13.22,8.85 28.25,26.67 60,26.67 43.5,0 80,-40.95 80,-73.33 0,-15.89 -14.43,-84.37 -16.57,-123.43 -2.89,-52.76 -20.59,-198.74 -33.57,-253.1 -23.99,-100.54 -159.86,-79.93 -159.86,13.2 0,53.07 23.54,235.33 -14.16,269.17 -21.53,19.33 -47.97,24.16 -79.18,24.16 -21.06,0 -39.15,-53.37 -44.72,-75.28 -34.8,-136.81 -1.94,-174.97 -1.94,-241.39 0,-82.56 -173.33,-144.97 -173.33,93.33z"/>
   <path class="fil0" d="M3804.99 2088.33c0,145.1 74,178.7 176.67,230 9.83,4.91 30.91,17.57 40,20 -40.74,76.99 -141.1,14.49 -190.06,23.11 -88.73,15.63 -121.59,176.89 116.73,176.89 94.72,0 165.91,-40.72 208.57,-111.43 39.89,-66.11 41.71,-141.14 -16,-197.81 -50.19,-49.28 -161.24,-76.94 -171.15,-108.85 -6.17,-19.86 -4.98,-42.39 1.82,-58.67 1.87,-4.49 9.55,-16.85 12.85,-20.49l20.58 -16.09c28.65,19.19 30.97,23.33 66.67,23.33 41,0 95.4,-49.83 62.36,-115.69 -9.37,-18.68 -12.93,-19.81 -26.49,-33.51 -50.54,-51.03 -127.75,-46.31 -184.03,-12.3 -73.11,44.17 -118.5,112.11 -118.5,201.5z"/>
   <path class="fil0" d="M2518.33 2531.67c119.6,0 77.47,-194.24 121.3,-305.36 23.28,-59.03 81.29,-109.82 146.3,-120.37 17.04,-2.76 28.33,-5.31 41.42,-11.91 67.03,-33.81 58.7,-149.03 -42.36,-149.03 -66.47,0 -130.51,32.8 -178.15,68.52 -14.79,11.09 -28.41,33.67 -45.19,38.15 0,-32.17 1.76,-79.37 -7.87,-102.13 -24.59,-58.09 -106.87,-67.39 -142.94,-8.68 -20.02,32.57 -6.52,140.57 -5.87,187.5 0.72,52.56 13.23,140.6 16.57,190.09 2.87,42.63 7.59,145.7 29.99,176.68 13.18,18.22 35.91,36.54 66.79,36.54z"/>
   <path class="fil0" d="M1831.66 3825c-25.74,0 -49.57,-17.75 -60,-33.33 26.93,-40.22 49.29,-34.85 93.86,-39.47 13.51,-1.4 32.69,-3.64 42.8,-3.87 -0.54,24.06 -33.66,76.67 -76.67,76.67zm6.67 -133.33c0,-9 1.59,-9.19 3.33,-16.67 8.52,-4.09 33.5,-12.01 44.34,-7.91 0.32,0.12 33.42,22.63 34.18,23.4 0.64,0.65 14.33,5.66 -7.9,7.85 -9.87,0.97 -18.94,-0.55 -29.71,0.9 -9.56,1.29 -44.25,10.17 -44.25,-7.58zm200 -46.67c-42.47,0 -77.53,-5.39 -108.15,-45.18 -11.15,-14.49 -16.96,-20.68 -25.77,-37.56 -6.17,-11.81 -14.23,-33.92 -32.74,-33.92 -25.49,0 -37.95,29.22 -30,63.33 -7.24,3.47 -20.56,9.22 -30,10 -2.59,-9.69 -6.43,-12.87 -14.53,-18.8 -40.2,-29.4 -58.8,14.29 -58.8,22.14 0,32.79 37.43,59.32 0.8,114.14 -5.67,8.49 -6.24,9.03 -15.34,14.65 -7.52,4.64 -11.69,6.12 -20.77,9.23 -19.41,6.65 -27.46,6.6 -49.47,10.53 -186.78,33.33 -135.09,-38.49 -148.89,-71.56 -8.6,-20.61 -20.67,-23.67 -36.33,-23.67 -16.56,0 -23.72,28.13 -30,40 -35.85,0 -80.49,15.04 -110.73,22.61 -17.7,4.43 -33.8,10.53 -44.49,22.18 -65.24,71.13 10.76,134.08 47.32,83.98 3.28,-4.5 7.56,-13.27 10.19,-16.47l16.38 -10.3c22.93,-9.96 58.74,-15.96 84.67,-22 17.28,25.81 51.07,55.87 86.67,56.67 -2.47,29.73 -28.89,74.84 -46.19,90.47 -5.62,5.07 -9.8,7.22 -16.41,13.59 -48.74,47.07 2.34,75.93 19.27,75.93 45.76,0 106.04,-90.58 120.04,-149.96 6.9,-29.27 -3.89,-25.87 29.8,-26.87 29.12,-0.86 64.74,-13.92 90.16,-19.84 9.48,6.35 19.94,16.26 29.97,23.37 66.83,47.39 135.15,28.94 181.43,-41.97 9.94,-15.23 33.64,-58.43 35.27,-78.06 44.56,0 7.15,9.23 93.12,3.13 25.14,-1.79 65.59,-13.62 83.54,-23.13 0,33.93 -16.67,85.48 -16.67,96.67 0,41 65.54,66.9 82.74,-3.92 8.38,-34.49 16.01,-81.26 17.41,-116.2 0.75,-18.83 -7.53,-26.65 -0.76,-40.27 5.5,-11.07 23.95,-27.91 23.95,-66.28 0,-74.87 -54.7,-64.64 -60.26,-23.6 -2.23,16.41 -6.14,24.12 -15.5,34.5 -13.35,14.81 -40.69,31.45 -58.15,41.85 -21.35,12.71 -49.54,20.59 -82.75,20.59z"/>
   <path class="fil0" d="M2008.33 1368.33c0.26,-11.5 2.45,-24.55 3.58,-39.75 3.05,-40.93 1.59,-31.53 27.28,-62.72 26.28,-31.92 91.04,-5.08 105.79,22.51 23.87,44.64 -24.03,120.52 -73.9,121.46 -19.93,0.37 -39.08,-35.97 -62.75,-41.49zm-60 143.33c20.92,0 38.57,-8.84 43.33,-26.67 11.92,0.99 20.94,9.19 32.11,14.56 90.12,43.28 224.56,-61.31 224.56,-167.89l0 -33.33c0,-107.6 -151.74,-172.61 -226.67,-136.67l3.2 -113.46c0.18,-17.86 2.93,-19.6 3.46,-36.54 1.67,-53.14 23.01,-110 -50,-110 -52.44,0 -47.82,92.17 -49.98,133.35l-5.28 88.06c-4.3,28.39 1.02,61.26 -3.33,90l-4.68 85.32c-4.12,83.25 -46.32,213.27 33.27,213.27z"/>
   <path class="fil0" d="M2928.33 1995l0 256.67c0,70.69 10.85,127.58 33.93,176.06 26.2,55.04 78.76,83.94 142.73,83.94 108.42,0 111.96,-146.57 16,-159.33 -16.29,-2.17 -18.18,9.26 -26.08,-37.25 -9.43,-55.47 -6.58,-185.67 -6.58,-250.08 0,-55.95 8.54,-112.86 -50.92,-139.08 -16.37,-7.22 -33.28,-7.92 -51.51,-3.43 -27.19,6.69 -57.57,37.94 -57.57,72.51z"/>
   <path class="fil0" d="M2781.66 1298.33c-30.91,0 -21.79,-1.82 -40,-3.33 9.5,-14.19 17.22,-18.24 34.2,-25.8 28.51,-12.69 70.13,-24.68 92.46,5.8 -14.57,3.39 -24.13,11.79 -36.98,16.35 -12.47,4.43 -32.92,6.98 -49.69,6.98zm3.33 236.67c66.22,0 96.71,-21.92 156.25,-43.75 56.27,-20.63 53.86,-96.25 -16.25,-96.25 -58.88,0 -135.06,91.22 -183.33,0 69.14,10.15 147.27,-7.9 200.6,-52.74 77.71,-65.33 -10.98,-183.93 -100.6,-183.93 -85.5,0 -158.07,29.17 -194.48,102.18 -13.08,26.22 -15.14,35.26 -16.44,72.58 -1.72,49.17 16.39,106.17 40.36,135.81 24.26,29.99 61.13,66.09 113.9,66.09z"/>
   <path class="fil0" d="M511.66 365c0,43.22 47.65,41.24 74.24,37.58l59.09 -0.91c0,88.74 10,168.2 10,256.67l0 166.67c-21.93,0 -117.94,0.24 -133.44,9.89 -29.54,18.39 -26.45,60.63 5.57,71.31 15.96,5.32 312.43,-0.14 342.27,-13.46 38.55,-17.22 30.06,-72.24 -11.41,-75.58l-122.99 4.51c0,-16.9 3.33,-18.16 3.33,-36.67 0,-34.7 1.34,-120.15 -2.42,-147.58l-10.91 -235.76c30.71,2.56 110.35,11.64 134.13,-5.87 25.63,-18.86 18.85,-61.52 -12.11,-69.48l-128.79 -4.54c-22.07,-0.61 -22.56,-3.44 -63.23,-3.44 -26.33,0 -104.77,0.08 -125.48,14.51 -8.63,6.02 -17.85,19.02 -17.85,32.15z"/>
   <path class="fil0" d="M1611.66 1311.67c0,-64.51 25.4,-86.67 93.33,-86.67 26.62,0 60,33.5 60,80 0,29.33 0.22,52.04 -20.67,72.66 -36.17,35.67 -84.13,35.41 -109.47,-2.51 -7.73,-11.57 -23.19,-44.63 -23.19,-63.48zm-100 -16.67c0,101.88 62.83,206.67 170,206.67 57.2,0 94.24,-16.13 134.19,-55.81 65.59,-65.17 62.37,-192.22 9.72,-258.09 -16.15,-20.21 -66.98,-59.43 -100.58,-59.43 -38.79,0 -78.83,-2.19 -113.36,13.31 -55.59,24.96 -99.97,83.57 -99.97,153.36z"/>
   <path class="fil0" d="M1205 1265c0,47.61 16.65,78.87 59.7,103.62 15.1,8.68 36.37,17.02 57.33,19.34 22.97,2.55 55.67,-4.6 72.96,3.7 -11.74,16.02 -63.27,28.2 -88.69,34.64 -21.45,5.44 -37.86,-2.98 -56.06,7.27 -35.45,19.96 -31.93,94.75 38.08,94.75 32.67,0 114.77,-25.27 136.77,-36.56 100.19,-51.41 94.26,-176.6 8.58,-195.46 -41.7,-9.18 -72.71,-0.73 -102.54,-7.46 -17.78,-4.01 -13.1,-7.04 -26.14,-10.52 2.41,-29 59.34,-57.22 71.22,-58.71 11.25,-1.41 23.52,8.71 35.44,8.71 74.16,0 64.09,-106.67 -16.67,-106.67l-23.33 0c-64.2,0 -166.67,81.64 -166.67,143.33z"/>
   <path class="fil0" d="M2104.99 701.67c25.77,18.88 1.69,83.33 56.67,83.33 38.08,0 34.06,-37.39 50.82,-55.85 19.96,-21.97 28.54,-13.85 38.04,0.31 36.78,54.81 14.46,104.91 14.46,128.87 0,53.25 86.67,52.09 86.67,-33.33 0,-40.26 0.32,-64.4 -14.22,-102.45 -54.77,-143.37 -160.13,-68.87 -165.78,-67.55 -6.68,-25.02 -38.81,-36.67 -70,-36.67 -30.4,0 -33.99,18.05 -56.67,23.33 0,-61.49 -75.72,-62.41 -80.08,-3.19l6.26 80.34c5.09,45.41 -2.68,129.93 13.82,159.52 12.16,21.81 70.05,50.61 80.01,-43.33 4.44,-41.94 13.95,-115.9 39.99,-133.34z"/>
   <path class="fil0" d="M1175 625c-49.41,0 -73.07,83.33 23.33,83.33l16.67 0c0,50.39 2.39,75.59 10.43,122.91 8.43,49.61 10.7,73.76 52.9,73.76 62.14,0 16.67,-100.83 16.67,-193.33 0,-14.99 40.37,-10.32 81.39,-18.61 14.48,-2.93 29.41,-4.01 39.55,-10.45 37.99,-24.16 13,-74.28 -17.61,-74.28 -17.96,0 -59.47,13.33 -100,13.33 1.09,-48.96 25.7,-102.53 55.56,-124.44 46.17,-33.89 127.78,9.4 127.78,-58.89 0,-59.91 -134.74,-50.8 -197.56,12.44 -37.33,37.57 -59.05,99.31 -64.74,151.93 -4.36,40.31 -0.61,22.31 -44.36,22.31z"/>
   <path class="fil0" d="M2291.66 1201.67c0,95.91 -3.3,149.22 12.38,244.28 6.6,40.04 13.26,89.05 57.62,89.05 50.15,0 49.81,-46.81 52.72,-70.61 1.93,-15.77 2.62,-23.02 4.56,-38.78 3.65,-29.77 10.52,-75.67 18.96,-104.37l10.43 -32.91c28.45,0 79.69,-7.77 104.26,-12.41 24.56,-4.63 46.46,-9.29 58.55,-31.44 17.52,-32.1 -3.3,-60.06 -24.17,-68.21 -22.87,-8.93 -83.57,10.14 -131.95,12.08 -28.74,1.16 -43.84,6.33 -63.35,16.65 0,-25.86 1.73,-33.69 -8.72,-51.29 -19.91,-33.54 -91.28,-38.09 -91.28,47.95z"/>
   <path class="fil0" d="M3608.33 3038.33zm0 0zm0 0c-6.51,-78.17 -135.13,-34.31 -160.58,-13.91 -12.19,9.77 -29.5,28.28 -34.21,45.8 -7.38,27.39 0.41,45.92 13.78,59.13 55.28,54.63 143.34,8.54 184.34,-1.01 -3.97,17.03 -36.76,58.8 -49.61,93.72 -28.2,76.64 35.3,129.45 135.52,28.85 55.72,-55.93 1.32,-87.26 -2.57,-92.57l14.67 -15.33c12.94,-12.57 19.61,-19.17 19.03,-37.95 -0.5,-15.93 -5.78,-20.7 -11.96,-31.8 -9.65,-17.31 -2.85,-17.41 -5.37,-37.96 -2.61,-21.35 -23.15,-40.33 -51.12,-31.9 -31.1,9.37 -7.27,24.53 -51.91,34.93z"/>
   <path class="fil0" d="M2531.66 2851.66zm3.33 -6.67l-3.33 6.67zm3.33 -6.67l-3.33 6.67 3.33 -6.67zm3.33 -6.67l-3.33 6.67 3.33 -6.67zm0 0l1.83 -7.17 -1.83 7.17zm-93.33 36.67c0,25.46 10.18,42.29 26.67,53.33 -1.49,6.4 -6.67,19.02 -6.67,23.33 0,27.88 44.81,65.18 93.83,3.83 12.6,-15.76 26.59,-37.05 39.5,-40.5 15.83,67.97 104.3,7.67 126.67,-3.33l95.43 -54.57c31.95,-25.53 17.48,-72.09 -22.09,-72.09 -22.91,0 -89.81,44.22 -113.33,56.67 -0.94,-42.44 -33.43,-43.33 -60,-43.33 0,-69.53 -89.18,-103.69 -146.07,-19.41 -17.44,25.82 -33.93,54.01 -33.93,96.07z"/>
   <path class="fil0" d="M3404.99 638.33c0,52.35 3.57,181.88 13.98,226.02 10.14,42.96 73.48,52.33 79.72,-8.99 2.5,-24.54 5.5,-45.48 13.87,-66.13 13.3,-32.81 36.5,-80.2 62.43,-97.57 14.46,7.65 22.11,10.11 32,24.67 34.83,51.28 -2,101.83 -2,142 0,34.59 59.39,63.56 82.16,-4.5 15.03,-44.92 14.5,-55.63 14.5,-102.16 0,-67.39 -96.55,-207.54 -199.22,-102.56 -7.24,7.41 -10.78,14.34 -17.44,19.22 0,-17.47 1.93,-40.89 -3.65,-53.02 -17.51,-38.08 -76.35,-29.4 -76.35,23.02z"/>
   <path class="fil0" d="M2444.99 775c0,-23.13 8.94,-37.33 21.31,-52.03 14.32,-17.02 32.61,-24.64 55.36,-24.64 0,78.19 30.91,126.67 -36.67,126.67 -22.19,0 -40,-26.53 -40,-50zm-80 -10c0,164.11 171.56,162.43 206.67,110 26.41,6.15 19.67,15.33 65.57,2.24 32.22,-9.19 44.43,-13.35 44.43,-45.58 0,-47.54 -58.17,-33.76 -63.33,-33.33 -12.65,-54.29 -11.42,-103.93 -25.18,-128.15 -4.13,-7.27 -2.35,-4.61 -5.24,-11.43 -14,-33.03 -45.37,-40.42 -79.58,-40.42 -70.3,0 -143.33,76.38 -143.33,146.67z"/>
   <path class="fil0" d="M1628.33 751.67c0,36.38 -22.57,80 -53.33,80 -38.77,0 -30.25,2.41 -51.11,-15.56 -47.25,-40.69 -27.79,-107.38 14.18,-108.05 28.51,-0.45 90.27,-15.85 90.27,43.6zm-76.67 -123.33c-14.63,0 -29.33,-5.53 -57.72,5.61 -11.65,4.57 -33.8,19.86 -40.99,29 -59.18,75.17 -48.49,159.61 26.13,221.3 83.91,69.37 229.25,19.74 229.25,-139.25 0,-64.56 -62.38,-123.33 -126.67,-123.33 -13.24,0 -16.76,6.67 -30,6.67z"/>
   <path class="fil0" d="M2791.66 3305c0,17.66 19.61,40 36.67,40 35.32,0 55.81,-36.6 113.33,-50 36.02,24.11 51.6,92.65 180,6.67 9.89,7.24 3.66,5.48 12.83,13.84 36.18,32.99 73.83,13.42 100.15,5.41 18.14,-5.52 20.69,7.41 40.36,7.41 31.41,0 56.3,-11.32 83.51,-13.16 23.34,-1.57 59.83,3.25 59.83,-43.51 0,-32.94 -35.96,-36.67 -60,-36.67 -28.03,0 -44.06,10 -70,10 -14.91,0 -5.74,-10 -40,-10 -28.77,0 -38.45,11.65 -60,16.67 -11.53,-8.44 -12.59,-18.8 -31.22,-28.8 -48.01,-25.78 -96.33,30.46 -132.12,38.8 -35.15,-23.53 -54.57,-82.51 -171.09,-17.76 -7.77,4.31 -11.1,7.23 -18.26,11.74 -14.93,9.4 -43.98,22.81 -43.98,49.35z"/>
   <path class="fil0" d="M3171.66 788.33c0,-23.19 -0.3,-45.44 16.57,-60.09 27.49,-23.88 54.35,-37.41 78.87,-5.35 24.24,31.68 38.49,118.78 -45.44,118.78 -18.53,0 -50,-18.76 -50,-53.33zm-80 -20c0,46.91 1.78,76.9 37.44,112.56 57.25,57.24 144.74,51.97 196.8,1.69 12.51,-12.08 22.78,-22.5 30.2,-39.8 22.9,-53.42 9.91,-116.44 -20.38,-161.84 -76.68,-114.9 -244.06,-38.12 -244.06,87.39z"/>
   <path class="fil0" d="M935 901.67c21.37,0 37.9,-5.06 44.72,-31.94 5.03,-19.83 1.5,-23.83 12.29,-57.71 8.3,-26.08 29.26,-74.48 59.65,-77.01 5.99,25.71 23.33,55.88 23.33,110 0,18.35 -6.67,3.86 -6.67,36.67 0,49.02 86.67,45.99 86.67,-23.33 0,-64.6 -17.13,-206.67 -100,-206.67 -29.84,0 -60.77,16.73 -79.22,34.11 -8.16,7.68 -11.7,13.14 -20.78,19.22 0,-98.31 -86.37,-73.65 -82.96,-20.58l24.88 162c2.46,16.53 1.89,25.69 9.34,37.33 5.73,8.95 15.4,17.92 28.75,17.92z"/>
   <path class="fil0" d="M2951.66 1695c0,40.15 31,80 70,80 24.89,0 34.56,2.14 54.79,-11.87 33.22,-22.99 44.19,-41.89 79,-67.67 19.04,-14.1 35.15,-27.64 53.93,-42.74 36.83,-29.62 38.95,-40.91 38.95,-84.39 0,-14.66 -15.22,-38.21 -24.18,-45.82 -47.23,-40.14 -89.18,-15.2 -123.95,11.03l-112.69 93.97c-14.41,12.53 -35.85,42.56 -35.85,67.49z"/>
   <path class="fil0" d="M3104.99 2821.66c0,32.57 23.44,48.54 53.95,69.38 58.08,39.68 117.46,39.85 176.05,0.62 12.08,8.09 16.36,16 32.17,24.5 80.96,43.52 143.83,-37.19 155.3,-40.35 4.35,-1.2 35.25,0.44 70.15,-6.52 69.46,-13.87 40.59,-80.95 9.05,-80.95 -26.47,0 -38.39,6.67 -63.33,6.67 -35.86,0 -42.7,-8.76 -67.6,15.73 -91.16,89.66 -60.01,-9.07 -135.73,-9.07 -30.61,0 -41.13,36.67 -93.33,36.67 -30.85,0 -51.27,-27.14 -71.82,-41.52 -34.52,-24.14 -64.85,-0.73 -64.85,24.85z"/>
   <path class="fil0" d="M2808.33 898.33c27.7,0 100,-15.07 100,-53.33 0,-72.48 -88.75,-26.67 -96.67,-26.67 -16.83,0 -46.67,-19.83 -46.67,-40 0,-39.02 8.74,-79.16 52.11,-88.27 21.92,-4.6 1.64,8.27 41.22,8.27 19.27,0 36.67,-19.19 36.67,-36.67 0,-26.02 -31.9,-53.33 -73.33,-53.33 -116.54,0 -181.89,166.98 -107.59,244.26 20.11,20.92 55,45.74 94.26,45.74z"/>
   <path class="fil0" d="M1791.66 901.67c65.32,0 34.51,-65.22 58.68,-134.65 25.74,-73.93 51.81,-21.74 87.49,-45.84 42.56,-28.74 5.61,-96.69 -79.65,-73 -16,4.44 -23.96,13.47 -36.52,16.83 0,-61.82 -53.22,-65.26 -72.84,-36.17 -12.36,18.31 -6.6,62.94 -4.31,83.33 1.68,14.98 -0.58,30.98 0.66,46 1.74,21.06 6.27,107.33 16.39,123.61 5.71,9.19 15.34,19.9 30.11,19.9z"/>
   <path class="fil0" d="M2921.66 775c0,29.57 8.7,74.41 19.39,93.95 26.49,48.44 117.28,64.98 117.28,-0.62 0,-22.96 -22.26,-36.67 -46.67,-36.67 -19.11,-82.04 6.9,-181.05 -5.61,-211.04 -11.23,-26.92 -57.01,-33.87 -71.63,0.46 -5.97,14.02 -12.76,129.43 -12.76,153.91z"/>
   <path class="fil0" d="M1974.99 3598.33c11.5,0 24.69,-5.96 30.72,-12.61 48.66,-53.68 -49.89,-199.81 -104.23,-114.06 -9.93,15.67 -1.88,34.77 6.89,49.96 13.03,22.56 42.26,76.72 66.61,76.72z"/>
   <path class="fil0" d="M1638.33 3578.33c0,107.07 90,101.39 90,83.33 0,-14.2 -13.33,-30.51 -13.33,-53.33 0,-26.8 26.67,-46.93 26.67,-50 0,-22.28 -23.7,-43.33 -46.67,-43.33 -27.83,0 -56.67,35.42 -56.67,63.33z"/>
   <path class="fil0" d="M3301.66 521.67c0,24 7.23,43.33 40,43.33 22.51,0 36.54,-23.8 51.36,-35.31 28.66,-22.24 41.98,-25.08 41.98,-58.02 0,-29.99 -36.11,-47.74 -72.91,-19.57 -19.61,15 -60.43,42.55 -60.43,69.57z"/>
   <path class="fil0" d="M2928.33 458.33c0,71.67 86.67,72.96 86.67,-3.33 0,-50.74 -86.67,-57.43 -86.67,3.33z"/>
   <path class="fil0" d="M1681.66 3721.66c7.67,-1.79 26.19,-7.17 32.15,-11.22 4.74,-3.22 6.78,-5.42 9.86,-10.72 12.76,-21.92 -20.91,-5.57 -28.7,-1.43 -9.88,5.26 -12.98,8.4 -13.31,23.36z"/>
  </g>
 </g>
</svg>
