<?xml version="1.0" encoding="UTF-8"?>
<!DOCTYPE svg PUBLIC "-//W3C//DTD SVG 1.1//EN" "http://www.w3.org/Graphics/SVG/1.1/DTD/svg11.dtd">
<!-- Creator: CorelDRAW 2021 (64-Bit) -->
<svg xmlns="http://www.w3.org/2000/svg" xml:space="preserve" width="5.11811in" height="5.11811in" version="1.1" style="shape-rendering:geometricPrecision; text-rendering:geometricPrecision; image-rendering:optimizeQuality; fill-rule:evenodd; clip-rule:evenodd"
viewBox="0 0 5118.11 5118.11"
 xmlns:xlink="http://www.w3.org/1999/xlink"
 xmlns:xodm="http://www.corel.com/coreldraw/odm/2003">
 <defs>
  <style type="text/css">
   <![CDATA[
    .fil0 {fill:#964D8A}
    .fil2 {fill:#964D8A}
    .fil1 {fill:#FEFEFE}
   ]]>
  </style>
 </defs>
 <g id="Capa_x0020_1">
  <metadata id="CorelCorpID_0Corel-Layer"/>
  <g id="_2474121407600">
   <polygon class="fil0" points="113.67,4983.61 5002.56,4983.61 5002.56,136.39 113.67,136.39 "/>
   <path class="fil1" d="M1326.84 2767.31l2525.16 6.86 3.98 -319.54c-131.33,-2.66 -2433.8,-15.47 -2528.34,7.28l-0.8 305.41z"/>
   <polygon class="fil1" points="3838.89,1387.54 1347.07,1387.7 1343.47,1678.34 3842.5,1677.36 "/>
   <polygon class="fil1" points="1349.71,3839.29 3835.96,3839.3 3841.75,3550.38 1342.54,3551.83 "/>
   <path class="fil2" d="M3838.89 1387.54l3.61 289.82 -2499.03 0.98 3.59 -290.64c-34.58,20.27 -19.14,24.16 -19.43,137.57 -0.13,52.52 -3.97,106.17 2.74,157.89 70.19,20.44 2454.48,20.52 2524.81,0.06l3.86 -228.29c-1.59,-65.57 8.03,-40.53 -20.17,-67.39z"/>
   <path class="fil2" d="M1349.71 3839.29l-7.17 -287.45 2499.2 -1.45 -5.79 288.92c37.4,-13.42 22.59,-84.92 22.61,-133.45 0.02,-52.59 4.43,-106.39 -3.55,-157.96 -59.5,-21.17 -2463.51,-21.55 -2524.48,-0.1 -7.44,47.74 -4.13,95.33 -3.74,144.16 0.21,26.64 -1.56,59.05 -0.61,84.46 2.69,71.77 -7.08,42.36 23.52,62.89z"/>
  </g>
 </g>
</svg>
