<?xml version="1.0" encoding="UTF-8"?>
<!DOCTYPE svg PUBLIC "-//W3C//DTD SVG 1.1//EN" "http://www.w3.org/Graphics/SVG/1.1/DTD/svg11.dtd">
<!-- Creator: CorelDRAW 2021 (64-Bit) -->
<svg xmlns="http://www.w3.org/2000/svg" xml:space="preserve" width="5.11811in" height="5.11811in" version="1.1" style="shape-rendering:geometricPrecision; text-rendering:geometricPrecision; image-rendering:optimizeQuality; fill-rule:evenodd; clip-rule:evenodd"
viewBox="0 0 5118.11 5118.11"
 xmlns:xlink="http://www.w3.org/1999/xlink"
 xmlns:xodm="http://www.corel.com/coreldraw/odm/2003">
 <defs>
  <style type="text/css">
   <![CDATA[
    .fil0 {fill:#DC6749}
    .fil1 {fill:#FFFDFD}
   ]]>
  </style>
 </defs>
 <g id="Capa_x0020_1">
  <metadata id="CorelCorpID_0Corel-Layer"/>
  <g id="_2438016984176">
   <path class="fil0" d="M3609.12 2818.21l-23.32 1185.25 -2069.2 -0.06 -23.06 -1185.19c-199.86,-0.01 -871.07,94.16 -474.56,-248.76 163.04,-141.01 351.26,-327.36 504.33,-481.71 117.72,-118.7 941.62,-928.58 1023.01,-932.75 98.21,-5.03 1290.55,1195.33 1529.79,1407.78 396.25,351.88 -249.43,255.43 -466.98,255.43zm-3453.78 2165.4l4805.55 0 0 -4847.22 -4805.55 0 0 4847.22z"/>
   <path class="fil1" d="M2196.47 3788.99c-30.42,-83.04 -11.83,-428.81 -14.49,-542.83 -5.76,-246.82 131.19,-165.09 376.13,-165.1 265.16,-0.01 367.47,-82.91 361.83,179.4 -2.41,112.3 16.17,445.69 -14.11,528.47l-709.36 0.06zm1412.65 -970.78c217.55,0 863.23,96.44 466.98,-255.43 -239.24,-212.45 -1431.57,-1412.81 -1529.79,-1407.78 -81.39,4.17 -905.3,814.05 -1023.01,932.75 -153.07,154.35 -341.29,340.7 -504.33,481.71 -396.51,342.92 274.7,248.75 474.56,248.76l23.06 1185.19 2069.2 0.06 23.32 -1185.25z"/>
   <path class="fil0" d="M2196.47 3788.99l709.36 -0.06c-0.27,-88.56 3.44,-417 5.85,-529.3 -0.63,-232.09 -83.31,-176.45 -353.57,-183.09 -244.94,0.01 -369.33,-22.43 -367.87,171.27 2.66,114.02 4.71,458.13 6.23,541.17z"/>
  </g>
 </g>
</svg>
