<?xml version="1.0" encoding="UTF-8"?>
<!DOCTYPE svg PUBLIC "-//W3C//DTD SVG 1.1//EN" "http://www.w3.org/Graphics/SVG/1.1/DTD/svg11.dtd">
<!-- Creator: CorelDRAW 2021 (64-Bit) -->
<svg xmlns="http://www.w3.org/2000/svg" xml:space="preserve" width="18.1102in" height="5.11811in" version="1.1" style="shape-rendering:geometricPrecision; text-rendering:geometricPrecision; image-rendering:optimizeQuality; fill-rule:evenodd; clip-rule:evenodd"
viewBox="0 0 18110.24 5118.11"
 xmlns:xlink="http://www.w3.org/1999/xlink"
 xmlns:xodm="http://www.corel.com/coreldraw/odm/2003">
 <defs>
  <style type="text/css">
   <![CDATA[
    .fil3 {fill:#9C4F85}
    .fil5 {fill:#A05181}
    .fil0 {fill:#A15180}
    .fil4 {fill:#A5527D}
    .fil2 {fill:#A6537B}
    .fil1 {fill:#FDFDFD}
   ]]>
  </style>
 </defs>
 <g id="Capa_x0020_1">
  <metadata id="CorelCorpID_0Corel-Layer"/>
  <g id="_2474124004400">
   <path class="fil0" d="M15026.06 1949.16c60.46,-5.43 102.78,1.26 141.55,23.55l77.14 731.55c14.1,123.72 17.77,242.2 36.69,363.72 15.79,101.41 59.98,264.2 29.44,345.63 -138.78,24.9 -112.78,-53.57 -149.22,-333.8l-214.91 -29.65c-8.24,55.21 -41.09,306.71 -74.91,342.44 -23.1,24.41 -76.31,29.64 -102.74,-6.65 -24.98,-34.3 73.48,-383.33 88.17,-453.41 32.73,-156.18 64.62,-316.8 90.05,-479.95 20.02,-128.43 35.45,-411.57 78.75,-503.45zm-10534.99 1460.46c-41.84,1.24 -55.02,-5.67 -81.09,-23.03 -8.19,-64.5 121.18,-585.78 142.96,-703.44 24.81,-134.02 85.3,-672.05 120.97,-736.94 196.68,0.06 125.92,-12.43 173.23,405.02l81.48 722.76c13.59,88.13 67.78,272.92 20.78,339.13 -115.49,22.25 -106.79,-28.37 -114.49,-124.13 -5.64,-70.1 -16.46,-136.14 -27.67,-205.31l-213.34 -31.78c-28.99,130.77 -25.96,293.08 -102.83,357.72zm3768.69 -495.46c-14.15,-216.41 -27.29,-793.07 86.39,-936.55 54.53,-68.82 436.06,-96.4 470.96,502.79 15.42,264.7 28.69,716.69 -121.15,888.51 -95.9,109.97 -265.98,86.67 -334.15,-33.69 -67.8,-119.69 -92.11,-268.89 -102.06,-421.07zm7662.74 515.01c-123.84,30.34 -162.65,-192.61 -190.76,-323.74l-69.08 -334.07c-11.6,-55.14 -3.98,-72.77 -50.36,-95.7 -0.63,129.97 -4.21,261.6 1.37,391.36 5.11,118.83 44.27,247.11 19,353.07 -107.33,1.67 -97.32,-35.16 -95.67,-130.77 6.06,-351.73 -25.62,-761.79 -35.36,-1125.16 -1.46,-54.38 -16.25,-174.67 38.14,-200.6 55.12,-26.29 146.27,4.08 191.7,29.5 119.94,67.11 123.03,179.17 111.38,352.19 -19.59,290.92 -196.55,30.55 -14.66,731.44 50.71,195.43 122.31,257.88 94.31,352.48zm-1287.89 -12.3c-0.17,0.16 -18.59,53.21 -75.44,-0.57 -102.56,-97.01 -171.45,-639.67 -198.18,-704.48 -23.65,-57.36 6.57,-17.72 -37.61,-36.21 -0.67,133.02 -6.06,273.33 2.96,405.49 8.46,123.95 42.06,239.17 18.51,340.08 -143.07,-1 -89.01,-22.67 -97.93,-373.04l-32.55 -883.98c-0.95,-65.62 -13.98,-176.42 33.89,-200.39 49.33,-24.7 154.31,7.11 193.78,27.43 121.62,62.58 118.97,171.37 113.01,340.35 -5.74,162.68 -124.16,226.95 -99.53,352.41 35.43,180.5 70.85,387.1 138.02,558.15 24.26,61.78 67.39,112.55 41.06,174.77zm-9145.89 -1197.15c0,197.73 3.42,189.46 -86.84,355.18 -41.17,75.6 4.27,190.31 21.92,280.48 19.85,101.41 41.6,195.25 70.75,291.21 26.3,86.58 94.11,191.38 77.89,267.58 -116.3,85.71 -173.46,-204.39 -194.64,-303.84 -16.14,-75.81 -30.16,-155.94 -46.3,-229.54 -8.78,-40.04 -16.87,-79.7 -24.5,-114.65 -23.91,-109.55 -22.13,-74.3 -38.15,-88.6 -37.58,80.76 -9.6,463.97 9.83,586.04 11.56,72.67 37.11,113.57 -23.72,157.7 -63.28,-5.02 -71.64,-10.09 -73.89,-75.59l-4.42 -418.24c-5.84,-170.58 -13,-342.38 -21.7,-513.6 -4.46,-87.7 -6.31,-175.4 -7.59,-263.57 -1.25,-85.74 -17.88,-182.89 66.41,-193.51 135.6,-17.08 274.94,65.3 274.94,262.96zm3667.8 1138.89c-127.88,152.54 -133.26,-106.24 -133.65,-194.44 -0.64,-143.52 -1.39,-287.04 -2.03,-430.56 -0.65,-144.88 0.53,-286.08 4.91,-430.94 4.13,-136.81 -16.35,-280.94 90.33,-336.98 110.88,-11.36 249.8,467.57 276.98,560.02l196.78 641.2c25.56,-181.57 28.48,-386.48 35.22,-572.09 3.94,-108.46 -10.69,-546.89 22.65,-607.11l65.31 -7.52c61.96,67.06 35.36,283.77 33.07,378.42l-35.5 777.52c-3.84,58.11 -10.54,129.21 -20.92,184.64 -15.25,81.46 -37.26,95.52 -129.15,79.15 -42.92,-50.88 -63.48,-226.28 -87.54,-300.35 -33.52,-103.21 -68.55,-203.45 -102.98,-300.45 -38.81,-109.31 -178.59,-516.43 -225.14,-578.88l-4.96 999.95c1.49,71.06 20.85,75.44 16.63,138.41zm-7322.72 10.21c-140.94,121.67 -130.15,-125.65 -130.57,-218.54l2.47 -833.65c4.19,-139.56 -17.26,-294.87 90.93,-350.99 111.57,-11.3 249.15,467.57 277.05,560.13 32.44,107.63 63.74,216.89 93.74,323.11 15.37,54.43 30.41,106.11 46.49,161.37 7.1,24.39 14.77,51.95 22,75.47 3.99,12.97 8.68,30.38 13.59,42.49 1.68,4.15 7.29,16.59 9.04,20.04l11.9 18.69c35.21,-254.46 32.52,-1133.4 57.74,-1179.28l65.4 -7.49c61.96,67.08 35.39,283.72 33.09,378.44 -3.13,128.89 -7.04,260.37 -13.31,388.63 -6.56,133.95 -19.46,447.55 -43.07,573.55 -15.28,81.53 -37.33,95.47 -129.21,79.18 -42.83,-50.74 -63.59,-226.24 -87.6,-300.35 -58.78,-181.46 -262.86,-778.98 -327.96,-879.29 -16.54,144.61 8.32,1148.35 8.29,1148.49zm8761.45 37.41c-26.4,-90.75 -12,-1611.74 3.59,-1635.48 52.86,-80.48 459.99,53.07 277.34,570.08 -46.3,131.05 -65.47,110.08 -40.35,268.41 40.87,257.6 232.41,687.85 205.72,773.46 -14.49,46.5 -57.28,49.46 -94.52,20.89 -45.59,-34.96 -56.64,-233.94 -97.5,-390.24 -29.7,-113.62 -135.31,-409.09 -141.46,-495.82 -49.11,229.84 26.53,648.94 -17.3,892.76l-95.51 -4.06zm6155.91 -877.24c304.32,-7.5 149.91,110.7 142.69,113.38l-139.76 0.1 -3.58 675.56c94.17,-2.05 181.37,-26.31 240.93,26.69 5.69,98.92 -60.27,85.44 -153.12,85.61 -213.17,0.37 -216.93,50.86 -207.93,-543.94l7.46 -827.84c0.48,-2.39 12.04,-39.54 12.22,-39.87 63.55,-121.17 321.87,4.84 330.65,34.37 -4.4,47.78 -17.41,53.24 -47,78.68l-175.91 -38.54 -6.65 435.79zm-5405.24 -0.08c110.71,-2.52 200.44,-25.52 178.25,100.47 -68.04,23.89 -90.61,13.62 -175.6,13.13l-1.94 675.41c73.18,-1.46 167.83,-21.28 227.78,12.86 43.76,84.19 -38.27,99.37 -111.11,99.37 -275.39,0 -249.19,71.79 -234.55,-752.09 2.11,-119 8.21,-242.75 7.11,-361.11 -1.31,-140.7 -32.63,-225.71 26.3,-337.37 65.61,-12.87 125.02,-5.69 194.13,11.39 80.9,19.99 119.37,22.11 116.62,107.44 -61.55,57.46 -125.77,11.66 -222.18,-3.69l-4.81 434.18zm-4604.85 901.33c-156.49,0 -125.76,-36.74 -136.13,-377.18 -7.27,-238.63 17.97,-591.3 9.53,-763.99 -10.08,-206.41 -53.19,-351.9 162.38,-310.9 138.97,26.44 236.12,55.6 128.46,156.75l-172.7 -38.67 -6.46 432.65c87.75,-2.11 130.07,-17.06 180.22,38.04 0.09,108.68 -87.22,76.08 -174.11,75.77l-7.31 675.26c91.93,-2.1 179.62,-26.35 238.81,26.74 5.01,87.79 -38.61,85.51 -125.46,85.51l-97.22 0zm6364.15 -121.33c110.52,19.8 150.66,13.67 190.87,-76.04 29.6,-66.03 43.46,-169.02 39.07,-247.51 -16.71,-298.55 -353.06,-518.64 -234.55,-878.49 98.2,-298.2 340.54,-125.79 265.44,-54.59 -54.87,52.02 -118.64,-60.07 -162.88,102.09 -69.85,256.02 106.17,415.6 196.9,628.55 64.75,151.99 57.75,333.09 -4.16,480.14 -94.12,223.56 -396.98,193.06 -290.69,45.84zm-5686.02 -1256.32c-87.94,35.52 -122.08,-44.46 -165.85,83.02 -134,390.26 402.1,626.77 191.95,1121.61 -99.04,233.2 -356.08,192.22 -313.82,77.72 25.94,-70.3 233,114.04 249.7,-294.87 13.62,-333.52 -340.97,-536.84 -242.94,-910.53 66.66,-254.09 306.91,-231.52 280.97,-76.95zm-3780.82 -77.37c47.66,139.17 -87.7,74.12 -165.13,102.59 -133.83,49.22 -123.13,589.19 -125.48,711.37 -3.18,165.13 -24.65,377.88 80.22,479.72 91.83,89.18 159.87,8.58 209.74,38.85 37.54,22.78 49.94,132.46 -119.15,123.61 -190.09,-9.94 -248.09,-102.74 -283.38,-276.16 -30.99,-152.31 -23.43,-369.52 -21.8,-532.7 1.68,-168.41 9.17,-344.85 69.58,-485.51 65.91,-153.46 262.58,-216.86 355.4,-161.79zm12713.97 80.86l-116.74 4.78c-178.49,330.76 110.96,520.65 179.38,790.64 37.92,149.64 27.7,321.35 -41.84,444.46 -29.04,51.41 -76.01,101.21 -143.52,120.74 -194.82,56.37 -151.29,-120.96 -135.97,-95.09 2.06,3.47 7.73,-4.4 10.69,-4.8 67.02,-9.06 123.44,42.6 178.06,-69.78 212.6,-437.35 -334.93,-718.49 -187.2,-1145.08 23.52,-67.93 73.76,-142.44 134.97,-157.8 41.11,-10.31 84.17,-4.99 115.02,19.29 18.26,14.37 22.09,13.82 27.79,40.48 8.02,37.51 -19.34,43.71 -20.64,52.15zm-2472.38 1338.1c-64.09,-27.43 -50.39,-25.59 -51.55,-118.48l-67.06 -1201.25c-84.15,-3.45 -158.51,-1.97 -174.79,-76.93 51.24,-59.64 133.31,-31.7 224.55,-26.07 75.49,4.66 177.03,0.15 232.68,27.23 18.94,122.03 -77.78,90.94 -166.1,80.15 -8.91,254.25 97.72,1206.63 65.07,1273.63 -17.84,18.26 -29.73,30.74 -62.81,41.72zm-1140.63 -1328.31l6.85 1192.48c87.38,13.63 102.33,-10.6 173.93,28.17l2.42 63.84c-67.64,45.24 -60.3,33.96 -167.57,33.96 -77.73,0 -165.02,4.96 -224.96,-19.37l4.48 -71.82c35.26,-19.89 42.48,-16.19 91.58,-21.64 17.51,-162.68 -11.5,-425.84 -8,-607.31 2.81,-145.47 24.65,-466.85 -7.81,-590.7 -91.81,0.65 -170.14,25.57 -143.14,-86.04 71.46,-38.17 362.6,-35.11 438.32,-3.07 10.14,105.59 -67.53,81.49 -166.1,81.49zm-638.15 1226.41c19.93,-12.07 32.17,-6.88 53.13,-76.65 10.95,-36.45 15.85,-69.44 19.23,-106.19 7.64,-83.15 5.83,-170.24 5.74,-253.83 -78.03,-3.63 -101.6,1.86 -162.96,-19.09l2.21 -73.56c79.41,-40.72 258.94,-22.9 284.71,20.76 15.03,59.6 -6.93,105.42 -11.35,171.76 -3.98,59.77 3.1,133.85 5.71,194.85 5.71,133.44 -38.34,209.28 -141.58,248.35 -265.9,100.61 -373.36,-123.39 -403.2,-343.44 -20.55,-151.6 -23.61,-600.52 7.63,-747.28 24.02,-112.84 47.65,-200.45 120.44,-268.02 63.04,-58.52 228.09,-133.48 272.42,-14.65 -52.35,148.51 -151.76,-81.17 -229.2,210.56 -33.91,127.76 -46.45,263.16 -50.54,400.55 -3.46,116.57 -20.51,760.95 227.59,655.87zm-4015.72 -1294.76c-7.29,89.35 -76.63,68.35 -168.38,68.35l2.19 1197.94c95.77,-0.69 115.56,-14 178.59,27.85 6.9,110.43 -56.89,93.45 -162.31,92.74 -94.26,-0.63 -179.62,16.76 -230.44,-39.66 6.75,-74.1 20.72,-69.02 97.89,-69.6 12.7,-190.13 -15.88,-400.54 -8.39,-597.06 7.52,-197.16 13.9,-404.83 -0.37,-601.3 -46.63,-4.04 -121.81,9.05 -149.01,-26 -96.9,-124.91 374.78,-112.74 440.23,-53.26zm-1760.81 58.61l-116.73 4.82c-176.61,327.59 107.43,520.36 179.56,789.88 40.37,150.83 26.68,323.46 -42.01,445.21 -98.79,175.09 -341,160.51 -289.83,31.6 3.35,-2.1 8.09,-9.62 10.18,-6.1l49.66 -5.72c36.22,1.79 90.63,30.78 139.06,-68.86 31.65,-65.11 48.85,-169.78 46.29,-249.92 -5.06,-158.69 -100.72,-303.5 -166.62,-420.5 -230.45,-409.13 24.82,-737.69 183.23,-613.15 18.09,14.22 22.19,14.07 27.85,40.48 3.19,14.86 3.29,14.39 -1.63,28.06 -0.87,2.41 -3.69,6.42 -4.79,8.52 -1.17,2.22 -5.5,6.13 -6.65,7.89 -1.22,1.85 -7.01,4.21 -7.56,7.79zm-2251.9 9.83c3.29,306.74 -9.8,919.9 6.85,1192.25 87.39,13.75 102.5,-10.84 173.93,28.28l2.44 63.93c-67.74,45.3 -60.09,34.02 -167.68,34.02 -77.98,0 -164.97,5.01 -225,-19.48l4.42 -71.94c35.28,-19.85 42.53,-16.19 91.67,-21.53 17.07,-162.33 -11.57,-426.56 -8.09,-607.3 2.77,-144 24.74,-468.16 -7.7,-590.69 -92.16,0.7 -170.02,25.73 -143.26,-86.17 71.87,-37.97 362.62,-35.15 438.57,-3.06 10,105.9 -67.22,81.69 -166.15,81.69zm-1030.32 -8.8l-160.24 11.54c0.48,332.16 -10.37,888.41 6.22,1195.01 82.83,-0.77 111.73,-8.28 174.99,18.78 4.63,118.42 -63.54,101.96 -183.45,101.94 -76.17,-0.02 -152.5,6.64 -206.82,-23.42 -4.82,-90.03 11.68,-85.33 96.36,-85.88 7.82,-156.61 -11.12,-326.59 -11.87,-485.94 -0.45,-95.88 32.11,-657.11 -6.7,-701.19 -24.31,-27.62 -65.66,-5.51 -107.44,-16.6 -54.28,-14.41 -95.85,-107.76 97.58,-107.76 156.93,0 155.89,-4.83 308.03,14.46l-6.67 79.06zm-1636.64 1209.39c80.1,-2.41 129.06,4.58 134.37,85.63 -54.84,55.47 -118.48,46.82 -216.08,45.79 -46.93,-0.49 -222.58,-6.98 -165.76,-94.89 48.66,-36.16 61.28,-20.63 126.56,-25.14 37.91,-254.85 -35.96,-736.96 -33.29,-1030.41l4.52 -350.95c-161.93,5.87 -122.98,-91.7 -13.56,-120.17 87.91,-22.87 264.49,-64.41 230.24,78.66 -57.86,36.5 -111.48,-6.11 -120.64,72.09l24.18 569.84c12.79,259.24 29.46,508.15 29.47,769.56zm8543.61 189.5c-29.05,-28.66 -30.24,-28.26 -17.36,-87.01l191.27 -767.58c38.93,-155.73 173.27,-764.15 228.87,-855.95 98.3,23.55 8.54,254.17 -29.59,417.23 -59.87,255.98 -233.86,969.29 -321.46,1205.87 -5.2,14.06 -13.01,38.46 -18.98,50.44 -29.69,59.63 -1.81,17.59 -32.74,37zm-1490.16 -1637.23c-7.26,-40.18 41.78,-67.54 80.11,-106.22 32.38,-32.67 58.22,-47.71 103.79,-90.52l117 -89.53c63.46,-11.69 74.52,55.85 74.48,103.34l-321.26 191.94c-29.91,7.7 -12.9,3.02 -33.25,1.11l-20.87 -10.13zm-8384.84 3164.81l17958.33 0 0 -4847.22 -17958.33 0 0 4847.22z"/>
   <path class="fil1" d="M9156.52 3358.61c4.23,-62.98 -15.13,-67.35 -16.63,-138.41l4.96 -999.95c46.55,62.44 186.33,469.56 225.14,578.88 34.43,97 69.45,197.24 102.98,300.45 24.06,74.07 44.62,249.47 87.54,300.35 91.89,16.37 113.91,2.31 129.15,-79.15 10.38,-55.43 17.08,-126.53 20.92,-184.64l35.5 -777.52c2.29,-94.65 28.89,-311.37 -33.07,-378.42l-65.31 7.52c-33.34,60.22 -18.7,498.65 -22.65,607.11 -6.75,185.61 -9.66,390.53 -35.22,572.09l-196.78 -641.2c-27.18,-92.45 -166.1,-571.38 -276.98,-560.02 -106.67,56.04 -86.19,200.16 -90.33,336.98 -4.38,144.87 -5.56,286.06 -4.91,430.94 0.64,143.52 1.39,287.04 2.03,430.56 0.39,88.2 5.78,346.98 133.65,194.44z"/>
   <path class="fil1" d="M1833.8 3368.82c0.03,-0.14 -24.82,-1003.88 -8.29,-1148.49 65.1,100.31 269.18,697.83 327.96,879.29 24.01,74.11 44.77,249.61 87.6,300.35 91.88,16.29 113.93,2.35 129.21,-79.18 23.61,-126 36.52,-439.6 43.07,-573.55 6.28,-128.25 10.18,-259.74 13.31,-388.63 2.3,-94.72 28.87,-311.37 -33.09,-378.44l-65.4 7.49c-25.21,45.88 -22.53,924.82 -57.74,1179.28l-11.9 -18.69c-1.74,-3.45 -7.35,-15.89 -9.04,-20.04 -4.91,-12.11 -9.6,-29.52 -13.59,-42.49 -7.24,-23.52 -14.91,-51.08 -22,-75.47 -16.08,-55.26 -31.12,-106.94 -46.49,-161.37 -30,-106.22 -61.3,-215.48 -93.74,-323.11 -27.89,-92.55 -165.47,-571.43 -277.05,-560.13 -108.2,56.11 -86.75,211.43 -90.93,350.99l-2.47 833.65c0.42,92.89 -10.36,340.2 130.57,218.54z"/>
   <path class="fil1" d="M10705.07 1861.86c126.15,27.91 95.61,293.64 66.73,415.8 -20.22,85.52 -45.36,86.74 -79.69,101.68l12.96 -517.48zm-109.83 1544.37l95.51 4.06c43.83,-243.82 -31.8,-662.93 17.3,-892.76 6.15,86.73 111.76,382.2 141.46,495.82 40.86,156.29 51.92,355.28 97.5,390.24 37.25,28.57 80.03,25.6 94.52,-20.89 26.68,-85.61 -164.86,-515.86 -205.72,-773.46 -25.12,-158.32 -5.94,-137.35 40.35,-268.41 182.65,-517.01 -224.48,-650.56 -277.34,-570.08 -15.59,23.73 -29.99,1544.72 -3.59,1635.48z"/>
   <path class="fil1" d="M8532.74 3347.93c-205.15,-117.48 -158.48,-794.69 -152.57,-1045.2 3.06,-129.39 12.06,-274.5 165.45,-236.59 105.28,26.02 127.67,138.04 130.08,264.71 4.24,222.6 116.91,953.68 -142.96,1017.08zm-272.98 -433.76c9.95,152.18 34.26,301.37 102.06,421.07 68.17,120.35 238.24,143.65 334.15,33.69 149.84,-171.82 136.57,-623.81 121.15,-888.51 -34.91,-599.19 -416.43,-571.61 -470.96,-502.79 -113.67,143.48 -100.54,720.14 -86.39,936.55z"/>
   <path class="fil0" d="M8532.74 3347.93c259.87,-63.4 147.21,-794.48 142.96,-1017.08 -2.42,-126.68 -24.8,-238.7 -130.08,-264.71 -153.39,-37.91 -162.4,107.2 -165.45,236.59 -5.91,250.51 -52.58,927.72 152.57,1045.2z"/>
   <path class="fil1" d="M15079.8 2225.67c51.51,213.61 50.78,547.28 64.93,779.52l-190.89 -32.14 125.96 -747.37zm-53.74 -276.52c-43.3,91.89 -58.73,375.02 -78.75,503.45 -25.43,163.15 -57.32,323.77 -90.05,479.95 -14.68,70.07 -113.15,419.11 -88.17,453.41 26.43,36.29 79.64,31.06 102.74,6.65 33.82,-35.74 66.67,-287.23 74.91,-342.44l214.91 29.65c36.44,280.22 10.43,358.7 149.22,333.8 30.54,-81.43 -13.65,-244.22 -29.44,-345.63 -18.92,-121.52 -22.59,-240 -36.69,-363.72l-77.14 -731.55c-38.77,-22.3 -81.09,-28.98 -141.55,-23.55z"/>
   <path class="fil1" d="M4604.55 2969.29c14.26,-120.41 84.48,-636.37 122.63,-707.43 42.54,104.72 54.45,591.81 62.14,743.8l-184.77 -36.36zm-113.48 440.33c76.87,-64.64 73.85,-226.94 102.83,-357.72l213.34 31.78c11.21,69.18 22.02,135.22 27.67,205.31 7.7,95.76 -1,146.38 114.49,124.13 47,-66.21 -7.19,-250.99 -20.78,-339.13l-81.48 -722.76c-47.31,-417.46 23.45,-404.96 -173.23,-405.02 -35.67,64.89 -96.16,602.92 -120.97,736.94 -21.78,117.65 -151.16,638.94 -142.96,703.44 26.06,17.36 39.25,24.27 81.09,23.03z"/>
   <path class="fil1" d="M12101.19 3292.26c-248.1,105.08 -231.06,-539.29 -227.59,-655.87 4.08,-137.39 16.63,-272.8 50.54,-400.55 77.44,-291.73 176.85,-62.05 229.2,-210.56 -44.33,-118.83 -209.38,-43.87 -272.42,14.65 -72.79,67.57 -96.42,155.18 -120.44,268.02 -31.24,146.77 -28.19,595.68 -7.63,747.28 29.83,220.04 137.3,444.05 403.2,343.44 103.24,-39.06 147.29,-114.9 141.58,-248.35 -2.61,-61 -9.69,-135.09 -5.71,-194.85 4.42,-66.34 26.38,-112.16 11.35,-171.76 -25.77,-43.66 -205.3,-61.48 -284.71,-20.76l-2.21 73.56c61.37,20.95 84.93,15.46 162.96,19.09 0.09,83.59 1.9,170.68 -5.74,253.83 -3.38,36.76 -8.28,69.74 -19.23,106.19 -20.96,69.76 -33.2,64.57 -53.13,76.65z"/>
   <path class="fil1" d="M15618.67 2040.59c202.61,17.51 105.54,458.38 3.8,518.47l-3.8 -518.47zm303.83 1388.58c28,-94.59 -43.6,-157.05 -94.31,-352.48 -181.89,-700.89 -4.93,-440.52 14.66,-731.44 11.65,-173.02 8.56,-285.07 -111.38,-352.19 -45.43,-25.42 -136.57,-55.79 -191.7,-29.5 -54.39,25.93 -39.59,146.22 -38.14,200.6 9.74,363.37 41.42,773.43 35.36,1125.16 -1.65,95.61 -11.66,132.43 95.67,130.77 25.27,-105.96 -13.89,-234.24 -19,-353.07 -5.58,-129.76 -1.99,-261.39 -1.37,-391.36 46.39,22.94 38.76,40.56 50.36,95.7l69.08 334.07c28.11,131.13 66.93,354.09 190.76,323.74z"/>
   <path class="fil1" d="M14330.99 2044.94c160.35,-13.12 115.57,281.02 78.06,397.91 -36.67,114.24 -40.24,96.89 -74.94,114.56l-3.12 -512.47zm124.54 639.02c-24.63,-125.46 93.8,-189.74 99.53,-352.41 5.96,-168.97 8.61,-277.76 -113.01,-340.35 -39.47,-20.31 -144.44,-52.13 -193.78,-27.43 -47.88,23.98 -34.85,134.78 -33.89,200.39l32.55 883.98c8.92,350.37 -45.15,372.04 97.93,373.04 23.55,-100.91 -10.05,-216.13 -18.51,-340.08 -9.02,-132.17 -3.63,-272.47 -2.96,-405.49 44.19,18.5 13.96,-21.15 37.61,36.21 26.72,64.81 95.62,607.46 198.18,704.48 56.85,53.78 75.27,0.72 75.44,0.57 26.33,-62.22 -16.81,-113 -41.06,-174.77 -67.17,-171.04 -102.59,-377.65 -138.02,-558.15z"/>
   <path class="fil1" d="M5267.19 2559.74l-7.49 -521.42c108.81,19.53 131.26,83.39 116.7,248.73 -8.57,97.37 -31.93,223.53 -109.21,272.69zm-12.23 861.53c60.83,-44.13 35.28,-85.03 23.72,-157.7 -19.43,-122.07 -47.41,-505.28 -9.83,-586.04 16.02,14.3 14.24,-20.95 38.15,88.6 7.63,34.94 15.72,74.61 24.5,114.65 16.14,73.61 30.17,153.74 46.3,229.54 21.18,99.46 78.34,389.56 194.64,303.84 16.21,-76.2 -51.59,-181 -77.89,-267.58 -29.15,-95.96 -50.89,-189.8 -70.75,-291.21 -17.65,-90.16 -63.09,-204.87 -21.92,-280.48 90.26,-165.72 86.84,-157.45 86.84,-355.18 0,-197.66 -139.35,-280.04 -274.94,-262.96 -84.29,10.62 -67.67,107.78 -66.41,193.51 1.28,88.17 3.14,175.87 7.59,263.57 8.7,171.22 15.86,343.02 21.7,513.6l4.42 418.24c2.25,65.5 10.61,70.57 73.89,75.59z"/>
   <path class="fil1" d="M11350.72 2094.72c96.41,15.35 160.63,61.15 222.18,3.69 2.75,-85.33 -35.72,-87.45 -116.62,-107.44 -69.1,-17.08 -128.52,-24.27 -194.13,-11.39 -58.94,111.65 -27.61,196.67 -26.3,337.37 1.09,118.36 -5,242.11 -7.11,361.11 -14.63,823.88 -40.84,752.09 234.55,752.09 72.85,0 154.87,-15.19 111.11,-99.37 -59.95,-34.14 -154.6,-14.32 -227.78,-12.86l1.94 -675.41c84.99,0.48 107.57,10.76 175.6,-13.13 22.19,-125.99 -67.54,-102.99 -178.25,-100.47l4.81 -434.18z"/>
   <path class="fil1" d="M16757.81 2093.19l175.91 38.54c29.59,-25.44 42.6,-30.9 47,-78.68 -8.78,-29.54 -267.1,-155.54 -330.65,-34.37 -0.18,0.33 -11.74,37.48 -12.22,39.87l-7.46 827.84c-9,594.8 -5.24,544.31 207.93,543.94 92.85,-0.16 158.81,13.31 153.12,-85.61 -59.56,-53.01 -146.76,-28.74 -240.93,-26.69l3.58 -675.56 139.76 -0.1c7.22,-2.69 161.63,-120.88 -142.69,-113.38l6.65 -435.79z"/>
   <path class="fil1" d="M6741.07 3430.23l97.22 0c86.85,0 130.46,2.28 125.46,-85.51 -59.19,-53.09 -146.88,-28.85 -238.81,-26.74l7.31 -675.26c86.89,0.31 174.2,32.91 174.11,-75.77 -50.15,-55.1 -92.46,-40.16 -180.22,-38.04l6.46 -432.65 172.7 38.67c107.66,-101.15 10.52,-130.31 -128.46,-156.75 -215.57,-41 -172.46,104.48 -162.38,310.9 8.44,172.7 -16.8,525.36 -9.53,763.99 10.37,340.43 -20.36,377.18 136.13,377.18z"/>
   <path class="fil1" d="M3638.37 1975.2c-92.82,-55.07 -289.49,8.33 -355.4,161.79 -60.42,140.67 -67.91,317.1 -69.58,485.51 -1.63,163.17 -9.19,380.39 21.8,532.7 35.29,173.42 93.29,266.21 283.38,276.16 169.09,8.84 156.69,-100.84 119.15,-123.61 -49.88,-30.27 -117.91,50.33 -209.74,-38.85 -104.87,-101.85 -83.4,-314.59 -80.22,-479.72 2.35,-122.19 -8.35,-662.16 125.48,-711.37 77.44,-28.47 212.8,36.58 165.13,-102.59z"/>
   <path class="fil1" d="M1405.8 3266.53c-0,-261.41 -16.68,-510.31 -29.47,-769.56l-24.18 -569.84c9.16,-78.2 62.78,-35.59 120.64,-72.09 34.25,-143.07 -142.33,-101.53 -230.24,-78.66 -109.42,28.47 -148.37,126.04 13.56,120.17l-4.52 350.95c-2.67,293.45 71.2,775.56 33.29,1030.41 -65.27,4.51 -77.9,-11.02 -126.56,25.14 -56.81,87.91 118.83,94.39 165.76,94.89 97.61,1.03 161.24,9.68 216.08,-45.79 -5.32,-81.05 -54.28,-88.03 -134.37,-85.63z"/>
   <path class="fil1" d="M8097.86 3291.63c-63.03,-41.85 -82.81,-28.53 -178.59,-27.85l-2.19 -1197.94c91.75,0 161.09,21 168.38,-68.35 -65.46,-59.49 -537.13,-71.65 -440.23,53.26 27.2,35.06 102.38,21.96 149.01,26 14.28,196.46 7.89,404.13 0.37,601.3 -7.49,196.53 21.09,406.93 8.39,597.06 -77.18,0.58 -91.15,-4.5 -97.89,69.6 50.82,56.41 136.18,39.02 230.44,39.66 105.43,0.7 169.21,17.68 162.31,-92.74z"/>
   <path class="fil1" d="M12739.33 2065.85c98.57,0 176.24,24.1 166.1,-81.49 -75.72,-32.04 -366.86,-35.09 -438.32,3.07 -27,111.6 51.33,86.69 143.14,86.04 32.46,123.85 10.61,445.22 7.81,590.7 -3.5,181.48 25.51,444.63 8,607.31 -49.1,5.45 -56.32,1.75 -91.58,21.64l-4.48 71.82c59.95,24.33 147.24,19.37 224.96,19.37 107.27,0 99.93,11.27 167.57,-33.96l-2.42 -63.84c-71.59,-38.77 -86.55,-14.54 -173.93,-28.17l-6.85 -1192.48z"/>
   <path class="fil1" d="M3049.1 1978.08c-152.14,-19.3 -151.1,-14.46 -308.03,-14.46 -193.43,0 -151.86,93.35 -97.58,107.76 41.78,11.09 83.12,-11.02 107.44,16.6 38.81,44.08 6.26,605.31 6.7,701.19 0.75,159.35 19.69,329.33 11.87,485.94 -84.69,0.55 -101.19,-4.15 -96.36,85.88 54.32,30.06 130.66,23.4 206.82,23.42 119.91,0.02 188.07,16.48 183.45,-101.94 -63.26,-27.06 -92.16,-19.55 -174.99,-18.78 -16.59,-306.6 -5.74,-862.85 -6.22,-1195.01l160.24 -11.54 6.67 -79.06z"/>
   <path class="fil1" d="M4072.76 2065.94c98.93,0 176.15,24.21 166.15,-81.69 -75.95,-32.09 -366.7,-34.91 -438.57,3.06 -26.76,111.9 51.1,86.87 143.26,86.17 32.44,122.52 10.47,446.69 7.7,590.69 -3.48,180.74 25.17,444.97 8.09,607.3 -49.14,5.34 -56.39,1.69 -91.67,21.53l-4.42 71.94c60.02,24.49 147.02,19.48 225,19.48 107.59,0 99.94,11.27 167.68,-34.02l-2.44 -63.93c-71.43,-39.11 -86.55,-14.53 -173.93,-28.28 -16.65,-272.35 -3.56,-885.52 -6.85,-1192.25z"/>
   <path class="fil1" d="M13586.57 1997.5c16.28,74.96 90.64,73.48 174.79,76.93l67.06 1201.25c1.16,92.88 -12.54,91.05 51.55,118.48 33.08,-10.98 44.97,-23.46 62.81,-41.72 32.65,-67 -73.99,-1019.38 -65.07,-1273.63 88.32,10.78 185.04,41.88 166.1,-80.15 -55.65,-27.07 -157.19,-22.57 -232.68,-27.23 -91.24,-5.63 -173.31,-33.57 -224.55,26.07z"/>
   <path class="fil1" d="M13105.22 3308.9c-106.29,147.21 196.57,177.72 290.69,-45.84 61.91,-147.05 68.91,-328.15 4.16,-480.14 -90.72,-212.95 -266.74,-372.53 -196.9,-628.55 44.24,-162.17 108.01,-50.07 162.88,-102.09 75.1,-71.2 -167.24,-243.62 -265.44,54.59 -118.5,359.85 217.84,579.94 234.55,878.49 4.39,78.49 -9.46,181.48 -39.07,247.51 -40.22,89.71 -80.35,95.83 -190.87,76.04z"/>
   <path class="fil1" d="M7419.19 2052.57c25.94,-154.57 -214.31,-177.14 -280.97,76.95 -98.04,373.69 256.56,577 242.94,910.53 -16.7,408.91 -223.75,224.58 -249.7,294.87 -42.26,114.5 214.79,155.48 313.82,-77.72 210.15,-494.84 -325.94,-731.35 -191.95,-1121.61 43.78,-127.49 77.91,-47.51 165.85,-83.02z"/>
   <path class="fil1" d="M6324.66 2056.11c0.55,-3.57 6.35,-5.94 7.56,-7.79 1.15,-1.76 5.48,-5.66 6.65,-7.89 1.11,-2.11 3.93,-6.11 4.79,-8.52 4.93,-13.67 4.82,-13.2 1.63,-28.06 -5.66,-26.41 -9.75,-26.25 -27.85,-40.48 -158.41,-124.54 -413.69,204.02 -183.23,613.15 65.9,117 161.56,261.81 166.62,420.5 2.56,80.14 -14.64,184.81 -46.29,249.92 -48.43,99.64 -102.85,70.65 -139.06,68.86l-49.66 5.72c-2.09,-3.52 -6.83,4 -10.18,6.1 -51.18,128.91 191.04,143.49 289.83,-31.6 68.69,-121.75 82.38,-294.38 42.01,-445.21 -72.13,-269.52 -356.16,-462.28 -179.56,-789.88l116.73 -4.82z"/>
   <path class="fil1" d="M16352.34 2056.06c1.3,-8.44 28.66,-14.65 20.64,-52.15 -5.7,-26.66 -9.54,-26.11 -27.79,-40.48 -30.85,-24.28 -73.91,-29.61 -115.02,-19.29 -61.21,15.35 -111.45,89.87 -134.97,157.8 -147.72,426.59 399.8,707.73 187.2,1145.08 -54.63,112.38 -111.05,60.72 -178.06,69.78 -2.96,0.4 -8.64,8.27 -10.69,4.8 -15.31,-25.87 -58.85,151.46 135.97,95.09 67.51,-19.53 114.47,-69.33 143.52,-120.74 69.54,-123.11 79.76,-294.81 41.84,-444.46 -68.42,-270 -357.87,-459.89 -179.38,-790.64l116.74 -4.78z"/>
   <path class="fil1" d="M9949.41 3456.03c30.93,-19.41 3.05,22.63 32.74,-37 5.97,-11.99 13.78,-36.39 18.98,-50.44 87.61,-236.57 261.59,-949.88 321.46,-1205.87 38.13,-163.06 127.89,-393.68 29.59,-417.23 -55.6,91.8 -189.94,700.22 -228.87,855.95l-191.27 767.58c-12.87,58.75 -11.69,58.35 17.36,87.01z"/>
   <path class="fil2" d="M4604.55 2969.29l184.77 36.36c-7.69,-151.98 -19.6,-639.08 -62.14,-743.8 -38.15,71.06 -108.37,587.02 -122.63,707.43z"/>
   <path class="fil3" d="M14953.84 2973.05l190.89 32.14c-14.15,-232.24 -13.42,-565.91 -64.93,-779.52l-125.96 747.37z"/>
   <path class="fil4" d="M5267.19 2559.74c77.28,-49.15 100.64,-175.31 109.21,-272.69 14.56,-165.34 -7.89,-229.2 -116.7,-248.73l7.49 521.42z"/>
   <path class="fil3" d="M15622.46 2559.07c101.75,-60.09 198.81,-500.96 -3.8,-518.47l3.8 518.47z"/>
   <path class="fil3" d="M14334.11 2557.41c34.7,-17.67 38.27,-0.31 74.94,-114.56 37.52,-116.89 82.3,-411.03 -78.06,-397.91l3.12 512.47z"/>
   <path class="fil1" d="M8459.24 1818.8l20.87 10.13c20.35,1.91 3.34,6.59 33.25,-1.11l321.26 -191.94c0.04,-47.49 -11.02,-115.02 -74.48,-103.34l-117 89.53c-45.56,42.81 -71.41,57.85 -103.79,90.52 -38.33,38.68 -87.37,66.04 -80.11,106.22z"/>
   <path class="fil5" d="M10692.11 2379.34c34.33,-14.94 59.48,-16.17 79.69,-101.68 28.88,-122.16 59.42,-387.89 -66.73,-415.8l-12.96 517.48z"/>
  </g>
 </g>
</svg>
