<?xml version="1.0" encoding="UTF-8"?>
<!DOCTYPE svg PUBLIC "-//W3C//DTD SVG 1.1//EN" "http://www.w3.org/Graphics/SVG/1.1/DTD/svg11.dtd">
<!-- Creator: CorelDRAW 2021 (64-Bit) -->
<svg xmlns="http://www.w3.org/2000/svg" xml:space="preserve" version="1.1" style="shape-rendering:geometricPrecision; text-rendering:geometricPrecision; image-rendering:optimizeQuality; fill-rule:evenodd; clip-rule:evenodd"
viewBox="0 0 5118.11 5118.11"
 xmlns:xlink="http://www.w3.org/1999/xlink"
 xmlns:xodm="http://www.corel.com/coreldraw/odm/2003">
 <defs>
  <style type="text/css">
   <![CDATA[
    .fil2 {fill:#F9BEDA}
    .fil4 {fill:#FAC3DD}
    .fil6 {fill:#FCF4F7}
    .fil3 {fill:#FEFCFC}
    .fil5 {fill:#FEFDFE}
    .fil1 {fill:#FFFEFE}
    .fil0 {fill:#FFFEFE}
   ]]>
  </style>
   <clipPath id="id0">
    <rect x="5388.64" y="-11839.32" width="6285.5" height="6285.5"/>
   </clipPath>
   <clipPath id="id1">
    <rect x="11362.3" y="-12064.27" width="6285.5" height="6285.5"/>
   </clipPath>
 </defs>
 <g id="Capa_x0020_1">
  <metadata id="CorelCorpID_0Corel-Layer"/>
  <g style="clip-path:url(#id0)">
   <image id="_40_x0020_sin_x0020_título_20251001223252.png" x="5388.64" y="-11839.32" width="6285.5" height="6285.5" xlink:href="link tree_Images\link tree_ImgID1.png"/>
  </g>
  <g style="clip-path:url(#id1)">
   <image id="_40_x0020_sin_x0020_título_20251003200703.png" x="11362.3" y="-12064.27" width="6285.5" height="6285.5" xlink:href="link tree_Images\link tree_ImgID2.png"/>
  </g>
  <g id="_2892228002880">
   <g>
    <path class="fil0" d="M1455.15 1630.31c108.79,6.5 189.28,113.39 175.93,176.42 -102.24,8.96 -159.98,-89.86 -175.93,-176.42zm-71.73 -126.22c-24.28,3.88 -24.2,2.68 -38.61,16.43 -37.88,36.12 -31.51,56.77 -17.31,126.72 12.27,60.45 33.64,113.31 62.63,157.38 27.05,41.11 65.94,81.45 114.07,105.85 45.33,22.98 131.63,43.35 174.57,6.72 10.27,-8.76 16.81,-15.95 21.78,-31.25 5.39,-16.57 -2.7,-8.92 13.46,-14.74 8.1,-2.91 10.83,-4.04 17.54,-9.72 22.97,-19.44 31.3,-35.42 28.04,-79.24 -12.54,-168.7 -186.3,-308.52 -376.17,-278.17z"/>
    <path class="fil0" d="M1313.8 4285.13c2.75,43.47 3.83,87.33 6.04,131.07 1.94,38.42 -1.2,86.47 19.8,113.15 21.8,27.69 66.52,36 95.48,7.11 28.71,-28.65 21.26,-65.27 18.97,-113.74 -2.02,-42.81 -4.82,-86.49 -6.43,-129.65 -1.42,-37.93 -0.59,-89.47 -20.33,-114.46 -9.68,-12.26 -22.44,-23.52 -43.39,-24.57 -79.88,-4 -73.88,72.02 -70.14,131.09z"/>
   </g>
   <path class="fil0" d="M2064.56 3019.46c-20.02,42.74 -127.34,15.43 -149.5,-35.46 29.09,1.33 54.2,7.37 85.86,6.94 18.1,-0.24 27.74,-3.27 39.56,6.13 9.2,7.31 19.03,13.69 24.08,22.39zm-125.69 -506.34c20.15,65.92 105.69,170.59 106.75,179.19 -76.75,10.69 -135.12,-21.89 -184.57,-52.84 -3.48,-20.71 -3.06,-86.44 -4.42,-114.28l82.25 -12.07zm1330.61 135.49c7.61,-17.91 22.96,-39.57 32.45,-59.39 7.49,-15.65 20.65,-54.48 27.52,-64.53 34.89,3.41 52.34,9.13 92.46,8.78 -9.22,50.21 -90.93,109.16 -152.43,115.15zm-480.89 -167.01c27.7,-58.94 55.17,-97.69 68.08,-163.35l7.07 -24.76c104.13,62.27 117.19,41.1 211.57,28.28 -0.23,191.15 -209.54,332.28 -374.82,337.67l88.1 -177.84zm-610.76 -138.52c2.62,-11.67 17.99,-34.94 24.96,-50.36 8.11,-17.93 10.74,-37.29 18.12,-54.79 9.61,3.07 44.74,27.04 60.54,35.33 85.71,44.98 139.21,49.31 240.63,48.79 -13.85,45.7 -179.93,189.24 -201.17,196.85 -13.46,-11.96 -25.74,-29.19 -37.06,-42.36 -26.3,-30.61 -92.38,-123.98 -106.02,-133.46zm1634.7 545.19c-24.02,32.7 -63.56,66.47 -112.77,84.54 -54.95,20.17 -112.61,21.42 -169.85,3.41 -58.45,-18.39 -77.94,-57.94 -150.96,-33.25 -27.48,9.29 -35.44,23.01 -47.04,53.08 -26.35,68.37 -94.54,129.75 -182.25,114.43 -35.19,-6.15 -44.81,-18.06 -65.69,-34.3 -21.25,-16.51 -44.1,-29.5 -72.2,-19.97 -27.22,9.23 -30.66,32.75 -54.35,45.61 -34.11,18.52 -49.02,-5.12 -65.61,-18.11 0.98,-27.76 15.48,-79.29 23.08,-104.26 75.02,-5.94 147.49,-7.75 222.31,-17.29 151.34,-19.3 377.85,-56.56 472.6,-182.31 9,-11.94 14.37,-24.33 22.49,-34.27 12.6,2.43 27.94,10.1 42.52,14.41 14.09,4.16 28.14,7.32 43.28,10.12 96.63,17.81 133.57,-65.91 76.51,-109.93 -31.13,-24.01 -127.64,-7.67 -177.7,-91.11 -34.12,-56.88 -13.38,-81.5 -11.82,-106.95 6,-40.21 12.87,-51.81 -11.92,-77.75 -9.46,-9.91 -17.05,-16.78 -32.62,-19.6 -41.25,-7.48 -44.97,2.87 -74.43,20.05 -73.06,42.6 -169.57,15.95 -217.83,-44.15 -30.4,-37.87 -40.54,-63.43 -51.74,-122.82 -4.54,-24.08 -16.13,-44.32 -35.08,-52.71 -16.51,-7.3 -54.17,-12.03 -76.16,-6.07 -21.39,5.8 -31.56,24.06 -53.72,34.04 -17.77,8 -47.83,16.2 -70.41,14.19 -25.36,-2.26 -45.06,-19.48 -56.2,-31.92 -38.94,-43.44 -6.2,-81.27 -70.91,-103.61 -86.35,-29.81 -94.25,7.69 -122.89,32.34 -15.52,13.36 -32.74,24.3 -50.02,35.68 -40.5,26.69 -66.72,41.12 -124.07,50.5 -46.73,7.64 -115.86,6.54 -160.45,-6.44 -138.55,-40.32 -184.23,-168.44 -258.61,-113.13 -29.91,22.24 -36.7,56.73 -36.65,91.68 0.09,57.42 -21.03,94.62 -45.85,128.76 -41.36,56.88 -88.15,88.2 -160.89,99.31 -36.92,5.64 -43.78,5.22 -76.34,-1.11 -80.11,-3.37 -100.29,45.69 -93.43,118.93 -0.19,43.26 23.33,85.8 -3.35,151.61 -28.09,69.28 -98.34,64.64 -106.88,117 -13.78,84.65 137.82,127.3 171.91,165.44 -77.35,71.44 -231.41,28.84 -268.45,-122.81 -12.26,-50.22 -31.21,-66.87 -91.42,-60.67 -43.5,4.48 -63.66,34.69 -122.88,33.07 -81.6,-2.23 -149.2,-65.7 -156.81,-146.74 -5.06,-53.76 13.63,-82.87 34.11,-116.9 26.3,-43.7 4.25,-83.81 -32.61,-98.9 -43.06,-17.63 -66.34,-27.45 -99.89,-51.76 -173.74,-125.87 -191.78,-376.57 -46.66,-520.01 80.45,-79.52 113.11,-51.16 140.83,-87.54 35.2,-46.17 1.87,-76.5 -10,-113.81 -34.48,-108.4 -25.65,-224.62 18.18,-321.11 56.23,-123.77 178.89,-238.96 347.26,-260.41 121.51,-15.48 170.09,16.43 208.47,17.07 69.17,1.16 66.5,-85.28 92.89,-133.54 175.38,-320.77 723.19,-386.86 975.6,-90.11 11.43,13.44 22.94,31.15 35.69,41.39 16.35,13.14 37.9,14.19 64.48,12.55 50.54,-3.13 123.57,-76.15 291.24,-85.28 281.78,-15.35 472.04,151.31 528.74,388.14 5.79,24.19 -6.61,86.98 47.42,103.21 27.66,8.31 68.15,-0.54 132.87,19.34 138.1,42.41 263.52,179.67 231.8,369.87 -7.13,42.72 -22.72,80.33 -43.41,110.96 -11.74,17.39 -21.27,29.05 -34.43,42.75 -49.74,51.75 -12.09,106.28 51.12,128.71 126.93,45.05 163.84,190.38 101.7,295.4 -59.48,100.54 -134.71,83.11 -167.24,135.35 -27.42,44.04 -14.55,80.95 21.15,104.73 16.56,11.03 30.93,18.51 34.06,44.18 2.95,24.28 -10.92,42.45 -22.09,53.15 -40.63,38.91 -80.32,8.18 -119.74,21.16 -18.48,6.09 -51.35,41.72 -57.95,54.78 -27.74,54.93 5.08,93.78 -58.02,179.72zm-2978.2 -1018.2c-62.77,111.38 -74.31,253.26 -34.45,373.34 35.14,105.86 107.2,196.83 197.38,254.06 10.88,6.91 30.63,16.17 40.75,24.87 -4.57,27.42 -15.48,47.37 -18.04,82.76 -2.37,32.72 0.05,66.56 7.63,96.32 34.03,133.52 156.14,224.47 296.32,217.35 35.67,-1.81 56.39,-12.27 85.59,-16.87 9.05,11.68 18.59,36.82 28.11,52.35 28.52,46.48 71.17,89.43 123.82,116.05 141.26,71.39 234.39,6.75 259.48,3.81 24.7,22.37 35.02,36.89 65.85,56.6 71.09,45.44 168.2,53.3 239.58,5.58 14.67,-9.8 22.08,-21.84 35.22,-28.36 24.72,39.67 31.12,56.37 32.09,117.25 0.77,48.63 -1.52,100.28 -3.22,148.67 -5.34,151.81 -51.68,100.48 -120.43,180.45 -33.35,38.82 -13.7,75.41 15.01,98.22 51.98,41.29 217.87,-99.42 230.83,-200.22 5.51,-42.83 7.26,-248.95 1.08,-292.32 -6.16,-43.25 -19.73,-78.04 -39.38,-108.61 -58.87,-91.57 -74.24,-84.65 -151.08,-148.87 -84.89,-70.94 -113.63,-14.35 -242.56,-60.31 -25.21,-8.99 -87.67,-34.25 -99.09,-51.26 10.2,-10.64 17.24,-21.43 27.52,-29.98 36.43,12.28 75.92,53.14 180.5,60.86 70.67,5.22 149.6,-17.19 183.35,-55.54 60.96,-69.26 12.22,-104.29 -26.59,-152.63 -18.38,-22.9 -85.95,-114.16 -91.17,-148.42l33.74 -25.67c8.43,6.09 58.16,75.78 69.81,90.28 23.84,29.67 48.74,59.2 73.45,86.61 80.93,89.8 110.67,49.46 196.3,-20.39 57.32,-46.76 121.89,-100.8 165.14,-154.85 24.64,-30.79 41.93,-59.97 62,-98.11 7.09,-13.46 18.31,-43.18 25.72,-54.14 5.08,-7.51 40.07,-26.7 51.6,-30.71 -5.36,68.47 -33.98,107 -58.23,158.38 -20.66,43.78 -139.04,269.07 -140.44,288.49 -5.48,75.86 76.69,84.58 134.78,83.76 128.58,-1.81 241.17,-45.83 325.1,-104.28 78.7,-54.81 146.88,-132.72 179.73,-223.07 1.29,-3.54 2.27,-7.22 3.72,-10.49l5.72 -9.44 25.43 23.01c-15.85,70.28 -54.3,123.09 -90.57,166.88 -17.17,20.72 -48.25,43.26 -41.95,84.59 4.11,27 36.7,56.72 61.81,65.54 52,18.26 178.43,-9.94 222.46,-27.95 30.4,-12.43 58.71,-28.37 82.21,-46.2 14.88,-11.29 21.82,-18.37 34.7,-31.01 9.96,-9.77 23.75,-28.93 31.86,-34.06 6.37,11.3 14.6,16.63 18.55,30.64 -10.68,7.54 -18.12,23.5 -26.21,33.33 -26.87,32.6 -72.76,56.64 -114.41,71.48 -57.58,20.51 -132.46,36.89 -197.87,47.69 -72.79,12.01 -147.57,19.06 -223.21,23.11 -73.79,3.95 -137.36,0.52 -169.3,75.56 -35.11,82.48 -67.45,332.76 -56.78,430.54 8.65,79.2 45.69,121.65 88.89,156.28 18.93,15.17 126.99,100.18 143.24,103.85 38.22,9.74 59.94,-2.96 75.26,-22.81 8.78,-11.39 11.54,-18.17 11.12,-38.37 -1.04,-50.09 -105.23,-109.16 -146.41,-140.14 -21.99,-17.38 -40.6,-30.57 -45.05,-71.67 -4,-36.94 0.56,-76.29 3.46,-112.93 13.15,-2.83 27.79,4.91 41.65,6.28 30.44,3.01 60.67,-1.9 87.64,-13.57 68.47,-29.64 4.25,-21.96 87.33,5.32 19.56,6.43 40.11,10.87 61.87,12.57 119.89,9.41 240.46,-64.93 282.89,-162.71 29.14,5.32 76.99,43.8 191.49,39.41 169.09,-6.49 312.46,-125.27 351.86,-284.93 3.89,-15.76 5.39,-34.87 9.93,-49.86 46.41,-4.78 67.22,-5.25 105.64,-25.83 78.11,-41.83 124.11,-134.43 96.29,-223.15 -6.45,-20.57 -14.68,-31.05 -21.17,-47.26 15.13,-15.72 42.96,-23.57 90.15,-78.6 15.36,-17.92 30.42,-40.54 41.01,-61.69 40.44,-80.76 50.81,-165.01 25.18,-253.16 -13.02,-44.78 -36.35,-85.2 -60.27,-113.85 -15.59,-18.67 -23.67,-27.28 -42.76,-42.94 -21.46,-17.61 -41.89,-28.36 -50.35,-35.45 3.16,-11.32 19.04,-34.7 25.66,-48.64 120.43,-253.7 -25.26,-567.92 -314.47,-633.7 -85.22,-19.38 -48.47,12.74 -82.13,-86.65 -51.22,-151.23 -159.67,-287.8 -307.51,-358.21 -91.77,-43.71 -198.78,-67.91 -318.6,-64.02 -172.75,5.61 -279.23,74.37 -303.28,77.21 -16.6,-29.15 -86.98,-87.55 -120.38,-110.83 -42.64,-29.72 -97.58,-58.63 -152.72,-78.61 -292.15,-105.86 -664.81,-23.48 -851.76,212.4 -16.79,21.18 -31.8,41.71 -47.36,66.93 -19.43,31.49 -28.2,57.2 -38.7,74.74 -36.81,2.2 -70.14,-14.27 -171.31,-3.41 -48.91,5.26 -101.69,20.17 -144.37,37.21 -89.52,35.75 -166.44,94.04 -214.93,150.69 -95.3,111.33 -150.84,242.09 -146.49,402.05 2.49,91.69 18.25,103.26 25.6,157.6 -27.86,14.7 -64.52,41.01 -84.17,60.96 -38.46,39.09 -63.88,66.84 -90.93,114.83z"/>
   <path class="fil0" d="M2181.2 4385.13l-1.24 -60.82c28,12.9 99.92,96.81 119.75,124.89 18.89,26.74 31.83,51.02 56.35,66.43 65.24,40.98 137.43,-36.48 88.06,-96.52 -18.55,-22.56 -33.59,-45.32 -52.57,-70.34 -34.89,-46.01 -79.17,-88.98 -120.9,-124.2 3.33,-8.3 14.67,-22.57 21,-31.55 48.09,-68.22 61.73,-95.68 102.43,-168.79 41.85,-75.18 -48.85,-123.82 -89.41,-89.58 -19.17,16.18 -31.44,37.69 -45.68,62.82 -15.35,27.1 -70.28,119.03 -85.91,130.53 -3.8,-57.11 -6.66,-122.6 -2.51,-179.74 3.46,-47.65 11.44,-110.87 -75.53,-104.06 -55.13,4.31 -56.13,85.32 -57.29,126.67 -1.7,60.38 -0.31,122.93 2.89,182.87 3.15,58.97 3.8,118.39 6.51,177.12 2.46,53.08 -6.46,135.15 3.19,182.28 14.21,69.39 132.92,91.74 130.3,-33.71 -0.66,-31.44 1.22,-63.01 0.57,-94.29z"/>
   <path class="fil0" d="M3616.99 4378.39c78.37,-8.61 155.97,-3.65 222.39,-74.74 64.25,-68.78 29.57,-155.71 -41.23,-189.88 -82.75,-39.93 -179.23,-2.55 -225.87,42.77 -103.2,100.29 -141.56,338.21 18.05,399 81.41,31.01 178.11,-7.02 235.36,-42.7 27.78,-17.31 64.3,-41.05 59.2,-87.44 -3.8,-34.54 -44.18,-67.07 -89.16,-50.76 -11.65,4.22 -111.67,79.83 -160,55.58 -13.83,-6.94 -21.52,-31.28 -18.74,-51.83z"/>
   <path class="fil0" d="M2875.23 4031.12c1.87,41.66 -3.72,99.29 -4.84,143.14 -1.3,50.83 -2.84,99.91 -2.02,150.87 1.47,91.06 -30.72,233.19 69.42,224.63 43.89,-3.75 59.41,-40.26 60.89,-87.31 3.11,-98.74 0.65,-199.58 4.7,-294.41 1.86,-43.48 0.15,-104.74 6.24,-145.42 45.35,-4.44 97.24,-9.11 142.1,-16.19 40.13,-6.33 76.43,-45.64 56.18,-91.3 -20.41,-46 -61,-41.52 -115.07,-35.69 -47.41,5.12 -94.52,10.57 -143.15,14.62 -49.19,4.1 -99.78,3.34 -148.76,8.04 -49.63,4.76 -91.32,8.46 -114.31,42.83 -26.06,38.96 5.28,88.03 44.39,95.61 21.68,4.2 46.68,-3.26 67.7,-5.19 25.85,-2.37 49.94,-3 76.54,-4.24z"/>
   <path class="fil0" d="M4223.73 4330.69c8.31,-14.67 28.51,-25.46 44.27,-64.11 42.48,-104.2 -47.94,-183.9 -140.98,-169.73 -91.53,13.94 -191.01,128.2 -212.43,230.38 -33.14,158.06 102.33,269.31 291.54,160.33 12.83,-7.39 21.87,-13.32 34.05,-20.22 14.13,-8 25.33,-10.79 37.16,-20.02 19.33,-15.09 35.66,-45.33 20.24,-79.23 -12.6,-27.72 -35.52,-37.35 -73.86,-37.39z"/>
   <path class="fil0" d="M1464.37 3637.18c58.51,-21.78 163.97,-32.09 207.11,-6.31 -10.85,25.71 -79.78,45.57 -115.92,49.54 -50.07,5.51 -102.34,-2.02 -146.58,-14.46l55.39 -28.77zm75.13 -142.52c-100.05,12.78 -164.45,38.21 -241.23,93.56 -44.23,31.88 -102.14,77.84 -64.24,135.63 14.64,22.33 40.94,29.63 73.51,40.82 56.98,19.58 117.42,35.56 185,40.31 136.52,9.6 265.44,-45.78 305.98,-142.23 10.36,-24.65 17.71,-56.33 8.85,-83.49 -10.51,-32.2 -35.53,-42.58 -71.76,-57.41 -54.98,-22.5 -127.72,-35.94 -196.1,-27.2z"/>
   <path class="fil0" d="M1510.68 4185.14c0.45,66.12 10.06,126.24 20.22,190.74 8.63,54.74 17.7,128.47 53.42,154.51 22,16.04 56.89,17.68 79.72,0.68 23.11,-17.2 28.1,-37.93 30.26,-75.86 3.26,-57.39 -2.73,-136.29 31.54,-175.46 41.61,-4.17 79.11,32.49 88.72,63.26 20.19,64.63 -4.43,110.58 2.75,140.3 16.55,68.53 138.59,87.12 138.82,-69.59 0.16,-106.75 -31.78,-172.89 -90.46,-219.02 -124.81,-98.13 -213.53,-21.23 -227.2,-18.02 -3.56,-30.14 -3.96,-26.89 -21.02,-42.33 -34.3,-31.04 -107.24,-18.73 -106.76,50.81z"/>
   <path class="fil0" d="M982.01 4412.17c2.88,-45.54 10.54,-91.31 15.27,-135.95 11.86,-112.02 20.05,-150.28 37.68,-257.09 5.81,-35.2 24.04,-93.93 6.1,-122.9 -18.45,-29.79 -71.05,-44.18 -101.16,-15.04 -20.54,19.88 -27.99,75.96 -34.1,111.67 -14.56,85.11 -30.9,164.53 -39.87,255.08 -4.45,44.93 -9.03,89.05 -14.95,133.61 -4.75,35.78 -17.12,96.15 -2.62,127.7 20.63,44.93 53.37,38.37 106.77,36.3 49.96,-1.93 87.02,-0.74 135.8,-10.33 28.91,-5.69 98.59,-18.8 118.22,-30.68 30.58,-18.51 47.68,-65.39 17.17,-99.07 -46.78,-51.63 -115.43,5.33 -244.31,6.7z"/>
   <path class="fil0" d="M3245.85 4206.27c-2.4,-39.87 -7.16,-58.47 -30.66,-75.37 -29.28,-21.06 -50.08,-15.23 -76.25,1.38 -38.92,24.7 -24.53,124.21 -17.47,174.98 7.83,56.37 9.47,135.58 23.52,188.08 17.48,65.3 97.77,68.27 124.14,15.13 10.54,-21.23 8.5,-63.38 13.66,-92.53 9.82,-55.51 29.89,-103.14 81.36,-129.45 31.44,-16.07 52.26,3.9 84.11,-21.83 18.38,-14.85 29.69,-50.33 14.83,-78.34 -11.09,-20.9 -32.63,-37.86 -64.91,-40.64 -79.75,-6.87 -141.34,57.52 -152.33,58.57z"/>
   <path class="fil0" d="M1352.54 3961.2c-39.9,4.95 -84.38,18.75 -87.69,64.04 -3.4,46.56 30.91,74.66 78.98,73.85 122.27,-2.06 104.91,-149.83 8.7,-137.89z"/>
  </g>
  <g id="_2892227996160">
   <g>
    <path class="fil0" d="M-4310.67 7076.54c-38.07,6.88 -59.49,17.04 -85.87,34.77 -17.06,11.47 -54.06,43.48 -59.85,62.1 -5.28,16.99 -0.61,39.93 5.84,50.88 5.03,8.54 24.26,22.5 34.28,25.71 61.57,19.72 78.81,-55.64 126.36,-53.11 13.14,0.7 26.04,17.57 35.33,25.57 54.58,47 124.57,37.63 183.17,-3.31 17.95,-12.54 17.17,-19.13 41.64,-7.48 36.7,17.47 102.8,36.83 140.68,42.06 75.82,10.47 102.79,-98.68 20.61,-119.71 -33.73,-8.63 -64.31,-14.01 -96.48,-26.75 -84.31,-33.39 -87.84,-48.98 -173.69,10.46 -11.6,8.03 -26.07,19.65 -40,8.97 -12.06,-9.26 -20.17,-19.22 -34,-28.85 -26.07,-18.15 -57.7,-28.6 -98.03,-21.32z"/>
    <path class="fil0" d="M-4271.46 7569.42c-37.55,7.76 -55.46,18.3 -78.25,37.24 -29.79,24.76 -77.44,68.57 -44.76,110.09 0.12,0.15 6.89,7.28 6.93,7.33 0.01,0.01 6.96,6.98 7.14,7.14 43.74,38.74 84.53,-9.27 98.71,-22.3 33.08,-30.36 41.77,-23.42 75.54,-0.66 57.24,38.57 103.57,54.46 166.61,5.69 42.03,-32.52 25.54,-19.89 73.32,5.66 37.32,19.96 111.85,33 138.25,8.84 9.75,-8.93 21.18,-20.44 23.37,-36.58 5.01,-36.82 -16.04,-65.74 -41.14,-71.53 -40.21,-9.28 -31.77,15.7 -91.19,-26.75 -61.95,-44.26 -118.27,-24.14 -166.76,16.24 -23.26,19.37 -22.34,0.57 -72.08,-25.74 -28.59,-15.12 -60.11,-22.02 -95.69,-14.67z"/>
    <path class="fil0" d="M-4193.17 7853.94c-47.91,11.07 -112.78,64.62 -119.67,93.89 -7.57,32.14 14.77,60.83 34.52,69.34 35.04,15.1 54.96,-0.5 76.77,-19.54 31.03,-27.08 30.87,-30.84 66.51,-8.99 22.52,13.81 47.63,27.11 77.25,30.24 36.08,3.81 66.76,-1.83 90.91,-15.25 20.94,-11.63 17.25,-8.56 33.62,3.15 11.12,7.96 20.7,12.46 37.89,17.12 32.3,8.76 61.26,-0.68 90.82,-9.78 26.32,-8.1 54.28,-19.71 58.12,-50.65 4.57,-36.86 -12.59,-62.06 -38.83,-70.53 -37.76,-12.19 -69.42,21.22 -90.49,5.07 -21.08,-16.15 -35.13,-34.98 -74.19,-33.94 -40.98,1.09 -48.89,24.83 -75.89,32.2 -42.11,11.49 -83.19,-61.77 -167.34,-42.33z"/>
   </g>
   <path class="fil0" d="M-4675.56 9287.28c-20.83,-6.73 -69.78,-56.17 -136.15,-25.22 -13.78,6.43 -23.57,16.87 -38.81,22.57l3.73 -143.19 172.81 0.34 -1.57 145.5zm770.21 -328.18c-0.99,-31.87 3.95,-48.52 16.57,-71.57 28.8,-52.58 31.88,-53.48 66.88,-98.74l46.26 -37.75c10.49,6.32 77.46,76.15 82.92,86.79 -5.88,9.87 -31.65,31.26 -42.29,40.62 -36.1,31.78 -116.94,79.59 -170.34,80.65zm220.95 -292.7c4.88,-9.8 17.62,-22.13 28.76,-26.65 9.5,6.57 32.02,33.72 42.16,44.49 9.67,10.27 35.81,33.46 40.25,45.01 -8.02,9.04 -17.02,19.02 -28.12,24.08 -7.92,-5.14 -79.54,-81.22 -83.04,-86.94zm-1339.41 -188.57c-5.5,-18.81 -0.89,-109.37 -0.51,-135.67 34.06,5.02 74.82,69.67 81.42,116.62 4.33,30.81 2.47,30.96 -9.22,50.85 -11.49,-2.05 -22.98,-11.19 -35.39,-17.1 -12.26,-5.83 -23.78,-8.99 -36.31,-14.69zm1521.36 355.61c6.35,-13.73 469.24,-433.87 471.25,-434.58 0.89,16.24 2.09,55.23 0.23,70.26 -1.93,15.61 -23.85,27.19 -33.19,37.55 -10.74,11.92 -14.3,37.05 -9.17,53.66 0.25,0.8 0.57,1.48 0.86,2.22l13.95 26.43c7.78,9.91 8.39,10.22 23.58,10.79 1.3,19.26 4.07,27.66 3.95,49.46 -0.63,115.94 3.57,266.3 -0.55,372.74 -16.57,4.65 -304.44,1.29 -346.97,1.2 -113.12,-0.26 -235.8,4.24 -347.69,-0.9 5.3,-7.71 64.94,-43.35 83.39,-60.16 14.67,-13.36 47.39,-7 67.17,-6.97l359.99 0.54c32.52,-0.11 33.11,-0.3 61.04,-14.67 37.46,-23 37.93,-107.04 -58.11,-107.01 -94.56,0.03 -195.99,3.33 -289.73,-0.56zm-1517.09 -745.32c36.35,5.21 108.02,128.94 66.81,164.57 -11.41,-2.67 -22.57,-11.64 -34.61,-17.52 -11.9,-5.81 -24.16,-8.86 -34.59,-14.5l2.39 -132.55zm2109.94 229.71c0.04,-33.41 -2.78,-30.43 16.89,-48.47 17.63,-16.17 89.19,-84.44 100.21,-88.95 16.72,59.72 -91.31,178.39 -116.97,188.91l-0.13 -51.48zm-120.36 -84.93c-4.72,10.33 -16.35,21.04 -25.63,28.16 -6.8,5.22 -2.24,1.04 -7.98,6.11l-5.78 5.69c-4.87,4.88 -7.83,7.87 -12.74,12.81l-51.83 48.44c-28.06,22.45 -69.32,66.79 -92.17,85.03 -2.85,2.28 -4.04,3.63 -6.28,4.98 -6.16,3.7 0.02,1.8 -9.17,3.72 -5.59,1.77 -2.07,-0.13 -8.12,4.52 -3.02,2.31 -4.66,4.27 -7.39,6.93 -6.43,6.28 -8.96,8.48 -14.81,13.87 -29.52,27.2 -188.87,176.05 -203.78,185.83 -12.98,-5.29 -85.01,-79.53 -88.52,-87.51 19.39,-16.34 41.63,-38.59 60.76,-55.72l152.4 -141.89c8.54,-7.7 24.81,-18.55 26.8,-27.31l12.12 -16.7c4.95,-4.8 7.94,-7.75 12.87,-12.72l157.07 -146.15c18.56,-14.69 9.85,-18.15 29.93,-21.7 10.68,-0.93 251.4,-236.82 270.83,-246.4 9.35,6.74 79.07,87.79 82.52,97.82 -18.21,20.72 -48.18,44.95 -68.02,63.09 -30.87,28.22 -199.23,180.96 -203.08,189.11zm-1985.15 -398.08c21.24,4.92 47.27,42.65 58.74,66.54 6.6,13.76 11.73,31.48 13.82,48.76 3.63,30.02 1.59,29.72 -9.96,47.61 -3.82,-0.74 -59.33,-27.7 -64.65,-31.32l2.04 -131.58zm4.02 -250.01c29.09,-2.77 98.22,121.21 58.35,156.02 -0.82,-0.21 -53.87,-25.63 -60,-28.71l1.65 -127.31zm59.91 -99.74c-12.3,-1.91 -11.84,-3.14 -22.31,-9.41 -37.76,-22.6 -35.43,-4.21 -34.34,-43.47 0.94,-34.06 0.83,-68.23 1.86,-102.28 24.81,4.01 58.96,66.48 63.6,108.22 3.37,30.23 0.89,28.85 -8.81,46.94zm-50.03 -405.11c26.44,6.67 78.67,95.27 52.2,147.52 -17.13,-0.39 -34.8,-17.1 -53.98,-22.81l1.78 -124.71zm5.62 -253.54c25.86,10.46 51.19,70.63 53.76,105.7 2.01,27.36 -1.02,25.05 -9.63,41.2 -16.21,-2.66 -29.1,-14.16 -47.25,-21.83l3.12 -125.07zm3.15 -209.53l34.23 0.88c12.91,33.36 25.78,66.07 8.96,97.99 -15.2,-0.44 -31.33,-14.34 -43.84,-20.92l0.66 -77.95zm1962.92 247.55c-15.3,-6.27 -57.06,-47.16 -72.53,-60.13 -19.88,-16.66 -202.09,-171.05 -208.52,-184.45 74.37,0.07 209.27,-2 281.18,0.79l-0.13 243.78zm-1810.24 13.44l17.25 -10.03c41.87,-22.01 65.3,-69.35 51.74,-117.82 -7.44,-26.59 -25.87,-47.44 -43.85,-58.67 -21.25,-13.27 -16.8,-2.85 -19.83,-32.78 -1.39,-13.76 -5.67,-27.78 -7.38,-41.26 51.24,-3.65 113.72,-0.29 166.22,-0.27 381.25,0.18 765.26,3.48 1145.72,1.72 45.13,-0.21 28.7,5.09 53.95,27.95 15.67,14.19 28.97,25.33 44.25,38.63l394.58 342.51c13.43,12.03 7.64,50.48 7.6,72.87l-0.69 737.12c-0.01,33.43 6.79,46.93 -14.06,65.7 -141.22,127.19 -283.75,268.61 -423.89,393.19l-170.29 158.33c-56.64,54.48 -112.35,102.62 -168.72,156.94l-84.48 81.26c-7.94,7.47 -15.49,10.62 -23.64,19.16 -7.25,7.59 -11.26,13.54 -17.87,22.09 -61.9,80.08 -93.81,130.97 -94,231.99 -0.06,30.76 -14.22,36.14 -25.44,53.89 -25.42,3.53 -206.96,0.96 -248.74,0.89 -81.9,-0.14 -163.81,-0.36 -245.71,-0.47 -70.21,-0.1 -306.07,2.91 -366.39,-2.1 -39.86,-3.31 -82.65,1.57 -123.06,-0.4l8.17 -421.84c41.45,9.84 91.12,86.04 86.72,147.11 -1.54,21.4 -13.51,19.25 -21.61,35.18 -7.19,14.14 -10.28,29.15 -9.22,47.57 7.04,122.57 142.21,130.29 191.29,51.76 25.31,-40.49 15.57,-94.1 -17.41,-125.89 -37.91,-36.53 -28.38,8.98 -41.31,-82.95l4.3 -2.7c13.89,-8.31 29.67,-14.15 45.92,-34.09 36.5,-44.81 29.31,-108.36 -17.91,-145.48 -29.49,-23.19 -21.31,7.7 -31.15,-74.85 19.56,-13.37 69.78,-27.45 71.7,-94.18 2.17,-75.65 -60,-91.44 -64.58,-101.9l-7.49 -61.06c26.06,-15.3 31.02,-12.7 49.1,-34.39 37.47,-44.94 27.98,-110.8 -17.16,-145.41 -30.19,-23.15 -21.06,8.16 -32.82,-75.89 35.31,-10.71 71.31,-44.49 72.85,-92.82 2.4,-75.14 -60.08,-93.28 -64.7,-101.85l-7.81 -61.06c26.97,-17.4 70.35,-33.36 72.49,-94.22 2.65,-75.47 -60.2,-93.81 -64.66,-102.01l-8.29 -59.88c76.16,-27.74 92.27,-107.95 51.87,-159.98 -16.67,-21.46 -31.5,-22.44 -44.75,-37.18l-7.49 -60.2c37.2,-11.64 72.29,-46.02 73.28,-94.99 0.72,-35.57 -15.12,-65.23 -40.93,-84.6 -29.18,-21.89 -20.78,4.58 -31.67,-72.63zm-431.01 -155.99c-8.73,-59.19 9.53,-108.08 38.71,-140.46 24.96,-27.7 70.5,-59.91 125.3,-54.76 -1.05,12.44 -4.8,14.25 -5.83,28.31 -1.44,19.77 1.99,65.98 -5.85,89.27 -40.25,6.4 -72.83,-9.35 -97.96,15.67 -21.48,21.39 -7.93,20.63 -17.67,39.37 -4.19,8.06 -28.04,20.31 -36.7,22.59zm1978.48 -224.38c-0.88,-14.84 -1.1,-102.19 3.28,-110.48 2,-3.8 22.44,-22.28 28.58,-28.17 9.93,-9.54 17.51,-20.28 30.48,-27.41 10.84,6.09 44.73,42.47 55.28,54.02 11.21,12.3 7.56,26.03 7.6,46.71l-0.3 65.72 -124.93 -0.39zm-985.94 -143.7l127.33 0.13 -0.59 142.35 -127.24 -0.93 0.5 -141.55zm-349.54 102.64l65.61 -0.64 -0.83 39.86 -64.24 -0.61 -0.53 -38.61zm-708.35 2441.78c8,7.39 15.22,15.02 23.23,22.6 46.61,44.11 40.09,14.96 38.98,99.83 -0.79,60.08 -4.06,122.97 -4.49,182.89 -0.6,82.99 76.66,68.16 112.99,72.02 57.27,6.09 127.86,0.57 187.11,2.4 2.84,33.78 -6.91,80.11 5.84,108.44 9.33,20.74 28.94,56.35 48.89,64.96 35.19,15.2 54.92,-0.82 82.41,-19.14 14.13,-9.41 62.02,-43.7 70.59,-46.65 27.64,-9.54 101.13,83.64 158.09,61.65 22.48,-8.67 36.3,-18.63 48.66,-37.72 6.54,-10.11 4.31,-8.48 7.53,-21.8 4.8,-19.82 5.67,-23.25 6.09,-49.91 0.27,-17.22 -0.56,-42.01 2.04,-58.26 26.23,-3.41 168.11,0.54 206.84,0.6l1054.25 3.72c70.33,0.13 141.73,-1.86 211.52,-1.22 33.87,0.31 57.09,-12.94 66.79,-38.02 16.49,-42.64 1.36,-89.16 10.11,-98.12 24.59,-11.43 51.29,9.17 75.59,-21.75 14.76,-18.78 12.57,-55.8 12.91,-84.3l0.46 -456.91c0.09,-42.34 -5.79,-47.68 13.51,-63.38 67.69,-55.06 140.07,-116.2 184.35,-192.7 16.14,-27.89 38.09,-75.74 42.17,-109.8 7.74,-64.59 -13.81,-85.66 -29.8,-122.67 5.2,-9.41 22.93,-24.02 31.78,-31.95 10.71,-9.61 25.14,-22.35 30.59,-32.15 18.33,-32.96 9.46,-70.81 -1.74,-101.61 13.31,-17.63 32.41,-26.26 30.56,-59.68 -1.49,-26.78 -50.04,-122.29 -124.85,-98.46 -14,4.46 -16.78,10.72 -28.25,15.13 -17.35,-15.49 -39.63,-47.76 -77.51,-36.75l-33.15 7.09c-12.81,2.71 -21.52,11.15 -36.21,16.97 -1.46,-120.15 0.16,-241.17 0.15,-361.43 -0.02,-118.98 3.18,-241.71 -0.65,-360.1 -1.81,-55.98 0.98,-116.46 1.04,-174.17 0.06,-58.89 -2.21,-119.33 -2.05,-177.07 0.1,-35.98 8.47,-146.87 -2.35,-172.86 -8.53,-20.48 -29.11,-37.3 -51.99,-37.67 -33.89,-0.54 -17.38,10.8 -80.72,8 -2.22,-40.55 0.02,-82.69 -0.88,-123.45 -0.86,-38.5 -26.41,-58.05 -44.63,-76.54 -20.83,-21.14 -39.47,-39.51 -61.06,-61.79 -20.89,-21.56 -34.61,-42.8 -78.54,-42.61 -38.24,0.17 -60.34,23.93 -80.07,43.94 -21.87,22.19 -40.41,38.04 -61.1,58.93 -22.59,22.79 -39.6,38.26 -40.76,81.05 -0.61,22.85 2.09,102.72 -3.61,116.85 -3.61,2.48 -0.17,1.14 -6.4,2.59l-562.32 -0.19c-59.57,-0.12 -45.45,26.39 -45.11,-142.04 0.07,-33.62 4.54,-64.11 -10.97,-86.77 -11.54,-16.85 -34.2,-31.6 -58.99,-34.67 -50.66,-6.26 -133.63,-1.34 -187.78,-1.54 -52.54,-0.2 -110.96,-3.07 -112.78,74.33 -1.48,62.76 1.19,126.48 -0.75,189.56l-39.22 -0.09c-1.15,-29.52 3.26,-85.69 -1.61,-110.95 -7.09,-36.8 -44.96,-45.68 -54.07,-51.69 -1.48,-47.68 19.77,-123.14 -66.54,-127.39 -63.56,-3.13 -134.96,-1.16 -199.29,-1.3 -69.3,-0.15 -106.39,-1.74 -107.54,90.51 -0.79,63.6 1.47,135.85 -2.78,198.32 -44.5,12.31 -56.36,-11.98 -79.78,-28.1 -220.21,-151.65 -520.37,71.24 -404.81,342.07 6.97,16.34 -2.51,27.09 -8.26,41.54 -48.23,121.22 14.77,213.67 11.18,230.75 -5.37,25.48 -48,87.71 -21.74,190.03 4.03,15.71 9.06,28.43 14.89,41.51 10.19,22.87 7.19,22.52 -1.8,42.94 -27.88,63.35 -24.22,127.32 -6.01,189.69 2.84,9.72 15.1,36.78 15.17,42.68 0.19,15.98 -59.5,96.93 -10.18,230.28 7.98,21.57 14.64,19.31 4.77,41.14 -34.89,77.19 -30.85,152 2.1,229.27 8.44,19.79 -10.55,36.91 -20.46,84.35 -10.32,49.45 -7.15,100.56 10.22,148.34 20.35,55.97 14.8,20.79 -2.7,82.79 -12.91,45.74 -21.1,95.62 -5.69,145.71 5,16.26 8.22,27.87 14.68,42.61 9.79,22.32 10.67,17.31 0.21,39.62 -11.58,24.7 -19.91,58.75 -21.84,90 -5.79,93.55 22.53,120.34 45.57,177.65z"/>
   <path class="fil0" d="M-3323.42 7318.8c-21.76,8.33 -984.85,-2.3 -1157.91,-2.33 -14.75,0 -33.68,4.37 -36.19,-7.41l0.65 -272.59c21.37,-5.35 120.51,-1.23 149.83,-1.11 150.51,0.6 1036.23,2.67 1041.01,6.72 4.27,4.01 1.98,-0.17 3.52,7.53l0.11 25.42c-0.77,77.08 1.79,171.74 -1.02,243.78zm-1307.09 -315.19l-0.54 339.99c-0.08,46.87 9.45,87.63 62.46,93.07 34.89,3.58 487.28,2.91 581.53,3.34l668.55 3.1c83.53,0.07 107.92,4.22 108.35,-96.65 0.1,-23.34 4.85,-353.57 -0.73,-379.26 -12.95,-59.52 -71.55,-48.19 -133.33,-48.34l-1194.25 -5.74c-35.99,-0.19 -51.95,-2.24 -72.45,18.04 -18.79,18.59 -19.56,39.73 -19.59,72.46z"/>
   <path class="fil0" d="M-2318.54 9795.84c-15.1,-11.05 -126.31,-131.32 -152.74,-156.76 -24.18,-23.27 -37.33,-25.93 -78.69,-25.19 -206.31,3.69 -172.19,103.8 -143.87,121.66 39.11,24.68 49.43,0.89 80.24,-0.23 7.07,89.19 4.93,196.98 3.58,288.18 -0.71,47.98 -0.6,97.69 -0.29,145.71 0.33,52.23 -4.65,91.96 41.48,106.84 30.67,9.89 68.4,-12.39 68.99,-66.79 0.52,-48.4 0.81,-97.36 0.65,-145.76 -0.16,-45.91 4.69,-96.94 0.89,-141.15 -3.5,-40.7 -3.07,-105.82 -1.63,-148.35 13.54,6.06 31.45,28.36 41.33,38.14 13.29,13.15 24.57,24.14 38.47,38.65 65.28,68.17 86.08,122.09 185.29,22.15 14.38,-14.48 24.9,-25.21 37.62,-39.57 11.67,-13.18 23.89,-36.26 38.11,-41.37 3.09,94 -9.94,182.38 -9.98,277.21 -0.02,48.53 -1.56,97.24 -2.19,145.74 -0.59,44.77 34.48,81.42 77.5,61.19 34.81,-16.37 35.71,-63.39 34.54,-109.77 -3.12,-123.62 5.35,-167.52 10.67,-279.9 2.32,-49.09 -2.18,-98.9 0.4,-146.24 38.48,0.06 54.44,-0.06 72.83,-22.04 30.93,-36.98 10.15,-76.21 -15,-90.92 -10.28,-6.02 -27.1,-7.9 -40.04,-9 -38.96,-3.33 -44.85,-9.25 -85.04,-0.37 -50.42,11.15 -80.03,38.76 -111.78,77 -16.34,19.68 -25.62,32.07 -42.51,51.87 -10.96,12.84 -34.54,44.65 -48.85,49.07z"/>
   <path class="fil0" d="M-5885.68 9844.78c2.75,-29 20.09,-79.24 32.11,-104.99 14.71,-31.48 29.34,-61.61 64.54,-67.27 28.29,-4.55 35.19,6.38 46.19,21.09 25.3,33.83 46.58,111.43 46.69,149.35l-189.53 1.81zm-19.85 123.15c58.08,-8.01 148.43,-5.68 209.2,-3.29 11.09,68.57 -23.84,182.48 -4.29,227.2 3.7,8.46 10.13,18.18 16.43,22.75 5.71,4.15 19.98,12.61 28.59,13.46 69.94,6.83 68.74,-58.39 72.6,-92.57 5.69,-50.31 14.26,-96.23 16.39,-149.12 7.44,-184.63 -37.23,-451.83 -225.94,-436.23 -179.24,14.82 -219.2,252.5 -236.03,426.56 -4.83,49.94 -3.22,111.95 -2.54,163.95 0.35,26.83 -2.62,54.18 10.88,73.23 29.14,41.14 83.89,34.07 104.21,-7.83 14.93,-30.78 -3.76,-168.09 10.48,-238.11z"/>
   <path class="fil0" d="M-3519.28 9897.79c0,-71 3.68,-140.05 7.12,-208.53 4.46,-88.8 -70.61,-104.81 -108.08,-59.03 -26.44,32.3 -18.56,143.14 -19.96,193.33 -4.48,160.99 -6.02,405.81 191.95,444.46 60.37,11.79 126.76,-3.1 167.37,-35.47 39.48,-31.46 61.22,-82.44 76.94,-137.13 32.78,-114.02 32.53,-264.69 39.57,-386.18 1.96,-33.8 8.2,-67.19 -8.67,-91.29 -35.39,-50.56 -107.62,-33.34 -112.82,40.29 -6.53,92.55 -9.05,222.7 -17.99,302.77 -5.75,51.46 -21.98,135.66 -48.97,165.26 -18.31,20.08 -102.59,41.87 -137.6,-42.63 -23.41,-56.5 -28.88,-115.07 -28.88,-185.85z"/>
   <path class="fil0" d="M-5269.87 10087.52c-31.82,-0.02 -43.33,-31.36 -52.48,-57.18 -9.68,-27.33 -15.37,-57.91 -20.65,-87.73 -11.02,-62.23 -17.43,-133.3 -19.48,-198.97 -1.1,-35.34 -3.57,-71.72 -4.11,-105.78 -0.62,-39.14 7.06,-72.07 -15.81,-96.07 -24.11,-25.31 -105.83,-44.18 -105.7,78.87 0.14,124.57 9.07,255.92 30.37,369.84 11.52,61.64 25.69,102.4 54.8,146.22 34.93,52.57 66.57,72.15 138.78,72.17 71.96,-0 116.17,-32.2 150.09,-69.6 70.21,-77.41 78.4,-252.81 84.5,-355.72 2.14,-36.15 1.11,-71.02 4.3,-107.04 3.29,-37.04 13.09,-112.4 -15.48,-142.09 -43.2,-44.89 -91.3,-11.19 -101.2,19.13 -5.77,17.66 -2.89,29.05 -1.34,47.02l-7.62 159.96c-0.28,61.61 -4.41,147.67 -19.73,202.37 -17.21,61.45 -23.77,124.66 -99.22,124.59z"/>
   <path class="fil0" d="M-2937.52 9594.85c-59.66,11.14 -93.88,30.85 -124.57,70.88 -56.15,73.24 -45.56,200.73 80.02,247.21 22.23,8.23 52.78,14.98 70.95,25.94 17.65,10.65 34.38,37.39 39.24,60.22 11.11,52.22 -29.94,115.35 -62.9,128.36 -53.29,21.03 -145.96,-7.17 -178.67,12.79 -49.09,29.96 -30.36,95.6 22.39,109.81 45.28,12.2 134.73,8.29 178.84,-2.98 133.97,-34.21 223.52,-233.51 111.88,-370.21 -72.87,-89.24 -179.81,-57.04 -171.19,-121.28 3.11,-23.14 27.34,-38.59 55.73,-41.76 53.52,-5.99 39,12.2 62.54,35.84 55.8,56.04 156.49,-12.57 67.01,-115.65 -29.34,-33.8 -91.36,-50.37 -151.28,-39.18z"/>
   <path class="fil0" d="M-4969.6 10029.21c0.19,83.13 7.46,175.54 91.51,182.1 81.72,6.37 166.54,-19.5 231.03,-44.79 35.38,-13.87 72.55,-16.12 82.57,-55.26 11.2,-43.78 -18.75,-77.27 -59.68,-76.39 -39.02,0.84 -171.88,68.1 -220.96,52.75 -8.22,-129.96 3.94,-191.53 23.99,-323.23 6.54,-42.97 11.52,-87.47 15.86,-131.93 11.38,-116.79 -87.38,-94.59 -107.78,-63.69 -15.13,22.91 -26.3,159.73 -31.08,191.64 -13,86.76 -25.67,175.74 -25.45,268.8z"/>
   <path class="fil0" d="M-4362.26 9895.93c-1.48,-41.84 89.1,-350.17 179.4,-136.72 9.63,22.76 34.65,99.99 29.92,126.38 -36.64,1.15 -74.42,0.12 -110.79,1.98 -27.28,1.39 -74.17,10.17 -98.53,8.36zm219.88 111.42c3.62,53.64 -0.61,115.59 0.35,170.51 1.32,75.48 53.16,91.89 89.55,73.81 41.44,-20.59 31.59,-85.14 31.65,-139.6 0.19,-154.85 4.33,-315.62 -73.93,-446.66 -41.25,-69.07 -128.33,-139.46 -229.25,-84.49 -71.29,38.83 -110.63,120.82 -137.87,207.52 -30.8,98.04 -35.01,200.65 -34.35,312.2 0.33,55.44 -0.06,116.13 51.9,121.41 83.53,8.49 70.32,-66.11 69.37,-101.31 -3,-111.67 -5.37,-99.96 24.55,-103.38 56.02,-6.4 155.65,-16.13 208.01,-10.02z"/>
   <path class="fil0" d="M-3324.2 8326.57c16.87,5.28 -4.69,8.46 -4.35,36.89 0.13,11.17 6.42,31.12 11.52,39.2 3.73,5.92 7.25,8.32 12.61,12.04 0.49,0.34 1.19,0.83 1.69,1.16 17.13,11.41 40.86,10.52 58.52,3.77 5.49,4.91 1.9,-1.48 2.68,8.21 9.19,-1.92 3,-0.02 9.17,-3.72 2.24,-1.35 3.43,-2.7 6.28,-4.98 22.85,-18.24 64.12,-62.58 92.17,-85.03l51.83 -48.44c4.91,-4.94 7.88,-7.93 12.74,-12.81l5.78 -5.69c5.74,-5.07 1.17,-0.89 7.98,-6.11 9.28,-7.12 20.92,-17.83 25.63,-28.16 -8.88,-6.23 -9,0.56 1.31,-18.69 8.74,-16.33 1.85,-49.06 -11.76,-63.06 -33.07,-34.02 -70.26,-9.28 -77.82,-13.07 8.7,-5.65 2.61,-0.54 6.02,-8.81 -20.07,3.55 -11.37,7 -29.93,21.7l-157.07 146.15c-4.93,4.97 -7.93,7.93 -12.87,12.72l-12.12 16.7z"/>
   <path class="fil0" d="M-2483.2 6364.29c-29.62,8.33 -152.78,92.72 -188.12,115.22 -30.42,19.37 -71.8,35.8 -72.37,78.36 -0.8,60.54 54.94,71.7 82.07,61.89 19.63,-7.1 73.09,-45.22 92.84,-57.96l136.84 -88.83c14.53,-11.59 13.2,-11.45 20.72,-24.59l4.48 -6.96c6,-10.35 4.81,-28.4 1.28,-37.26l-3.74 -7.56c-14.76,-28.86 -42.11,-41.29 -74.01,-32.31z"/>
   <path class="fil0" d="M-3641.85 7600.15c-23.19,21.46 -27.39,69.48 5.22,92.79 40.13,28.69 88.38,36.57 136.29,14.18 34.61,-16.17 63.01,-53.75 30.84,-95.64 -0.39,-0.5 -0.86,-1.21 -1.24,-1.71 -15.24,-20.18 -39.77,-26.49 -70.4,-17 -32.87,10.18 -30.35,-13.2 -62.9,-9.79 -16.69,1.75 -25.65,5.92 -37.8,17.17z"/>
   <path class="fil0" d="M-2429.35 6665.54c-39.5,1.8 -79.37,3.25 -119.17,4.81 -45.25,1.78 -119.33,-2.83 -120.69,61.79 -0.36,17.02 4.04,28.94 11.81,42.11 23.97,33.18 71.93,24.03 107.44,22.72 38.95,-1.43 78.39,-3.22 116.99,-4.94 48.46,-2.16 118.1,4.67 119.89,-62.75 2,-75.43 -76.67,-65.54 -116.28,-63.74z"/>
   <path class="fil0" d="M-3601.32 7128.83c-43.83,10.79 -60.13,53.96 -43.96,84.98 20.2,38.75 120.42,57.29 151.59,6.15 14.38,-23.59 12.55,-78.83 -38.85,-90.65 -20.11,-4.63 -49.3,-5.28 -68.78,-0.48z"/>
   <path class="fil0" d="M-2552.82 7093.19c27.89,-0.07 50.26,-23.35 54.75,-33.98 18.13,-49.13 -7.29,-68.64 -39.91,-101.87 -21.46,-21.87 -40.68,-41.71 -62.35,-63.36 -18.05,-18.02 -39.7,-50.34 -75.24,-51.1 -40.67,-0.87 -62.47,20.41 -64,60.63 -1.4,36.94 17.88,49.07 47.64,79.22 21.15,21.42 41.54,40.04 63.36,62.35 17.5,17.88 40.43,48.19 75.75,48.11z"/>
  </g>
  <g id="_2892227984400">
   <path class="fil1" d="M-6069.62 3991.79c-3.02,-234.76 -0.63,-470.79 -0.62,-705.69l0.11 -1057.11c-0.01,-57.69 3.12,-120.72 -0.28,-177.54 -8.93,-149.51 34.06,-113.85 151.98,-113.02l3093.12 -1c55.8,0 300.2,-12.53 325.61,28.35 6.58,17.88 2.28,304.61 2.29,348.92 0.04,118.09 -0.02,236.18 0.02,354.28l0.17 1057.1c0.04,57.92 -2.96,120.44 0.37,177.6 8.66,149.04 -35.39,112.81 -152.31,112.18l-3093.19 1.01c-77.07,0 -274.31,18.9 -327.26,-25.07zm-10.25 -2173.84c-33.1,7.29 -68.37,31.58 -86.52,58.3 -25.77,37.92 -28.23,69.76 -28.22,115.61 0.01,96.19 0.14,192.38 0.07,288.56 -0.15,191.41 -0.38,382.86 -0.03,574.26l0.09 865.69c-0.03,94.22 -2.87,192.99 0.95,286.66 9.22,66.43 53.51,119.87 121.24,131.65 33.39,5.81 208.23,2.86 255.64,2.87l3199.89 0c35.9,0.01 92.7,3.32 126.13,-3.82 68.06,-14.52 110.44,-69.8 117.16,-137.38 3.98,-244.61 0.27,-492.15 0.42,-737.1 0.16,-244.75 0.12,-489.51 0.06,-734.26l-0.02 -551.41c-0.47,-58.43 -13.45,-91.57 -54.49,-129.14 -41.66,-38.13 -93.09,-35.38 -146.48,-35.35l-2748.41 0c-242.8,0.07 -487.69,-3.2 -730.22,0.31l-27.28 4.56z"/>
   <path class="fil1" d="M-5011.66 3162.41l-632.65 0.35c7.26,-52.56 73.08,-152.7 109.03,-192.44 117.19,-129.55 295.22,-131.81 413.31,-1.76 35.43,39.02 104.22,142.85 110.31,193.85zm-303.86 -722.91c59.53,8.13 115.15,65.06 119.17,125.25 -1.63,42.96 2.33,62.34 -20.44,101.27 -7.76,13.27 -16.09,23.2 -26.7,33.29 -30.59,29.09 -55.88,38.02 -99.04,35.06 -14.77,-1.01 -28.91,-5.28 -42.28,-11.42 -147.16,-67.64 -84.91,-304.52 69.28,-283.45zm-85.85 -146.8c20.87,5.76 21.35,10.59 36.15,24.93 -0.12,10.16 -21.87,10.66 -30.78,11.53 -28.5,9.7 -44.77,16.69 -71,31.63 -101.61,67.17 -122.56,175.13 -110.81,287.79 0.23,16.69 15.04,52.09 24.14,68.06 7.25,12.83 15,25.1 23.78,37.01 8.57,11.63 20.81,22.15 28.25,33.37l-8.58 4.15 -10.83 6.68c-44.81,22.08 -91.34,60.75 -123.83,94.34 -17.94,18.55 -34.02,39.69 -50.17,61.15 -40.22,53.44 -80.15,138.78 -99.43,204.21 -4.15,5.74 7.71,6.82 -36.22,4.7l0.85 -992.18c27.11,-4.26 828.73,-1.06 941.75,-1.09 10.47,-0 21.02,0.12 31.47,-0.08 11.73,-0.22 21.22,-3.49 25.56,5.8l-0.59 987.98 -30.84 -0.11c-8.69,-32.33 -27.19,-75.07 -39.64,-106.35 -30.65,-65.27 -73.48,-127.73 -125.77,-178.87 -24.6,-24.06 -98.61,-82.63 -131.05,-89.74l-5.31 -3.89 7.55 -5.14c12.12,-5.89 42.82,-49.61 47.3,-63.81 10,-25.8 21.59,-43.98 27.67,-76.99 3.07,-16.67 4,-31.72 4.09,-48.8 0.19,-38.96 -4.44,-55.48 -13.85,-91.44 -3.22,-3.71 -16.5,-37.15 -16.91,-38.87 -27.61,-53.08 -110.13,-124.59 -173.24,-131.43l-12.19 -1.24c-3.51,-15.56 -1.86,-3.01 3.46,-8.11 14.44,-5.32 26.21,-18.87 49.66,-15.56 0.07,-0.5 0.31,-1.24 0.42,-1.45l1.49 -2.78c1.87,-2.64 1.7,-1.19 4.02,-4.34 3.8,-5.17 3.8,-4.22 4.52,-10.61 1.29,-11.37 -2.4,-14.81 -8.67,-24.13l-29.83 2.45c-25.17,-2.23 -42.12,19.31 -59.31,28.59 -14.62,-12.51 -29.55,-35.44 -51.94,-36.74 -10.65,-0.87 -23.98,-4.62 -29.52,8.61 -5.69,13.56 5.49,30.85 6.62,28.68 0.27,-0.52 1.06,1.37 1.57,2.08zm-490.42 984.09c4.52,1.03 3.5,-0.04 8,2.12 10.68,5.13 0.78,0.06 6.07,4.15 73.74,10.94 186,4.34 263.92,4.34l542.84 0.01c44.76,0 89.52,0 134.28,-0.01 54.28,-0 107.96,1.98 160.13,-8.09 26.17,-5.24 51.11,-33.45 61.45,-57.21 12.98,-29.82 9.35,-77.39 9.33,-110.28 -0.04,-79.99 -0.15,-159.99 -0.08,-239.99 0.16,-160.94 -0.14,-321.9 0.08,-482.84 0.11,-74.61 4.88,-166.86 -0.39,-239.37 -5.78,-79.54 -61.17,-105.41 -133.28,-105.26l-962.89 0.03c-168.6,0.09 -153.02,74.46 -152.69,207.46 0.1,40.95 0,81.9 0.04,122.85l0.02 722.83c-0.15,66.59 -12.08,147.89 63.16,179.26z"/>
   <path class="fil1" d="M-3295.21 3371.91l437.98 -0.26 0.29 452.61c-8.44,9.08 -30.77,4.91 -42.66,4.9 -49.37,-0.04 -379.48,3.29 -398.56,-1.64 -3.82,-17.39 -1.94,-426.39 -1.33,-447.13 0.83,-14.39 -0.16,-3.89 4.28,-8.48zm-72.96 -117.56c-55.36,-3.08 -52.83,40.76 -52.84,61.15 -7.03,92.62 -1.83,204.12 -1.83,299.15 0,50.47 0.04,100.95 0.06,151.42 0.09,187.22 -5.47,186.16 191.77,186.16 50.48,0 100.95,-0.02 151.43,0 59.69,0.03 249.09,-2.02 294.23,-6.91 12.02,0.33 52.29,-16.39 51.95,-63.04 1.8,-98.97 1.43,-199.42 1.35,-299.06 -0.04,-50.48 0.17,-100.95 0.14,-151.42 -0.03,-56.11 13.52,-114.69 -28.44,-156.38 -42.98,-42.76 -101.79,-28.53 -159.24,-28.55 -150.2,-0.07 -298.32,2.96 -448.57,7.48z"/>
   <path class="fil1" d="M-2518.24 4761.69c-11.13,12.31 -36.32,46.33 -47.08,54.64 -34.67,-16.54 -127.81,-114.03 -151.46,-128.39 -64.84,-17.74 -141.59,-40.17 -211.61,-16.93 -20.62,6.84 -37.33,25.48 -42.71,43.09 -2.82,23.26 -3.65,43.57 8.83,63.38 13.39,21.25 38.31,32.37 62.03,34.11l27.98 1.13 1.35 310.46c0.24,33.87 1.85,151.43 21.98,175.14 16.26,19.15 45.76,27.38 71.17,20.59 70.77,-18.9 38.47,-110.04 45.46,-141.06l-1.41 -310.59c7.69,-0.07 1.65,-1.02 5.25,4.48 69.76,18.05 150.3,192.62 270.31,38.61 8.48,-10.89 29.63,-42.55 39.55,-45.54 5.31,25.79 -1.19,147.79 3.41,201.32 2.45,28.53 1.43,67.32 1.22,97.05 -0.19,28.31 -4.74,76.7 -0.18,102.59 7.25,41.13 45.46,49.85 80.5,47.66 19.24,-1.21 36.57,-15.8 46.79,-31.87 12.56,-19.75 7.07,-211.29 5.15,-261.11l-2.36 -211.24c18.06,-7.03 38.03,-15.52 46.98,-35.07 61.44,-134.34 -145.42,-162.47 -281.16,-12.44z"/>
   <path class="fil1" d="M-4677.8 4961.33c-4.4,-19.24 9.39,-90.83 15.45,-112.39 10.68,-38 26.77,-59 68.9,-62.56 59,-4.98 85.03,133.54 82.53,176.22 -61.07,5.31 -106.43,2.15 -166.88,-1.28zm-153.32 73.3c-0.89,37.69 -3.53,73.04 -3.38,111.41 0.07,19.3 0.8,37.65 2.62,56.89 4.68,49.4 6.96,57.83 40.5,81.07 36.51,16.52 100.59,-4.93 104,-49.3 2.14,-27.94 -3.74,-83.39 -4.74,-114.01l187.43 0.06c-0.42,55.87 -20.71,144.21 36.51,176.91 34.61,19.78 92.8,0.3 101.69,-40.61 8.73,-40.19 4.73,-171.16 4.81,-216.68 5.87,-71.56 -17.07,-204.39 -46.37,-268.78 -34.55,-75.92 -97.46,-133.17 -185.77,-129.24 -85.3,3.8 -157.87,47.02 -192.39,125.6 -29.84,67.94 -42.02,191.39 -44.89,266.68z"/>
   <path class="fil1" d="M-6138.58 5078.66c37.3,3.3 121.88,4.59 150.84,24.3 14.06,50.08 -19.2,92.63 -68.37,101.12 -25.15,4.35 -58.86,2.39 -84.38,-0.07 -55.13,-5.32 -111.26,-42.61 -153.09,16.53 -65.91,93.16 101.22,124.13 156.89,127.5 60.41,3.66 114.49,2.53 168.63,-22.11 99.73,-45.39 137.49,-146.03 121.2,-254.6 -37.11,-157.62 -233.57,-116.06 -349.05,-146.24 -2.37,-21.76 6.66,-61.42 18.01,-80.3 13.48,-22.43 44.41,-29.55 69.96,-28.3 91,4.48 83.65,90.69 159.9,90.67 23.39,-0.01 42.94,-6.69 57.3,-26.78 70.32,-130.24 -174.8,-236.37 -303.08,-194.5 -93.69,30.58 -135.71,113.4 -145.35,205.95 -15.29,146.67 77.54,175.93 200.61,186.82z"/>
   <path class="fil1" d="M-5386.48 5082.24c17.62,100.75 85.81,234.56 198.32,241.59 84.06,5.26 117.28,-25.86 179.01,-70.36 68.11,-49.09 79.72,-92.34 67.31,-175.96 -7.61,-35.8 -31.15,-70.91 -60.61,-91.44 -52.59,-36.64 -152.37,-35.03 -184.84,26.58 -7.09,13.45 -8.09,42.46 -1.3,56.65 6.7,14 20.22,24.65 31.36,31.8 26.02,16.7 31.56,5.73 56.8,6.31l17.29 0.4 0.19 20.91c-70.17,57.55 -94.92,74.67 -129.46,13.06 -42.56,-75.89 -49.99,-194.63 -19.87,-277.19 6.61,-18.12 24.61,-57.28 40.41,-68.07 91.96,-62.79 130.9,158.91 221.12,44.02 40.11,-51.08 2.93,-106.78 -37.94,-145.31 -68.32,-64.41 -154.68,-73.32 -239.47,-31.86 -39.99,19.55 -64.59,46.45 -86.84,84.31 -54.89,93.38 -70.22,227.28 -51.47,334.56z"/>
   <path class="fil1" d="M-3614.72 5043.18c-0.26,77.63 -14.59,148.36 -91.3,176.59 -80.91,29.78 -99.12,-94.4 -109.56,-149.02 -16.75,-87.67 7.73,-310.76 -20.34,-350.95 -7.53,-10.79 -20.02,-19.99 -33.87,-24.22 -114.28,-34.97 -104.81,112.76 -104.87,179.04 -0.02,28.54 0.31,55.38 1.96,82.94 4.35,72.83 15.32,148.19 34.36,218.62 10.61,39.28 29.42,84.71 54.9,116.64 61.23,76.72 156.8,93.13 245.1,54.38 204.81,-89.88 167.84,-323.19 152.52,-504.49 -6.09,-53.44 -2.54,-151.1 -73.74,-155.85 -138.4,-9.22 -54.8,252.86 -55.15,356.31z"/>
   <path class="fil1" d="M-3429.85 4846.6c-6.5,153.28 68.75,196.09 206.2,223.27 27,5.34 54.74,11.21 74.38,31.56 17.16,17.78 17.85,65 -1.52,81.99 -41.13,36.08 -142.14,-10.95 -183.83,-10.21 -40.14,-4.37 -64.54,10.87 -78.52,45.01 -5.76,14.07 -6.81,41.32 -0.31,56.8 28.48,67.81 264.26,77.85 333.46,33.37 37.8,-24.3 64.51,-59.38 77.15,-102.46 18.17,-61.92 7.09,-99.24 -9.43,-157.56 -23.26,-42.22 -49.04,-68.43 -93.03,-90.97 -100.65,-51.59 -191.83,-15.14 -181.66,-95.99 3.19,-25.34 7.75,-46.94 30.38,-60.93 20.17,-12.47 50.64,-19.17 74.28,-17.99 48.35,2.4 31.47,87.28 124.87,68.25 75.06,-15.3 50.02,-88.19 21.36,-136.85 -43.04,-73.1 -130.43,-85.86 -207.94,-69.58 -106.77,22.43 -177.05,90.09 -185.85,202.31z"/>
   <path class="fil1" d="M-3931.21 2375.88l1116.41 -0.3c17.33,-2.76 20.09,-8.24 30.98,-22.27 26.63,-34.33 12.06,-86.06 -22.39,-97.07 -14.39,-4.6 -951.47,-1.57 -1064.78,-1.56 -23.81,0 -67.99,-5.67 -85.66,8.72 -19.29,15.71 -35.45,39.61 -25.56,65.98 14.42,38.44 41.4,42.73 51,46.48z"/>
   <path class="fil1" d="M-5744.01 4695.82c-51.9,52.45 -28.3,106.37 32.08,125.54 11.62,3.69 10.53,0.11 11.52,10 10.01,18.61 1.47,204.59 5.24,245.44l5.39 114.85c-35.48,9.33 -63.31,31.7 -62.37,77.34 1.79,87.67 99.48,70.39 155.5,65.21 50.34,-4.65 115.53,-1.95 135.25,-58.91 10.36,-29.93 -0.87,-70.49 -34.73,-87.14 -33.28,-16.36 -47.03,4.41 -52.12,-11.97l-3.77 -135.78c4.54,-73.55 -1.82,-149.43 -3.6,-223.96 13.08,-4.96 35.93,-22.26 41.62,-33.73 14.97,-30.22 15.46,-64.98 -9.5,-89.78 -23.05,-22.91 -48.21,-20.96 -77.04,-19.8l-56.02 0.41c-31.53,0.48 -63.04,-2.37 -87.45,22.3z"/>
   <path class="fil1" d="M-5729.61 3856.06c1.69,-2.25 5.46,-2.83 5.77,-3.03 21.92,-6.19 33.78,-14.36 58.96,-15.47 -13.81,11.78 -52.11,27.9 -64.73,18.5zm-109.2 -151.05c-4.67,36.3 4.56,52.92 42.33,51.07 14.62,-2.36 36.58,-34.04 106.93,-48.95 36.91,-7.82 100.38,-8.93 127.22,21.96 3.25,15.33 -0.65,15.51 -4.83,29.17 -63,4.8 -142.37,0.56 -196.74,37.77 -53.94,36.91 -67.37,119.54 8.44,134.23 67.13,13 155.04,-40.5 205.35,-83.39 17.04,-14.53 11.33,-18.39 34.98,-22.44 35.87,-6.14 56.81,-19.61 87.06,-27.75 11.24,11.87 14.58,23.6 30.53,35.96 56.76,43.96 123.65,-14.56 138.04,-19.97 17.49,20.3 18.43,31.38 52,35.38 34.01,4.05 195.5,-37.45 222.65,-56.2 15.16,-10.47 29.07,-62.84 -34.89,-58.98 -40.95,-4.72 -124.74,48.41 -175.59,44.89 5.06,-12.86 22.81,-53.56 22.93,-61.01 0.72,-12.31 -0.26,-22.3 -11.3,-32.12 -11.87,-10.57 -35.04,-11.37 -47.31,-1.58l-20.78 22.14c-7.77,9.59 -17.79,21.33 -27.47,29.69 -17.88,15.44 -47.86,44.18 -74.69,40.45 -28.45,-27.52 34.17,-108 -48.41,-105.56 -26.07,14.15 -19.08,29.92 -36.05,45.98 -15,14.19 -26.91,15.73 -41.09,25.4 -7.04,5.07 8.99,5.31 -8.56,4.13 -4.59,-8.6 -4.25,-14.07 -3.98,-25.13 2.26,-33.13 -33.58,-56.99 -60.29,-69.65 -117.41,-55.64 -272.09,22.43 -286.48,54.5z"/>
   <path class="fil1" d="M-3842.63 3101.46l780.17 -0.03c27.62,-0.34 22.86,-1.48 41.33,-34.09 8.07,-14.24 9.26,-53.76 -2.02,-66.3 -26.97,-29.96 -73.44,-20.87 -130.73,-20.81l-611.41 -0.04c-25.32,-0.05 -51.67,-0.61 -76.87,-0 -41.88,1.01 -68.61,52.41 -45.74,88.8 19.92,31.7 23.98,27.52 45.26,32.47z"/>
   <path class="fil1" d="M-2516.93 1680.43c-15.94,-34.72 31.31,-170.03 46.87,-203.89 23.01,-2.27 91.72,49.19 116.9,63.03 0.94,29.31 -132.33,141.35 -163.77,140.87zm-61.42 -222.77c-15.84,54.44 -32.47,106.27 -49.35,162.09 -10.35,34.24 -12.49,97.42 6.42,109.65 17.44,11.28 7.58,15.01 39.91,32.54 58.17,31.55 80.19,15.48 133.26,11.56 13.18,-0.98 22.7,-12.68 32.87,-20.97 0.45,-0.37 1.11,-0.89 1.55,-1.26 32.2,-27.26 177.7,-153.25 185,-165.04l5.62 -8.83c8.18,-13.65 8.58,-28.41 7.14,-45.48 -3.92,-46.51 -57.39,-67.17 -108.17,-100.8 -22.42,-14.85 -101.27,-67.48 -113.02,-69.24 -61.6,-9.2 -124.22,37.31 -141.23,95.76z"/>
   <path class="fil1" d="M-2862.21 1537.22c-9.6,-53.13 -36.12,-92.67 19.73,-92.53 14.59,0.04 70.19,-3.07 79.89,0.26 17.87,6.17 4.8,30.71 0.54,44.43 -4.08,13.14 -6.97,27.19 -10.85,40.61l-21.11 78.57c-65.44,16.48 -46.33,0.36 -68.2,-71.34zm-99 46.65c6.88,43.77 16.68,97.04 57.16,120.67 57.99,33.85 145.16,29.7 191.74,-25.43 11.74,-13.89 12.35,-13.71 16.98,-32.86l45.15 -163.56c14.03,-49.88 27.1,-78.13 -8.93,-119.91 -2.7,-3.14 -8.25,-9.06 -11.56,-11.26 -24.98,-16.64 -33.45,-16.69 -66.09,-16.42 -63.13,0.54 -135.8,-3.9 -196.35,9.97 -24.19,5.54 -52.65,39.63 -54.25,69.56 -1.39,26.02 7.02,89.19 13.02,110.55 0.04,0.15 12.69,55.95 13.12,58.69z"/>
   <path class="fil1" d="M-4147.32 2559.48c21.01,23.36 69.65,15.35 102.05,15.37 68.57,0.04 137.14,-0.04 205.7,0.01l305.7 -0c30.02,0.06 61.63,-0.73 69.93,-34.31l-0.02 -51.7c-6.88,-28.33 -33.39,-34.65 -61.32,-34.65l-482.86 0.05c-39.47,0.02 -110.46,-7.13 -134.56,11.48 -29.29,22.62 -29.57,66.04 -4.63,93.76z"/>
   <path class="fil1" d="M-4086.33 2772.54c37.17,8.73 99.99,4.62 141.06,4.63 50.47,0.01 100.95,0.02 151.42,-0.01 116.96,-0.05 348.06,39.99 340.41,-85.4 7.23,-81.24 -525.08,-38.26 -612.02,-38.3 -24.66,0.43 -40.03,13.78 -47.94,50.17 -7.95,36.55 15.35,66.02 27.07,68.91z"/>
   <path class="fil1" d="M-3033.83 3716.86l-9.2 7.52 -13.97 5.94 9.04 -10.39c5.3,-6.87 2.1,-3.13 8.98,-6.26 1.85,-1.55 3.35,-3.43 6.01,-4.04 13.47,-3.09 5.64,0.73 7.87,2.51l-8.73 4.71zm25.13 -184.35c-2.35,12.25 0.77,2.39 -4.76,6.42 -11.3,10.07 -21.59,14.35 -33.96,22.26 -11,7.02 -23.51,22.26 -29.15,25.54 -3.01,6.51 -18.99,41.07 -23.31,45.44 -5.07,14.65 -20.28,40.36 -36.87,39.69 -4.3,4.37 0.99,4.86 -11.41,6.06 -7.82,0.76 -7.79,-2.37 -8.11,-2.82l8.7 -4.04c16.12,-6.39 37.35,-25.96 43.27,-42.28l24.94 -43.57c6.15,-17.11 57.31,-47.64 63.22,-49.35 3.22,-5.15 -4,-1.18 5.65,-5.36l7.92 -6.02 -6.12 8.04zm-91.45 -116.68l-16.03 2.56c-6.45,7.54 -2.96,4.96 -12.78,9.05 -28.94,11.88 -84.98,87.93 -81.26,120.62 5.95,20.04 8.2,18.8 30.68,18.57l-4.8 14.21 -4.61 3.17 -2.07 2.38 -11.91 10.23c-1.6,27.34 2.26,32.96 30.02,28.88 18.18,-5.55 39.24,-42.56 45.94,-60.04l18.83 -26.12c14.92,-18.46 20.35,-24.31 42.85,-34.13l21.14 -11.74 13.61 -4.33 -8.98 8.76 -19.98 13.22c-9.76,2.91 -38.81,24.41 -44.47,32.09 -3.72,7.35 1.28,-0.41 -4.96,7.85 -1.84,2.44 -2.43,2.44 -4.91,6.16 -4.82,7.24 -2.1,5.8 -8.91,11.72 -5.61,22.06 -25.95,53.28 -46.49,63.24 -7.83,4.82 -20.78,5.38 -31.2,6.58 -9.8,1.45 -4.56,22.06 -1.64,30.19 10.58,6.84 9.38,7.41 22.31,9.21 -11.9,11.06 -14.87,8.65 -9.65,26.91 0.34,9 -0.76,8.39 6.3,14.84l35.5 0.02 9.85 0.34 28.16 -8.13 10.51 -10.35 21.88 -20.04c5.24,-10.34 -0.52,-1.77 6.04,-5.44l10.16 -20.59 3.1 -10.35c3.83,-9.26 3.94,-13.12 10.58,-19.15 5.64,-16.01 15.57,-25.11 29.98,-32.59l6.7 -0.32c4.82,-6.8 0.79,-4.71 10.44,-7.29 -4.61,8.98 -3.7,5.93 -8.97,9.2l-2.26 1.34c-9.32,13.15 -24.35,11.47 -33.63,31.57 -3.1,11.11 -7.59,13.15 -4.32,25 1.56,5.67 4.07,4.48 2.74,9.13 -2.06,7.2 -7.2,5.94 -8.81,6.61 -6.33,3.62 -3.98,3.89 -10.29,5.8l-7.73 10.88 -19.8 21.35c-7.45,8.57 -4.18,5.57 -12.47,9.39 -17.61,10.11 -12.77,11.36 -36.46,10.66l-5.87 -0.22c-13.48,-0.74 -10.09,-1.7 -22.11,4.08l0.97 11.05c1.48,9.03 4.81,13.81 13.26,20.49 8.16,6.46 11.38,9.33 21.28,8.49l12.24 0.89c3.07,4.28 0.03,-1.64 3.38,5.96 0.07,0.17 2.13,6.94 2.28,7.41 13.52,11.78 46.08,5.58 59.92,6.39 5.91,-12.49 14.54,-5.88 26.4,-5.98 16.7,-6.5 46.87,-56.38 49.6,-85.57 3.26,-34.68 7.5,-15.74 8.28,-34.5l2.37 -20.63 -12.28 -7.89 7.73 -14.64 3.22 -1.15c23.86,-18.14 6.12,-61.53 7.13,-89.69l-9.76 -13.66 -20.06 -0.91 9.17 -13.73 4.16 -2.46c4.21,-14.45 1.12,-29.22 -9.98,-38.55l-10.1 -0.47 -0.16 -12.18c-2.59,-11.74 -16.16,-19.76 -28.04,-22.56 -7.54,1.6 -1.97,-2.61 -8.35,5.02l-6.72 10.64 -23 16.6c-11.16,1.3 -28.55,9.3 -39.84,16.76 -14.21,9.39 -18.22,18.47 -28.75,26.7 -5.53,11.14 -13.7,23.06 -23.61,29.79 2.67,-12.76 9.82,-25.71 19.07,-33.94 15.24,-18.13 34.39,-41.92 61.73,-42.33 9.3,-8.36 18.93,-0.68 22.7,-15.88 2.89,-11.67 0.09,-19.21 -7.61,-26.89 -12.76,-2.35 -24.31,0.9 -36.62,2.44z"/>
   <path class="fil1" d="M-5221.88 3540.39c18.22,7.2 34.49,22.91 54.42,0.62 20.39,-22.81 -2.53,-46.52 11.6,-65.85 3.19,-38.03 23.53,-74.09 67.37,-68.33 28.19,3.7 39.44,64.93 48.55,88.51 39.41,102.02 113.17,77.56 154.37,16.66 21.72,18.04 27.02,43.39 65.9,42.12 13.76,-0.45 29.38,-6.22 41.35,-12.56 32.12,-16.99 10.89,-7.38 38.78,-5.33 18.13,4 34.11,3.77 44.08,-14.31 11.63,-21.1 -2.26,-30.82 -9.76,-46.31 -67,-46.2 -77.88,-6.39 -111.44,4.15 -23.96,-19.35 -27.37,-80.73 -75.98,-69.16 -39.52,9.41 -40.67,67.86 -69.73,78.31 -27.53,-24.6 -24.13,-176.56 -160.59,-151.81 -114.02,20.68 -116.33,181.14 -98.91,203.29z"/>
   <path class="fil1" d="M-5907.98 3590.06c37.66,8.94 57.24,-5.53 50.89,-44.73 -10.13,-28.47 -11.96,-35.73 -12.09,-67.8 -0.08,-19.51 -0.24,-54.31 12.54,-69.27 35.15,3.27 69.1,86.7 87.76,115.89 57.41,89.78 110.37,-5.58 117.94,-13 57.87,28.48 61.87,13.12 114.28,-5.57 9.71,5.49 5.27,5.6 14.87,7.46 19.74,3.59 27.11,6.39 38.46,-10.98 10.88,-16.64 9.85,-23.79 3.79,-42.44l-2.8 -4.41c-2.83,-28 -30.56,-45.41 -58.04,-35.78 -22.75,7.97 -37.2,36.28 -63.46,33.52 -18,-17.59 -25.52,-46.22 -63.07,-34.17 -25.1,8.06 -31.03,36.26 -46.89,53.93 -6.66,-4.77 -5.8,-5.05 -10.31,-13.56l-21.28 -38.66c-29.73,-51.67 -85.94,-110.13 -147.23,-75.97 -54.67,30.46 -53.77,143.39 -42.72,194.48 3.15,14.58 13.17,42.83 27.35,51.08z"/>
   <path class="fil1" d="M-4554.3 2253.91c-15.37,3.77 -33.91,17.15 -38.67,33.25 -2.89,9.78 -2.3,22.67 -2.02,33.41 0.44,17 2.59,22.51 18.82,36.64 27.02,23.53 57.29,15.27 110.91,15.28 41.38,0.01 263.92,2.8 285.11,-1.22 42.69,-8.08 57.48,-79.05 20.37,-107.87l-8.74 -5.95c-8.97,-4.8 -19.29,-5.69 -30.93,-5.76 -53.32,-0.33 -334.83,-2.69 -354.85,2.22z"/>
   <path class="fil1" d="M-4553.51 2980.46c-24.87,3.48 -28.72,15.52 -42.15,38.06 -8.74,14.66 -2.67,39.65 4.46,54.14 17.47,35.49 83.32,24.9 117.37,24.9 40.32,0 270.59,2.66 289.48,-0.57 40.79,-6.98 56.25,-60.32 36.25,-91.31 -23.44,-36.31 -78.89,-25.28 -117.17,-25.28l-288.24 0.07z"/>
   <path class="fil1" d="M-2941.39 2775.62c7.58,-15.83 28.77,-25.4 21.57,-69.18 -5.43,-33.05 -21.08,-45.79 -43.23,-45.37 -68.03,0.7 -136.93,-0.22 -205.11,-0.26 -23.78,-0.01 -77.38,-4.09 -96,6.19 -59.1,32.63 -37.22,112.87 24.44,115.18 65.85,2.47 184.86,0.53 257.28,0.19 23.95,-0.11 24.91,-4.74 41.04,-6.75z"/>
   <path class="fil1" d="M-4591.96 2708.91c-1.48,100.27 181.38,62.89 255.33,62.94 49.84,0.18 85.2,-36.13 64.69,-85.17 -23.69,-56.65 -318.54,-78.76 -320.03,22.22z"/>
   <path class="fil1" d="M-4570.83 2463.84c-34.9,24.52 -31.93,66.99 -12.3,88.76 27.32,30.3 85.1,19.26 123.59,19.26 24.75,0 49.61,-0.25 74.35,-0.03 9.05,0.07 17.52,1.81 26.19,-0.26 20.96,-4.99 49.14,-33.71 38.26,-75.66 -16.79,-64.72 -205.51,-63.38 -250.08,-32.06z"/>
   <path class="fil1" d="M-4847.6 3826.53c29.61,-21.93 20.02,-63.85 -25.55,-67.8 -69.14,6.01 -36.86,114.13 25.55,67.8z"/>
  </g>
  <g id="_2892227986656">
   <path class="fil2" d="M-7900.75 2186.2c-30.32,29.29 -77.54,104.79 -103.64,142 -18.94,27.01 -54.44,71.28 -34.11,120.04 7.85,18.83 19.68,32.33 39.93,39.74 61.17,22.38 110.94,-35.11 159.5,-77.32l82.23 -80.4c41.91,-53.59 27.13,-126.99 -30.1,-162.37 -41.78,-25.83 -80.56,-13.8 -113.82,18.32z"/>
   <path class="fil2" d="M-8102.44 2506.31c-86.41,22.95 -50.72,142.74 30.16,122.74 28,-6.93 54.83,-38.86 45.13,-78.11 -7.1,-28.73 -38.87,-54.3 -75.29,-44.63z"/>
   <path class="fil3" d="M-10243.63 4041.61c3.45,60.92 1.54,121.29 -0.65,182.19 -2.13,59.31 3.67,125.28 0.12,182.73 -36.88,0.4 -64.09,0.54 -87.57,20.14 -18.52,15.46 -34.05,47.52 -21.37,79.56 24.28,61.37 97.44,44.38 167.28,42.98 73.47,-1.48 136.02,25.63 170.8,-31.54 16.1,-26.47 14.69,-60.47 -4.79,-79.69 -26.66,-26.31 -33.63,-23.48 -80.25,-28.13 -1.16,-62.95 -2.51,-125.91 -0.57,-188.87 1.97,-64 0.69,-122.87 0.65,-186.34 23.8,-3.45 52.54,-8.89 65.11,-30.81 12.19,-21.24 20.67,-50.43 5.13,-76.34 -31.11,-51.87 -86.52,-35.2 -156.02,-32.12 -45.35,2.01 -128.34,-7.69 -148.43,47.77 -5,13.81 -5.87,26.56 -4.29,43.57 1.35,14.5 7.64,21.54 18.06,31.7 24.83,24.24 32.38,19.81 76.79,23.2z"/>
   <path class="fil3" d="M-8306.46 3696.17c-12.9,28.91 -41.78,71.78 -29.61,108.48 12.3,37.09 45.56,64.65 86.3,49.88 20.15,-7.3 46.37,-24.37 50.6,-45.45 -4.65,-14.39 -80.41,-24.56 -96.6,-101.2 -4.03,-19.06 -1.57,-17.13 -10.69,-11.71z"/>
   <path class="fil4" d="M-8306.46 3696.17c9.11,-5.42 6.66,-7.34 10.69,11.71 16.19,76.64 91.96,86.81 96.6,101.2 16.21,-0.32 37.48,6.93 54.81,9.54 15.69,2.36 178,22.18 180.62,21.91 25.69,3.27 117.43,40.79 125.81,46.58 2.91,1.33 0,0 9.17,4.23l23.94 18.17c15.34,-6.33 32.57,-18.37 55.22,-23.39 24.73,-5.47 51.56,-0.35 74.79,-1 -13.83,-9.9 -44.24,3.61 -93.72,-24.37 -40.03,-22.64 -160.68,-74.31 -206.26,-80.09 -81.94,-10.39 -187.51,-6.07 -239.96,-45.09 -24.41,-18.16 -39.78,-41.48 -21,-78.63 30.13,-59.57 73.41,-82.23 138.15,-90.2 48.87,-6.01 55.96,7.36 95.54,-19.06 37.17,-24.81 106.63,-62.61 156.02,-72.27 66.56,-13.02 142.96,-3.5 196.87,20.07 72.93,31.88 103.35,9.55 202.75,8.96 8.06,36.2 -15.59,37.51 -44.93,40.21 -27.44,2.52 -54.93,2.28 -83.14,1.69 -74.19,-1.56 -93.35,-11.42 -140.91,28.05 -16.62,13.8 -28.76,23.1 -54.45,31.16 -21.47,6.74 -57.6,-0.42 -66.13,19.93 -12.98,30.97 13.81,40.41 44.46,38.98 25.56,-1.19 45.89,-8.63 65.56,-17.83 55.62,-26.02 44.38,-46.11 82.78,-47.26 70.09,-2.1 49.63,6 69.74,17.57 8.28,4.76 21.05,8.63 30.61,12.5 19.64,7.94 39.78,15.27 59,23.51 54.54,23.39 113.25,60.96 158.6,95.94 21.13,16.29 33,17.41 29.15,56.24 -8.09,-2.39 -214,-151.76 -256.91,-141.93 -8.43,1.93 -48.52,28.14 10.19,60.43 28.08,15.44 74.7,53.15 97.98,73.44 21.16,18.45 41.09,36.32 57.84,56.44l53.5 58.37 -1.56 12.19c12.51,-0.6 25.22,-0.41 37.81,-0.11 14.06,0.33 22.24,4 34.09,3.65l-13.97 -4.65c2.7,-31.45 -9.22,-34.17 -20.26,-50.54l6.35 -2.39c2.41,-0.76 4.15,-1.05 6.82,-1.93 11.87,-3.94 19.7,-11.52 27.12,-23.88 13.13,-21.87 7.69,-25.25 10.83,-39.83 1.45,-6.74 3.44,-8.39 4.52,-15.21 7.43,-46.81 -28.93,-67.58 -52.67,-85.4 -26.47,-19.87 -53.04,-37.95 -83.28,-56.81 -33.48,-20.88 -62.3,-30.85 -93.13,-48.08 28.11,-10.52 68.77,-10.45 79.18,-67.36 22.48,-122.89 -110.35,-65.63 -203.77,-78.07 -13.54,-1.8 -54.43,-18.14 -85.61,-25.84 -35.26,-8.7 -40.46,-8.57 -82.11,-11.63 -94.96,-6.98 -122.13,6.73 -212.31,52.36 -22.98,11.63 -35.4,21.65 -56.85,34.82 -36.05,22.14 -169.59,-22.22 -248.61,122.84 -15.02,27.57 -14.61,43.78 -25.57,70.17z"/>
   <path class="fil4" d="M-7720.67 3780.33c21.88,-9.55 39.81,-22.87 57.63,-31.07l4.69 7.67c4.72,10.2 1.45,10.49 19.57,22.51 13.16,8.72 22.33,14.72 33.93,23.39 19.86,14.83 44.49,31.3 65.58,45.85 29.45,20.32 111.18,77.12 119.93,103.75 -3.71,7.5 -5.18,7.6 -9.42,13.55 -17.23,-3.22 -51.76,-35.48 -71.09,-45.23 -49.84,-25.13 -96.3,-63.98 -146.02,-94.06l-65.52 -37.08c-10.17,-6.46 -4.26,-0.33 -9.26,-9.28zm237.43 220.59l5.69 8.14c5.66,-11.3 0.57,-0.65 30.71,9.76 25.94,8.96 15.28,-0.33 30.12,18.78 11.45,14.74 36.04,32.87 67.26,30.27 -6.73,-5.12 -9.97,-3.19 -21.19,-7.68 -13.74,-5.5 -22.65,-15.51 -29.47,-28.19 -8.04,-14.96 -2.8,-7.02 -18.34,-12.74 -4.18,-43.53 -1.08,-85.93 58.55,-94.51 -6.65,-4.61 -10.06,-1.72 -18.58,-11.22 -5.2,-5.79 -6.04,-8.27 -13.08,-15.44 -57.83,-59.02 -129.47,-102.64 -199.21,-152.24 -22.7,-16.14 -18.33,-10.86 -36.46,-20.85 -0.43,-0.24 -1.31,-0.7 -1.9,-1.15 9.03,-12.52 33.99,-24.3 14.6,-48.56 -15.83,-19.79 -36.24,-0.57 -48.46,8.65 -23.43,17.69 -65.44,44.45 -97.19,54.64 -11.73,-6.3 -18.41,-14.26 -29.31,-22.57 -29.15,-22.26 -161.58,-101.72 -181.94,-54.97 -23.08,52.99 89.47,28.07 185.67,131.25 32.76,35.13 4.97,19.17 58.23,50.35 82.57,48.35 199.36,78.42 244.29,158.26z"/>
   <path class="fil0" d="M-7349.46 4067.87l25.71 -0.68c9.41,46.72 5.66,200 3.22,253.83 -1.85,40.77 -2.96,78.91 -8.8,119.15 -9.26,63.8 11.14,116.32 74.93,113.2 12.64,-0.62 35.11,-12.52 42.44,-20.95 47.08,-54.19 33.8,-279.39 36.37,-352.84l9.84 10.06c44.73,57.46 99.48,51.21 142.91,-5.55 3.15,-4.11 4.28,-5.95 7.26,-9.8 2.07,-2.69 1.59,-2.33 3.91,-4.82 0.45,-0.48 1.05,-1.09 1.51,-1.55l5.17 -4.47c1.39,41.13 -4.93,90.79 -5.1,134.69 -0.16,44.02 -2.75,87.72 -4.08,131.31 -1.61,52.58 -12,129.9 53.74,150.55 35.36,11.11 67.78,-13.64 82.61,-47.86 13.06,-30.13 11.23,-438.46 22.72,-456.47l12.93 -6.05c65.76,-20.3 73.9,-95.52 21.2,-127.52 -29.88,-18.15 -162.38,-32.1 -204.74,-3.72 -40.78,27.32 -38.79,66.57 -65.91,93.57 -13.9,-12.23 -32.15,-53.76 -59.05,-77.52 -29.57,-26.14 -137.41,-32.61 -184.35,-30.35l-24.87 0.68c-59.63,8.59 -62.72,50.98 -58.55,94.51 2,0.74 -5.81,50.57 69,48.61z"/>
   <path class="fil0" d="M-9792.7 4015.32c36.24,-1.54 68.66,1.49 99.73,12.8 13.81,5.03 28.93,10.3 33.61,20.58 16.94,37.24 -27.56,88.54 -49.16,109.65 -17.41,17.02 -39.5,39 -75.06,23.97l-9.12 -167zm11.15 320.83c55.7,0.68 76.22,1.31 126.54,39.69 48.05,36.65 -22.55,122.96 53.77,159.76 62.31,30.04 126.26,-36.85 105.08,-158.83 -5.65,-32.56 -17.69,-56.71 -33.53,-77.69 -22.76,-30.16 -37.73,-34.61 -55.22,-50.56 -3.18,-2.9 -2.18,-1.81 -4.48,-4.68 11.43,-18.7 28.61,-33.98 48.46,-69.32 51.31,-91.31 33.28,-200.48 -47.14,-254.11 -73.58,-49.08 -198.5,-67.03 -291.51,-27.69 -28.04,11.86 -50.95,30.81 -59.39,61.33 -5.54,20.03 9.47,185.48 10.93,224.07 2.9,76.71 -0.54,158.69 6.17,233.9 3.06,34.31 2.44,75.65 21.56,97.88 17.65,20.53 52.11,34.35 82.81,19.06 65.69,-32.74 36.91,-110.43 35.94,-192.81z"/>
   <path class="fil0" d="M-10707.58 4100.41c2.27,-28.42 31.5,-53.31 58.09,-60.07 34.1,-8.68 71.51,5.78 96.55,19.09 52.74,28.03 47.89,78.92 98.39,81.46 91.59,4.61 110.58,-86.87 30.55,-164.56 -87.63,-85.07 -247.04,-116.82 -350.24,-29.43 -99.81,84.52 -118.12,242.35 31.61,296.57 62.19,22.52 136.89,24.99 197.31,45.61 21.72,7.41 25.54,9.67 22.35,37.37 -5.74,49.81 -35.35,88.65 -93.93,85.5 -63.88,-3.43 -102.6,-39.97 -134.95,-43.87 -34.91,-4.21 -62.19,12.27 -75.23,42.75 -14.36,33.57 -6.37,60.76 21.99,83.54 11.39,9.15 24.87,14.46 38.74,21.29 122.04,60.05 261.31,63.19 344.49,-59.23 31.49,-46.35 56.54,-126.36 35.96,-195.81 -45.38,-153.14 -272.46,-113.99 -321.69,-160.21z"/>
   <path class="fil0" d="M-7804.81 3909.51c-91.77,60.07 -193.24,314.85 85.12,373.61 29.63,6.25 63.54,9.91 79.48,29.35 18.35,22.37 18.8,60.98 12.35,89.25 -48.24,10.28 -76.67,13.61 -123.79,-3.4 -55.17,-19.91 -80.05,-46.07 -128.96,-24 -36.17,16.32 -46.34,77.82 -22.9,107.12 5.22,6.52 11.74,12.11 20.12,16.8 15.5,8.67 34.84,16.22 51.48,22.81 79.57,31.5 151.01,46.09 242.09,18.69 72.85,-21.92 113.63,-83.03 109.36,-178.85 -4.02,-90.38 -44.4,-152.92 -100.98,-184.28 -92.79,-51.44 -201.11,-16.12 -169.96,-106.59 17.34,-50.37 44.8,-53.92 91.9,-35.48 71.93,28.15 44.08,55.18 95.47,84.28 9.59,5.43 15.08,8.29 26.58,8.8 20.88,0.93 26.93,-0.58 40.61,-9.26 40.69,-25.83 42.65,-78.58 19.27,-109.27l-5.69 -8.14c-46.05,-81.83 -171.7,-135.74 -266.35,-114.8 -22.65,5.02 -39.88,17.06 -55.22,23.39z"/>
   <path class="fil0" d="M-8390.28 4003.85l0.02 2.86c0.66,94.08 11.55,212.07 26.86,303.79 16.28,97.56 53.79,177.54 110.55,220.24 76.07,57.24 189.48,13.95 234.56,-39.3 74.31,-87.77 66.37,-271.39 60.29,-399.13 -1.26,-26.51 -0.02,-110.09 -5.58,-128.68 -17.4,-58.19 -100.82,-59.64 -127.25,-18.97 -13.38,20.59 -13.39,38.56 -12.96,67.76 1.33,91.29 16.04,281.15 -10.49,360.13 -11,32.73 -41.1,44.86 -52.92,40.98 -13.12,-4.31 -32.28,-42.83 -38.82,-61.1 -25.73,-71.86 -41.05,-268.36 -40.91,-354.3 0.05,-31.04 1.92,-58.35 -12.48,-81.18 -23.91,-37.92 -86.54,-48.67 -119.06,2.52 -12.38,19.49 -12.02,55.21 -11.81,84.37z"/>
   <path class="fil0" d="M-9314.45 4288.4c59.22,-2.97 216.8,38.06 215.89,-64.6 -0.38,-42.58 -34.14,-66.19 -78.61,-67.72 -30.69,-1.06 -120.06,0.58 -140.64,-8.98 -7.44,-7.82 -5.49,-84.13 -3.2,-104.39 2.24,-19.89 -0.55,-21.46 17.66,-21.76 73.02,-1.21 164.31,14.56 204.85,-21.41 13.69,-12.15 25.88,-49.43 12.4,-72.74 -2.21,-3.59 -4.12,-6.99 -6.67,-10.37 -22.83,-30.43 -39.92,-32.37 -81.65,-32.39 -50.17,-0.02 -101.42,-0.97 -151.45,0.11 -52.36,1.13 -83.83,12.2 -107.56,43.39 -45.34,59.56 -30.98,183.06 -26.09,264.85 5.57,93.16 -7.05,196.02 23.21,279.29 34.95,96.17 115.13,74.92 227.61,74.9 33.49,-0 96.86,8.22 116.74,-34.85 8.02,-17.37 10.42,-43.76 2.64,-64.11 -4.95,-12.93 -28.58,-31.78 -41.89,-35.54 -23.79,-6.73 -117.21,-3.72 -148.99,-3.32 -15.36,0.19 -24.11,4.06 -27.96,-8.17 -4.39,-13.89 -6.17,-96.17 -6.28,-112.2z"/>
   <path class="fil0" d="M-8984.16 2290.78c-31.68,-25.48 -45.44,-48.43 -47.48,-105.02l329.98 0.56c-3.07,60.24 -16.64,79.97 -49.92,106.17 -62.71,49.35 -170.2,48.46 -232.58,-1.71zm118.3 -153.89c-57.01,0 -116.98,-0.44 -171.89,-6.28 -31.13,-3.3 -56.8,-2.11 -54.5,33.21 1.41,21.81 6.17,58.69 12.04,77.04 60.05,187.92 367.33,183.17 426.07,3.31 6.74,-20.64 10.78,-54.35 12.46,-77.42 2.65,-36.17 -18.15,-39.72 -52.07,-36.3 -54.92,5.54 -115,6.43 -172.11,6.43z"/>
   <path class="fil0" d="M-9725.99 3421.01c10.86,-3.99 85.27,-11.98 100.05,-13.01 33.65,-2.33 188,-26.28 208.23,-14.85 15.39,8.7 9.44,22.44 11.94,44.56 20.36,180.66 16.95,148.02 -107.44,163.21 -24.9,3.04 -186.97,26.87 -198.9,23.51 -2.22,-34.27 -17.12,-184.37 -13.88,-203.41zm363.05 1.15l45.13 21.15c-1.98,9.71 -32.6,58.24 -40.28,61.62l-4.85 -82.77zm386.42 -326.28c79.91,2.51 92.21,-47.48 108.29,-129.47 14,18.25 16.81,67.86 30.57,92.48 20.03,35.82 47.21,40.68 80.52,41.02 -4.74,25.78 -38.15,96.75 -50.96,124.89 -17.21,37.8 -39.9,78.32 -56.3,114.57l-11.52 -14.07c-24,-43.47 -99.67,-204.26 -100.6,-229.43zm293.51 -320.89c7.21,5.96 9.13,9.95 15.6,16.15 4.94,4.74 8.54,6.89 14.92,12.75 -3.12,11.91 -36.72,46.77 -46.63,58.18 -10.54,12.13 -38.99,50.26 -53.05,54.7l-26.55 -107.16 95.71 -34.61zm-397.89 27.64c16.02,-9.98 17.02,-15.84 29.33,-27.34 13.22,1.57 33.87,12.42 48.53,17.36 15.09,5.09 36.01,7.85 49.95,17.19l-29.91 108c-11.7,-7.09 -39.16,-42.39 -50.33,-55.1 -12.45,-14.19 -43.01,-42.6 -47.57,-60.11zm-393.96 -924.18c134.99,-20.11 269.07,-95.98 356.69,-161.07 71.42,-53.06 142.51,-123.14 195.96,-189.84 12.46,-15.55 48.74,-65.76 56.35,-71.15 20.74,24.17 34.72,47.09 56.7,73.66 56.2,67.91 122.42,134.24 196.57,189.28 92.26,68.48 216.09,135.53 354.78,159.61 -0.37,37.34 -58.88,209.22 -73.66,248 -30.71,80.56 -63.95,142.6 -106.14,213.74 -25.02,42.19 -37.94,55.93 -76.66,83.51 -76.23,54.31 -268.94,127.44 -351.42,127.48 -63.25,0.03 -197.2,-48.05 -251.02,-71.11 -78.11,-33.48 -137.64,-70.11 -179.36,-140.7 -44.44,-75.18 -75.66,-132.99 -106.14,-213.8 -15.01,-39.79 -73.69,-212.67 -72.64,-247.6zm-114.35 -257.38c-0.4,-180.97 78.7,-364.15 193.56,-489.78 88,-96.26 310.92,-229.22 449.78,-233.32 58.72,-1.74 96.39,-1.03 154.32,-0.1 113.17,1.83 279.28,92.69 359.99,151.75 119.05,87.1 222.04,218.07 267.13,413.06 21.15,91.43 36.43,211.62 -10.79,288.98 -7.59,12.44 -12.09,14.02 -30.08,11.63 -81.22,-10.83 -153.89,-36.26 -224.16,-72.73 -150.38,-78.05 -262.47,-198.65 -353.06,-330.05 -21.31,-30.91 -45.53,-85.89 -76.75,-94.46 -37.77,-10.37 -68.63,60.87 -83.89,83.47 -90.86,134.58 -202.35,254.85 -346.61,333.38 -51.84,28.22 -185.94,86.32 -259.59,81.06 -27.48,-39.74 -39.74,-80.06 -39.87,-142.89zm1073.06 -986.66c-20.37,-20.85 -56.93,-9.59 -75.18,6.82 -35.65,29.05 -9.69,63.19 -8.84,102.89 -1.57,4.31 -0.13,57.52 -1.96,72.28 -49.27,-9.06 -95.83,-44.7 -209.49,-41.07 -58.76,1.88 -31.78,15.5 -69.45,6.7 -1.71,-46.94 35.29,-125.11 55.14,-152.29 13.2,-18.09 42.93,-53.24 22.28,-82.48l-19.05 -17.66c-41.65,-29.71 -71.95,-7.54 -98.65,27.21 -52.19,67.91 -71.07,136.06 -84.94,223.86 -28.48,6.65 -62.3,21.98 -78.14,-1.14 -14.2,-20.72 -12.55,-58.29 -5.27,-85.04 14.54,-53.44 51.01,-96.66 79.77,-123.16 73.85,-68.05 159.54,-111.63 301.26,-104.04 118.73,6.35 216.9,68.81 266.39,138.85 29.21,41.33 46.23,89.37 56.27,146.52 10.22,58.15 -9.95,126.83 -51.28,144.3 -12.56,-3.14 -39.42,-20.55 -51.94,-26.57 4.29,-36.81 14.18,-54.26 11.53,-100.73 -2.2,-38.6 -10.32,-106.46 -38.43,-135.24zm-1132.39 672.26c-49.78,132.49 -92.72,327.83 -36.3,464.69 43.38,105.22 73.41,74.04 85.39,123.28 12.74,52.33 27.07,105.84 42.61,157.3 10.54,34.88 21.13,66.82 32.78,98.57 36.78,100.15 116.45,270.95 191.1,340.48 42.87,39.92 108.34,74.04 164.59,100.7l3.14 121.62c-34.76,20.05 -161.23,108.76 -204.68,137.94 -70.19,47.14 -133.9,90.94 -208.47,137.26 -105.72,65.66 -208.53,127.58 -312,202.24 -14.35,10.35 -31.17,24.76 -49.39,36.24 -20.29,12.78 -36.57,20.22 -55.17,33.44 -29.13,20.7 -65.11,63.03 -53.08,116.83 6.29,28.15 20.79,29.64 28.49,57.71l38.16 217.83c5.13,35.2 13.06,126.89 27.77,147.58 27.81,39.1 83.93,37.72 104.78,-7.52 16.43,-35.63 -27.51,-246.43 -34.9,-297.2 -3.6,-24.74 -7.53,-48.35 -12.76,-71.84 -3.78,-16.97 -19.38,-59.84 -19.76,-68.52 30.14,-20.33 34.13,-17.54 74.24,-47.62 140.66,-105.5 304.39,-196.09 454.52,-296.87 19.83,-13.31 58.3,-42.25 76.46,-49.71 -10.67,31.83 -143.98,165.33 -174.89,194.13 -14.85,13.83 -33.27,28.74 -49.72,41.72 -16.91,13.33 -40.67,24.56 -48.52,45.85 -27.28,73.98 56.94,89.49 75.44,106.79 -13.12,7.22 -187.85,22.85 -217.22,26.16 -49.86,5.61 -54.75,15.91 -44.56,70.04 8.62,45.83 10.04,120.26 14.31,169.14 6.62,77.19 -1.36,59.36 116.07,46.41 34.04,-3.76 202.89,-27.37 219.99,-25.03 5.72,8.14 17.75,55.15 70.93,47.52 32.68,-4.69 46.27,-34.27 61.84,-58.58 31.23,-48.76 62.61,-96.94 95.59,-147.18 51.79,-78.91 -2.04,-108.38 -60.99,-138.71l-160.74 -81.2 134.26 -139.1 91.63 -114.08c7.43,-10.15 19.98,-31.36 30.67,-38.6 24.52,70.55 51.04,143.59 78.04,210.23 14.47,35.71 28.62,69.43 43.7,102.36 14.49,31.63 32.79,64.84 46.94,98.96 8.84,21.31 91.63,151.48 109.47,178.81 38.23,58.57 98.43,178.36 163.19,153.95 11.33,-4.28 16.02,-7.88 22.8,-13.9 13.49,-11.97 19.02,-33.75 17.11,-52.92 -2,-20.06 -37.61,-59.15 -56.7,-87.76 -78.21,-117.18 -72.21,-72.08 -13.17,-180.36 47.39,-86.92 95.85,-205.94 131.37,-303.15 6.39,-17.48 12.51,-34.01 19,-52.35 3.32,-9.39 6.41,-17.96 9.69,-27.43 3.62,-10.46 4.96,-18.98 11.07,-25.93l119.91 151.37c22.43,25.15 42.8,48.13 65.65,71.49l52.61 50.22c7.39,6.59 12.52,9.23 16.73,18.95 -30.48,12.75 -182.76,89.77 -207.42,106.48 -35.25,23.89 -51.46,59.39 -20.03,105.22l124.69 189.8c28.57,35.97 71.48,33.3 101.52,-8.72 37.45,-52.38 -80.5,-156.15 -94.93,-209 25.19,-8.52 242.36,-118.76 254.59,-131.26 25.15,-25.71 19.39,-71.01 -5.92,-92.22 -21.92,-18.36 -42.66,-29.67 -71.8,-56.67 -37.46,-34.71 -166.92,-162.38 -184.41,-201.91 12.17,4.59 129.04,84.25 150.74,98.37 101.07,65.74 202.72,126.87 305.66,194.31 50.21,32.89 93.3,73.77 150.13,101.25 -2.4,17.59 -13.16,31.03 -14.19,48.61l-2.28 13.46c22.24,-1.31 47.99,-2.28 70.07,-0.66 21.51,1.58 41.85,10.43 58.08,-1.38 15.39,-22.97 27.79,-37.08 20.85,-75.94 -9.46,-52.95 -54.59,-80.37 -95.64,-103.51 -24,-13.52 -40.59,-27.74 -60.56,-42.47 -72.53,-53.56 -162.66,-110.57 -242.98,-159.86 -74.94,-45.99 -166.01,-104.89 -244.98,-157.85l-238.95 -162.51 2.6 -119.63c11,-7.49 29.07,-14.48 43.02,-21.77 15.48,-8.1 29.05,-15.72 44.09,-24.76 100.16,-60.16 127.19,-107.02 187.33,-215.33 63.86,-115 111.08,-252.91 146.02,-394.53 22.11,-89.65 10.11,-49.63 47.09,-86.64 22.52,-22.54 38.46,-51.27 50.94,-83.64 61.72,-160.13 -0.84,-399.65 -79.28,-548.28 -24.52,-46.46 -54.27,-89.31 -87.46,-129.76 -24.53,-29.88 -87.11,-98.32 -116.98,-114.01 4.06,-13 19.96,-27.85 28.96,-42.34 69.88,-112.57 36.77,-270 -26.66,-374.66 -62.9,-103.8 -184.55,-188.08 -334.09,-208.65 -175.26,-24.1 -317.28,31.83 -415.58,118.3 -88.46,77.81 -167.39,199.31 -132.13,328.63 4.59,16.83 15.8,36.45 18.04,48.86 -97.56,40.07 -215.46,122.16 -286.59,196.12 -74.89,86.11 -129.27,156.35 -170.57,266.28z"/>
   <path class="fil5" d="M-8887.17 4413.78c-5.4,-15.03 -6.95,-104.12 -2.44,-119.44 59.05,-6.74 117.08,-16.76 114.21,57.84 -1.22,31.79 -14.66,44.96 -37.67,55.96 -25.3,12.1 -44.57,16.83 -74.1,5.64zm-5.46 -385.54c120.78,12.51 87.27,119.29 0.45,122.56l-0.45 -122.56zm-142.19 229.88l0.05 100c-0.05,30.61 3.12,58.99 3.14,88.56 0.05,108.09 82.3,111.79 171.47,111.74 94.9,-0.06 181.98,-58.55 210.65,-121.09 17.96,-39.17 23.2,-95.25 12.71,-142.83 -6.9,-31.3 -22.58,-59.92 -43.79,-81.63 -7.48,-7.66 -14.76,-11.65 -22.07,-20.45 5.41,-13.76 15.74,-26.11 21.82,-43.63 6.28,-18.1 10.33,-37.58 10.63,-59.21 1.62,-116.07 -92.02,-183.82 -211.31,-200.41 -22.23,-3.09 -104.67,-4.74 -123.09,5 -33.84,17.9 -42.65,45.11 -35.66,95.86 10.27,74.49 5.43,189.32 5.46,268.1z"/>
   <path class="fil0" d="M-9624.19 3459.27c1.07,14.52 4.69,22.43 1.4,38.88 -6.34,2.49 -12.41,2.67 -20.16,3.22 -4.53,0.33 -18.1,0.87 -21,-2.57 -3.69,-9.33 -3.86,-23.4 -2.13,-36.12l41.89 -3.42zm-84.18 53.17c2.2,16.18 16.41,34.41 31.25,35.78 10.66,0.98 45.41,-4.37 58.06,-5.67 58.67,-6.01 42.73,-25.27 39.06,-87.26 -1.33,-22.5 -2.08,-40.39 -28.49,-41.72 -10.91,-0.55 -64.18,3.67 -74.76,9.93 -32.83,19.9 -29.62,55.88 -25.11,88.93z"/>
   <path class="fil6" d="M-7947 3914.06c8.27,2.86 53.68,46.94 93.54,2.27 7.04,-7.88 12.8,-18.04 15.54,-29.21 -17.47,-11.09 -100.12,-43.31 -125.81,-46.58 3.63,26.12 3.74,49.84 16.74,73.52z"/>
   <path class="fil0" d="M-9550.61 3456.67c21.49,0.61 61.64,-3.41 82.52,-5.74 36,-4.02 58.24,3.34 50.35,-40.85 -12.51,-6.28 -178.9,-16.76 -132.87,46.59z"/>
   <path class="fil0" d="M-9688.95 3589.98c-1.89,14.35 26.99,9.44 58.09,5.06 20.37,-2.87 42.41,-2.22 41.94,-25.35 -0.47,-23.34 -25.73,-22.02 -47.47,-18.67 -40.26,6.22 -52.85,-2.64 -52.57,38.96z"/>
   <path class="fil0" d="M-9464.93 3498.15c13.85,-19.74 -6.41,-35.41 -31.95,-33.73 -16.62,1.09 -50.14,2.47 -57.43,13.85 -6.62,10.33 -2.65,22.26 3.26,27.91 12.06,11.53 77.98,3.59 86.13,-8.03z"/>
   <path class="fil0" d="M-9487.22 3552.43c17.03,-38.39 -61.79,-38.3 -70.76,-15.41 -15.79,40.31 60.56,38.41 70.76,15.41z"/>
  </g>
 </g>
</svg>
