<?xml version="1.0" encoding="UTF-8"?>
<!DOCTYPE svg PUBLIC "-//W3C//DTD SVG 1.1//EN" "http://www.w3.org/Graphics/SVG/1.1/DTD/svg11.dtd">
<!-- Creator: CorelDRAW 2021 (64-Bit) -->
<svg xmlns="http://www.w3.org/2000/svg" xml:space="preserve" width="5.11811in" height="5.11811in" version="1.1" style="shape-rendering:geometricPrecision; text-rendering:geometricPrecision; image-rendering:optimizeQuality; fill-rule:evenodd; clip-rule:evenodd"
viewBox="0 0 5118.11 5118.11"
 xmlns:xlink="http://www.w3.org/1999/xlink"
 xmlns:xodm="http://www.corel.com/coreldraw/odm/2003">
 <defs>
  <style type="text/css">
   <![CDATA[
    .fil2 {fill:#7850BE}
    .fil1 {fill:#BFABE0}
    .fil0 {fill:#D9CEED}
    .fil3 {fill:white}
   ]]>
  </style>
 </defs>
 <g id="Capa_x0020_1">
  <metadata id="CorelCorpID_0Corel-Layer"/>
  <g id="_1806411748864">
   <g>
    <path class="fil0" d="M2258.12 1459.41c-6.6,-7.74 0.05,-4.27 -12.65,-7.85l8.36 -24.68c34.26,15.5 -6.03,7.03 54.36,19.94 -1.38,-2.29 -48.54,-53.29 -49.83,-54.36l-11.2 -2.35 -12.26 0.14c1.22,6.15 8.75,12.76 10.78,26.01 2.51,16.42 -1.5,23.37 -2.63,37.73l15.08 5.42z"/>
    <path class="fil0" d="M3231.63 982.07l19.53 -0.17c8.03,-15.96 22.83,-26.53 41.13,-27.57 27.4,-1.56 28.25,17.35 46.06,24.18 -0.49,-49.45 -72.8,-69.28 -88.69,-1.93l-15.91 4.27c-0.54,0.25 -1.5,0.69 -2.12,1.22z"/>
    <path class="fil0" d="M2024.73 1690.7l3.67 0.36c2.52,-8.22 3.87,-10.76 7.92,-16.06l10.84 -11.5c14.88,-13.49 69.21,-28.56 69.49,52 3.49,-3.7 3.73,5.51 6.84,-11.82 0.31,0.9 1.47,4 1.87,4.59 3.94,5.91 1.99,2.91 4.77,5.82l-5.19 -32.3c-4.53,-5.63 -2.32,-4.4 -4.22,-10.96l-4.22 -11.68 -1.56 9.87c1.99,-4.7 -1.16,-8.32 -5,-12.58 -12.55,-13.91 -28.85,-18.5 -49.02,-13.5 -20.76,5.14 -31.69,24.16 -36.19,47.74z"/>
    <path class="fil0" d="M2948.38 1343.92l0 -5.57 -12.21 -6.83c-18.82,0.73 -31.59,-1.19 -42.49,-10.89 -9.28,-8.26 -15.15,-24.7 -11.39,-41.07 1.93,-5.43 3.68,-4.69 -1.16,-4.69 -6.87,26.05 -4.88,49.62 8.2,64.45 6.86,7.78 13.94,9.31 28.39,9.46 17.59,0.18 20.8,-4.51 30.66,-4.84z"/>
    <path class="fil0" d="M1951.93 1653.39c26.01,18.26 56.87,-5.26 63.44,-22.08 11.55,-29.6 -4.91,-52.53 -30.13,-60.83l4 2.72c7.23,5.31 12.4,10.75 15.35,20.53 9.4,31.17 -11.61,68.24 -52.66,59.66z"/>
    <path class="fil0" d="M2267.81 4559.07c-7.5,-31.62 -0.13,-55.3 16.53,-70.36 20.04,-18.12 40.26,-19.01 73.59,-11.11 -5.2,-5.62 -5.61,-7.65 -17.68,-10.16 -65.36,-13.61 -101.06,67.57 -72.45,91.63z"/>
    <path class="fil0" d="M2707.81 1220.19l8.06 -3.66c5.77,-11.1 16.02,-20.84 30.48,-22.29 12.83,-1.28 24.22,3.04 33.21,1.15 10.17,-2.14 9.88,-4.43 10.94,-5.14 -12.15,-2.5 -11.94,-5.47 -23.99,-7.02 -9.81,-1.26 -21.77,-0.68 -30.11,3.18 -10.35,4.79 -24.11,20.57 -28.59,33.78z"/>
    <path class="fil0" d="M2794.88 1353.13c48.38,-2.59 64.45,-70.91 11.19,-88.98 14.95,15.16 26.9,23.05 23.88,49.53 -3.46,30.31 -30.45,34.16 -35.07,39.45z"/>
    <path class="fil0" d="M2873.5 1267.99c0,-4.69 1.22,-3.87 -3.23,-2.94 -25.35,-4.1 -38.98,-18.61 -39.4,-43.72 -1.39,-4.68 0.49,0.25 -2.99,-6.27 -1.89,-3.54 -2.09,-2.96 -3.35,-6.13l-6.48 -0.93c6.3,20.59 -0.37,28.82 12.43,44.44 8.95,10.92 22.87,16.85 43.03,15.55z"/>
    <path class="fil0" d="M2453.37 1303.41l34.39 -6.92c12.26,-8.19 11.17,-3.34 22.96,-6.27l7.13 -2.83c0.65,-0.29 1.6,-0.9 2.39,-1.37 -28.04,0.56 -52.15,-10.11 -66.87,17.39z"/>
    <path class="fil0" d="M1959.95 1517.79c0.66,-0.53 1.65,-2.18 1.94,-1.65 0.29,0.52 1.45,-1.24 1.83,-1.67 9.58,-10.73 13,-20.26 13.68,-35.41l13.31 0.5c-3.41,-3.37 0,-1.11 -5.62,-4.46 -3.48,-2.07 0.7,-0.12 -4.61,-1.13 -16.12,-0.44 -17.92,-1.94 -18.04,13.74 -0.12,15.31 -0.04,16.02 -2.49,30.07z"/>
    <path class="fil0" d="M2799.51 1243.11c9.74,-10.52 8.22,-20.98 8.15,-35.1 4.58,-3.94 -3.66,-1.01 8.67,-3.02 -2.77,-2.64 -0.1,-2.19 -5.55,-4.43 -6.74,-2.76 -2.34,-0.79 -6.83,-1.28l-11.17 1.8 6.74 42.02z"/>
    <path class="fil0" d="M2464.81 1510.87l-11.24 -13.66 -9.68 2.44c1.77,5.91 3.44,8.99 7.26,12.47 18.07,16.48 13.62,-1.19 13.66,-1.25z"/>
   </g>
   <g>
    <path class="fil1" d="M2559.05 1411.5l10.36 10.12c-3.45,6.02 2.37,1.7 -6.28,5.51 -6.45,13.75 -5.31,11.39 -14.48,19.69 -0.63,0.57 -2.58,2.22 -3.2,2.87 -4.45,4.61 -0.86,-0.16 -4.82,5.98 45.73,-9.49 44.82,-61.87 13.96,-81.59 -12.61,-8.07 -21.52,-4.87 -38.61,-6.38 7.37,-14.14 12.13,-14.91 11.47,-36.89 -0.78,-25.63 -13.44,-23.48 -6.72,-41.43 -20.89,2.02 -21.92,15.76 -13.17,32.03 11.87,22.05 10.15,21.33 4.87,48.94 17.79,3.69 44.41,4.37 46.61,41.16z"/>
    <path class="fil1" d="M3176.66 1152.47c36.56,4.16 58.01,-7.24 68.01,-31.5 15.18,5.8 20.91,18.02 44.2,15.58 18.72,-1.96 26.57,-13.91 37.2,-22.43l0.07 19.12c7.32,-10.1 5.85,-14.22 3.87,-27 -22.35,5.46 -20.44,23.69 -49.37,22.7 -18.24,-0.62 -36.44,-16.05 -40.58,-30.91 -23.63,-4.17 -1.66,43.35 -51.05,50.2 -17.33,2.4 -9.28,-1.41 -12.35,4.24z"/>
    <path class="fil1" d="M2559.24 1272.76l46.66 -17.33c25.9,-13.01 -12.84,-9.27 49.46,-14.93 16.02,-1.46 25.96,-1.17 41.39,-1.94l3.56 -13.41c-57.59,14.12 -8.2,13.23 -82.57,9.6 -27.53,-1.34 -39.97,5.15 -53.52,28.44l-4.96 9.56z"/>
    <path class="fil1" d="M2239.96 1459.02c16.5,4.39 20.31,9.56 29.24,19.85l77.17 0.32c-0.43,-6.52 1.48,-5.22 -4.37,-5.26 -9.26,1.3 -16.69,-3.69 -27.05,-3.9 -11.28,-0.22 -19.54,3.61 -31.46,3.75 -7.01,-4.84 -13.93,-16.12 -25.36,-14.37l-15.08 -5.42c1.13,-14.36 5.15,-21.31 2.63,-37.73 -2.03,-13.24 -9.56,-19.85 -10.78,-26.01l12.26 -0.14c-4.82,-6.66 -16.06,-7 -19.93,-0.67 -3.84,6.27 3.15,13.49 6.54,19.68 11.02,20.07 0.63,29.52 6.19,49.89z"/>
    <path class="fil1" d="M2727.31 1401.13c-12.72,5.14 -13.63,8.56 -23.93,10.15 -26.39,4.09 -45.1,-9.67 -52.46,-35.05l-4.5 -7.69 -3.68 0c2.96,29.8 1.42,45.65 28.29,55.16 25.2,8.92 47.32,-1 56.28,-22.57z"/>
    <path class="fil1" d="M2764.98 1349.43c-10.53,-0.81 -5.19,-2.52 -9.46,2.41l39.37 1.3c4.62,-5.29 31.61,-9.14 35.07,-39.45 3.02,-26.48 -8.93,-34.37 -23.88,-49.53l-9.96 -2.43 3.41 -18.62 -6.74 -42.02 11.17 -1.8c-8.04,-4.26 -13.59,-1.29 -22.24,1.64 -0.43,12.3 6.21,14.24 9.67,25.19 3.53,11.19 1.64,22.08 0.83,33.31 8.25,7.87 36.83,18.78 25.83,59.22 -5.95,21.87 -26.03,35.56 -53.06,30.78z"/>
    <path class="fil1" d="M3096.77 1182.79l-8.73 5.46c21.03,4.8 29.19,21.48 57.86,8.65 18.67,-8.35 25.26,-20.07 30.75,-44.43 -8.22,3.47 -7.27,6.39 -15.3,16.22 -3.62,4.43 -9.85,10.3 -16.33,12.4 -18.01,5.85 -30.01,-3.39 -48.26,1.69z"/>
    <path class="fil1" d="M1936.82 1647.71c3.13,2.59 -2.61,1.02 8.35,4.99 6.34,2.3 -3.56,0.69 6.75,0.69 41.05,8.58 62.06,-28.49 52.66,-59.66 -2.95,-9.78 -8.12,-15.22 -15.35,-20.53l-4 -2.72 -10.26 -2.45c0.63,0.65 1.66,0.58 2.03,1.8l8.96 7.49c18.79,18.74 15.95,83.02 -49.14,70.4z"/>
    <path class="fil1" d="M2119.09 1645.32l-2.76 -19.93c-7.57,-6.3 -13.06,-7.35 -19.09,-16.93 -5.15,-8.18 -6.74,-18.2 -9.78,-25.74l0.58 -5.97 -4.29 0c-1.57,23.01 -3.52,31.09 7.06,46.67 11.53,16.98 11.48,13.43 28.28,21.91z"/>
    <path class="fil1" d="M3028.09 1241.66c8.83,-2.44 9.31,-1.8 15.09,-8.44 18.46,-21.21 4.96,-46.97 4.08,-53.78l8.89 -2.5 -19.22 -0.51c-2.41,31.81 11.09,16.16 -5.51,54.32 -3.07,7.07 -1.33,-0.91 -3.34,10.91z"/>
    <path class="fil1" d="M2936.17 1331.51c-4.21,-7.8 3.61,-0.8 -5.04,-6.7 -26.57,-3.59 -42.04,-16.8 -45.52,-42.91l-3.33 -2.36c-3.76,16.38 2.11,32.81 11.39,41.07 10.91,9.71 23.67,11.62 42.49,10.89z"/>
    <path class="fil1" d="M1950.3 1528.13c5.57,-3.31 2.05,0.13 6.19,-4.24 3.39,-3.58 2.28,-3.19 3.46,-6.11 2.45,-14.06 2.37,-14.77 2.49,-30.07 0.12,-15.68 1.92,-14.19 18.04,-13.74 -10.91,-6.45 -19.65,-2.37 -28.99,2.45l-1.2 51.71z"/>
    <path class="fil1" d="M2870.27 1265.04l-10.46 -10.62c-14.39,-13.11 -18.7,-25.78 -28.94,-33.09 0.41,25.1 14.05,39.61 39.4,43.72z"/>
    <path class="fil1" d="M3196.62 1014.58c6.07,-2.35 4.27,-1.51 10.27,-4.03 4.16,-8.39 5.06,-10.46 11.49,-16.09 2.79,-2.44 5.57,-3.75 7.96,-5.74 5.14,-4.29 3.31,-2.97 5.3,-6.64 -18.28,1.99 -29.43,16.13 -35.02,32.51z"/>
    <path class="fil1" d="M3062.4 1078.09c9.51,-3.98 14.52,-7.89 22.31,-11.78 4.3,-2.15 6.53,-2.87 9.94,-4.26 1.26,-0.51 5.14,-1.94 6.17,-2.51 4.16,-2.32 2.79,-1.74 5.28,-4.08 -9.57,0.16 -19.63,1.57 -27.56,5.16 -9.15,4.14 -12.57,7.08 -16.14,17.47z"/>
   </g>
   <g>
    <path class="fil2" d="M2217.58 1625.15c12.82,-26.18 21.61,-41.74 45.53,-54.73 35.46,-19.26 115.66,-12.69 156.66,21.26 29.69,24.59 26.91,43.72 34.66,62.04 5.13,5.85 4.89,-8.24 6.06,14.26 0.05,0.91 -10.66,64 -16.72,77.15l9.71 4.7c-11.63,16.19 -4.34,15.34 -17.31,20.97 -28.6,27.91 -87.3,43.28 -138.09,22.62 -36,-14.64 -71.52,-56.04 -81.99,-94.07 -0.47,-0.53 -0.96,-1.39 -1.15,-1.8l-1.59 -15.43c7.56,-51.69 -2.62,-30.95 0.36,-48.46 1.35,-7.96 -1.01,-3.86 3.86,-8.51zm236 -127.94l11.24 13.66c4.51,4.45 0.28,-0.86 4.84,5.47l15.43 33.07c-13.18,4.53 -14.74,-3.76 -25.58,-12.04 -8.46,-6.46 -17.25,-11.58 -25.71,-17.94 -0.13,-9.37 -1.55,-15.69 2.37,-22.42 1.91,-3.28 8.04,-10.59 8.37,-7.56 13.69,4.5 5.27,1.65 9.03,7.77zm-0.2 -193.8l-9.52 6.65c-6.22,11.55 -14.3,20.36 -22.61,32.59 -12.52,18.41 -13.61,11.16 -37.46,14.56 -27.7,3.95 -72.77,2.14 -101.41,0.45l-1.78 -1.24c-5.39,11.07 -1.72,2.37 -9.81,13.25 -8.74,11.74 -9.75,10.59 -12.4,22.8 1.3,1.07 48.45,52.07 49.83,54.36l2.79 -1.93c20.52,-1.07 30.41,3.74 49.72,6.14l-6.37 24.44 -7.97 3.71 -77.17 -0.32c-8.93,-10.29 -12.74,-15.46 -29.24,-19.85l-7.87 -2.45c-1.28,-20.03 -1.14,-19.8 -8.97,-33.92 -5.19,-9.35 -2.94,-5.11 -8.32,-11.67 -6.44,-7.84 -5.46,2.04 -5.95,-14.41 6.74,-14.1 11.68,-6.86 17.55,-17.06l-12.72 -4.89c-11.1,-2.03 -27.14,2.7 -36.63,7.37 -7.59,12.16 -12.91,10.66 -21.39,26.21 -5.28,9.68 -9.3,20.37 -14.72,31.34 -29.57,0.39 -61.33,-6.74 -94.77,-5.59 -8.59,0.3 -15.11,1.25 -20.71,4.9l-6 5.13c-0.43,0.39 -1.04,0.98 -1.47,1.38 -15.2,14.13 -15.39,19.05 -12.72,45.06 3.27,10.75 15.64,24.8 23.85,29.98 18.13,-2.26 60.62,2 74.86,10.44 -2.86,16.09 -17.56,32.8 -15.92,45.89l-0.58 5.97c26.77,2.89 7.19,4 31.63,16.69l5.84 82.4 5.19 32.3 3.63 15.62c6.24,5.55 7.22,5.71 7.23,12.36 0.01,6.24 -4.56,11.96 -4.57,11.94 -0.25,-0.46 -0.98,1.67 -1.5,2.46l-22.32 -0.51c1.87,-38.41 3.35,-10.15 -1.49,-45.08 -1.97,-14.22 -3.76,-22.13 -13.45,-28.47 -8.94,-5.86 -24.53,-8.32 -39.72,-6.08 -18.05,2.66 -13.58,9.23 -29.54,14.72l-3.67 -0.36 1.02 2.71 -5.39 60.28c-39.14,-2.68 -62.92,-3.89 -102.46,-2.24 -22.77,0.94 -28.43,1.28 -44.18,9.94 -32.86,18.07 -22.02,53.85 -5.6,67.59 27.96,23.4 101.47,15.31 138.24,16.12 -4.04,24.44 -12.53,37.09 0.36,59.46 9.46,16.41 23.62,22.67 48.2,21.32l7.59 -13.72c9.33,-15.51 4.61,1.93 25.71,-25.63 5.04,-6.58 0.07,-0.94 4.91,-5.64 7.42,-22.91 -0.59,-19.88 28.29,-24.08 17.23,-2.51 29.38,-5.26 44.94,-9.23 7.54,-5.39 14.25,-6.22 23.85,-8.22 48.74,-10.15 48.85,37.23 147.53,43.47 52.39,3.31 114.54,-14.29 150.31,-50.16 9.02,-9.05 2.09,-6.44 12.43,-16.1 14.25,-7.04 31.76,-47.28 37.16,-68.72 5.95,-23.67 8.81,-75.32 -0.17,-97.02l-4.83 -9.05c-5.59,-13.57 -2.41,-20.24 -3.06,-26.63 -1.15,-11.31 -7.04,-24.54 -9.5,-36.1 40.52,3.01 59.93,-21.39 55.08,-61.06 -8.55,-10.72 -8.16,-17.26 -18.7,-28.65 -5.08,-5.48 -16.72,-21.46 -21.27,-24.94 -10.74,-10.93 -2.64,-15.01 -2.64,-15.01 2.7,-5.35 18.93,-19.02 30.58,-22.26 8.65,-3.81 2.83,0.51 6.28,-5.51l-10.36 -10.12 -27.87 -23.06c-36.7,-29.55 -17.28,-12.75 -30.48,-40.2 -6.8,-14.13 -19.26,-28.8 -2.51,-47.96 -4.91,-4.63 7.29,-4.64 -10.43,-3.8l-34.39 6.92z"/>
    <path class="fil2" d="M1805.63 2125.72c-5.04,10.75 -8.64,-0.95 -2.35,16.33 6.84,18.8 12.5,23.61 15.84,52.59 3.85,33.52 0.83,51.98 -27.89,61.32 -96.43,31.35 -182.19,-53.5 -144.33,-101.99 13.13,-16.82 -2.46,-4.68 15.26,-24.48 28.29,-31.62 1.07,-16.03 52.96,-38.53 52.56,-22.79 77.49,24.52 90.51,34.76zm-266.68 26.55c-8.92,20.62 3.57,26.83 5.85,33.79 5.85,17.82 -0.17,40.21 17.08,68.97 9.82,16.37 47.47,53.13 64.83,64.24 35.93,23 45.91,11.41 53.7,32.63l2.24 2.02c43.65,5.36 67.63,2.35 109.75,-5.43 17.24,-3.19 32.13,-7.85 45.86,-14.38 14.82,-7.04 25.31,-17.79 37.18,-23.69l-1.87 -3.48c-7.06,-40.61 0.59,-22.26 9.94,-48.15 13.47,-37.27 7.74,-58.74 6.43,-99.39 -8,-3.23 -3.97,5.61 -4.85,-0.27 -0.02,-0.11 -0.07,0.28 -0.18,0.27 -0.79,-18.33 -12.19,-39.58 -19.14,-53.28 -10.85,-21.4 -2.31,-16.77 -19.47,-32.47 -6.26,-5.73 -2.29,-2.3 -8.11,-8.85 -43,-48.36 -62.61,-16.97 -77.2,-61.25l-3.58 -1.3 -34.57 -8.27c-0.31,-0.72 -0.61,-1.46 -0.91,-2.21 -4.78,-12 -10.31,-32.55 -36.61,-36.39 -13.93,-2.04 -23.11,3.99 -33.04,7.64 -12.04,4.43 -19.08,3.91 -28.36,11.31 -18.08,14.43 -62.24,74.43 -60.89,84.57 0.87,6.47 4.82,3.72 6.61,12.94 -9.5,12.31 -19.65,43.55 -22.83,61.37 -2.92,16.4 -2.39,16.06 -7.88,19.05z"/>
    <path class="fil2" d="M3147.92 1467.97c2.2,-15.85 -0.64,-24.15 6.72,-37.15 5.86,-10.36 9.87,-11.22 17.4,-20.17l7.59 -3.98c46.05,-18.02 -5.91,6.12 22.93,-11.15 33.17,-19.87 114.25,48.57 107.39,82.13 -1.06,5.2 -6.03,-3.44 -0.57,13.57 3.91,12.18 13.05,36.41 -3.33,48.19l-7.94 7.5c-5.44,6.25 -12.28,11.69 -21.91,13.65 -8.5,1.72 -16.48,-0.61 -24.54,-2.77 -43.12,-11.54 -52.93,-13.65 -78.59,-51.03 -3.56,-5.18 -8.4,-13.79 -11.99,-19.37 -7.19,-11.17 -10.5,-7.58 -13.15,-19.41zm21.57 -147.13c-11.63,-0.17 -33.22,8.21 -40.33,15.91 -0.76,0.54 -1.74,1.1 -2.35,1.48l-12.2 7.01c-17.01,10.22 -32.26,39.22 -41.02,58.16 -2.06,4.44 -4.12,9.33 -4.98,14.25 -1.83,10.5 -0.4,12.89 -4.7,18.92 -10.02,26.73 4.18,68.5 12.26,88.17 11.65,7.7 9.33,10.35 12.76,23.51 6.03,23.13 62.98,78.3 74.5,82.53 20.38,7.5 -6.7,-8.76 16.83,2.93 13.11,6.51 11.87,4.34 20.34,13.15 44.84,9.67 89.37,-1.03 132.5,1.65 44.93,-8.37 36.57,-17.65 60.2,-36.4 26.59,-21.11 27.85,-24.66 21.61,-65.63l-19.23 -11.22 -9.37 8.3c-4.44,-8.58 13.8,-79.43 -27.35,-134.46l13.4 4.71c-16.41,-33.93 -34.54,-45.87 -56.03,-64.34 -8.77,-7.54 -9.25,-12.31 -18.32,-18.84 -8.8,-6.33 -43.19,-23.01 -60.67,-16.64l-67.84 6.86z"/>
    <path class="fil2" d="M1887.89 1634.43l21.88 3.5c36.4,-1.32 41.52,13.91 62.06,-16.02 4.22,-6.14 1.66,-2.91 6.74,-6.96 0.66,-0.52 2.78,-1.93 3.45,-2.45l5.19 -4.5c-11.05,-18.08 -26.02,-34.3 -42.39,-47.8l-4.16 -3.63 -3.18 -2.87c-12.31,-19.33 -19.34,-62.36 13.02,-81.63l-16.24 -12.67c-27.23,-9.28 -42.11,5.83 -53.19,17.61 -15,15.95 -33.8,35.28 -45.01,51.2 -22.99,-1.87 -61.5,-20.65 -83.76,-28.67 -51.92,-18.69 -57.5,-20.99 -77.11,3.07 -7.78,9.55 -8.52,5.44 -9.92,19.43 -3.41,34.01 7.31,38.74 22,47.66 16.86,10.24 12.15,19.89 35.68,29.65 13.64,5.66 30.87,4.91 42.89,11.5 -7.34,19.18 -34.96,39.31 -21.9,71.1 10.44,25.41 35.95,33.4 66.78,19.6 0.75,-16.6 9.58,-20.26 31.93,-42.96 7.89,-8.02 9.84,-11.88 16.87,-20.27 8.29,-9.9 19.39,-13.37 28.38,-3.89z"/>
    <path class="fil2" d="M3251.16 981.91c-2.84,3.08 -34.91,23.02 -44.28,28.64 -6,2.52 -4.19,1.68 -10.27,4.03l-1.76 2.06c-6.95,6.45 -1.63,4.6 -19.79,9.09 -15.66,3.87 -39.31,15.13 -51.81,25.09 -4.95,1.96 -8.89,4.56 -17.16,4.64 -2.49,2.33 -1.12,1.76 -5.28,4.08 -1.03,0.57 -4.91,2 -6.17,2.51 -3.41,1.39 -5.64,2.11 -9.94,4.26 -7.79,3.89 -12.8,7.8 -22.31,11.78l-4.68 3.86c-5.27,10.2 -6.94,19.33 -4.78,31.34 1.3,7.26 7.15,16.73 12.16,21.58 17.7,17.13 8.61,-4.78 22.96,45.91l8.7 2c18.25,-5.08 30.25,4.17 48.26,-1.69 6.48,-2.1 12.71,-7.97 16.33,-12.4 8.03,-9.83 7.08,-12.75 15.3,-16.22 3.07,-5.65 -4.98,-1.83 12.35,-4.24 49.39,-6.85 27.42,-54.37 51.05,-50.2 5.01,3.01 2.14,1.13 6.04,4.13 1.13,0.87 3.78,3.16 4.98,4.24 8.76,7.93 16.19,15.21 34.76,13.67 14.52,-1.2 22.19,-11.33 40.83,-20.66l3.65 -21.88c24.64,-2.01 37.91,-8.6 48.73,-23.81 -20.98,-26.84 5.6,-43.2 -38.05,-66.04 -17.91,-9.37 -29.69,-4.19 -49,-5.7 -13.96,-1.09 -9.96,-5.1 -19.65,-4.76 -8.21,0.28 -7.29,4.58 -21.17,4.69z"/>
    <path class="fil2" d="M2715.87 1216.53l-8.06 3.66 -7.52 4.98 -3.56 13.41c-15.43,0.76 -25.37,0.48 -41.39,1.94 -62.3,5.66 -23.56,1.92 -49.46,14.93l-46.66 17.33c0.9,6.69 0.75,14 2.67,19.7 5.45,16.15 3.85,-2.15 7.81,16.67 6.14,5.76 9.91,10.12 18.98,12.06 11.99,-0.37 60.32,7.11 69.32,12.52l-11.6 34.83 4.5 7.69c10.1,5.38 30.41,27.13 63.51,20.21 8.86,-1.85 12.14,-6.43 19.8,-11.28 8.28,-9.84 9.86,-22.65 16.44,-29.65 4.24,-4.51 -0.66,-0.91 4.83,-3.68 4.28,-4.93 -1.06,-3.21 9.46,-2.41 5.54,-4.42 14.96,-5.45 21.95,-8.77 7.25,-3.45 12.43,-7.54 20.79,-11.28 -2.73,-70.28 4.85,-27.62 -21.34,-72.65 -5.4,-9.29 -2.15,-7.26 -6.03,-15.99l-15.42 -31.31c0.28,-0.55 0.81,-1.28 1.14,-1.83 0.36,-0.6 0.94,-1.4 1.29,-1.96 0.37,-0.59 1.06,-1.56 1.39,-2.04 0.33,-0.5 1,-1.36 1.45,-2.07l-54.32 15z"/>
    <path class="fil2" d="M2935.2 1135.2c-3.05,8.96 -10.86,26.28 -15.43,34.73 -20.77,5.85 -36.36,0.55 -57.92,8.39 -16.42,5.97 -32.39,16.44 -37.33,30.61 1.26,3.17 1.46,2.59 3.35,6.13 3.48,6.52 1.61,1.59 2.99,6.27 10.23,7.32 14.55,19.98 28.94,33.09l10.46 10.62c4.45,-0.92 3.23,-1.74 3.23,2.94l7.63 6.87c4.84,0 3.09,-0.74 1.16,4.69l3.33 2.36c2.96,2.49 2.06,1.48 4.97,4.7 9.13,10.11 14.35,17.77 27.14,27l13.41 11.21c8.65,5.9 0.82,-1.09 5.04,6.7l12.21 6.83c10.21,-6.74 14.48,-24.39 20.95,-38.66 5.34,-11.78 12.97,-33.42 15.67,-47.37l13.45 -1.33c8.73,-10.11 3.94,-8.41 10.12,-32.56 1.46,-5.72 1.22,-7.12 2.03,-12.93 4.21,-30.33 13.45,-17.65 20.37,-36.36 -2.04,-1.14 -7.96,-3.98 -9.43,-4.9 -18.61,-11.69 -6.58,-34.4 -46.96,-43.63 -14.29,-0.71 -29.3,8.28 -39.38,14.61z"/>
    <path class="fil2" d="M2549.07 1634.86c18.46,35.47 45.54,65.24 94.42,37.73 2.95,-19.09 12.24,-30.19 2.33,-52.75 -6.17,-14.06 -17.65,-23.56 -29.89,-29.74 -37.91,-19.17 -65.68,6.5 -66.87,44.76z"/>
   </g>
   <g>
    <path class="fil3" d="M1092.82 1873.85l56.19 254.4c43.49,173.8 83.32,314.2 139.29,483.46l80.09 229.23 -312.37 4.34 36.8 -971.43zm566.53 709.16c-30.83,-2.22 -225.77,-33.69 -252.59,-49.7 -9.56,-5.71 -12.57,-23.98 -18.2,-41.87 -5.83,-18.52 -26.13,-75.24 -27,-90.93 78.33,7.43 163.49,4.38 241.17,0.67l56.61 181.83zm295.69 -315.44l-94.36 -251.17c9.04,5.17 10.52,7.37 18.43,15.97l87.32 75.59c13.04,11.39 22.17,18.5 34.3,28.54 42.04,34.81 115.6,87.52 145.28,113.48 -31.68,4.23 -63.65,7.31 -94.92,11.07 -27.89,3.35 -75.75,0.42 -96.05,6.53zm-587.65 -706.59c1.46,28.02 18.39,82.21 25.73,111.68 6.77,27.2 24.52,84.74 26.19,108.23 -52.36,9.44 -151.42,10.39 -206.86,6.98 -6.4,-47.19 -32.18,-172.25 -32.09,-208.1l187.03 -18.79zm390.03 441.27l3.58 1.3c66.7,12.3 107.86,60.83 129.42,114.63 22.7,56.65 30.89,154.46 -16.84,188.75l1.87 3.48c21.13,45.89 71.41,198.86 111.41,228.51 38.46,28.5 92.09,-12.59 57.69,-69.13 -16.36,-26.87 -45.78,-84.87 -55.3,-116.15 43.82,2.85 200.91,-18.13 253.65,-24.75 19.77,34.69 39.51,68.62 62.21,100.31 24.63,34.4 58.06,36.51 77.63,12.31 9.1,-11.25 6.24,-19.91 11.81,-29.58 69.02,37.52 114.35,65.03 189.9,103.55 8.9,4.54 43.37,19.86 47.77,23.7 15.92,13.9 11.51,84.97 65.5,82.96 16.05,-0.6 26.69,-8.6 34.11,-19.75 1.63,-2.44 1.95,-3.39 3.3,-5.42 0.5,-0.74 2.11,-3.09 2.58,-3.74l2.92 -3.73c43.33,9.22 38.19,17.85 94.78,-6.8 28.91,-12.59 54.53,-25.81 80.67,-39.27 109.43,-56.34 236.36,-137.14 327.01,-215.93l31.93 -27.98c15.81,-12.56 56.09,-48.22 69.16,-55.36 9.56,36.29 77.73,131.53 104.66,164.15 7.6,9.21 17.59,22.46 24.56,29.77 18.43,19.34 36.58,37.13 52.24,55.21 -271.23,174.09 -669.76,265.46 -999.25,300.84 -98.36,10.56 -200.31,21.11 -300.07,25.77 -183.32,8.56 -423.05,-7.24 -602.65,-43.65 -44.95,-9.11 -87.78,-19.11 -131.04,-31.58 -25.32,-7.3 -17.46,-2.06 -33.77,-46.31 -6.9,-18.72 -16.94,-43.26 -21.5,-62.6 36.46,4.58 77.29,14.48 114.22,21.08 116.93,20.9 244.89,36.39 363.28,45.83 169.17,13.47 352.24,16.44 521.58,0.82 28.6,-2.64 96.67,-4.11 115.22,-18.97 31.09,-24.89 19.67,-74.68 -22.64,-78.61 -26.98,-2.5 -91.74,8.1 -122.65,10.53 -138.09,10.83 -256.21,6.75 -394.23,3.23 -84.11,-2.15 -170.35,-14.91 -252.3,-22.68l-39.82 -119.85c-12.69,-41.84 -27.04,-84.13 -37.32,-123.26l-2.24 -2.02c-34.98,-7.36 -69.59,-25.02 -92.62,-48.21l-19.7 -22.69c-0.18,-0.85 -0.87,-0.95 -2.21,-1.13l9.48 33.83c-77.09,0.18 -169.09,6.27 -242.71,-6.41l-42.95 -164.66c62.69,2.16 197.15,20.44 249.25,9.64 -3.56,-29.74 13.55,-63.86 20,-88.41 -39.89,-0.39 -265.22,-0.56 -288.88,-15.31 -10.29,-6.41 -39.07,-169.09 -38.98,-170.12 74.57,-3.31 137.04,0.14 209.57,-9.76 5.66,8.16 18.14,58.24 22.2,71.41 24.92,80.81 95.95,47.86 92.56,-0.64 -1.19,-17.03 -15.26,-53.41 -20.31,-71.68 -5.38,-19.43 -11.59,-66.14 -17.03,-76.98 -10.39,-20.74 -32.42,-119.04 -39.86,-148.95 -4.92,-19.77 -15.93,-54.93 -17.18,-73.45l70.47 91.63 228.41 259.41c-27.78,42.21 -11.93,40.03 -2.5,82.84zm2094.54 -779.98c24.98,46.05 16.85,43.2 -0.53,93.78 -11.52,33.5 -22.39,60.87 -35.86,92.67 -12.27,28.96 -27.88,57.58 -39.53,84.49 2.89,-24.98 10.63,-54.68 14.68,-80.52 4.65,-29.66 7.67,-56.93 10.47,-87.11 7.35,-79.07 -0.08,-143.52 3.09,-182.69 13.17,14.17 36.31,58.42 47.68,79.39zm-1674.9 159.72c9.5,-4.67 25.54,-9.4 36.63,-7.37 5.04,-4.06 0.17,-1.61 8.93,-4.9l23.17 -5.06c11.78,-2.91 21.7,-6.61 34.8,-8.24l1.78 1.24 161.49 -47.6 9.52 -6.65c14.71,-27.5 38.82,-16.82 66.87,-17.39 13.81,-3.43 28.68,-11.42 39,-13.26l4.96 -9.56c13.56,-23.3 26,-29.79 53.52,-28.44 74.38,3.63 24.98,4.52 82.57,-9.6l7.52 -4.98c4.48,-13.22 18.25,-29 28.59,-33.78 8.34,-3.86 20.3,-4.43 30.11,-3.18 12.06,1.55 11.84,4.52 23.99,7.02 16.57,0.83 53.31,-18 72.35,-25.63 24.9,-9.98 47.54,-20.35 72.35,-29.41 10.08,-6.33 25.09,-15.32 39.38,-14.61 7.92,-7.6 75.02,-35.83 83.14,-38.65l4.68 -3.86c3.57,-10.39 7,-13.33 16.14,-17.47 7.93,-3.59 17.98,-5 27.56,-5.16 8.27,-0.07 12.21,-2.68 17.16,-4.64 9.86,-40.09 32.61,-32.96 71.6,-34.18l1.76 -2.06c5.59,-16.38 16.74,-30.52 35.02,-32.51 0.63,-0.52 1.59,-0.97 2.12,-1.22l15.91 -4.27c15.89,-67.35 88.2,-47.52 88.69,1.93 1.54,6.31 -3.4,1.91 7.93,6.3 49.25,19.04 35.38,23.61 37.35,68.93 87.8,49.8 178.83,99.73 288.62,130.63 4.23,96.85 -7.96,197.91 -28.42,287.08 -13.78,60.06 -8.42,53.12 -41.76,78.13 -7.87,5.91 -11.41,11.61 -18.31,18.72l-74.73 79.52c-12.63,13.58 -25.34,29.07 -37.41,42.66 -6.42,7.23 -12.41,14.18 -19.27,20.76 -51.12,49.01 -116.15,125.87 -168.98,179.54l-162.97 148.43c-34.87,27.51 -75.94,46.46 -65.68,88.53 4.49,18.43 24.33,33.71 47.85,30.5 17.5,-2.39 37.02,-20.44 48.08,-28.82l64.79 -52.31c24.55,-18.63 153.51,-142.51 177.53,-170.94l38.79 -41.16c11.91,-15.09 24.14,-25.61 36.59,-40.63l73.89 -77.89c-14.93,52.96 -139.51,227.47 -180.41,274.2 -9.2,10.52 -18.16,20.34 -26.12,30.96l-157.61 156.76c-6.57,5.01 -8.4,8.06 -15.05,13.43 -105.71,85.51 -182.32,139.18 -307.64,203.94 -88.59,45.78 -63.61,42.8 -157.99,-3.06 -51.78,-25.16 -103.13,-50.04 -149.7,-76.18 -128.81,-72.33 -301.59,-180.58 -413.13,-272.56 -21.48,-17.71 -41.72,-34.35 -63.36,-50.91 -21.13,-16.17 -40.19,-34.34 -60.57,-50.92 -5.98,-4.87 -8.37,-8.94 -14.46,-13.96 -6.37,-5.25 -9.87,-6.78 -15.8,-12.93 -12.62,-13.1 -19.65,-16.6 -29.99,-27.14 -43.68,-44.53 -101.99,-94.87 -143.3,-142.37l-184.51 -215.44c-11.38,-14.39 -40.46,-48.77 -47.49,-63.76 12.93,-7.31 60.05,-10.36 78.06,-12.94 122.21,-17.56 258.84,-42.41 377.32,-68.2 47.98,-10.44 100.8,-25.65 146.55,-33.43zm-1044 -385.41c18.47,36.08 34.44,74.65 52.47,112.18 36.09,75.14 74.36,144.89 115.75,215.78 10.65,18.23 20.49,33.63 31.28,51.53 10.98,18.2 22.38,33.54 31.97,51.84 -37.31,1.22 -180.49,23.11 -202.1,18.41 -7.76,-74.76 -14.52,-145.33 -19.78,-220.94 -4.92,-70.74 -12.03,-157.57 -9.59,-228.79zm51.93 -233.2c32.82,-3.92 83.67,1.45 118.51,1.94 121.4,1.72 238.97,-0.94 360.01,-2.53 324.47,-4.25 790.46,-43.04 1111.09,-103.68l201.5 -41.38c16.85,51.78 135.95,215.53 191.05,260.33l-90.39 48.98c-96.91,44.8 -181.58,82.65 -283.41,122.47 -294.68,115.23 -529.27,178.27 -839.15,246.65 -52.82,11.66 -444.34,82.74 -464.96,76.09l-13.38 -16.77c-3.49,-5.2 -6.96,-11.02 -10.96,-17.57 -86.07,-141.22 -150.49,-254.22 -217.03,-411.54 -21.72,-51.35 -46.92,-110.52 -62.88,-163zm-202.29 397c4.82,16.98 -36.13,1020.56 -37.06,1076.24 -3.64,217.74 -18.69,449.69 -24.42,671.36 -1.35,52.41 33.02,85.81 91.59,71.74 8.94,-2.15 19.82,-1.84 30.67,-1.99l760.05 -11.11c90.43,-0.98 181.03,-2.68 271.39,-3.68l825.69 -11.75c92.29,-0.85 184.85,-3.59 277.23,-4.64 46.84,-0.53 75.61,-12.87 87.74,-50.59 3.61,-11.22 -1.46,-110.84 -2.77,-131.52 91.36,-21.96 397.34,-180.99 428.76,-228.31 44.98,-67.73 -38.81,-98.77 -77.69,-144.31 -11.11,-13.02 -15.2,-11.9 -40.59,-42.37 -29.5,-35.41 -41.68,-46.41 -70.7,-92.06 -13.58,-21.37 -51.73,-85.07 -57.27,-110.63 12.47,-8.35 114.97,-112.64 128.06,-128.79 100.62,-124.19 135.24,-148.83 246.08,-328.24 50.97,-82.51 100.61,-179.31 138.87,-278.33 12.55,-32.48 47.61,-124.83 49.88,-158.18 3,-44.16 -56.9,-107.85 -64,-141.95l-11.93 -15.2c-30.45,-50.59 -50.14,-71.45 -82.95,-113.98l-83.76 -87.59c-17.81,-13.98 -26.59,-38.38 -56.56,-43.25 -34.43,-5.6 -56.15,10.93 -67.59,28.81 -24.5,38.3 9.21,108.79 15.44,158.56 -36.81,-6.7 -135.5,-58.6 -167.17,-76.69 -139.81,-79.85 -163,-113.95 -257.97,-204.99l-41.46 -50.09c-56.41,-72.08 -74.99,-106.59 -117,-188.77 -36.34,-71.1 -105.63,-34.63 -180.77,-18.27 -33.22,7.24 -67.46,14.31 -101.6,21.11 -450.53,89.71 -1143.13,129.06 -1604.62,108.86 -27.61,-1.21 -95.32,-6.91 -116.76,1.35 -29.57,11.4 -56.71,29.01 -64.51,58.12 -6.69,24.96 -6.69,86.59 -7.5,115.89 -0.65,23.24 -8.49,344.04 -14.8,355.22z"/>
    <path class="fil3" d="M2953.91 4589.62c9.16,-43.2 12.19,-111.39 16.46,-158.29 9.85,-108.18 16.32,-215.94 23.07,-325.07l10.92 12.42c42.93,62.85 63.14,163.08 124.67,167 27.31,1.74 44.09,-8.56 55.47,-22.38 11.22,-13.62 25.09,-27.76 33.57,-43.52 13.74,-25.5 42.23,-76.7 58.74,-94.79 1.43,50.66 7.66,100.15 8.76,151.39 1.04,48.4 5.68,264.52 22.32,295.77 18.57,34.88 68.19,52.19 103.29,17.77 32.5,-31.87 16.74,-81.28 14.83,-133.46l-14.63 -302.53c-2.78,-45.97 -11.16,-101.83 -11.15,-146.02 9.65,-6.03 26.95,-7.7 35.76,-13.06 51.83,-31.55 45.8,-120.13 -46.9,-121.89 -24.44,-0.46 -66.76,-5.22 -88.8,0.48 -64.23,16.61 -124.15,184.1 -159.69,213.49l-40.39 -64.38c-44.78,-70.2 -82.9,-136.61 -164.33,-152.59 -28.95,-5.68 -68.13,-7.85 -98.14,-8.59 -81.96,-2.02 -96.29,77.89 -55.7,113.67 22.71,20.02 50.45,18.39 86.04,20.51 -11.05,158.53 -18.2,334.87 -36.19,492.28 -6.4,56.02 -21.87,107.56 16.39,140.97 38.98,34.03 95.77,7.37 105.64,-39.18z"/>
    <path class="fil3" d="M4105.78 1902.27c14.84,-13.31 31.88,-21.55 44.67,-35.8l38.69 -40.94c9.56,11.85 18.28,36.16 28.63,50.98l34.48 45.73c-28.45,11.56 -62.51,48.52 -83.12,71.28 -11.51,-12.23 -19,-38.05 -46.21,-70.81 -8.03,-9.67 -11.96,-10 -17.14,-20.44zm101.32 -425.6c-90,27.93 -17.39,107.2 -110.21,250.52 -71,109.61 -134.02,71.48 -173.96,97.42 -18.33,11.9 -32.19,33.32 -28.77,63.5 5.45,48.09 60.93,57.59 94.9,85.65 30.9,25.52 58.01,53.42 70.05,109.92 30.49,143.05 -13.68,192.58 26.38,233.71 15.43,15.83 40.55,25.7 69.66,17.16 74.93,-21.99 26.93,-116.79 110.41,-250.13 69.5,-110.99 217.29,-55.13 198.1,-164.94 -13.75,-78.69 -124.51,-16.84 -168.08,-192.19 -35.67,-143.56 25.05,-186.9 -21.74,-232.53 -14.34,-13.99 -39.46,-26.56 -66.74,-18.09z"/>
    <path class="fil3" d="M2042.06 3990.77c3.33,15.03 9.11,25.35 12.29,46.02 16.47,107.1 32.26,396.65 -67.23,446.23 -29.3,14.61 -64.06,17.89 -97.42,7.2 -129.69,-41.56 -85.3,-263.5 -61.49,-360.5 8,-32.57 15.03,-63.57 24.24,-95.6 11.47,-39.87 13.25,-64.72 -11.03,-89.96 -24.04,-24.98 -62.17,-22.56 -85.9,-4.24 -21.65,16.7 -27.83,46.2 -36.9,80.25 -33.03,123.96 -72.45,288 -36.15,414.44 36.82,128.24 147.24,209.64 280.78,192.59 224.5,-28.67 241.73,-278.45 233.63,-479.42 -2.11,-52.26 -7.87,-166.81 -31.52,-204.65 -40.95,-65.52 -139.83,-26.97 -123.3,47.63z"/>
    <path class="fil3" d="M2357.93 4477.6c-33.33,-7.91 -53.56,-7.02 -73.59,11.11 -16.66,15.07 -24.04,38.74 -16.53,70.36 2.95,22.55 34.65,42.3 59.52,50.59 119.71,39.91 334.52,-14.42 402.19,-121.39 32.81,-51.88 28.39,-118.84 -9.02,-163.09 -80.87,-95.66 -208.02,-89.26 -291.62,-148.3 -49.58,-35.01 -34.95,-115.41 4.29,-153.59 49.22,-47.91 93.59,36.15 111.8,74.56 37.57,79.26 110.59,48.73 125.82,6.46 19.17,-53.19 -68.22,-223.01 -204.39,-228.86 -167.46,-7.2 -276.88,259.78 -139.11,388.66 38.6,36.1 80.18,56.94 142.56,77.41 42.25,13.86 133.17,39.99 148,69.25 -5.03,30.74 -72.49,57.23 -110.52,66.77 -23.31,5.85 -49.87,10.83 -75.35,12.3 -51.98,2.99 -56.13,-7.54 -74.03,-12.22z"/>
    <path class="fil3" d="M2795.3 3438.78c11.76,-5.61 29,-2.65 42.14,0.65 13.3,3.35 20.31,6.15 28.44,17.5 5.8,8.09 32.63,50.19 34.07,57.14 1.8,8.69 5.01,80.58 3.9,88.11 -2.47,16.85 -37.57,29.97 -55.28,36.61 -88.51,33.18 -122.32,-70.35 -95.8,-150.13 9.7,-29.2 17.11,-37.76 42.52,-49.88zm98.19 -121.57c-41.99,-9.97 -90,-22.68 -134.57,-8.2 -196.39,63.79 -202.08,409.38 12.83,464.59 46.37,11.91 89.4,2.99 129.95,-13.2 46.7,-18.65 18.2,-8.32 53.48,3.62 21.23,7.19 43.72,1.07 57.83,-9.5 37.61,-28.21 26.47,-68.05 24.73,-123.72 -4.24,-135.57 -17.28,-325.97 -10.56,-450.81 2.24,-41.5 16.23,-102.79 -4.73,-134.09 -21.1,-31.49 -71.93,-42.1 -102.43,-7.19 -33.92,38.81 -27.44,221.41 -26.54,278.5z"/>
    <path class="fil3" d="M2416.02 992.43c35.25,12.64 44.09,25.76 93.24,22.36 31.89,-2.2 61.19,-12.72 89.21,-23.48 35.41,-13.6 129,-42.6 147.41,-71.92 34.98,-55.73 -18.79,-117.97 -89.93,-93.06 -42.17,14.76 -121.31,57.14 -165.06,56.25 -25.03,-27.43 -54.59,-69.79 -108.43,-49.83 -45.16,16.74 -65.13,74.23 -78.47,89 -28.93,-41.27 -52.65,-77.77 -128.6,-55.85 -105.72,30.52 -131.06,118.91 -159.36,132.13 -23.72,11.07 -47.23,-24.9 -56.11,-37.96 -25.57,-37.63 -60.72,-79.13 -128.67,-55.67 -35.42,12.23 -80.21,65.43 -98.17,98.83 -114.41,212.75 25.65,233.83 69,183.46 25.91,-30.1 22.35,-96.71 58.56,-136.19l32.77 36.1c7.66,7.77 27.58,20.16 40.95,27.54 33.92,18.73 76.5,23.08 116.22,12.18 52.04,-14.28 82.27,-56.96 110.28,-95.15 6.11,-8.32 24.63,-27.48 34.05,-30.72 8.33,4.8 15.09,18.94 21.85,25.81 7.41,7.54 17.14,18.1 24.87,23.57 80.74,57.07 152.32,5 174.38,-57.38z"/>
    <path class="fil3" d="M3333.08 1648.5c-43.13,-2.68 -87.66,8.02 -132.5,-1.65 -13.89,-1.95 -15.84,-5.87 -28.56,-8.74 -18.65,11.63 -27.46,26.08 -44.96,39.2 -16.8,12.6 -31.21,24.28 -46.47,35.56 -33.94,-13.87 -191.39,-130.51 -230.98,-159.65 -20.85,-15.35 -54.34,-48.7 -86.69,-25.74 -12.31,8.74 -22.29,23.08 -17.94,44.96 3.89,19.57 16.46,27.16 29.07,36.44 44.28,32.61 105.4,79.95 150.09,109.85 13.52,9.05 25.78,18.01 38.88,26.76 11.2,7.48 27.62,16.37 37.47,25.35 -1.48,1.73 -1.5,1.96 -4.16,4.37l-106.95 70.07c-26,16.15 -46.29,-4.72 -64.98,29.45 -8.4,15.36 -6.56,13.19 -23.33,22.26 -25.07,13.55 -138.11,77.46 -150.83,81.08 -18.58,5.28 -40.15,-25.47 -73.84,-14.07 -26.68,9.02 -30.67,32.7 -25.17,61.12 -22.44,15.85 -73.89,19.57 -94.59,38.93 -28.44,26.59 -11.4,77.05 32.49,75.95 16.73,-0.42 85.28,-25.47 102.32,-32.67 59.75,-25.22 42.93,-32.22 87.23,-6.01 28.81,17.04 57.83,31.78 87.56,46.85 29.83,15.12 70.56,37.34 96.97,8.08 10.21,-11.31 16.49,-32.79 5.83,-50.94 -9.54,-16.24 -18.97,-17.58 -39.37,-26.39 -31.91,-13.78 -58.84,-32.15 -87.36,-44.2 10.39,-11.26 129.6,-74.2 130.17,-74.25 11.74,-1.05 106.94,65.79 122.23,76.16 17.39,11.79 47.98,35.31 76.59,18.88 21.53,-12.36 31.29,-45.15 10.08,-68.31l-119.91 -80.15c37.6,-29.85 87.5,-53.09 121.87,-84.4 35.36,13.04 111.11,81.62 151.2,53.53 27.01,-18.93 23.54,-56.92 -2.35,-74.04 -12.88,-8.51 -60.23,-29.2 -69.12,-40.6 25.41,-13.58 48.07,-40.81 79.52,-64.51 30.03,12.16 78.13,71.18 119.71,49.81 15.25,-7.83 32.46,-32.65 18.3,-58.74 -9.22,-16.98 -31.15,-27.98 -47.56,-39.6z"/>
    <path class="fil3" d="M494.64 3283.73c76.45,-16.26 57.94,62.6 94.58,104.27 38.05,43.27 111.69,21.02 114.07,-40.08 1.59,-40.72 -38.64,-119.56 -58.13,-141.61 -32.43,-36.71 -72.95,-58.06 -144.51,-56.24 -68.15,1.73 -104.67,32.57 -131.99,68.69 -91.09,120.41 -116.82,345.28 -55.19,479.34 37.01,80.5 128.3,172.04 250.65,124.69 78.41,-30.34 139,-118.64 113.22,-174.66 -9.56,-20.76 -29.47,-39.26 -59.61,-39.35 -60.36,-0.19 -61.65,60.72 -76.33,74.24 -62.02,57.13 -109.63,-26.13 -121.81,-88.44 -11.4,-58.35 -8.69,-122.78 5.11,-179.76 6.81,-28.15 35.48,-123.75 69.94,-131.08z"/>
    <path class="fil3" d="M3313.26 3475.99c48.99,-12.31 70.78,20.95 87.47,43.32 6.88,9.22 12.38,12.3 6.83,26.65 -11.72,30.29 -44.6,103.19 -68.83,108.57 -39.52,8.78 -95.52,-46.01 -100.68,-75.59 -8.66,-49.66 38.63,-93.76 75.21,-102.95zm161.61 231.1c18.92,20.68 42.99,48.31 77.84,60.19 41.28,14.07 81.61,9.46 105.09,-16.39 17.91,-19.71 12.52,-26.67 11.03,-51.55 -1.55,-25.84 -4.57,-32.17 -21.12,-44.21 -41.66,-30.31 -54.67,12.12 -78.44,-55.96 -22.11,-63.31 -5.25,-123.28 -49.16,-153.61 -23.51,-16.24 -15.92,-13.36 -32.84,-32.92 -47.01,-54.33 -121.55,-82.12 -196.11,-68.33 -124.52,23.02 -247.1,184.64 -156.53,326.76 28.31,44.42 85.14,97.06 156.05,112.22 120.26,25.71 159.19,-54.65 184.19,-76.2z"/>
    <path class="fil3" d="M1096.6 3579.35c-1.7,46.57 -55.11,92.98 -86.02,109.97 -107.08,58.91 -149.8,-84.5 -101.55,-133.03 33.36,-33.54 95.07,-65.29 136.53,-24.7 7.8,7.64 14.82,15.67 23.64,24.93 10.44,10.97 16.97,12.94 27.39,22.83zm141.43 60c-14.21,-31.92 2.25,-66.48 -8.4,-97.64 -14.12,-41.29 -36.85,-28.22 -50.32,-55.37 -12.34,-24.87 -32.24,-39.34 -48.98,-56.69 -61.15,-63.39 -162.83,-59.6 -236.69,-23.07 -48.16,23.82 -87.65,54.65 -110.48,98.1 -96.63,183.9 84.96,432.85 311.7,288.78 11.23,-7.14 20.43,-14.72 29.68,-21.71 11.43,-8.63 15.77,-17.57 28.37,-23.72 46.15,60.78 196.07,15.7 147.64,-74.46 -17.68,-32.91 -50.78,-29.95 -62.52,-34.22z"/>
    <path class="fil3" d="M2264.4 3383.9c-22.68,-56.88 -72.17,-60.7 -105,-34.32 -38.59,31.01 -22.13,96.52 -19.5,152.61 2.22,47.08 11.67,239.56 48.61,275.01 8.94,8.58 13.16,9.09 20.52,13.81l7.53 5.92c-17.47,-0.12 -24.81,1.17 -39.12,4.45 14.33,1.21 21.54,2.19 35.33,-1.98 25.07,-7.56 47.15,3.93 73.59,-28.63 28.62,-35.24 4.2,-72.4 6.7,-116.06 3.89,-67.85 44.69,-164.51 93.87,-184.09 9.5,21.15 18.11,30.86 25.09,60.07 11.95,50 13.26,102.45 13.34,154.36 0.03,21.59 -5.66,58.78 -2.69,74.99 13.1,71.57 93.29,49.05 106.39,39.13 32.74,-24.82 28.7,-88.67 28.44,-139.83 -0.52,-98.99 -14.65,-207.69 -66.92,-269.97 -22.71,-27.05 -55.72,-60.72 -112.41,-54.86 -37.41,3.87 -90.42,35.63 -108.97,58.93l-4.8 -9.54z"/>
    <path class="fil3" d="M1832.52 3499.58c11.06,-13.51 20.53,-22.3 45.92,-20.81 -5.91,15.5 -22.89,21.63 -45.92,20.81zm-34.25 132.94c50.41,-1 81.61,2.26 124.57,-19.62 121.98,-62.14 119.45,-213.48 4.57,-257.36 -85.93,-32.81 -169.59,19.06 -204.48,66.08 -106.77,143.93 -67.78,360.18 73.71,389.79 80.27,16.8 168.37,-31.71 223.73,-63.76 19.89,-11.52 30.22,-15.02 41.67,-32.61 38.14,-58.6 -21.81,-121.36 -83.71,-95.1 -33.39,14.17 -59.87,34.73 -96.22,49.54 -52.52,21.41 -73.56,22.28 -83.84,-36.96z"/>
    <path class="fil3" d="M4609.11 3491.12c31.93,13.75 90.55,36.72 93.79,68.59 10.08,99.22 -158.83,153.96 -153.29,33.97 1.97,-42.71 34.15,-90.86 59.5,-102.56zm223.37 111.09c26.61,-139.42 -90.72,-186.45 -109.05,-208.96 -20.13,-24.72 -27.78,-28.66 -68.52,-36.69 -118.24,-23.32 -208.84,88.31 -232.34,190.36 -15.02,65.23 -0.37,127.6 32.12,172.57 100.96,139.73 340.96,75.61 377.79,-117.28z"/>
    <path class="fil3" d="M4393.69 1143.56l5.88 13.05 -5.67 10.09c-10.58,-5.15 -8.95,-3.6 -14.16,-14.39l13.95 -8.74zm-197.06 -23.2c-0.04,11.25 -21.19,56.83 29.36,87.93 23.05,14.18 57.28,23.06 73.49,57.94 18.75,40.32 14.27,63.65 20.92,107.33 5.3,34.78 34.49,61.98 74.24,57.47 98.62,-11.19 21.77,-141.8 123.07,-200.11 22.61,-13.01 63.18,-20.54 69.5,-62.93 4.91,-32.97 -6.91,-36.68 -10.89,-53.91 -5.97,-3.17 -1.76,-0.81 -6.13,-3.93 -53.61,-38.33 -74.72,-9.63 -101.63,-104.6 -9.9,-34.94 1.88,-140.44 -84.94,-128.22 -65.38,9.21 -48.77,84.87 -71.98,141.55 -12.3,30.04 -21.26,50.58 -47.23,61.8 -19.59,8.46 -36.15,5.73 -54.22,25.47l-9.79 11.07c-0.4,0.39 -1.56,2.1 -1.85,1.57 -0.3,-0.54 -1.25,1.08 -1.92,1.56z"/>
    <path class="fil3" d="M3736.81 3393.65c-0.07,84.75 -17.56,330.24 34.07,381.12 39.26,38.7 112.33,18.2 114.83,-43.94 3.99,-99.59 14.74,-152.26 74.02,-223.73 80.7,-97.3 70.98,-29 129.99,-56.12 22.43,-10.31 39.96,-30.47 35.98,-63.04 -6.28,-51.41 -88.49,-64.33 -137.1,-54.82 -60.61,11.85 -95.27,64.76 -119.3,81.22 -0.7,-32.17 10.06,-98.43 -55.09,-108.38 -28.45,-4.34 -47.94,6.79 -60.64,20.67 -17.07,18.65 -16.74,36.78 -16.76,67.04z"/>
    <path class="fil3" d="M3176.66 1152.47c-5.49,24.36 -12.09,36.08 -30.75,44.43 -28.67,12.83 -36.83,-3.85 -57.86,-8.65 -11.17,5.06 -16.36,-7.28 -31.88,-11.31l-8.89 2.5c0.88,6.81 14.38,32.57 -4.08,53.78 -5.78,6.64 -6.26,6 -15.09,8.44 -4.67,6.35 -18.02,8.48 -29.64,9.32 -8.68,23.32 2.98,43.57 17.39,52.99 22.34,14.61 39.11,2.52 59.6,-4.4 9.3,10.02 39.14,35.19 53.71,37.18 7.11,-7.69 28.7,-16.08 40.33,-15.91l60.57 -9.67c-8.13,-15.6 -55.94,-42.63 -70.85,-60.31 5.16,-5.68 54.48,-37.17 63.02,-41.63 16.5,-8.63 34.48,17.57 65.13,29.59 -3.74,8.98 -30.88,49.67 9.86,72.47 32.5,18.19 56.07,-9.7 74.81,-20.26 27.22,8.38 56.56,32.5 86.87,41.89 -4.6,11.65 -30.2,41.51 -38.69,51.9 -7.17,8.78 -13.26,15.63 -19.73,23.17 -6.41,7.48 -19.9,18.36 -21.59,14.06 -0.2,-0.52 -1.13,0.02 -1.65,0.23 6.11,16.24 12.61,32.27 15.15,51.58 1.94,14.76 -2.92,53.14 3.3,61.38l19.23 11.22c31.68,18.69 69.44,40.1 93.46,0.89 15.06,-24.59 1.79,-50.74 -22.53,-64.53l-18.58 -10.61c-0.29,-0.94 -1.2,-0.89 -1.77,-1.37 4.95,-8.45 8.5,-9.26 14.82,-17.36l68.03 -86.47c13.73,-9.56 25.3,-5.54 34.73,-24.96 4.57,-9.4 2.93,-16.57 7.07,-24.7 3.51,-6.87 8.13,-9.43 12.41,-18.88 13.93,-30.77 -8.13,-70.43 -50.41,-62.24 -17.22,3.34 -24.12,16.94 -34.4,24.63 -33.09,-10.67 -179.24,-89.7 -201.42,-109.92l9.83 -17.7 -0.07 -19.12c-10.62,8.52 -18.48,20.47 -37.2,22.43 -23.29,2.44 -29.02,-9.78 -44.2,-15.58 -10,24.27 -31.45,35.67 -68.01,31.5z"/>
    <path class="fil3" d="M1442.07 3120.12c-67.69,21.09 -47.37,84.72 -45.28,156.99 2.03,69.76 -2.36,141.8 2,210.79 4.09,64.87 -1,241.12 29.56,286.65 12.87,19.18 38.26,37.87 73.62,28.81 24.64,-6.31 46.27,-29.65 47.35,-58.18 0.49,-12.94 -9.57,-54.86 -11.04,-94.28 -2.49,-67.07 -7.65,-136.07 -8.29,-202.92 -0.68,-70.56 1.18,-138.8 -2.59,-209.61 -1.67,-31.36 -0.06,-67.72 -14.99,-90.92 -13.46,-20.93 -40.27,-36.7 -70.34,-27.33z"/>
    <path class="fil3" d="M2799.51 1243.11l-3.41 18.62 9.96 2.43c53.26,18.06 37.19,86.39 -11.19,88.98l-39.37 -1.3c-5.49,2.78 -0.59,-0.83 -4.83,3.68 -6.58,7 -8.16,19.8 -16.44,29.65l-6.93 15.97c-8.96,21.57 -31.07,31.49 -56.28,22.57 -26.87,-9.51 -25.33,-25.36 -28.29,-55.16 -7.43,-10.83 -34.11,-28.12 -46.24,-39.2l-7.8 -8.14c-9.06,-1.94 -12.83,-6.31 -18.98,-12.06 -24.66,-11.45 -9.87,-14.95 -48.99,-19.76 -6.72,17.95 5.94,15.8 6.72,41.43 0.67,21.98 -4.1,22.75 -11.47,36.89 17.09,1.51 26,-1.69 38.61,6.38 30.85,19.72 31.76,72.09 -13.96,81.59 -0.09,1.62 0.32,-4.28 -2.89,1.56 -2.44,4.43 -1.14,-2.43 -2.55,7.19 4.55,3.48 16.19,19.46 21.27,24.94 10.54,11.39 10.16,17.93 18.7,28.65 21.19,-4.28 227.45,-90.69 263.04,-106.74 17.98,-8.11 20.05,-14.34 30.96,-20.91l52.72 47.92c18.13,17.52 35.97,28.31 54.62,45 -16.75,12.89 -37.61,20.41 -43.04,42.94 -6.56,27.27 11.24,47.97 29.07,53.46 25.26,7.8 48.62,-10.71 63.46,-20.59 47.8,-31.81 23.8,-16.12 58.84,-11.63l-8.69 -22.72c-8.08,-19.68 -22.28,-61.44 -12.26,-88.17 0.53,-16.2 -1.59,-4.48 -6,-8.37 -4.44,-3.92 -53.8,-33.14 -81.25,-61.99 -6.38,-6.71 -20.47,-19.12 -28.26,-22.28 -9.86,0.33 -13.07,5.02 -30.66,4.84 -14.45,-0.15 -21.54,-1.68 -28.39,-9.46 -13.08,-14.83 -15.07,-38.4 -8.2,-64.45l-7.63 -6.87c-20.16,1.3 -34.08,-4.63 -43.03,-15.55 -12.8,-15.61 -6.13,-23.84 -12.43,-44.44l-1.71 -3.01c-12.33,2.01 -4.09,-0.93 -8.67,3.02 0.07,14.11 1.6,24.57 -8.15,35.1z"/>
    <path class="fil3" d="M4202.02 3453.64c2.23,79.42 1.92,142.33 8.72,221.44 1.82,21.27 0.36,54.34 4.37,72.87 8.54,39.43 56.87,63.32 97.57,40.53 39.49,-22.11 33.91,-63.11 30.65,-114.89 -3.02,-48.01 -7.13,-96.63 -7.73,-145.54 -0.42,-34.33 2.33,-123.95 -3.74,-151.48 -8.51,-38.58 -56.85,-62.93 -97.81,-40.54 -38.92,21.27 -33.48,65.69 -32.02,117.62z"/>
    <path class="fil3" d="M2537.47 1650.83c8.98,21.7 6.12,73.35 0.17,97.02 -5.39,21.44 -22.91,61.69 -37.16,68.72 4.19,5.48 -7.59,9.29 25.93,-2.74 9.01,-3.24 18.01,-6.54 26.98,-10.22 57.15,-23.44 32.47,-23.36 138.02,53.57 52.78,38.47 85.01,-1.97 81.04,-34.81 -3.56,-29.44 -44.11,-47.5 -73.71,-72.31 19.29,-13.13 44.07,-20.19 65.8,-32.48 56.2,-31.8 19.23,-111.3 -52.06,-74.8 -19.67,10.07 -46.19,24.65 -68.99,29.82 -48.88,27.51 -75.96,-2.26 -94.42,-37.73l-14.28 -9.65 2.69 25.63z"/>
    <path class="fil3" d="M1959.95 1517.79c-1.19,2.91 -0.08,2.53 -3.46,6.11 -4.13,4.36 -0.61,0.92 -6.19,4.24 -2.59,7.7 -2.47,4.66 -6.3,11.24 -4.05,6.94 -3.28,4.93 -6.53,14.32l3.18 2.87 34.32 11.46 10.26 2.45c25.22,8.31 41.69,31.24 30.13,60.83 -6.56,16.83 -37.43,40.35 -63.44,22.08 -10.31,0 -0.41,1.61 -6.75,-0.69 -10.97,-3.97 -5.22,-2.4 -8.35,-4.99 -6.11,-0.53 -6.49,-0.69 -12.96,-2.65 -3.11,-0.94 -3.63,-0.98 -6.55,-2.35 -8.62,-4.02 -2.24,0.33 -7.54,-4.79l-21.88 -3.5 -12.96 -0.86c-12.02,11.61 -17.03,22.93 -28.08,34.94 -10.19,11.06 -24.82,14.17 -30.08,30.9 23.83,40.03 169.25,0.22 208.98,-6l-1.02 -2.71c4.5,-23.58 15.43,-42.6 36.19,-47.74 20.17,-5 36.47,-0.41 49.02,13.5 3.84,4.26 6.99,7.88 5,12.58l1.56 -9.87 2.6 -13.85c-16.8,-8.48 -16.76,-4.93 -28.28,-21.91 -10.58,-15.58 -8.63,-23.66 -7.06,-46.67 -5.75,-7.27 -20.37,-17.99 -28.79,-25.98 -5.55,-5.27 -9.04,-8.6 -14.3,-14.1 -6.86,-7.16 -7.69,-7.11 -11.56,-16.26 -8.21,-5.18 -20.58,-19.23 -23.85,-29.98 -7.09,-4 -8.29,-6.83 -14.54,-10.86l-13.31 -0.5c-0.69,15.15 -4.1,24.69 -13.68,35.41 -0.38,0.43 -1.55,2.19 -1.83,1.67 -0.3,-0.54 -1.28,1.11 -1.94,1.65z"/>
    <path class="fil3" d="M2959.48 2250.83c11.73,-27.87 -9.45,-56.26 -33.44,-59.39 -33.43,-4.36 -48.24,21.59 -64.88,34.33 -48.54,37.16 -106.61,43.62 -119.94,76.8 -11.68,29.07 9.48,56.37 33.89,59.5 20.93,2.68 52.11,-14.81 74.62,-25.13 32.94,-15.09 97.07,-55.96 109.75,-86.1z"/>
    <path class="fil3" d="M2093.13 1880.89c-6.23,35.2 -20.66,27.26 -28.71,44.24 13.28,55.4 158.64,-0.67 195.74,-11.89 85.06,-25.73 41.66,-19.76 88.8,9.29 36.2,22.31 70.17,-1.92 69.35,-44.28 -34.57,1.97 -65.13,25.75 -132.2,4.4 -71.38,-22.72 -47.4,-43.35 -119.74,-35.07 -15.56,3.97 -27.71,6.72 -44.94,9.23 -28.87,4.2 -20.87,1.17 -28.29,24.08z"/>
    <path class="fil3" d="M4235.1 3081.06c-101.04,10.9 -88.8,151.39 22.69,141.34 88.67,-8 94.51,-153.98 -22.69,-141.34z"/>
    <path class="fil3" d="M2845.6 749.5c-81.77,22.24 -55.55,154.68 34.68,132.45 30.72,-7.57 59.87,-41.93 50.04,-83.78 -7.43,-31.63 -42.82,-60.07 -84.72,-48.67z"/>
    <path class="fil3" d="M2217.58 1625.15l-1.57 14.76c24.57,-4.27 127.64,-42.24 136.21,-41.63 9.83,0.69 86.19,68.76 103.39,75.77l-1.19 -20.33c-7.75,-18.32 -4.97,-37.45 -34.66,-62.04 -41,-33.96 -121.2,-40.53 -156.66,-21.26 -23.92,13 -32.71,28.55 -45.53,54.73z"/>
    <path class="fil3" d="M2216.09 1699.35c10.47,38.03 45.99,79.43 81.99,94.07 50.79,20.66 109.48,5.3 138.09,-22.62l4.02 -19.8c-14.44,1.56 -49.03,17.47 -64.37,23.67 -59.22,23.92 -30.16,23.04 -108.6,-38.93 -17.23,-13.61 -33.09,-27.7 -49.05,-41.96l-2.07 5.56z"/>
    <path class="fil3" d="M1657.05 2144.66c22.2,0.33 121.51,-6.41 138.68,-13.23 2.78,-14.53 -35.14,-49.86 -71.71,-37.31 -22.35,7.67 -57.52,36.62 -66.97,50.54z"/>
    <path class="fil3" d="M3202.94 1399.24c5.21,11.05 38.02,32.4 48.89,40.43 11.35,8.37 43.65,33.57 53.35,36.24 -5.14,-23.01 -21.72,-44.17 -35.76,-53.89 -13.2,-9.14 -51.12,-31.9 -66.48,-22.78z"/>
    <path class="fil3" d="M2258.12 1459.41c11.44,-1.76 18.35,9.53 25.36,14.37 11.93,-0.14 20.19,-3.98 31.46,-3.75 10.36,0.21 17.78,5.2 27.05,3.9 -5.85,-4.79 -8.29,-8.01 -15.61,-14.46l-15.41 -14.57 -2.79 1.93c-60.39,-12.91 -20.1,-4.44 -54.36,-19.94l-8.36 24.68c12.7,3.58 6.05,0.11 12.65,7.85z"/>
    <path class="fil3" d="M3147.92 1467.97c0.8,0.85 6.34,5.17 6.96,5.82 27.57,-12.66 33.44,-44.94 27.52,-56.09 -6.31,-11.86 2.77,-3.7 -10.36,-7.05 -7.53,8.95 -11.54,9.81 -17.4,20.17 -7.36,13 -4.52,21.3 -6.72,37.15z"/>
    <path class="fil3" d="M3298.1 1546.91l7.94 -7.5 2.02 -40.42c-8.05,4.83 -12.09,10.2 -14.61,21.62 -2.56,11.58 -2.9,21.53 4.65,26.3z"/>
    <path class="fil3" d="M2116.65 1715.52l1.09 12.88 17.46 11.79 -1.44 -10.46 -3.63 -15.62c-2.78,-2.91 -0.83,0.09 -4.77,-5.82 -0.39,-0.59 -1.56,-3.69 -1.87,-4.59 -3.11,17.33 -3.35,8.13 -6.84,11.82z"/>
   </g>
  </g>
 </g>
</svg>
