<?xml version="1.0" encoding="UTF-8"?>
<!DOCTYPE svg PUBLIC "-//W3C//DTD SVG 1.1//EN" "http://www.w3.org/Graphics/SVG/1.1/DTD/svg11.dtd">
<!-- Creator: CorelDRAW 2021 (64-Bit) -->
<svg xmlns="http://www.w3.org/2000/svg" xml:space="preserve" width="3.54331in" height="3.54331in" version="1.1" style="shape-rendering:geometricPrecision; text-rendering:geometricPrecision; image-rendering:optimizeQuality; fill-rule:evenodd; clip-rule:evenodd"
viewBox="0 0 3543.31 3543.31"
 xmlns:xlink="http://www.w3.org/1999/xlink"
 xmlns:xodm="http://www.corel.com/coreldraw/odm/2003">
 <defs>
  <style type="text/css">
   <![CDATA[
    .fil0 {fill:#FFFDFD}
   ]]>
  </style>
 </defs>
 <g id="Capa_x0020_1">
  <metadata id="CorelCorpID_0Corel-Layer"/>
  <path class="fil0" d="M1417.44 2983.1c-30.42,-83.04 -11.83,-428.81 -14.49,-542.83 -5.76,-246.82 131.19,-165.09 376.13,-165.1 265.16,-0.01 367.47,-82.91 361.83,179.4 -2.41,112.3 16.17,445.69 -14.11,528.47l-709.36 0.06 -0 0zm1412.65 -970.78c217.55,0 863.23,96.44 466.98,-255.43 -239.24,-212.45 -1431.57,-1412.81 -1529.79,-1407.78 -81.39,4.17 -905.3,814.05 -1023.01,932.75 -153.07,154.35 -341.29,340.7 -504.33,481.71 -396.51,342.92 274.7,248.75 474.56,248.76l23.06 1185.19 2069.2 0.06 23.32 -1185.25 0.02 -0.01z"/>
 </g>
</svg>
