<?xml version="1.0" encoding="UTF-8"?>
<!DOCTYPE svg PUBLIC "-//W3C//DTD SVG 1.1//EN" "http://www.w3.org/Graphics/SVG/1.1/DTD/svg11.dtd">
<!-- Creator: CorelDRAW 2021 (64-Bit) -->
<svg xmlns="http://www.w3.org/2000/svg" xml:space="preserve" width="5.11811in" height="5.11811in" version="1.1" style="shape-rendering:geometricPrecision; text-rendering:geometricPrecision; image-rendering:optimizeQuality; fill-rule:evenodd; clip-rule:evenodd"
viewBox="0 0 5118.11 5118.11"
 xmlns:xlink="http://www.w3.org/1999/xlink"
 xmlns:xodm="http://www.corel.com/coreldraw/odm/2003">
 <defs>
  <style type="text/css">
   <![CDATA[
    .fil0 {fill:white}
   ]]>
  </style>
   <clipPath id="id0">
    <rect x="11625.98" y="-1986.45" width="34722.23" height="35986.12"/>
   </clipPath>
   <clipPath id="id1">
    <rect x="3638.34" y="7417.8" width="4799.83" height="4799.83"/>
   </clipPath>
 </defs>
 <g id="Capa_x0020_1">
  <metadata id="CorelCorpID_0Corel-Layer"/>
  <g style="clip-path:url(#id0)">
   <image id="_45_x0020_sin_x0020_título_20251014160925.png" x="11625.98" y="-1986.45" width="34722.23" height="35986.12" xlink:href="blibloteca_Images\blibloteca_ImgID1.png"/>
  </g>
  <g id="_1769817856176">
   <path class="fil0" d="M3072.51 2837.47l0 -2.85c23.13,0 37.73,-3.6 57.4,-5.46 55.37,-5.21 113.67,-15.52 168.39,-20.18 37.44,-3.19 74.88,-4.28 101.2,-24.5 39.8,-30.56 13.43,-8.8 78.06,-16.45 31.15,-3.68 116.16,-1.94 149.29,-1.92 24.12,0.01 32.27,-2.26 54.09,-2.99 20.39,-0.69 42.39,0.07 62.97,0.07 84.02,0 162.44,-2.85 248.56,-2.85 -6.4,9.56 -54.64,53.51 -67.96,57.74 -26.62,8.46 -509.91,10.29 -600.61,16.29 -40.2,2.66 -86.05,-2.86 -125.53,0.41 -38.73,3.2 -82.85,2.7 -125.86,2.7zm-2139.93 -111.43c21.05,0 41.54,-3.94 62.59,-5.98l200.26 -11.17c177.67,0 453.25,38.77 621.82,103.87l9.59 4.7c-19.06,0 -37.15,-1.93 -55.52,-4.48 -19.56,-2.72 -39.95,-4.01 -56.72,-6.13 -64.22,-8.14 -162.31,-13.33 -223.69,-22.02 -62.94,-8.91 -153.52,-13.63 -223.24,-22.47l-335.09 -36.33zm1402.81 74.28c0.57,-0.4 1.52,-1.6 1.81,-1.04 0.29,0.56 1.43,-0.84 1.83,-1.03l12.33 -4.81c7.39,-2.43 10.07,-3.05 17.69,-5.17l113.18 -29.68c26.41,-6.65 50.47,-11.12 77.68,-16.6 136.15,-27.43 290.44,-41.67 438.32,-41.67 43.18,0 76.37,2.86 119.99,2.86l-45.71 8.57c-16.56,1.84 -31.26,4 -48.33,5.95 -32.72,3.74 -65.18,7.92 -99.73,11.7 -159.51,17.43 -327.52,41.41 -489.06,59.49l-99.99 11.43zm68.57 -151.42c-3.83,2.9 6.01,2.86 -8.57,2.86 3.49,-2.65 -3.21,-1.85 8.57,-2.86zm-1028.54 -57.14c124.94,0 185.22,14.13 299.03,46.67 9.88,2.82 11.78,2.11 18.1,7.61 -11.87,-0.99 -25.77,-5.93 -37.37,-8.34 -72.03,-14.94 -211.82,-43.09 -279.76,-43.09l0 -2.86zm1028.54 57.14c4.41,-3.83 3.15,-2.92 8.91,-5.38l83.64 -27.78c91.76,-22.7 182.57,-38.31 278.87,-38.26l62.85 5.71c-91.24,0 -290.11,31.54 -382.87,54.25 -9.08,2.22 -15.59,3.74 -25.46,5.97 -10.41,2.35 -13.63,5.22 -25.94,5.49zm-408.56 14.28c-10.58,-2.46 -20.41,-11.1 -31.86,-19.57l-62.54 -40.31c-55.02,-31.71 -118.65,-60.26 -179.52,-80.48 -199.31,-66.19 -398.09,-72.07 -608.2,-30.35l-160.34 42.51c-15.59,5.2 -35.28,12.93 -51.79,16.78l5.78 -157.07c-0.23,-57.04 2.86,-103.97 2.79,-160.06l5.73 -157.12c1.36,-25.23 -0.15,-54.43 -0.11,-80.11 0.02,-17.17 2.87,-20.72 3.07,-36.93l-0.21 -83.06c0.44,-14.89 3.09,-19.48 3.02,-36.98 -0.1,-25.14 -1.92,-58.56 0.09,-82.77 4.52,-54.65 8.48,-267.42 8.42,-317.28 -0.04,-29.9 2.87,-49.34 2.86,-80l2.86 -80 97.5 -33.92c96.18,-32.11 227.18,-60.36 333.91,-60.36 139.93,0 221.76,4.87 351.8,48.19 75.61,25.19 156.75,64.61 220.04,111.38l54.54 42.59c58.67,51.87 41.04,21.07 39.42,152.23 -0.19,15.41 -2.63,16.83 -3.06,31.22 -0.64,21.39 2.13,47.32 -0.69,67.88l-7.69 255.16c-0.02,14.65 -1.88,17.46 -2.81,28.62l-0.06 65.65c-0.43,14.39 -2.87,15.82 -3.07,31.22 -0.58,47.13 -2.87,85.01 -2.67,131.61l-2.91 94.23c-0.7,12.94 -2.95,15.62 -2.97,31.31 -0.06,45.73 -2.08,82.91 -2.64,128.78 -0.22,18.18 -3,27.27 -2.97,62.74 0.02,24.93 -3.01,41 -2.93,62.79 0.19,46.68 -2.79,83.98 -2.79,131.49zm1314.24 20c-32.88,0 -93.39,14.29 -125.71,14.29 4.35,-5.94 12.79,-10.74 19.36,-17.78 6.48,-6.94 12.57,-14.96 14.93,-25.07 28.35,0 45.23,-14.42 56.68,-31.88 18.97,-28.92 10.59,-36.67 16.39,-75.04 2.14,-14.15 1.09,-29.82 1.11,-44.6 0.02,-18.06 3.1,-23.75 3.02,-42.69 -0.14,-32.98 2.65,-55.34 2.69,-88.73l5.03 -86.39c2.01,-14.64 0.48,-30.15 0.67,-45.05 0.21,-16.78 3.13,-23.47 3.01,-42.7 -0.2,-32.93 2.68,-55.31 2.72,-88.7l3.74 -87.69c4.46,-32.52 6.13,-162.5 10.5,-215.21l6.28 -176.57c1.59,-14.11 2.53,-25.03 2.41,-43.31l8.7 -174.15c0.04,-33.35 2.76,-55.71 2.76,-88.67l11.43 0c0,101.01 -11.66,240.84 -11.43,339.98 0.11,50.06 -5.83,120.03 -5.71,168.57 0.17,75.15 -8.85,181.94 -8.58,254.27l-2.78 128.64c0.07,18.94 -3,24.63 -3.02,42.69 -0.02,14.3 0.06,28.68 0.14,42.99 0.11,19.23 -2.8,25.93 -3.01,42.7l-5.61 168.67c-0.72,13.33 -0.04,29.3 0.04,42.89l-2.86 85.71c0.09,18.64 -2.87,28.24 -2.87,42.83zm-140 -171.42l-86.84 -21.73c-223.05,-56.13 -468.89,-44.85 -682.78,26.37 -25.46,8.48 -54.3,18.76 -76.09,29.62 -64.59,32.17 -113.33,52.98 -173.46,97.96 -8.52,6.37 -22.81,19.56 -32.21,22.07 0,-10.94 -0.59,-23.57 -0.01,-34.3 0.7,-12.94 2.94,-15.61 2.97,-31.31 0.03,-22.98 -1.71,-48.3 1.55,-69.87 3.39,-22.38 0.81,-47.22 1.09,-70.33 0.19,-15.4 2.63,-16.83 3.06,-31.22l5.71 -171.43c1.44,-48.18 0.16,-92.16 2.75,-140.1 0.7,-12.94 2.94,-15.61 2.97,-31.31 0.08,-57.58 5.87,-125.59 5.68,-171.45 -0.27,-66.03 5.45,-139.44 5.55,-208.73l5.71 -171.43c0.02,-15.7 2.27,-18.38 2.97,-31.31 1.24,-22.97 -0.59,-48.37 -0.2,-71.62 0.31,-18.28 9.96,-28.41 26.59,-44.84 12.6,-12.46 22.92,-23.46 35.68,-35.74 28.03,-26.98 87.96,-71.41 120.6,-90.82 243.52,-144.8 527.69,-169.16 801.28,-100.98 16.46,4.1 26.72,7.41 42.87,11.41 10.65,2.65 34.19,8.98 41.7,12.59l-8.15 163.27c-1.42,12.6 -0.3,29.46 -0.32,42.54 -0.02,17.67 -3.03,22.14 -3.05,39.8l-5.63 125.79c-0.75,13.86 0.78,29.02 0.03,42.89l-5.63 122.94c-0.02,17.67 -3.03,22.13 -3.05,39.8 -0.04,32.28 -2.63,53.62 -2.66,85.91 -0.02,17.67 -3.04,22.13 -3.06,39.8 -0.02,14.1 0.93,28.26 -1.11,41.75l-7.36 164.06c0.11,17.87 -1.58,26.51 -2.71,40.14 -1.2,14.5 0.66,30.93 -0.13,45.58l-5.63 122.94c-0.02,18.07 -3.11,23.74 -3.02,42.69 0.27,56.89 -5.65,109.46 -5.65,168.63zm859.97 -1431.38l114.28 0c0,252.33 11.43,512.09 11.43,762.83 0,35.07 2.93,61.87 2.86,94.28 -0.07,32.38 0.04,64.76 -0,97.15 -0.04,33.2 2.86,59 2.86,94.28 0,30.43 -2.27,70.6 0.15,99.85 5.37,64.87 5.56,203.61 5.56,280.14 0,33.02 5.37,105.54 0,128.57 -22.5,5.24 -101.68,3.01 -134.32,2.82 -20.02,-0.11 -27.19,2.97 -45.57,2.99 -30.5,0.04 -61.02,-0.1 -91.52,-0.1 -34.4,0 -58.89,2.9 -91.43,2.86 -30.48,-0.04 -60.95,0.02 -91.43,0 -33.19,-0.02 -56.99,2.86 -91.43,2.86 -65.17,0 -122.95,2.86 -185.71,2.86l3.64 -133.5c2.66,-19.43 1.94,-42.92 1.98,-66.59l5.7 -168.58c0.2,-15.87 2.89,-18.19 3.08,-34.06 0.6,-48.36 1.2,-89.02 2.65,-137.34l2.95 -65.62c-0.06,-26.03 2.96,-40.2 2.87,-65.7l2.86 -65.71c1.24,-22.93 -2.31,-48.23 0.76,-70.66 3.89,-28.4 -0.61,-81.07 4.95,-97.91 5.67,-17.19 40.84,-23.55 31.92,-68.85 -4.27,-21.69 -12.53,-33.83 -29.07,-42.59 0,-24.28 1.04,-42.87 2.71,-63 1.69,-20.41 -0.57,-44.72 0.06,-65.66l6.59 -190.55c2.06,-15.03 4.56,-43.57 0.56,-62.11 -7.75,-35.93 -36.39,-61.52 -75.62,-61.52 -16.4,0 -40.04,5.25 -54.28,8.57 0,-35.85 11.41,-65.95 -2.85,-91.63 -10.49,-18.89 -13.98,-17.4 17.03,-17.03 86.26,1.05 175.71,-2.87 265.89,-2.7l97.07 -2.92c32.82,0 77.15,-1.33 100.78,-0.78l202.07 -4.94zm-1822.79 -85.71l5.71 0c0.79,9.53 39.31,102.55 46.12,119.59 4.85,12.13 10.65,28.91 16.73,40.41 -9.1,6.1 -23.1,17.39 -34.28,20 -3.05,-13.09 -9.35,-26.22 -13.88,-37.55l-15.9 -38.38c-7.27,-26.87 -1.02,-76.86 -4.5,-104.06zm-2.86 -359.99l125.71 0c105.29,0 199.98,-5.71 305.7,-5.71 106.5,0 204.26,-2.86 311.42,-2.86 54.75,0 99.53,-2.86 154.28,-2.86 50.19,0 107.91,2.67 157.15,0.02l231.43 -2.85c26.74,0.14 47.61,-2.87 77.12,-2.87 8.61,12.86 64.1,155.14 71.8,173.9l53.5 132.21c5.21,13.04 14.61,32.69 17.55,45.31l-189.29 4.69c-11.43,0.65 -3.92,-1.13 -15.29,-0.41l-101.12 1.43c-6.51,-24.4 -36.9,-34.28 -65.71,-34.28l-205.72 -0.01c-26.07,-0.09 -41.52,2.9 -68.56,2.87 -45.71,-0.06 -91.43,-0 -137.14,-0 -58.9,0 -81.48,-4.19 -106.25,33.75 -21.27,32.56 -60.11,23.95 -106.82,30.31 -88.43,12.05 -144.13,22.15 -227.28,49.86l-74.87 27.98c-9.58,4.67 -15.44,8.51 -27.62,9.52l-45.74 -114.25c-26.16,-65.83 -64.71,-168.01 -91.47,-228.52 -8.24,-18.63 -42.78,-101.2 -42.78,-117.21zm-62.85 622.83l-50.77 49.23c-44.8,-31.42 -60.33,-54.74 -132.24,-97.64 -12.02,-7.17 -22.86,-14.54 -35.99,-21.15 -38.64,-19.44 -76.59,-38.39 -116.91,-54.52 -289.55,-115.78 -612.39,-83.82 -897.14,25.28 -19.6,7.51 -52.18,19.76 -64.78,32.36 -9.24,9.24 -29.37,50.4 -30.7,66.44 -34.78,-3.46 -74.26,-6.85 -92.93,29.92 -18.15,35.76 -12.19,88.62 -12.66,127.33l-5.83 137.02c0.12,92.53 -8.89,180.94 -8.5,274.34 0.08,18.94 -3,24.63 -3.02,42.69 -0.02,16.24 0.22,32.53 0.19,48.76 -0.02,18.06 -3.1,23.75 -3.02,42.69 0.06,15.93 0.63,32.92 0.16,48.73 -0.47,15.55 -3.07,23.63 -2.97,42.74l-14.26 457.15c0.07,19.81 -2.48,29.66 -2.96,45.61 -0.44,14.83 0.05,30.86 0.1,45.81 0.07,19.81 -2.48,29.66 -2.96,45.61 -0.44,14.82 0.04,30.89 0.11,45.83 0.1,19.22 -2.44,27.06 -3.01,42.78 -0.75,21.04 1.19,64.72 15.2,79.27 16.6,17.23 136.57,27.73 159.31,29.26 57.57,3.86 114.39,13.74 171.32,17.24 85.52,5.26 171.42,20.44 257.13,25.71 28.18,1.73 57.33,6.19 85.63,8.65 114.34,9.93 227.14,24.78 342.68,34.45 47.86,4.01 126.8,16.9 171.67,16.9 1.86,22.34 24.04,41.89 44.15,47.28 27.6,7.39 52.86,1.25 84.42,1.29 26.3,0.03 66.33,2.35 91.01,-0.42 28.58,-3.21 58.48,1.11 79.95,-11.48 33.16,-19.45 10.98,-39.25 49.2,-42.22l163.56 -19.3c27.94,-3.74 56.39,-9.44 84.84,-9.44 2.59,31.19 22.62,56.5 52.46,61.82l336.08 -7.55c36.9,-1.99 77.07,1.22 114.39,0.11l334.14 -8.7c79.57,0.41 149.28,-3.21 228.62,-2.8 22.48,0.12 32.44,-3.04 54.22,-2.91 57.77,0.33 141.92,4.33 194.97,-1.94 9.61,-1.14 18.11,-0.92 27.91,-0.89 19.05,0.07 38.11,-0.04 57.16,0.02l50.05 -1.19c30.23,-3.52 80.38,-2.61 107.94,-3.97 18.36,-0.91 38.48,0.68 56.2,-0.64 36.78,-2.74 62.94,-29.28 62.94,-65.63 0,-14.74 -5.72,-23.83 -5.72,-31.43 0,-10.45 1.7,-5.96 1.9,-12.08 0.49,-14.56 -2,-2.08 -1.19,-13.75 0.95,-13.72 40.28,-40.77 51.32,-50.69 19.75,-17.74 19.74,-10.86 49.71,-16 68.41,-11.74 53.65,-90.19 51.78,-148.74 -1.06,-33.08 -2.13,-84.01 -2.11,-127.3l-2.86 -125.71c0,-43.44 0.07,-94.92 -2.35,-126.02 -3.35,-42.98 2.55,-91.2 -0.74,-133.92l-5.47 -254.32c0,-21.91 -0.01,-43.81 0,-65.71 0.02,-26.02 -3.03,-42.18 -2.89,-65.67 0.53,-92.58 -2.93,-176.32 -2.82,-268.6 0.03,-25.23 -3.03,-39.77 -2.9,-62.81l-5.76 -331.37c0.13,-49.87 -16.24,-80.09 -68.48,-80.09 -35.24,0 -70.47,0 -105.71,0 -38.06,0 -66.9,2.88 -102.85,2.86 -35.24,-0.02 -70.6,-0.3 -105.82,-0.09 -21.26,0.13 -29.56,8.23 -37.21,-11.15 -5.2,-13.16 -9.39,-24.88 -15.32,-38.98l-107.72 -266.55c-5.17,-12.73 -11.98,-23.26 -17.65,-36.63 -5.46,-12.87 -8.58,-24.9 -13.78,-37.65 -20,-49.04 -27.67,-69.34 -81.6,-78.4 -21.87,-3.67 -75.86,-2.89 -103.84,-2.06 -16.96,0.51 -30.14,2.98 -51.33,2.95l-160 0c-39.03,0 -67.46,2.86 -105.71,2.86 -69.21,-0 -147.58,-4.78 -211.84,2.44 -38.94,4.37 -163.01,0.44 -211,0.42 -35.95,-0.02 -64.79,2.86 -102.85,2.86l-319.99 2.86c-47.58,0 -175.67,-5.08 -210.13,4.15 -26.58,7.12 -43.68,29.74 -46.67,59.05 -2.67,26.23 -2.41,79.11 1.31,103.72 8.98,59.29 -3.9,149.41 1.35,212.92 6.2,74.92 -9.33,188.39 12.34,253.36l16.95 37.34c5.94,13.63 10.85,25.87 15.87,38.42 5.2,13.03 11.49,25.84 14.69,39.59z"/>
   <path class="fil0" d="M892.59 3746.01c0,-35.35 -5.71,-66.9 -5.71,-105.71 34.81,-2.9 47.77,-18.54 68.49,-18.59 18.53,-0.05 60.07,11.58 60.07,30.02 0,30.43 -91.2,91.65 -122.85,94.28zm-8.57 -248.56c0,-23.69 -2.11,-60.01 0.76,-82.09 2.8,-21.56 1.45,-55.05 27.81,-55.05 28.12,0 25.72,38.9 25.72,57.14 0,22.38 -27.64,73.79 -54.29,80zm-137.14 11.43l14.02 282.89c0.08,12.09 -5.45,21.64 -5.45,37.11 0,34.73 33.99,77.14 68.57,77.14 44.59,0 35.88,-12.74 60.68,-19.32 56.58,-15.02 100.02,-26.11 148.69,-62.73 12.58,-9.47 47.57,-34.95 57.07,-45.78 7.21,-8.24 8.72,-11.76 17.14,-20 32.6,-31.96 42.13,-69.28 42.13,-117.87 0,-66.01 -56.1,-108.2 -100,-131.43 7.67,-32.9 22.86,-48.22 22.86,-102.85 0,-207.87 -234.62,-228.19 -298.15,-95.3 -17.75,37.12 -17.94,52.28 -22.66,88.76 -3.96,30.59 -4.9,73.75 -4.9,109.39z"/>
   <path class="fil0" d="M1583.99 3594.59c30.35,0 57.14,61.5 57.14,74.28 0,39.67 -61.17,72 -88.57,74.28 0,-56.02 -19.56,-87.96 1.8,-126.77 4.77,-8.66 18.69,-21.8 29.63,-21.8zm-191.42 -251.42l11.43 242.85c0.66,26.52 5.79,43.52 5.72,74.28 -0.11,50.81 1.18,167.42 33.43,200.84 56.79,58.86 195.65,-2.24 238.42,-31.83 110.14,-76.22 117.68,-197 37.61,-295.62 -44.44,-54.74 -78.85,-70.52 -146.61,-70.52 -19.25,0 -28.76,7.16 -45.71,8.57 0,-48.83 -4.37,-101.45 -2.95,-148.66 0.57,-19.09 7.7,-60.59 5.75,-85.52 -6.31,-80.93 -117.79,-86.22 -130.63,-5.07 -5.18,32.72 -6.45,74.22 -6.45,110.69z"/>
   <path class="fil0" d="M4121.05 3708.87c-83.89,0 -110.74,-64.89 -46.63,-135.2l27.8 -26.49c33.16,-22.65 65.44,-18.82 98.84,-1.16 0,50.6 10.15,47.58 -12.55,104.59 -9.44,23.72 -36.02,58.26 -67.45,58.26zm-214.28 -71.43c0,86.64 39.19,154.07 119.52,186.19 54.43,21.76 122.2,23.93 176.72,-1.38 27.59,-12.81 37.2,-27.05 55.18,-39.09 61.07,91.19 197.14,79.35 197.14,-8.57 0,-19.7 -13.39,-40.33 -25.19,-49.09 -16.29,-12.11 -32.53,-13.76 -60.52,-13.76 -18.67,-27.89 -31.43,-70.88 -31.43,-117.14 0,-30.33 34.45,-41.53 -14.81,-113.75 -12.98,-19.02 -23.54,-30.2 -42.82,-42.89 -67,-44.08 -152.5,-53.37 -226.21,-15.78 -28.32,14.44 -47.02,30.56 -68.29,51.71 -39.5,39.28 -79.28,105.11 -79.28,163.57z"/>
   <path class="fil0" d="M3243.94 4477.41c-84.98,0 -38.77,-72.22 -6.42,-109.28 20,-22.91 56.59,-45 94.99,-45 15.92,0 26.47,13.53 40,17.14 0,44.23 -57.23,137.14 -128.57,137.14zm-180 -34.28c0,53.43 16.89,96.76 52.59,124.55 77.74,60.51 191.05,51.22 266.63,-5.33 13.67,-10.22 29.31,-19.84 32.2,-30.65 12.74,2.97 17.93,10.85 28.64,17.07 9.69,5.63 22.5,10.83 34.2,14.37 12.52,3.79 24.71,6.29 38.36,10.2 31.59,9.07 59.93,11.76 86.64,-10.94 30.64,-26.04 31.58,-90.54 -30.3,-111.11 -14.51,-4.83 -31.43,-7.09 -47.72,-12.28 -65,-20.69 12.48,-83.13 -28.54,-142.88 -10.07,-14.67 -13.97,-12.43 -23.2,-31.09 -16.66,-33.7 -56.73,-53.58 -90.67,-66.46 -37.98,-14.42 -94.08,-9.05 -133.98,6.56 -91.64,35.84 -184.85,141.28 -184.85,238z"/>
   <path class="fil0" d="M2778.24 3463.16l0 8.57c-43.36,-0.96 -85.04,-25.01 -120.86,10.57 -9.96,9.89 -17.16,25.55 -18.51,41.56 -4.85,57.64 58.16,74.59 105.06,76.46 64.86,2.59 25.99,8.37 38.56,110.67 2.76,22.48 -13.32,82.34 15.2,118.41 22.93,29 78.2,33.46 105.08,-10.29 21.91,-35.67 8.89,-148.94 11.17,-173.27 3.52,-37.4 -20.56,-41.18 42.63,-32.46 19.07,2.63 36.11,4.06 55.94,4.06 83.39,0 88.71,-122.17 8.27,-131.13l-111.13 -8.87 18.35 -301.64c4.62,-29.8 11.28,-55.98 -11.89,-81.95 -36.37,-40.77 -104.61,-27.58 -115.52,40.26l-16.75 157.54 -5.62 171.51z"/>
   <path class="fil0" d="M3301.08 3571.73l-5.57 3.29 5.57 -3.29zm5.71 -2.85l-5.71 2.85 5.71 -2.85zm0 0l5.57 -3.29 -5.57 3.29zm-197.14 97.14c0,76.79 25.78,166.48 93.34,203.8 83.58,46.17 198.2,13.84 266.7,-35.18 69.04,-49.41 27.02,-125.76 -22.91,-125.76 -42.62,0 -42.28,14.08 -75.2,30.51 -23.28,11.62 -88.63,38.36 -110.7,6.82 -10.28,-14.69 -7.36,-20.43 -14.1,-34.47 90.93,0 159.63,-23.96 200.09,-102.76 19.83,-38.64 16.26,-83.7 -2.87,-120.17 -27.94,-53.28 -71.63,-59.91 -122.94,-59.91 -89.22,0 -187.86,92.09 -204.52,186.89 -2.62,14.93 -6.9,35.81 -6.9,50.24z"/>
   <path class="fil0" d="M3498.21 3628.87c0,65.81 13.79,141.52 41.19,187.38 85.34,142.85 193,64.45 267.04,38 22.59,-8.07 44.03,-17.65 64.46,-29.82 63.55,-37.87 39.4,-104.97 1.2,-120.89 -26.63,-11.11 -50.09,-2.46 -71.06,8.19 -20.91,10.62 -41.24,17.54 -63.82,27.6 -13.14,5.86 -55.26,26.69 -67.59,26.69 -25.11,0 -70.8,-167.85 -6.54,-229.39 54.74,-52.42 53.78,0.83 95.11,0.83l14.28 0c32.27,0 57.14,-29.39 57.14,-68.57 0,-49.62 -90.5,-134.57 -214.45,-60.17 -76.3,45.8 -116.97,126.17 -116.97,220.17z"/>
   <path class="fil0" d="M2443.96 3734.58c-46.04,0 -45.71,0.83 -45.71,-54.28 0,-26.66 21.14,-74.28 45.71,-74.28 45.59,0 92.41,2.68 78.39,69.78 -7.86,37.63 -39.47,58.79 -78.39,58.79zm214.28 -82.85c0,-49 -21.83,-95.52 -54.91,-127.93 -12.35,-12.11 -38.15,-29.35 -56.1,-35.33l-100.41 -19.59c-165.11,0 -240.89,262.5 -129.28,360.7 95.94,84.41 340.7,34.59 340.7,-177.85z"/>
   <path class="fil0" d="M2861.09 1374.66c-41.36,0 -30.08,-31.43 -108.57,-31.43 -55.09,0 -115.91,91.43 -142.85,91.43 -17.83,0 -33.47,-14.59 -47.69,-20.89 -78.63,-34.78 -152.87,0 -207.31,54.46l-51.48 54.23c-6.08,6.26 -6.26,7.89 -11.55,14.17 -59.57,70.65 2.22,112.31 29.46,112.31 39.39,0 43.3,-6.79 75.13,-44.87l49.81 -53.04c18.59,-17.92 45.09,-35.15 69.22,-22.04 48.64,26.45 48.92,28.52 102.98,28.52 28.37,0 47.41,-9.64 65.59,-20.12 17.76,-10.24 34.87,-21.62 49.44,-36.26 29.68,-29.83 26.59,-33.46 48.73,-21.76 27.22,14.39 52.13,18.14 84.8,18.14 66.52,0 198.8,-86.46 135.13,-152.27 -28.77,-29.74 -66.82,-23.33 -95.87,2.96 -8.34,7.56 -31.89,26.45 -44.97,26.45z"/>
   <path class="fil0" d="M2583.96 2137.49c-25.2,0 -38.89,-13.41 -57.11,-22.89 -80.03,-41.67 -123.71,-15.11 -193.94,40.41 -21.83,17.25 -77.51,68.13 -77.51,102.48 0,22 -1.19,32.6 19.15,52.28 13.06,12.63 23.67,16.3 43.7,16.3 36.13,0 50.66,-34.83 69.23,-53.63 9.88,-10.01 57.32,-52.09 70.77,-52.09 27.32,0 84.71,86.34 236.19,10.48 24.73,-12.39 46.06,-23.77 69.52,-36.19 37.85,25.35 24.12,42.86 114.28,42.86 30.71,0 148.56,-25.34 148.56,-85.71 0,-43.19 -27.46,-62.85 -68.57,-62.85 -20.87,0 -62.96,25.71 -94.28,25.71 -7.55,0 -12.96,-8.93 -17.84,-13.59 -29.84,-28.53 -51.83,-29.27 -87.87,-29.27 -64.17,0 -117.38,65.71 -174.28,65.71z"/>
   <path class="fil0" d="M2549.67 1791.79c-17.84,0 -57.93,-25.11 -92.19,-30.67 -40.64,-6.59 -69.8,0.46 -98.07,17.54 -44.72,27.02 -104.02,93.28 -104.02,144.55 0,50.44 53.06,83.41 94.42,54.42 31.89,-22.35 26.37,-54.67 52.06,-76.51 35.49,-30.17 30.68,-16.93 83.12,1.05 90.59,31.06 133.16,-0.79 216.1,-44.68 25.27,16.92 43.54,48.57 114.28,48.57 63.37,0 121.01,-10.56 164.57,-46.86 44.52,-37.09 20.37,-110.28 -38.85,-110.28 -48.43,0 -10.74,31.43 -134.28,31.43 -16.69,0 -41.34,-51.43 -97.14,-51.43 -55.75,0 -133.8,62.85 -160,62.85z"/>
   <path class="fil0" d="M2801.09 4474.56c-34.72,0 -48.57,-25.18 -48.57,-57.14 0,-51.45 20.42,-70.03 28.98,-111.15 13.24,-63.55 -63.6,-104.36 -111.22,-56.8 -11.35,11.33 -17.24,28.63 -23.88,44.69 -26.77,64.75 -37.29,141.96 -9.9,210.7 5.34,13.39 25.87,42.11 35.51,50.2 105.48,88.42 215.42,61.96 286.09,-60.63 14.06,-24.39 29.39,-59.97 38.29,-90.27 5.2,-17.7 9.86,-31.04 13.92,-48.94 8.77,-38.7 14.37,-83.91 -8.57,-118.47 -27.93,-42.07 -95.32,-37.42 -114.07,15.83 -10.14,28.81 4.26,38.02 -11.3,91.56 -4.57,15.74 -7.26,24.74 -12.85,38.58 -7.8,19.36 -37.72,91.83 -62.45,91.83z"/>
   <path class="fil0" d="M1124.01 1820.36c0,19.63 3.96,30.75 15.94,44.06l15.95 12.62c12.55,7.39 18.36,6.17 33.82,6.17 20.28,0 30.95,-10.74 42.22,-20.63 6.38,-5.6 10.5,-8.42 17.13,-14.3 25.98,-23.06 25.18,-16.12 81.17,20.12 79.71,51.59 134.19,2.95 181.59,-6.19 53.09,-10.24 25.9,64.57 137.87,63.86 29.7,-0.19 39.76,-2.33 51.44,17.12 8.85,14.74 20.15,68.58 71.41,68.58 33.81,0 60,-26.84 60,-65.71 0,-14.9 -13.02,-43.59 -18.98,-55.3 -16.79,-32.98 -41.45,-61.07 -75.26,-76.17 -33.1,-14.77 -58.21,-14.8 -91.39,-10.86 -41.13,-62.1 -112.89,-80.69 -186.89,-55.92l-53.17 18.25c-13.26,0 -46.57,-27.42 -59.96,-34.33 -67.89,-35.06 -110.07,-31.15 -169.84,15.95 -20.21,15.93 -53.05,39.17 -53.05,72.66z"/>
   <path class="fil0" d="M1449.71 4403.13l-33.74 -49.11c-26.96,-44.61 -38.66,-93.15 -47.04,-107.24 -31.28,-52.67 -119.22,-30.79 -119.22,30.65 0,44.74 16.12,72.24 37.14,114.28l100.55 173.73c17.63,28.03 39.95,60.38 80.7,53.47 47.21,-8.01 60.38,-51.6 75.52,-93.28l81.6 -226.96c12.7,-33.16 22.76,-70.91 -2.92,-99.56 -31.36,-35 -83.31,-26.61 -105.79,10.85 -7.36,12.27 -7.02,16.9 -11.47,31.38l-55.34 161.8z"/>
   <path class="fil0" d="M1178.29 2237.49c63.33,0 44.72,-58.84 95.49,-21.21 100.67,74.61 170.4,9.78 224.5,9.78 21.78,0 41.13,28.05 55.4,38.88 56.15,42.6 121.1,-8.27 156.03,38.25 34.18,45.51 89.1,52.06 116.67,5.27 7.39,-12.55 6.17,-18.36 6.17,-33.82 0,-26.06 -32.15,-57.19 -50.65,-75.06 -55.61,-53.71 -111.66,-34.82 -152.28,-39.13 -13.73,-1.46 -13.51,-9.13 -37.06,-25.8 -103.91,-73.55 -171.11,-5.72 -219.99,-5.72 -19.06,0 -56.98,-51.43 -122.85,-51.43 -67.06,0 -153.64,64.29 -124.89,124.89 9.65,20.35 29.27,35.11 53.46,35.11z"/>
   <path class="fil0" d="M1129.72 1443.23c0,23.18 -1.35,38.91 17.88,56.4 21.66,19.69 53.66,20.31 78.85,3.19 10.54,-7.17 18.83,-21.31 28.04,-31.96 40.56,-46.9 49.26,-13.56 90.44,8.57 44.74,24.04 87.91,26.79 137.94,14.11 80.76,-20.48 40.08,-8.29 93.43,20.23 48.97,26.18 79.77,9.46 104.82,9.46 20.08,0 21.72,16.66 32.04,27.96 40.46,44.35 105.1,10.72 105.1,-33.67 0,-39.77 -12.12,-60.24 -48.07,-89.06 -57.58,-46.15 -112.65,-25.45 -129.52,-25.52 -10.56,-0.04 -8.04,-1.45 -14.84,-7.22 -80.66,-68.41 -155.44,-18.19 -204.69,-18.19 -28.09,0 -60.64,-60 -125.71,-60 -44.67,0 -111.83,40.08 -139.61,77.53 -7.64,10.29 -26.1,32.61 -26.1,48.18z"/>
   <path class="fil0" d="M2349.68 4254.56c-29.2,6.8 -72.27,-0.46 -97.96,27.74 -21.52,23.61 -29.31,109.39 55.11,109.39 15.86,0 16.94,-2.85 31.43,-2.85 -9.98,20.81 -17.14,125.3 -17.14,159.99 0,26.61 24.61,53.15 46.86,58.87 35.07,9.01 58.66,-4.57 73.26,-27.31 14.73,-22.93 11.5,-59.43 14.4,-91.31 2.67,-29.34 11.51,-64.14 14.04,-94.53 30.34,0 62.57,2.86 83.97,-7.46 49.01,-23.63 47.32,-77.78 22.55,-104.78 -23.14,-25.22 -57.2,-19.19 -92.23,-19.19l2.86 -108.57c0,-67 -110.56,-89.63 -128.99,-6.14 -2.78,12.57 -3.35,38.56 -4.87,52.27 -1.04,9.33 0.07,18.79 -0.41,28.17 -0.58,11.43 -2.87,13.48 -2.87,25.7z"/>
   <path class="fil0" d="M1858.27 3420.31c0,110.76 5.72,212.87 5.72,322.85 0,26.44 -6.32,76.38 -0.55,94.83 5.28,16.86 20.89,33.74 37.29,39.85 57.3,21.35 94.69,-25.11 94.69,-94.68l-2.85 -277.15c0.09,-24.87 -2.91,-37.93 -2.88,-62.84 0.08,-56.26 8.58,-137.57 8.58,-194.28 0,-55.16 -84.82,-85.04 -120.69,-26.41 -14.83,24.24 -19.31,159.12 -19.31,197.83z"/>
   <path class="fil0" d="M3695.35 4094.57c0,23.83 1.74,50.22 -1.65,72.63 -3.69,24.37 0.17,50.87 -1.43,75.94l-5.49 142.85c0.13,57.52 -11.72,160.25 22.35,203.36 36.72,46.46 114.79,24.24 114.79,-40.51 0,-24.43 -5.72,-37.81 -5.72,-60 0,-136.23 8.57,-267.58 8.57,-408.56 0,-28.46 -1.5,-82.78 -8.82,-102.6 -22.69,-61.41 -111.27,-61.01 -126.8,9.85 -3.61,16.46 4.2,80.48 4.2,107.04z"/>
   <path class="fil0" d="M1918.27 4343.13c0,61.24 -1.57,183.69 29.04,230.95 31.56,48.72 118.87,37.85 122.44,-39.48 2.34,-50.76 1.37,-113.22 30.68,-157.89 19.48,-29.7 51.94,2.88 91.53,-34.18 43.44,-40.67 9.8,-110.83 -39.41,-110.83 -42.99,0 -61.96,-3.96 -100,14.28 -6.76,-14.1 -4.53,-15.22 -19.15,-29.41 -30.61,-29.71 -90.55,-21.82 -107.05,31.78 -5.57,18.07 -8.07,69.05 -8.07,94.78z"/>
   <path class="fil0" d="M2609.67 797.54c0,33.62 28.58,60 57.14,60l274.28 0.01c28.35,0.11 49.37,-2.87 79.99,-2.87 31.16,0 52.91,3.53 75.36,-7.49 58.01,-28.48 34.87,-115.36 -26.79,-115.36l-407.52 3.89c-30.87,5.5 -52.46,27.83 -52.46,61.82z"/>
   <path class="fil0" d="M3495.35 1466.09c0,48.02 46.9,61.44 88.66,60.1 14.65,-0.47 17.58,-3.03 34.09,-3.06l148.76 -2.66c16.52,-0.02 19.46,-2.61 34.09,-3.05 34.1,-1.02 112.1,3.47 137.37,-14.06 51.91,-36.01 27.6,-111.56 -37.28,-111.56 -81.44,0 -154.92,6.13 -234.31,5.67l-114.75 5.24c-32.78,5.47 -56.63,26.31 -56.63,63.36z"/>
   <path class="fil0" d="M1692.56 4548.84c0,91.35 87.61,91.31 116.05,53.19 11.96,-16.02 15.59,-28.69 15.42,-56.01 -0.22,-35.04 3.09,-50.76 2.98,-68.64 -0.09,-14.68 -3.19,-20.6 -2.89,-31.23 0.3,-10.5 2.85,-18.83 2.76,-34.41 -0.29,-50.42 2.63,-91.92 2.89,-140.1 0.52,-95.69 -106.7,-96.66 -126.93,-32.51 -9.99,31.68 -10.28,266.83 -10.28,309.71z"/>
   <path class="fil0" d="M2232.54 3568.87c0,-83.09 -107.28,-93.24 -128.12,-16.69 -4.89,17.98 -11.45,86.79 -8.24,110.19 3.17,23.09 6.67,152.44 10.26,169.73 17.34,83.33 110.5,73.3 128.48,16.28 7.13,-22.6 0.61,-31.5 0.36,-53.7 -0.36,-32.5 -9.18,-142.76 -6.52,-169.41 2.08,-20.8 3.77,-34.54 3.77,-56.41z"/>
   <path class="fil0" d="M1195.44 3623.16c0,8.91 0.96,11.72 1.72,18.46l3.99 144.39c-0.05,38.68 -5.68,78.72 30.73,100.69 34.63,20.9 74.62,8.4 92.29,-26.24 16.97,-33.28 5.54,-134.35 5.55,-177.3l0 -114.28c0,-66.74 -95.11,-87.71 -123.75,-26.61 -8.24,17.58 -10.53,55.28 -10.53,80.89z"/>
   <path class="fil0" d="M3852.49 1671.8c0,-36.35 -19.94,-61.62 -51.56,-65.66 -19.17,-2.45 -78.67,-2.74 -104.38,1.16 -18.11,2.74 -34.06,0.63 -52.65,1.63 -12.43,0.67 -10.45,2.28 -22.85,2.87 -9.65,0.46 -18.11,-0.93 -27.49,1.08 -65.4,14.05 -70.47,102.83 -5.06,120.09 16.42,4.33 77.99,4.37 103.2,0.91 48.44,-6.64 113.52,6.47 142.75,-22.96 7.88,-7.93 18.02,-24.15 18.02,-39.12z"/>
   <path class="fil0" d="M3386.79 848.97c84.85,0 93.41,-96.31 28.36,-119.79 -18.46,-6.66 -120.09,-5.93 -151.21,-5.93 -50.13,0 -79.43,65.19 -40.89,103.74 17.92,17.92 37.62,19.32 72.35,19.08 19.25,-0.13 25.91,2.8 42.71,3.01 16.11,0.2 32.53,-0.11 48.68,-0.11z"/>
   <path class="fil0" d="M1669.7 4077.43c0,18.19 6.31,32.57 15.79,44.21 8.82,10.83 21.39,18.22 35.96,21.31 23.26,4.93 75.07,-9.55 90.26,-17.78 56.93,-30.82 39.16,-122.02 -36.31,-122.02l-42.85 0c-36.82,0 -62.85,36.58 -62.85,74.28z"/>
   <path class="fil0" d="M1152.58 3368.88l0 14.28c0,33.46 31.89,60 65.71,60 14.72,0 19.65,-5.13 37.15,-5.7 18.02,-0.59 25.23,-2.27 37.3,-8.42 75.07,-38.25 19.8,-173.39 -105.96,-108.82 -19.04,9.78 -34.2,33.57 -34.2,48.66z"/>
   <path class="fil0" d="M2075.41 3363.17c0,111.04 159.99,69.76 159.99,5.72 0,-23.05 1.14,-36.05 -16.33,-55.09 -39.51,-43.05 -143.66,-11.19 -143.66,49.37z"/>
   <path class="fil0" d="M2883.95 1197.53l0 -5.72 -11.43 0c6.45,8.81 -1.85,4.58 11.43,5.72z"/>
  </g>
  <g style="clip-path:url(#id1)">
   <image id="_1000157300.png" x="3638.34" y="7417.8" width="4799.83" height="4799.83" xlink:href="blibloteca_Images\blibloteca_ImgID2.png"/>
  </g>
 </g>
</svg>
