<?xml version="1.0" encoding="UTF-8"?>
<!DOCTYPE svg PUBLIC "-//W3C//DTD SVG 1.1//EN" "http://www.w3.org/Graphics/SVG/1.1/DTD/svg11.dtd">
<!-- Creator: CorelDRAW 2021 (64-Bit) -->
<svg xmlns="http://www.w3.org/2000/svg" xml:space="preserve" width="21.2598in" height="5.11811in" version="1.1" style="shape-rendering:geometricPrecision; text-rendering:geometricPrecision; image-rendering:optimizeQuality; fill-rule:evenodd; clip-rule:evenodd"
viewBox="0 0 21259.84 5118.11"
 xmlns:xlink="http://www.w3.org/1999/xlink"
 xmlns:xodm="http://www.corel.com/coreldraw/odm/2003">
 <defs>
  <style type="text/css">
   <![CDATA[
    .fil27 {fill:#95372F}
    .fil8 {fill:#A83E32}
    .fil9 {fill:#C34E41}
    .fil24 {fill:#C54F41}
    .fil13 {fill:#CA605C}
    .fil0 {fill:#D06256}
    .fil12 {fill:#D16355}
    .fil14 {fill:#D36353}
    .fil10 {fill:#D46452}
    .fil29 {fill:#D97A68}
    .fil32 {fill:#DA7563}
    .fil20 {fill:#DA9B74}
    .fil25 {fill:#DB735B}
    .fil22 {fill:#DB735B}
    .fil23 {fill:#DC9E77}
    .fil30 {fill:#DDA984}
    .fil31 {fill:#E2A57E}
    .fil26 {fill:#E3B08C}
    .fil5 {fill:#F2BA91}
    .fil17 {fill:#F3BB93}
    .fil19 {fill:#F78476}
    .fil18 {fill:#FC887B}
    .fil21 {fill:#FDDA87}
    .fil11 {fill:#FDF8F7}
    .fil3 {fill:#FDF9F9}
    .fil2 {fill:#FECAA3}
    .fil28 {fill:#FED2AD}
    .fil7 {fill:#FEFBFA}
    .fil4 {fill:#FEFDFB}
    .fil16 {fill:#FFDA82}
    .fil15 {fill:#FFDDC1}
    .fil1 {fill:#FFF6EC}
    .fil6 {fill:#FFFDFD}
   ]]>
  </style>
 </defs>
 <g id="Capa_x0020_1">
  <metadata id="CorelCorpID_0Corel-Layer"/>
  <g id="_2474121401840">
   <path class="fil0" d="M7694.02 1714.29c410.9,-50.23 512.56,313.06 511.24,686.15 -1.28,361.93 -87.12,754.05 -442.94,767.22 -398.13,14.73 -517.25,-320.98 -526.71,-697.32 -10.18,-404.94 66.77,-708.18 458.41,-756.05zm6698.16 914.77c31.12,304.39 -148.24,488.52 -411.78,528.85 -296.78,45.41 -437.86,-199.81 -477.4,-455.3 -42.31,-273.42 -42.67,-634.53 113.06,-809.33 126.5,-142 374.88,-188.68 527.55,-110.78l139.39 108.39 24.58 -123.98 87.97 6.8 -43.38 370.78 -210.27 31.74c-6.01,-81.59 -24.69,-214.39 -69.63,-267.41 -80.43,-94.89 -352.31,12.57 -286.91,609.04 79.41,724.32 512.65,446.23 518.72,119.51l88.1 -8.3zm-8305.71 0.17c31.64,305.14 -148.92,488.17 -411.66,528.52 -296.59,45.56 -437.06,-199.22 -477.29,-455.04 -63.81,-405.8 -44.04,-929.5 438.83,-954.9 117.36,-6.17 194.36,16.43 273.96,86.39l47.19 42.21 44.54 -109.48 87.85 6.91 -43.44 370.51 -209.91 31.68c-6.2,-81.53 -25.14,-214.74 -69.73,-267.34 -64.16,-75.68 -163.7,0.16 -205.53,54.68 -102.73,133.89 -101.67,362.59 -81.57,554.75 74.77,715.06 512.86,454.73 518.91,119.39l87.84 -8.27zm11456.23 517.91c-9.28,-69.4 -20.46,-79.87 100.63,-129.07l-13.56 -1126.43 -115.62 -60.73 -4.95 -90.65 865.93 1.8 22.31 257.78c-4.76,66.66 16.93,20.26 -24.54,53.04 -47.99,-19.72 -67.28,-122.69 -78.11,-175.18l-400.62 7.98 2.39 379.14 214.67 0c21.46,-179.93 31.37,-160.52 95.01,-159.61 27.56,66.7 22.51,381.33 12.84,472.39l-83.64 2.99 -40.48 -168.74 -197.56 12.58 2.64 576.04 408.95 -11.69c31.21,-73.34 17.83,-191.05 63.93,-250.28l50.44 2.45c21.39,63.59 7.03,323.8 -0.2,406.22l-880.44 -0.05zm-2180.14 -7.2c-58.61,15.59 -810.3,15.9 -884.63,2.53 -5.33,-52.45 -11.63,-81.68 102.29,-128.42l-12.77 -1129.37c-107.97,-29.95 -118.46,-31.81 -121.01,-144.73l866.46 8.87c4.11,67.99 43.24,247.6 9.43,303.48 -75.45,-12.93 -31.16,-58.56 -102.24,-174.11l-390.06 7.63 3.89 378.15c252.1,1.24 205.46,20.84 232.43,-101.45 15.91,-72.15 -1.17,-53.85 70.44,-59.96 22.86,34.98 19.54,72.03 19.76,116.91l-1.52 358.67 -80.43 1.92 -32.45 -169.69 -205.92 15.15 2.56 566.06c57.4,14.61 364.57,8.83 403.72,-11 39.72,-46.43 40.28,-166 56.57,-239.93l70.96 1.8 -7.47 397.51zm-5877.75 -1254.35c-120.93,-31 -159.31,-40.44 -171.28,-96.42 53.65,-33.38 520.69,-21.56 555.4,-14.57 2.49,115.7 -74.24,54.91 -170.5,111.85l32.91 1135.61c10.96,9.64 9.15,8.98 27.33,18.98 91.02,50.02 108.06,-1.93 110.27,97.6l-579.55 -4.42c0.14,-63.69 10.41,-51.61 77.11,-73.9 37.56,-12.56 67.71,-24.5 101.94,-32.43l16.37 -1142.3zm7083.1 -163.59l900.36 2.69 -29 378.52c-62.13,-22.97 -76.11,-12.69 -92.2,-198.12l-234.03 3.31 33.98 1134.42c77.12,36.38 148.43,21.83 150.95,105.15 -79.93,19.61 -335.39,2.59 -453.01,2.8 -41.4,0.07 -94.01,3.97 -129.59,-14.38 13.57,-58.53 -15.74,-20.15 41.1,-47.26l152.39 -53.49 13.64 -1124.97 -216.28 7.5c-46.22,96.09 -13.33,190.61 -114.32,212.94l-24 -409.11zm2586.61 1524.49c2.23,-91.51 18.38,-79.54 94.27,-111.24 31.79,-308.94 -46.69,-601.84 -364.68,-595.61l7.69 499.54c70.44,59.69 116.76,20.49 114.7,123.26l-520.68 -3.84c-21.4,-99.97 58.06,-42.4 167.18,-119.41l10.6 -1233.02 -122.89 -31 7.35 -88.63c281.51,-31.83 631.41,-62.1 767.95,131.57 65.11,92.37 109.5,242.73 85.63,387.23 -30.91,187.17 -165.69,217.13 -211.67,265.75 208.56,81.3 241.19,388.29 235.93,668.55 21.48,4.93 73.67,17.69 94.22,29.91 43.81,26.04 31,8.46 28.28,80.36l-393.88 -3.43zm-10467.98 -92.48l-515.89 -3.72c2.73,-54.4 19.8,-48.67 77.52,-69.09 38.52,-13.63 63.1,-18.4 96.93,-42l10.26 -1222.24c-14.3,-8.3 -4.33,-4.57 -34.94,-15.89 -5.33,-1.97 -26.88,-8 -34.34,-10.14 -29.91,-8.6 -21.91,-1.6 -53.73,-15.59l2.65 -83.37c83.69,-28.6 362.99,-40.43 457.35,-28.89 312.32,38.19 443.26,280.44 399.76,541.31 -32.64,195.79 -150.28,207.06 -211.51,269.41 97.09,27.02 166.24,141.24 201.06,259.01 37.83,127.98 38.43,268.48 35.53,408.17 159.49,35.51 124.79,48.88 122.26,109.79l-393.1 -0.88c2.52,-122.62 22.54,-56.23 95.71,-127.37 10.06,-142.17 -3.35,-293.84 -59.17,-412.88 -54.12,-115.41 -145.26,-171.44 -307.06,-170.58l6.43 500.13c61.85,53.69 110.38,24.89 115.41,111.11 -3.56,1.65 -8.31,3.02 -11.16,3.72zm2006.65 -45.39c15.2,-79.4 50.61,-56.35 133.19,-89.76l287.74 -1174.13c-57.06,-48.15 -138.61,-56.87 -141.87,-138.42l570.73 -0.26c-7.68,106.64 -29.63,43.94 -145.41,125.69l299.57 1215.88c58.22,5.66 122.81,-4.08 152.8,33.23 -16.01,42.29 20.8,20.91 -58.01,43.67l-335.34 81.18c-45.2,11.65 -90.03,32.19 -132.37,14.04 8.24,-62.31 53.73,-81.49 121.61,-119.2l-69.39 -341.93 -295.2 -64.54c-43.4,55.87 -56.65,170.9 -80.31,251.52 -72.33,246.42 44.11,112.43 10.96,236.24 -46.96,18.31 -289.8,-49.82 -318.69,-73.2zm-724.67 -29.55c35.13,-14.28 53.22,-16.72 89.83,-40.25l13.29 -1293.85c-47.06,-12.55 -249.67,-107.72 -75.51,-117.56 254.57,-14.39 675.7,-38.73 804.36,151 130.01,191.72 138.55,645.5 -475.17,673.47l13.55 580.84c76.35,53.49 137.72,16.81 139.17,119.17l-566.67 0.95c4.07,-63.45 -7.83,-47.35 57.15,-73.76zm5585.56 -1317.67c-17.28,-74.31 -120.32,-16.95 -127.6,-125 48.69,-26.1 354.84,-19.05 404.76,-16.43 68.7,100.42 269.65,796.92 371.16,1017.49l6.32 -806.61c-98.85,-64.58 -154.17,4.3 -136.63,-127.45l453.24 -20.67c-0.03,73.96 17.78,70.56 -39.48,95.26 -16.1,6.94 -77.84,21.98 -98.94,26.35l-2.91 1345.95c68.06,46.08 118.7,33.76 124.73,115.28l-361.71 0.74c-33.59,-187.7 -368.26,-1092.69 -367.27,-1163.34l24.88 978.79c167.74,53.85 141.17,36.26 142.81,111.18l-535.74 -0.84c5.8,-75.92 70.4,-75.72 136.56,-116.28l5.84 -1314.41zm-3693.75 1429.24c2.11,-67.7 -10.12,-47.26 137.39,-109.89l3.67 -1319.35c-43.21,-88.88 -127.86,-22.75 -125.65,-136.74l412.05 -4.78 362.63 1016.54 6.19 -805.58 -142.98 -50.32 -0.1 -76.85 455.78 -22.07c15.91,110.45 16.06,68.38 -134.06,126.86l-8.43 1327.94c59.08,80.96 122.3,19.96 129.04,130.07l-359.86 -2.52c-42.86,-177.99 -197.29,-639.87 -267.04,-847.75l-101.44 -273.75 26.41 933.48c78.19,43.11 139,22.97 141.03,116.16l-534.63 -1.44zm-5598.35 -1443.13c-17.26,-71.91 -152.12,-24.87 -168.27,-125 46.21,-33.09 544.46,-13.09 578.24,-7.02l3.87 63.17 -171.23 38.07 18.88 717.68 364.29 -0.83 -5.79 -627.94 -145.62 -44.63 6.65 -75.47 437.19 -6.17c5.37,104.07 -13.06,89.32 -120.5,105.83l5.26 1341.08c32.69,9.69 64.65,22.83 98.72,38.92 61.09,28.84 53.28,17.74 59.63,68.43 -57.13,27.98 -362.78,47.68 -441.45,35.74 -5.04,-99.43 36.89,-61.39 108.7,-119.08l-3.1 -604.93 -334.01 25.17c-19.2,24.85 -8.14,2 -18.54,38.13 -11.48,39.87 -0.48,161.52 0.6,208.3 1.81,78.48 -0.42,158.35 8.73,236.11 33,23.93 44.93,21.84 82.99,36.91 66.8,26.44 46.6,1.31 56.74,60.31 -47.5,39.59 -219.59,16.31 -311.07,13.86 -80.67,-2.17 -224.08,12.75 -290.11,-13.86 3.31,-91.01 59.36,-35.2 172.7,-111.38l6.49 -1291.4zm-2902.89 -249.57c18.61,51.8 40.78,72.52 48.89,132.42l65.16 -58.35c8.07,37.8 11.38,55.27 33.07,84.02l49.56 52.56c-46.9,23 -60.24,33.46 -71.66,99.69 42.26,98.1 105.19,154.15 165.96,217.66 61.1,63.85 106.42,134.79 173.47,201.52 119.89,119.3 232.13,239.95 272.64,489.63 61.53,379.21 12.06,626.17 -237.78,877.04l-455.46 308.46c-160.96,75.5 -47.4,-42.57 -258.36,116.5 -308.58,232.67 -880.54,218.06 -1218.1,50.03 -180.7,-89.95 -341.45,-180.82 -455.78,-294.4 -260.53,-258.83 -495.31,-543.58 -552.39,-959.85 -47.53,-346.6 -26.18,-1080.3 114.45,-1365.64 264.27,-536.19 592.46,-392.44 708.87,-429.63 116.06,-37.08 106.33,-89.1 283.57,-89.55 144.85,-0.37 221.97,-15.69 340.2,47.43 115.83,61.84 109.26,4.56 325.66,24.24 120.26,10.94 184.02,42.35 281.12,90.89 98.64,49.32 139.82,99.83 202.26,167.54l50.25 -89.4c7.35,69.62 27.98,128.81 59.4,179.58 33.96,54.89 67.39,71.17 119.7,105.53l-44.7 42.09zm147.51 -241.57c54.3,38.16 26.44,27.51 59.76,62.07l-56.64 69.81c-17.04,-34.89 -25.76,-43.72 -38.62,-71.29 25.26,-26.24 22.02,-19.01 35.5,-60.59zm-3425.37 3727.26l21097.22 0 0 -4847.22 -21097.22 0 0 4847.22z"/>
   <path class="fil1" d="M3484.11 1808.27l-23.37 56.04c-37.96,-77.42 -5.21,-104.11 -94.41,-151.65l28.39 -40.16c17.08,-28.96 14.36,10.83 13.27,-42.15 -8.12,-59.9 -30.28,-80.62 -48.89,-132.42 -86.47,23 -119.47,148.19 -137.56,253.57 -2.04,-3.21 -4.5,-12.17 -5.25,-10.13 -7.38,20.02 -27.12,-209.16 -176.57,-271.95 -31.11,22.02 -12.97,-3.93 -0.11,28.37 2.91,7.31 20.89,30.93 27.62,40.37 20.19,28.34 33.07,46.36 41.42,83.61 143.64,199.44 33.68,286.31 423.5,689.01 196.02,202.5 381.1,384.81 318.74,776.86 -30.06,188.95 -189.38,360.19 -341.36,414.65 -26.49,16.36 -38.08,28.35 -65.85,51.62 -32.31,27.07 -44.09,30.85 -80.01,59.2 -106.19,61.8 -130.04,62.95 -265.86,81.15 -127.54,110 -205.28,209.19 -460.6,235.35 -216.85,22.22 -424.74,-22.44 -593.1,-103.57 -775.78,-373.83 -980.1,-1017.92 -865.07,-1856.93 33.82,-246.68 102.54,-591.44 362.93,-677.42 98.23,-32.44 205.75,-2.95 291.23,23.44 15.96,-27.25 14.4,-30.42 41.6,-52.04 39.15,-31.12 22.16,-18.76 53.88,-23.37 52.72,-62.26 165.98,-71.37 240.17,-51.42 118.43,31.85 140.5,94.02 185.26,116.41 180.97,-33.85 281.54,-103.53 516.44,42.2 55.46,34.41 68.04,60.06 127.37,102.77l51.61 -11.48c63.05,-24.6 126.37,-95.96 124.93,-178.09 -62.44,-67.72 -103.63,-118.22 -202.26,-167.54 -97.1,-48.55 -160.87,-79.95 -281.12,-90.89 -216.39,-19.68 -209.82,37.6 -325.66,-24.24 -118.22,-63.11 -195.35,-47.8 -340.2,-47.43 -177.24,0.45 -167.5,52.47 -283.57,89.55 -116.41,37.19 -444.61,-106.55 -708.87,429.63 -140.63,285.34 -161.98,1019.04 -114.45,1365.64 57.08,416.28 291.86,701.02 552.39,959.85 114.33,113.58 275.08,204.45 455.78,294.4 337.56,168.03 909.52,182.64 1218.1,-50.03 210.96,-159.06 97.39,-41 258.36,-116.5l455.46 -308.46c249.84,-250.87 299.31,-497.83 237.78,-877.04 -40.51,-249.69 -152.75,-370.34 -272.64,-489.63 -67.05,-66.72 -112.37,-137.67 -173.47,-201.52 -60.77,-63.51 -123.7,-119.56 -165.96,-217.66z"/>
   <path class="fil2" d="M1208.03 2079.17l12.46 -62.72c11.59,-137.85 69.75,-368.59 179.84,-402.69 143.01,104.55 107.25,531.61 114.4,757.56 3.83,121.32 17.55,279.53 48.65,393.35 100.57,368.12 364.04,413.7 716.02,590.74 138.89,69.86 495.45,247.93 465.48,405.97 -91.57,78 -210.37,74.3 -339.6,80.25 -6.74,68.24 -9.6,34.32 -22.44,47.21l-21.6 -52.33c-130.49,-15.72 -142.68,-45.47 -207.33,-13.54l-22.99 13.73c-25.39,-83.63 -49.33,-74.38 -121.39,-115.53 -61.14,-34.91 -73.96,-71.31 -138.28,-81.97 -37.52,10.18 -26.34,-4.39 -27.77,-42.09 -57.16,-33.96 -66.94,-36.34 -113.96,-81.18 -11.98,-11.43 -39.51,-38.76 -50.27,-47.2 -47.72,-37.44 -2.8,-20.46 -54.59,-24.43l-20.31 31.84 -12.85 -24.17c-1.84,-4.18 -2.9,-9.52 -3.89,-13.13l-9.98 -38.42c-8.02,-30.35 -1.9,-18.5 -12.63,-42.22 -1.96,-4.33 -107.42,-171.59 -133.3,-180.23l-41.8 24.76 0.88 -86.56c-4.01,-53.32 -50.72,-158.06 -79.28,-209.04l-42.79 -52.63 -37.22 30.98 43.1 -165.96c-23.86,-28.42 -28.69,-48.85 -41.63,-95.92 -5.63,-20.49 -9.8,-34.3 -16.13,-53.39l-10.41 -38.18 -2.59 -35.5 4.19 -417.39zm1889.76 1615.11c49.77,-145.11 90.2,-279.74 21.98,-443.99 -29.91,-72.02 -66.65,-110.65 -107.06,-156.5 -44.14,-50.06 -96.43,-84.64 -125.39,-123.18 -65.71,-34.17 -124.54,-91.71 -168.91,-135.6l-48.91 -25.91c-37.11,-34.06 -65.74,-59.24 -100.06,-91.57 -29.92,-28.17 -67.02,-71.52 -99.13,-96.22 -11.02,-6 -8.74,-0.48 -25.14,-15.54 -20.65,-18.95 -4.13,-1.33 -16.3,-25.71 -55.65,-46.01 -97.31,-102.05 -153.96,-145.98 -53.93,-85.37 -121.17,-214.43 -132.87,-328.78 -13.61,-132.99 -27.67,-280.76 -36.35,-409.78 -29.61,-72.22 -37.85,-117.39 -80.7,-184.22l-30.6 -57.74c-26.81,-20.71 -41.35,-49.39 -71.72,-75.14 -20.71,-17.56 -65.83,-46.72 -89.5,-63.29 -85.48,-26.39 -193,-55.88 -291.23,-23.44 -260.4,85.98 -329.11,430.74 -362.93,677.42 -115.03,839.02 89.29,1483.11 865.07,1856.93 168.36,81.13 376.25,125.79 593.1,103.57 255.32,-26.16 333.07,-125.35 460.6,-235.35z"/>
   <path class="fil3" d="M16137.48 1742.59c49.39,-29.71 153.16,-23.78 219.68,-17.95 -68.15,29.45 -138.33,32.66 -219.68,17.95zm-711 -106.2c7.28,108.05 110.32,50.69 127.6,125l-5.84 1314.41c-66.16,40.56 -130.76,40.37 -136.56,116.28l535.74 0.84c-1.64,-74.91 24.93,-57.32 -142.81,-111.18l-24.88 -978.79c-0.99,70.66 333.68,975.65 367.27,1163.34l361.71 -0.74c-6.02,-81.52 -56.67,-69.2 -124.73,-115.28l2.91 -1345.95c21.11,-4.37 82.85,-19.41 98.94,-26.35 57.26,-24.7 39.46,-21.31 39.48,-95.26l-453.24 20.67c-17.53,131.75 37.78,62.87 136.63,127.45l-6.32 806.61c-101.52,-220.57 -302.46,-917.07 -371.16,-1017.49 -49.92,-2.62 -356.07,-9.67 -404.76,16.43z"/>
   <path class="fil3" d="M12047.67 2979.28c-9.46,-126.77 -20.15,-252.47 -9.07,-379.19 28.19,55.06 19.34,111.72 23.37,188.74 4.41,84.39 -13.2,139.79 -14.29,190.45zm536.75 -1237.28c3.89,-19.92 188,-20.7 220.93,-18.99 -60.43,32.41 -143.15,35.26 -220.93,18.99zm-583.03 19.39l-3.67 1319.35c-147.52,62.62 -135.29,42.18 -137.39,109.89l534.63 1.44c-2.02,-93.19 -62.84,-73.05 -141.03,-116.16l-26.41 -933.48 101.44 273.75c69.75,207.88 224.18,669.76 267.04,847.75l359.86 2.52c-6.74,-110.1 -69.96,-49.11 -129.04,-130.07l8.43 -1327.94c150.12,-58.48 149.98,-16.41 134.06,-126.86l-455.78 22.07 0.1 76.85 142.98 50.32 -6.19 805.58 -362.63 -1016.54 -412.05 4.78c-2.21,113.99 82.44,47.85 125.65,136.74z"/>
   <path class="fil2" d="M3440.76 2243.18c-82.04,-21.35 -104.31,-34.71 -143.71,-99.31 67.28,-3.59 120.37,60.18 143.71,99.31zm-332.13 -621.4l5.36 43.59c-65.61,-30.69 -39.23,-39.24 -82.06,-78.28 50.98,3.43 49.51,7.86 76.7,34.69zm-472.07 -234.27c182.08,-17.8 194.46,202.76 240.65,355.1 100.46,331.28 206.44,510.02 440.3,740.83 53,52.31 89.48,97.21 142.93,148.93l113.49 150.3c14.39,14.66 17.91,17.46 35.83,28.98 -1.23,27.34 -10.78,66.41 -9.82,76.75l24.56 54.03c25.24,50.02 15.09,72.28 12.35,139.61 -3.45,-44.23 -92.9,-220.26 -119.57,-241.75 -75.04,-60.45 -18.8,17.32 -99.83,-97 -41.16,-58.06 -54.75,-28.81 -108.51,-67.94 -49.24,-35.83 -58.78,-123.42 -169.87,-206.6 -84.08,-62.95 -25.48,-53.98 -74.48,-108.56 -36.78,-40.96 -12.86,12.05 -52.5,-45.7 -10.76,-15.67 -17.26,-40.51 -26.68,-55.33 -28.02,-44.04 -23.64,-18.86 -44.25,-53.15 -13.1,-21.8 -15.76,-44.78 -28.38,-69.95 -34.93,-69.66 -34.41,-17.7 -53.19,-129.96 -30.79,-184.07 -79.25,-387.75 -206.65,-525.41 -25.65,-27.71 -59.87,-65.04 -90.11,-89.51 -60.7,-49.11 -70.56,-20.27 -130.96,-60.35 21.98,-14.51 7.08,-9.11 37.29,-13.48 70,-10.13 -22.37,-3.67 24.17,-0.51 2.63,0.18 50.17,13.73 56.41,16.24 44.18,17.82 44.15,27.91 86.83,54.42zm-282.48 -82.77c130.5,129.05 223.93,340.52 281.69,569.91 64,-37.96 38.12,-97.76 121.56,-122.69 -13.02,106.43 -51.27,153.29 -72.37,250.77 -3.1,52.47 16.96,73.66 50.23,97 35.52,-0.58 14.19,4.54 42.64,-15.78 33.09,-23.63 5.51,-9.46 45.35,-33.59l-23.72 121.85c6.93,52.84 190.51,315.48 210.96,340.37 41.74,50.78 104.37,68.45 167.26,110.01 144.95,95.78 349.1,248.59 391.79,442.57 58.89,267.65 1.2,306.06 -59.95,437.14 151.98,-54.46 311.3,-225.7 341.36,-414.65 62.36,-392.05 -122.71,-574.36 -318.74,-776.86 -389.82,-402.7 -279.86,-489.57 -423.5,-689.01 -8.35,-37.26 -21.23,-55.27 -41.42,-83.61 -6.72,-9.44 -24.7,-33.05 -27.62,-40.37 -12.86,-32.3 -30.99,-6.35 0.11,-28.37l9.8 -31.2 -51.61 11.48c-59.33,-42.71 -71.91,-68.36 -127.37,-102.77 -234.9,-145.73 -335.47,-76.05 -516.44,-42.2z"/>
   <path class="fil4" d="M6353.24 2980.39c-40.13,-167.15 -34.34,-577.8 -1.31,-755.8 32.72,165.52 1.31,562.35 1.31,755.8zm-259.53 -1357.89c16.15,100.13 151.01,53.09 168.27,125l-6.49 1291.4c-113.34,76.18 -169.39,20.37 -172.7,111.38 66.02,26.61 209.44,11.69 290.11,13.86 91.49,2.46 263.57,25.73 311.07,-13.86 -10.13,-59 10.07,-33.88 -56.74,-60.31 -38.07,-15.07 -49.99,-12.98 -82.99,-36.91 -9.15,-77.76 -6.92,-157.63 -8.73,-236.11 -1.08,-46.78 -12.08,-168.43 -0.6,-208.3 10.41,-36.13 -0.65,-13.28 18.54,-38.13l334.01 -25.17 3.1 604.93c-71.81,57.69 -113.73,19.65 -108.7,119.08 78.67,11.94 384.32,-7.75 441.45,-35.74 -6.35,-50.69 1.46,-39.59 -59.63,-68.43 -34.07,-16.08 -66.04,-29.23 -98.72,-38.92l-5.26 -1341.08c107.43,-16.51 125.86,-1.76 120.5,-105.83l-437.19 6.17 -6.65 75.47 145.62 44.63 5.79 627.94 -364.29 0.83 -18.88 -717.68 171.23 -38.07 -3.87 -63.17c-33.78,-6.07 -532.03,-26.07 -578.24,7.02z"/>
   <path class="fil5" d="M1220.5 2016.45c34.61,-38.35 32.59,-50.65 76.56,-94.43 35.2,-35.05 33.85,-53.88 88.65,-68.32 -25.79,98.26 -122.44,163.33 -177.68,225.46l-4.19 417.39c17.95,-31.57 11.98,-75.44 37.77,-130.39 39.95,-85.13 121.55,-253.69 208.86,-265.68 -6.13,72.06 -202.39,406.27 -244.04,431.57l10.41 38.18c6.33,19.09 10.5,32.91 16.13,53.39 12.94,47.07 17.77,67.5 41.63,95.92 52.48,-68.63 86.99,-158.95 139.65,-204.04 36.23,65.03 -77.9,254.48 -125.79,314.3 -1.67,2.09 -5.15,6.35 -6.52,8.06 -1.4,1.74 -5.56,10.56 -6.57,8.3 -1.03,-2.28 -4.51,5.52 -6.64,8.37l42.79 52.63c28.56,50.98 75.27,155.72 79.28,209.04 45,-81.1 66.54,-190.95 148.78,-232.42 -5.8,126.09 -72.47,204.78 -107.86,294.22 25.87,8.63 131.33,175.89 133.3,180.23 10.72,23.72 4.6,11.87 12.63,42.22l9.98 38.42c0.98,3.62 2.05,8.96 3.89,13.13 -2.44,-103.24 3.9,-223.56 73.07,-286.65 15.08,23.73 15.98,20.87 9.13,75.67l-49.04 203.3c51.79,3.98 6.87,-13.01 54.59,24.43 10.76,8.44 38.29,35.77 50.27,47.2 47.02,44.84 56.8,47.22 113.96,81.18 6.04,-58.29 16.3,-111.56 31.97,-165.78 18,-62.32 26.2,-109.31 66.9,-130.56 37.16,92.31 -25.31,273.57 -71.1,338.43 64.31,10.66 77.14,47.06 138.28,81.97 72.06,41.15 96,31.89 121.39,115.53l22.99 -13.73c64.65,-31.93 76.84,-2.18 207.33,13.54l11.67 -207.77c40.79,61.44 40.21,136.6 32.38,212.89 129.23,-5.95 248.03,-2.25 339.6,-80.25 29.97,-158.04 -326.58,-336.11 -465.48,-405.97 -351.99,-177.04 -615.45,-222.63 -716.02,-590.74 -31.1,-113.82 -44.81,-272.03 -48.65,-393.35 -7.15,-225.94 28.61,-653.01 -114.4,-757.56 -110.09,34.09 -168.25,264.83 -179.84,402.69z"/>
   <path class="fil4" d="M19280.05 2696.58c-19.77,-15.82 -2.82,6.84 -34.32,-31.78 -13.84,-16.98 -10.58,-16.17 -20.56,-34.14 -21.44,-38.61 -12.6,-30.98 -42.38,-59.26 49.3,28.26 85.04,48.42 97.26,125.18zm-512.44 -274.72c-9.19,-84.86 -15.18,-133.96 -13.84,-229.92l-0.21 -180.8c15.48,-89.2 7.48,-28.7 31.33,-55.01l-17.29 465.73zm112.65 -577.13c71.84,-27.39 189.35,6.41 236.67,47.93 113.67,99.73 119.15,460.57 -233.26,536.76l-3.41 -584.69zm330.2 86.98c51.04,90.92 53.22,136.07 17.92,240.91l-17.92 -240.91zm-662.41 -245.17l-7.35 88.63 122.89 31 -10.6 1233.02c-109.12,77.01 -188.57,19.43 -167.18,119.41l520.68 3.84c2.07,-102.78 -44.26,-63.58 -114.7,-123.26l-7.69 -499.54c317.99,-6.22 396.47,286.68 364.68,595.61 -75.89,31.7 -92.04,19.73 -94.27,111.24l393.88 3.43c2.72,-71.91 15.53,-54.32 -28.28,-80.36 -20.55,-12.22 -72.74,-24.98 -94.22,-29.91 5.26,-280.26 -27.37,-587.25 -235.93,-668.55 45.98,-48.62 180.76,-78.58 211.67,-265.75 23.87,-144.5 -20.52,-294.87 -85.63,-387.23 -136.54,-193.67 -486.44,-163.41 -767.95,-131.57z"/>
   <path class="fil6" d="M8517.06 2712.07c-13.53,-129.26 -34.91,-373.21 3.78,-494.31 23.44,151.66 8.08,339.72 -3.78,494.31zm412.11 -90.11c18.76,11.39 21.21,-27.37 41.41,76.93l-41.41 -76.93zm0 0c-31.43,-17.53 -5.49,42.65 -25.66,-34.44l25.66 34.44zm-472.94 -201.94c-39.28,-67.07 -11.65,-405.82 6.76,-502.38 16.78,85.54 10.32,416.41 -6.76,502.38zm114.55 -585.67c213.92,-0.91 333.62,69.67 300.45,299.98 -20.15,139.88 -153.26,291.85 -295.83,287.69l-4.62 -587.67zm342.92 103.11c25.04,99.38 51.1,143.04 4.31,221.9l-4.31 -221.9zm-678.69 -245.52l-2.65 83.37c31.82,13.99 23.82,6.99 53.73,15.59 7.46,2.15 29.02,8.17 34.34,10.14 30.61,11.32 20.64,7.59 34.94,15.89l-10.26 1222.24c-33.83,23.6 -58.41,28.37 -96.93,42 -57.72,20.43 -74.8,14.7 -77.52,69.09l515.89 3.72c2.85,-0.7 7.6,-2.07 11.16,-3.72 -5.04,-86.23 -53.56,-57.43 -115.41,-111.11l-6.43 -500.13c161.8,-0.85 252.94,55.17 307.06,170.58 55.82,119.04 69.22,270.71 59.17,412.88 -73.18,71.14 -93.2,4.75 -95.71,127.37l393.1 0.88c2.52,-60.91 37.22,-74.28 -122.26,-109.79 2.9,-139.7 2.3,-280.19 -35.53,-408.17 -34.81,-117.78 -103.97,-231.99 -201.06,-259.01 61.23,-62.35 178.87,-73.62 211.51,-269.41 43.49,-260.87 -87.44,-503.12 -399.76,-541.31 -94.36,-11.54 -373.66,0.29 -457.35,28.89z"/>
   <path class="fil6" d="M7382.32 2770.54l94.09 212.02c-47.55,-29.22 -46.41,-25.58 -71.18,-88.9 -15.66,-40.02 -29.45,-79.49 -22.91,-123.12zm566.37 -92.48c-12.86,113.87 -40.12,239.1 -105.5,303.66 -189.86,187.5 -450.9,-117.02 -338.85,-783.63 102.91,-612.17 544.43,-406.5 444.34,479.96zm-532.29 -412.01c-3.37,100.71 -14,184.1 -5.36,287.07 5.7,68.01 26.31,168.75 24.84,230.34 -36.38,-142.34 -75.64,-195.59 -54.74,-386.32 5.89,-53.76 10.48,-91.63 35.26,-131.09zm277.62 -551.75c-391.63,47.87 -468.58,351.1 -458.41,756.05 9.46,376.35 128.58,712.06 526.71,697.32 355.82,-13.17 441.65,-405.28 442.94,-767.22 1.32,-373.09 -100.34,-736.39 -511.24,-686.15z"/>
   <path class="fil7" d="M11234.01 2129.78l21.63 55.94c4.74,17.3 7.49,36.15 11.49,57.11 7.9,41.43 16.56,83.17 26.01,126.78 17.97,82.83 39.05,163.4 47.75,248.27l-238.1 -4.26c-7.46,-53.34 107.7,-442.17 131.22,-483.84zm-119.89 -285.06l-287.74 1174.13c-82.58,33.4 -117.99,10.35 -133.19,89.76 28.89,23.38 271.72,91.51 318.69,73.2 33.16,-123.81 -83.29,10.18 -10.96,-236.24 23.67,-80.62 36.91,-195.66 80.31,-251.52l295.2 64.54 69.39 341.93c-67.87,37.71 -113.37,56.9 -121.61,119.2 42.34,18.15 87.17,-2.39 132.37,-14.04l335.34 -81.18c78.81,-22.76 42,-1.38 58.01,-43.67 -29.98,-37.31 -94.57,-27.57 -152.8,-33.23l-299.57 -1215.88c115.78,-81.74 137.73,-19.05 145.41,-125.69l-570.73 0.26c3.26,81.55 84.81,90.28 141.87,138.42z"/>
   <path class="fil4" d="M17816.76 2655.87c-30.98,-77.26 -32.98,-420.8 -28.3,-527.86l28.3 527.86zm-302.61 -824.96l115.62 60.73 13.56 1126.43c-121.09,49.21 -109.91,59.67 -100.63,129.07l880.44 0.05c7.23,-82.42 21.59,-342.63 0.2,-406.22l-50.44 -2.45c-46.09,59.23 -32.72,176.94 -63.93,250.28l-408.95 11.69 -2.64 -576.04 197.56 -12.58 40.48 168.74 83.64 -2.99c9.67,-91.05 14.72,-405.69 -12.84,-472.39 -63.64,-0.91 -73.55,-20.32 -95.01,159.61l-214.67 0 -2.39 -379.14 400.62 -7.98c10.84,52.49 30.13,155.45 78.11,175.18 41.47,-32.79 19.78,13.61 24.54,-53.04l-22.31 -257.78 -865.93 -1.8 4.95 90.65z"/>
   <path class="fil4" d="M10310.47 1742.76c230.03,0.32 362.8,73.54 330.52,318.11 -22.13,167.64 -134.19,311.75 -317,304.36l-13.52 -622.47zm-238.83 2.19l-13.29 1293.85c-36.61,23.52 -54.7,25.96 -89.83,40.25 -64.98,26.42 -53.07,10.31 -57.15,73.76l566.67 -0.95c-1.45,-102.35 -62.83,-65.67 -139.17,-119.17l-13.55 -580.84c613.72,-27.98 605.18,-481.76 475.17,-673.47 -128.67,-189.73 -549.79,-165.39 -804.36,-151 -174.16,9.85 28.45,105.01 75.51,117.56z"/>
   <path class="fil4" d="M14723.99 2019.88c46.83,256.99 27.78,752.03 33.69,776.56 -13.73,-129.53 -23.67,-265.57 -31.31,-396.2 -4.78,-81.57 7.65,-331.31 -2.38,-380.35zm-156.54 -135.2l12.77 1129.37c-113.92,46.74 -107.62,75.96 -102.29,128.42 74.33,13.37 826.02,13.06 884.63,-2.53l7.47 -397.51 -70.96 -1.8c-16.28,73.93 -16.85,193.5 -56.57,239.93 -39.16,19.83 -346.32,25.61 -403.72,11l-2.56 -566.06 205.92 -15.15 32.45 169.69 80.43 -1.92 1.52 -358.67c-0.22,-44.89 3.1,-81.94 -19.76,-116.91 -71.61,6.11 -54.53,-12.18 -70.44,59.96 -26.97,122.29 19.67,102.69 -232.43,101.45l-3.89 -378.15 390.06 -7.63c71.09,115.56 26.79,161.19 102.24,174.11 33.8,-55.88 -5.32,-235.48 -9.43,-303.48l-866.46 -8.87c2.55,112.93 13.04,114.78 121.01,144.73z"/>
   <path class="fil6" d="M13694.56 2883.47c-16.6,-38.57 -24.22,-78.28 -25.23,-122.68l94.63 211.21c-17.19,-12.23 -10.16,-4.84 -25.69,-20.64l-43.7 -67.89zm-14.72 -262.06c-25.49,-122.59 -23.63,-285.1 24.22,-389.37 1.67,87.28 -8.86,174.34 -6.15,265.96 2.48,83.86 16.78,159.81 22.91,241.37l-40.98 -117.96zm-29.67 -457.06c8.84,104.54 -41.68,232.73 -31.2,338.71 -12.49,-67.15 -18.52,-117.93 -11.85,-186.71 5.14,-53 11.58,-120.86 43.05,-152zm0 0c0.15,-48.83 11.69,-75.42 41.24,-108.4l-34.22 100.96c-0.81,-2.07 -4.67,4.97 -7.02,7.43zm742.02 464.72l-88.1 8.3c-6.08,326.72 -439.32,604.81 -518.72,-119.51 -65.39,-596.47 206.48,-703.93 286.91,-609.04 44.94,53.02 63.62,185.82 69.63,267.41l210.27 -31.74 43.38 -370.78 -87.97 -6.8 -24.58 123.98 -139.39 -108.39c-152.67,-77.91 -401.05,-31.22 -527.55,110.78 -155.72,174.8 -155.37,535.91 -113.06,809.33 39.54,255.48 180.62,500.71 477.4,455.3 263.54,-40.33 442.9,-224.46 411.78,-528.85z"/>
   <path class="fil6" d="M5361.85 2761.28c22.31,34.83 81.11,169.09 96.94,211.11l-39.55 -36.34c-36.6,-46.45 -56.23,-114.83 -57.4,-174.77zm53.49 -21.82c-72.72,-110.33 -71.59,-389.19 -16.75,-507.55 1.53,87.55 -8.85,174.31 -6.13,266.08 2.49,83.89 16.7,159.86 22.88,241.46zm-70.49 -575.27c2.99,37.52 -25.84,281.12 -34.23,330.37 -10.11,-70.47 -16.21,-120.27 -7.56,-192.14 2.58,-21.46 9.13,-62.68 13.65,-82.89 12.13,-54.19 13.82,-41.36 28.14,-55.34zm0 0c0.01,-48.76 11.7,-74.88 40.8,-108.14l-27.63 93.02c-1,1.87 -5.51,9.74 -6.29,7.72 -0.79,-2.05 -4.57,4.95 -6.87,7.4zm741.61 465.04l-87.84 8.27c-6.05,335.34 -444.14,595.67 -518.91,-119.39 -20.09,-192.15 -21.16,-420.86 81.57,-554.75 41.83,-54.52 141.37,-130.36 205.53,-54.68 44.59,52.6 63.53,185.81 69.73,267.34l209.91 -31.68 43.44 -370.51 -87.85 -6.91 -44.54 109.48 -47.19 -42.21c-79.6,-69.96 -156.6,-92.56 -273.96,-86.39 -482.88,25.4 -502.65,549.1 -438.83,954.9 40.23,255.82 180.7,500.6 477.29,455.04 262.74,-40.35 443.3,-223.38 411.66,-528.52z"/>
   <path class="fil8" d="M1963.92 1232.81c-25.26,46.99 -20.15,14.97 -63.87,60.68 50.73,35.3 26.46,7.9 83.41,32.56l-48.48 10.89c32.55,27.29 75.57,58.29 59.41,116.64l30.6 57.74c31.24,-18.4 12.78,22.76 28.46,-22.67 31.36,20.69 50.54,53.37 66.84,96.1 27.8,72.85 -7.73,101.51 -7.83,101.27 -0.92,-2.25 -4.72,6.21 -6.78,9.51 8.69,129.02 22.74,276.79 36.35,409.78 11.7,114.35 78.94,243.4 132.87,328.78 39.96,-11.46 11.12,21.02 45.34,-21.62 51.4,72.41 112.83,64.98 108.62,167.6 12.17,24.37 -4.36,6.76 16.3,25.71 16.41,15.05 14.13,9.54 25.14,15.54 10.3,-12.61 25.27,-34.7 32.84,-39.39l7.33 57.44c55.38,-34.43 28.14,-22.37 176.78,89.7l-17.76 80.04 48.91 25.91 14.61 -65.41c49.52,30.77 81.09,49.07 115.23,85.81 39.93,42.99 47.13,47.06 39.06,115.2 28.97,38.54 81.26,73.13 125.39,123.18 40.42,45.84 77.15,84.48 107.06,156.5 68.22,164.24 27.78,298.88 -21.98,443.99 135.82,-18.2 159.68,-19.35 265.86,-81.15 -23.26,-22.71 -1.92,-10.74 -45.83,-22.29 -0.48,-0.13 -43.94,-2.33 -50.64,-2.95 59.31,-13.48 146.44,-68.56 184.69,-115.76l-162.61 56.07c19.74,-42.26 47.94,-67.66 74.23,-109.54 -14.16,-53.35 -20.69,5.46 -27.22,-73.57l-26.13 -122.2c7.17,180.23 -5.91,141.87 -40.83,268.56 6.59,-174.59 -24.35,-247.71 -46.51,-392.27 32.99,25.85 40.5,39.82 79.86,59.47 -23.52,-85.84 -71.89,-141.32 -118.35,-194.89 -26.35,-30.39 -37.77,-54.49 -67.77,-84.73 -29.39,-29.63 -48.63,-37.28 -84.66,-68.23l35.47 -47.39c-54.63,-20.35 -98.27,-7.31 -160.56,-26.87 -11.25,-28.48 -9.16,-68.48 -25.47,-94.18 -31.81,-50.12 5.97,23.39 -46.85,-37.81 -46.21,-53.54 -46.09,-94.77 -107.97,-124.68 21.96,66.91 57.68,107.46 58.28,194.87 -43.89,-27.14 -54.43,-94.67 -85.28,-141.93 -24.02,-36.8 -72.23,-90.81 -97.44,-118.39l89.67 32.32c-41.72,-52.3 -108.04,-96.81 -183.58,-129.48 79.45,186.76 40.68,15.08 29.05,137.64 -2.58,27.19 2.7,30.26 8.74,50.43 -9.05,-30.85 2.27,-24.37 -26.92,-66.52 -53.76,-77.63 -58.27,-135.86 -69.35,-232.97 46.71,-32.74 70.09,-21.25 113.48,-55.56 -39.24,-18.63 -70.61,-3.06 -120.5,4.86 24.31,-45.88 37.03,-38.84 66.34,-85.53l-78.89 34.27c-26.62,-43.53 -60.37,-89.78 -65.05,-148.83 -21.69,-273.96 -50.67,-285.56 -117.06,-519.82 -22.35,-25.68 -3.96,-12.72 -29.26,-21.13 -67.17,-66.8 -81.5,-81.85 -196.1,-100.11 8.96,-24.62 4.23,-19.97 25.98,-35.8 -6.27,-0.48 -50.32,-3.51 -51.26,-3.74 -41.84,-10.36 -7.2,5.8 -35.74,-13.31l2.32 -28.32z"/>
   <path class="fil9" d="M3484.01 3079.01c-5.91,-56.46 -22.89,-105.27 -54.39,-138.31 -76.24,-80 -47.13,11.17 -68,-122.18 67.59,31.6 166.43,175.01 148.51,287.66l-26.12 -27.17zm0 0c15.51,56.18 25.64,92.56 26,154.66 0.41,70.91 -6.42,117.22 -47.97,161.84 5.03,-282.81 -19.96,-231.86 -124.43,-433.21 -56.77,-109.42 -15.37,-92.41 -104.17,-172.49 -54.69,-49.32 -106.22,-90.11 -195.44,-96.05 6.73,-59.11 14.98,-53.64 -7.46,-98.34 37.35,20.35 33.31,30.17 57.14,47.66 15.4,11.3 191.33,82.95 230.81,131.14 50.73,61.91 -25.93,107.17 165.51,304.79zm-567.54 -538.02c-17.68,-18.27 2.66,10.91 -20.17,-25.3 -39.94,-63.33 -93.3,-219.52 -178.42,-279.56 -69.47,-49 -69.14,-3.49 -64.59,-101.48 -45.99,-9.22 1.88,5.43 -34.59,-6.73l-41.02 -19.31 45.22 -68.18 50.17 113.93c5.43,7.65 222.04,113.15 243.41,386.63zm-987.81 -1301.24l35.26 -6.94 -2.32 28.32c28.54,19.11 -6.1,2.95 35.74,13.31 0.94,0.23 44.99,3.26 51.26,3.74 -21.75,15.83 -17.01,11.18 -25.98,35.8 114.6,18.26 128.94,33.31 196.1,100.11l-30.22 -97.71c168.12,15 244.08,128.9 309.63,250.59 56.17,104.28 11.87,132.64 10.23,236.93 -1.44,91.61 25.33,26.29 46.95,99.1 12.54,42.24 -15.52,85.52 -28.21,112.13 -139.27,-83.79 6.21,-126.68 -82.87,-352.95 -39.33,-99.91 -119.83,-171.81 -196.25,-226.96 66.39,234.26 95.37,245.86 117.06,519.82 4.68,59.05 38.43,105.3 65.05,148.83l78.89 -34.27c-29.31,46.69 -42.03,39.65 -66.34,85.53 49.89,-7.92 81.26,-23.49 120.5,-4.86 -43.38,34.3 -66.76,22.81 -113.48,55.56 11.08,97.11 15.59,155.34 69.35,232.97 29.19,42.15 17.87,35.67 26.92,66.52 -6.05,-20.17 -11.32,-23.24 -8.74,-50.43 11.63,-122.56 50.4,49.12 -29.05,-137.64 75.55,32.67 141.86,77.18 183.58,129.48l-89.67 -32.32c25.21,27.57 73.43,81.59 97.44,118.39 30.85,47.26 41.39,114.79 85.28,141.93 -0.6,-87.41 -36.33,-127.96 -58.28,-194.87 61.87,29.91 61.76,71.15 107.97,124.68 52.82,61.2 15.04,-12.31 46.85,37.81 16.31,25.69 14.22,65.69 25.47,94.18 62.29,19.56 105.92,6.52 160.56,26.87l-35.47 47.39c36.04,30.95 55.27,38.61 84.66,68.23 30,30.24 41.43,54.35 67.77,84.73 46.45,53.57 94.83,109.05 118.35,194.89 -39.36,-19.65 -46.87,-33.63 -79.86,-59.47 22.15,144.56 53.09,217.69 46.51,392.27 34.93,-126.7 48,-88.33 40.83,-268.56l26.13 122.2c6.53,79.04 13.06,20.23 27.22,73.57 -26.29,41.89 -54.49,67.28 -74.23,109.54l162.61 -56.07c-38.25,47.2 -125.37,102.28 -184.69,115.76 6.69,0.62 50.15,2.83 50.64,2.95 43.92,11.55 22.57,-0.42 45.83,22.29 35.91,-28.35 47.7,-32.13 80.01,-59.2 27.77,-23.27 39.36,-35.26 65.85,-51.62 61.15,-131.08 118.84,-169.49 59.95,-437.14 -42.69,-193.98 -246.84,-346.8 -391.79,-442.57 -62.89,-41.56 -125.52,-59.23 -167.26,-110.01 -20.45,-24.88 -204.03,-287.52 -210.96,-340.37 -39.12,-23.46 -37.94,-35.74 -64.26,-72.48 -33.28,-23.34 -53.33,-44.53 -50.23,-97 -24.85,-25.09 -35.57,-93.24 -49.19,-128.08 -57.76,-229.39 -151.18,-440.86 -281.69,-569.91 -44.76,-22.39 -66.83,-84.57 -185.26,-116.41 -74.19,-19.95 -187.44,-10.84 -240.17,51.42z"/>
   <path class="fil3" d="M16591.91 2131.1c100.99,-22.33 68.11,-116.85 114.32,-212.94l216.28 -7.5 -13.64 1124.97 -152.39 53.49c-56.84,27.11 -27.54,-11.26 -41.1,47.26 35.59,18.35 88.19,14.44 129.59,14.38 117.63,-0.2 373.09,16.81 453.01,-2.8 -2.52,-83.32 -73.83,-68.77 -150.95,-105.15l-33.98 -1134.42 234.03 -3.31c16.09,185.43 30.07,175.15 92.2,198.12l29 -378.52 -900.36 -2.69 24 409.11z"/>
   <path class="fil10" d="M7948.69 2678.06c100.09,-886.46 -341.44,-1092.14 -444.34,-479.96 -112.05,666.61 148.99,971.12 338.85,783.63 65.37,-64.56 92.64,-189.79 105.5,-303.66z"/>
   <path class="fil11" d="M9313.54 1789.17c11.96,55.98 50.35,65.42 171.28,96.42l-16.37 1142.3c-34.23,7.93 -64.38,19.87 -101.94,32.43 -66.7,22.29 -76.97,10.2 -77.11,73.9l579.55 4.42c-2.22,-99.53 -19.25,-47.58 -110.27,-97.6 -18.17,-9.99 -16.36,-9.33 -27.33,-18.98l-32.91 -1135.61c96.27,-56.94 172.99,3.85 170.5,-111.85 -34.71,-6.98 -501.75,-18.8 -555.4,14.57z"/>
   <path class="fil12" d="M10323.99 2365.23c182.81,7.39 294.87,-136.72 317,-304.36 32.28,-244.57 -100.49,-317.79 -330.52,-318.11l13.52 622.47z"/>
   <path class="fil13" d="M18880.26 1844.72l3.41 584.69c352.41,-76.19 346.93,-437.03 233.26,-536.76 -47.32,-41.52 -164.83,-75.31 -236.67,-47.93z"/>
   <path class="fil14" d="M8575.41 2422.03c142.57,4.17 275.69,-147.81 295.83,-287.69 33.17,-230.31 -86.53,-300.89 -300.45,-299.98l4.62 587.67z"/>
   <path class="fil15" d="M3573.94 2782.67c-65.01,-1.03 -45.49,-11.69 -78.36,-60.46l-214.45 -230.09c-39.67,-29.71 -6.8,8.22 -40.27,-30.09 -16.02,-18.34 -9.37,-19.83 -26.46,-42.64 -17.74,-23.69 -58.42,-49.92 -79.2,-72.81 -30.93,-34.07 -29.15,-43.17 -62.07,-76.7 -54.5,-55.53 -22.53,-34.5 -52.31,-100.76 -85.75,-190.78 -39.2,75.7 -168.12,-412.02 -20.83,-78.78 -59.02,-137.71 -95.04,-199.76 -15.1,-26.02 -30.26,-69.76 -47.78,-90.99 -39.05,-47.31 -39.62,-10.6 -73.33,-78.85 -42.68,-26.51 -42.65,-36.6 -86.83,-54.42 -6.24,-2.51 -53.78,-16.07 -56.41,-16.24 -46.54,-3.16 45.83,-9.62 -24.17,0.51 -30.21,4.37 -15.31,-1.04 -37.29,13.48 60.4,40.08 70.26,11.24 130.96,60.35 30.24,24.47 64.47,61.8 90.11,89.51 127.4,137.65 175.87,341.34 206.65,525.41 18.78,112.26 18.26,60.3 53.19,129.96 12.63,25.17 15.28,48.15 28.38,69.95 20.61,34.29 16.24,9.11 44.25,53.15 9.43,14.82 15.93,39.66 26.68,55.33 39.64,57.75 15.72,4.74 52.5,45.7 49.01,54.57 -9.59,45.6 74.48,108.56 111.09,83.18 120.63,170.77 169.87,206.6 53.76,39.13 67.35,9.87 108.51,67.94 81.04,114.31 24.8,36.54 99.83,97 26.67,21.48 116.11,197.52 119.57,241.75 2.74,-67.33 12.89,-89.59 -12.35,-139.61l-24.56 -54.03c-0.96,-10.34 8.59,-49.41 9.82,-76.75 -17.91,-11.52 -21.44,-14.32 -35.83,-28.98z"/>
   <path class="fil16" d="M3174.44 1260.13c1.44,82.14 -61.88,153.49 -124.93,178.09l-9.8 31.2c149.45,62.79 169.19,291.97 176.57,271.95 0.75,-2.04 3.21,6.92 5.25,10.13 18.09,-105.39 51.09,-230.58 137.56,-253.57l44.7 -42.09c-52.31,-34.35 -85.75,-50.64 -119.7,-105.53 -31.41,-50.76 -52.04,-109.96 -59.4,-179.58l-50.25 89.4z"/>
   <path class="fil17" d="M3573.94 2782.67l-113.49 -150.3c-53.45,-51.72 -89.93,-96.62 -142.93,-148.93 -233.86,-230.81 -339.84,-409.55 -440.3,-740.83 -46.19,-152.34 -58.57,-372.9 -240.65,-355.1 33.71,68.25 34.28,31.53 73.33,78.85 17.52,21.23 32.68,64.97 47.78,90.99 36.02,62.04 74.21,120.98 95.04,199.76 128.92,487.72 82.37,221.24 168.12,412.02 29.78,66.26 -2.19,45.23 52.31,100.76 32.92,33.54 31.14,42.63 62.07,76.7 20.78,22.9 61.46,49.13 79.2,72.81 17.09,22.8 10.44,24.3 26.46,42.64 33.47,38.31 0.6,0.38 40.27,30.09l214.45 230.09c32.87,48.77 13.35,59.43 78.36,60.46z"/>
   <path class="fil12" d="M11234.01 2129.78c-23.52,41.67 -138.69,430.5 -131.22,483.84l238.1 4.26c-8.7,-84.87 -29.78,-165.44 -47.75,-248.27 -9.46,-43.6 -18.11,-85.34 -26.01,-126.78 -4,-20.96 -6.75,-39.8 -11.49,-57.11l-21.63 -55.94z"/>
   <path class="fil18" d="M2218.73 1414.1c25.3,8.41 6.91,-4.55 29.26,21.13 76.42,55.15 156.93,127.05 196.25,226.96 89.07,226.28 -56.41,269.16 82.87,352.95 12.69,-26.61 40.76,-69.89 28.21,-112.13 -21.62,-72.81 -48.39,-7.48 -46.95,-99.1 1.65,-104.3 45.94,-132.66 -10.23,-236.93 -65.55,-121.69 -141.51,-235.59 -309.63,-250.59l30.22 97.71z"/>
   <path class="fil19" d="M3484.01 3079.01c-191.44,-197.61 -114.78,-242.88 -165.51,-304.79 -39.48,-48.19 -215.41,-119.83 -230.81,-131.14 -23.83,-17.49 -19.79,-27.3 -57.14,-47.66 22.44,44.7 14.19,39.22 7.46,98.34 89.22,5.94 140.75,46.73 195.44,96.05 88.8,80.07 47.39,63.07 104.17,172.49 104.47,201.35 129.46,150.39 124.43,433.21 41.55,-44.62 48.38,-90.93 47.97,-161.84 -0.36,-62.1 -10.5,-98.48 -26,-154.66z"/>
   <path class="fil20" d="M1203.84 2496.55l2.59 35.5c41.65,-25.3 237.91,-359.52 244.04,-431.57 -87.31,11.99 -168.91,180.54 -208.86,265.68 -25.78,54.95 -19.81,98.83 -37.77,130.39z"/>
   <path class="fil19" d="M2916.47 2540.99c-21.37,-273.48 -237.98,-378.97 -243.41,-386.63l-50.17 -113.93 -45.22 68.18 41.02 19.31c36.48,12.16 -11.4,-2.49 34.59,6.73 -4.55,97.99 -4.87,52.48 64.59,101.48 85.12,60.04 138.48,216.22 178.42,279.56 22.83,36.21 2.49,7.03 20.17,25.3z"/>
   <path class="fil21" d="M3407.98 1630.35c1.09,52.99 3.81,13.2 -13.27,42.15l-28.39 40.16c89.2,47.54 56.46,74.22 94.41,151.65l23.37 -56.04c11.42,-66.23 24.76,-76.69 71.66,-99.69l-49.56 -52.56c-21.69,-28.75 -25,-46.22 -33.07,-84.02l-65.16 58.35z"/>
   <path class="fil22" d="M6353.24 2980.39c0,-193.45 31.4,-590.28 -1.31,-755.8 -33.03,178 -38.82,588.64 1.31,755.8z"/>
   <path class="fil20" d="M1274.59 2719.54l-43.1 165.96 37.22 -30.98c2.13,-2.85 5.61,-10.65 6.64,-8.37 1.02,2.26 5.18,-6.56 6.57,-8.3 1.37,-1.7 4.85,-5.97 6.52,-8.06 47.89,-59.81 162.02,-249.27 125.79,-314.3 -52.66,45.09 -87.17,135.41 -139.65,204.04z"/>
   <path class="fil23" d="M1843.48 3597.13c1.43,37.7 -9.75,52.26 27.77,42.09 45.78,-64.86 108.26,-246.12 71.1,-338.43 -40.7,21.24 -48.9,68.23 -66.9,130.56 -15.67,54.23 -25.93,107.49 -31.97,165.78z"/>
   <path class="fil20" d="M1390.79 3116.19l-0.88 86.56 41.8 -24.76c35.39,-89.44 102.07,-168.13 107.86,-294.22 -82.24,41.47 -103.78,151.32 -148.78,232.42z"/>
   <path class="fil24" d="M2470.3 2621.32c32.11,24.7 69.21,68.04 99.13,96.22 34.32,32.33 62.95,57.51 100.06,91.57l17.76 -80.04c-148.65,-112.07 -121.41,-124.13 -176.78,-89.7l-7.33 -57.44c-7.57,4.69 -22.54,26.78 -32.84,39.39z"/>
   <path class="fil24" d="M2718.41 2835.01c44.37,43.89 103.2,101.44 168.91,135.6 8.07,-68.14 0.87,-72.21 -39.06,-115.2 -34.14,-36.74 -65.72,-55.04 -115.23,-85.81l-14.61 65.41z"/>
   <path class="fil23" d="M1591.5 3451.98l12.85 24.17 20.31 -31.84 49.04 -203.3c6.85,-54.81 5.95,-51.94 -9.13,-75.67 -69.17,63.09 -75.52,183.4 -73.07,286.65z"/>
   <path class="fil25" d="M5415.35 2739.46c-6.18,-81.61 -20.39,-157.57 -22.88,-241.46 -2.72,-91.78 7.66,-178.54 6.13,-266.08 -54.85,118.36 -55.97,397.22 16.75,507.55z"/>
   <path class="fil26" d="M2635.77 1874.65c13.62,34.84 24.34,103 49.19,128.08 21.1,-97.48 59.34,-144.35 72.37,-250.77 -83.44,24.93 -57.56,84.73 -121.56,122.69z"/>
   <path class="fil27" d="M1833.18 1315.15c23.67,16.57 68.79,45.73 89.5,63.29 30.37,25.76 44.91,54.43 71.72,75.14 16.15,-58.35 -26.86,-89.35 -59.41,-116.64l48.48 -10.89c-56.95,-24.66 -32.68,2.74 -83.41,-32.56 43.72,-45.71 38.61,-13.69 63.87,-60.68l-35.26 6.94c-31.72,4.61 -14.73,-7.76 -53.88,23.37 -27.2,21.62 -25.64,24.79 -41.6,52.04z"/>
   <path class="fil22" d="M14723.99 2019.88c10.03,49.04 -2.39,298.78 2.38,380.35 7.64,130.63 17.57,266.68 31.31,396.2 -5.91,-24.52 13.15,-519.56 -33.69,-776.56z"/>
   <path class="fil22" d="M13720.81 2739.37c-6.13,-81.56 -20.43,-157.51 -22.91,-241.37 -2.7,-91.62 7.82,-178.69 6.15,-265.96 -47.85,104.28 -49.71,266.78 -24.22,389.37l40.98 117.96z"/>
   <path class="fil22" d="M8456.23 2420.02c17.08,-85.97 23.54,-416.83 6.76,-502.38 -18.41,96.56 -46.04,435.31 -6.76,502.38z"/>
   <path class="fil22" d="M7416.4 2266.04c-24.78,39.47 -29.37,77.33 -35.26,131.09 -20.89,190.72 18.37,243.98 54.74,386.32 1.47,-61.59 -19.14,-162.33 -24.84,-230.34 -8.64,-102.97 1.99,-186.37 5.36,-287.07z"/>
   <path class="fil22" d="M8517.06 2712.07c11.85,-154.59 27.21,-342.65 3.78,-494.31 -38.69,121.1 -17.3,365.04 -3.78,494.31z"/>
   <path class="fil19" d="M3484.01 3079.01l26.12 27.17c17.92,-112.65 -80.92,-256.06 -148.51,-287.66 20.87,133.35 -8.25,42.19 68,122.18 31.5,33.04 48.48,81.85 54.39,138.31z"/>
   <path class="fil23" d="M1220.5 2016.45l-12.46 62.72c55.24,-62.13 151.89,-127.2 177.68,-225.46 -54.8,14.44 -53.45,33.27 -88.65,68.32 -43.96,43.78 -41.95,56.07 -76.56,94.43z"/>
   <path class="fil22" d="M18767.61 2421.85l17.29 -465.73c-23.85,26.3 -15.86,-34.19 -31.33,55.01l0.21 180.8c-1.34,95.96 4.65,145.06 13.84,229.92z"/>
   <path class="fil24" d="M2025 1511.32c42.85,66.82 51.09,112 80.7,184.22 2.06,-3.3 5.86,-11.76 6.78,-9.51 0.1,0.24 35.62,-28.43 7.83,-101.27 -16.3,-42.73 -35.48,-75.41 -66.84,-96.1 -15.68,45.43 2.78,4.26 -28.46,22.67z"/>
   <path class="fil23" d="M2361.23 3836.52l21.6 52.33c12.84,-12.89 15.71,21.03 22.44,-47.21 7.83,-76.3 8.41,-151.46 -32.38,-212.89l-11.67 207.77z"/>
   <path class="fil24" d="M2274.91 2434.09c56.64,43.93 98.31,99.97 153.96,145.98 4.22,-102.62 -57.22,-95.2 -108.62,-167.6 -34.22,42.63 -5.38,10.16 -45.34,21.62z"/>
   <path class="fil25" d="M5344.86 2164.19c-14.31,13.98 -16.01,1.15 -28.14,55.34 -4.52,20.21 -11.07,61.43 -13.65,82.89 -8.65,71.87 -2.56,121.67 7.56,192.14 8.39,-49.25 37.22,-292.85 34.23,-330.37z"/>
   <path class="fil22" d="M12047.67 2979.28c1.09,-50.66 18.7,-106.06 14.29,-190.45 -4.03,-77.02 4.82,-133.69 -23.37,-188.74 -11.08,126.72 -0.39,252.42 9.07,379.19z"/>
   <path class="fil22" d="M13650.16 2164.35c-31.47,31.14 -37.91,99.01 -43.05,152 -6.67,68.78 -0.64,119.56 11.85,186.71 -10.48,-105.98 40.04,-234.17 31.2,-338.71z"/>
   <path class="fil28" d="M3471.1 1316.94c12.87,27.57 21.59,36.4 38.62,71.29l56.64 -69.81c-33.32,-34.56 -5.46,-23.91 -59.76,-62.07 -13.48,41.58 -10.24,34.35 -35.5,60.59z"/>
   <path class="fil22" d="M17816.76 2655.87l-28.3 -527.86c-4.69,107.06 -2.69,450.6 28.3,527.86z"/>
   <path class="fil23" d="M3440.76 2243.18c-23.34,-39.13 -76.43,-102.9 -143.71,-99.31 39.4,64.59 61.67,77.96 143.71,99.31z"/>
   <path class="fil22" d="M7405.24 2893.66c24.77,63.32 23.63,59.68 71.18,88.9l-94.09 -212.02c-6.54,43.63 7.26,83.1 22.91,123.12z"/>
   <path class="fil22" d="M19228.38 2172.61c35.3,-104.84 33.13,-149.99 -17.92,-240.91l17.92 240.91z"/>
   <path class="fil29" d="M5458.8 2972.39c-15.84,-42.02 -74.64,-176.28 -96.94,-211.11 1.17,59.94 20.8,128.32 57.4,174.77l39.55 36.34z"/>
   <path class="fil30" d="M2735.2 2099.74c26.33,36.73 25.15,49.01 64.26,72.48l23.72 -121.85c-39.84,24.13 -12.26,9.97 -45.35,33.59 -28.45,20.31 -7.13,15.2 -42.64,15.78z"/>
   <path class="fil22" d="M16137.48 1742.59c81.35,14.71 151.53,11.5 219.68,-17.95 -66.52,-5.83 -170.29,-11.76 -219.68,17.95z"/>
   <path class="fil22" d="M12584.43 1742c77.78,16.27 160.49,13.42 220.93,-18.99 -32.93,-1.71 -217.03,-0.93 -220.93,18.99z"/>
   <path class="fil22" d="M13763.96 2972l-94.63 -211.21c1.01,44.4 8.63,84.11 25.23,122.68l43.7 67.89c15.54,15.8 8.5,8.41 25.69,20.64z"/>
   <path class="fil22" d="M8918.02 2159.36c46.79,-78.86 20.72,-122.52 -4.31,-221.9l4.31 221.9z"/>
   <path class="fil31" d="M3108.63 1621.78c-27.19,-26.83 -25.72,-31.27 -76.7,-34.69 42.83,39.04 16.45,47.59 82.06,78.28l-5.36 -43.59z"/>
   <path class="fil22" d="M19280.05 2696.58c-12.22,-76.76 -47.96,-96.92 -97.26,-125.18 29.78,28.28 20.94,20.66 42.38,59.26 9.98,17.96 6.72,17.16 20.56,34.14 31.5,38.62 14.55,15.96 34.32,31.78z"/>
   <path class="fil32" d="M5344.86 2164.19c2.31,-2.45 6.09,-9.45 6.87,-7.4 0.78,2.02 5.29,-5.85 6.29,-7.72l27.63 -93.02c-29.1,33.26 -40.78,59.39 -40.8,108.14z"/>
   <path class="fil22" d="M13650.16 2164.35c2.36,-2.46 6.22,-9.51 7.02,-7.43l34.22 -100.96c-29.55,32.98 -41.09,59.56 -41.24,108.4z"/>
   <path class="fil22" d="M8929.17 2621.97l41.41 76.93c-20.2,-104.3 -22.65,-65.54 -41.41,-76.93z"/>
   <path class="fil22" d="M8929.17 2621.97l-25.66 -34.44c20.17,77.09 -5.77,16.91 25.66,34.44z"/>
  </g>
 </g>
</svg>
