<?xml version="1.0" encoding="UTF-8"?>
<!DOCTYPE svg PUBLIC "-//W3C//DTD SVG 1.1//EN" "http://www.w3.org/Graphics/SVG/1.1/DTD/svg11.dtd">
<!-- Creator: CorelDRAW 2021 (64-Bit) -->
<svg xmlns="http://www.w3.org/2000/svg" xml:space="preserve"  version="1.1" style="shape-rendering:geometricPrecision; text-rendering:geometricPrecision; image-rendering:optimizeQuality; fill-rule:evenodd; clip-rule:evenodd"
viewBox="0 0 6666.66 1166.66"
 xmlns:xlink="http://www.w3.org/1999/xlink"
 xmlns:xodm="http://www.corel.com/coreldraw/odm/2003">
 <defs>
  <style type="text/css">
   <![CDATA[
    .fil0 {fill:#FFFEFE}
   ]]>
  </style>
 </defs>
 <g id="Capa_x0020_1">
  <metadata id="CorelCorpID_0Corel-Layer"/>
  <g id="_2544394312192">
   <path class="fil0" d="M-4335.35 -1888.76c0,59.29 -54.83,53.33 -90,53.33 -41.26,0 -50.46,-23.33 -83.33,-23.33 -69.15,0 -80.37,123.33 103.33,123.33 89.2,0 166.67,-58.19 166.67,-136.67 0,-71.61 -17.16,-115.4 -85.65,-144.35 -78.47,-33.17 -147.69,-5.09 -147.69,-55.65 0,-35.81 40.71,-63.33 66.67,-63.33 35.04,0 50.94,-3.88 72.52,17.48 66.37,65.73 146.71,-33.54 36.19,-96.19 -19.25,-10.91 -68.98,-21.29 -98.71,-21.29 -184.28,0 -243.82,252.76 -72.59,289.24 57.83,12.33 132.59,3.46 132.59,57.42z"/>
   <path class="fil0" d="M-2142.02 -1848.76l-16.67 0c0,-61.28 -6.79,-63.23 10.7,-82.63 6.06,-6.72 31.8,-63.24 75.23,-33.29 34.4,23.71 12.02,54.7 -9.14,82.71 -10.65,14.09 -35.6,33.22 -60.12,33.22zm-130 -350l3.27 116.73c0.54,22.67 6.19,53.8 6.84,76.5 1.59,55.68 6.56,107.59 6.56,163.44 0,24.08 -6.11,48.88 -3.11,69.75 4.31,29.98 28.12,36.92 53.11,36.92 19.78,0 17.43,-12.33 39.83,-13.51 53.14,-2.81 82.5,-4.88 128.82,-41.17 41.43,-32.46 78.02,-87.34 78.02,-155.31 0,-81.74 -91.83,-141.39 -178.63,-118.64 -14.87,3.9 -18.21,8.91 -31.37,11.97l-5.26 -91.41c-5.13,-33.89 6.11,-67.29 -2.78,-90.54 -18.02,-47.1 -95.29,-51.48 -95.29,35.28z"/>
   <path class="fil0" d="M-2815.35 -1842.09c-29.07,0 -18.68,-32.88 -15.96,-73.28 29.58,-8.21 12.17,-36.72 49.3,-36.72 49.4,0 71.01,43.13 19.63,82.96 -9.32,7.23 -38.99,27.04 -52.96,27.04zm-73.33 320c18.7,0 34.03,-12.1 41.28,-25.39 13.07,-23.96 8.83,-96.39 8.71,-127.95 -0.1,-27.39 3.34,-40.57 3.34,-66.66 56.78,0 98.07,-23.43 131.48,-48.52 76.76,-57.63 103.42,-168.91 9.25,-232.22 -67.28,-45.22 -110.53,-22.06 -144.07,-19.26 -9.09,-25.12 -65.48,-31.3 -81.07,12.27 -4.8,13.42 -8.89,56.74 -8.93,74.4 -0.07,24.98 -3.34,47.13 -3.33,76.67 0,27.37 0.92,56.28 0.11,83.44 -0.5,16.78 -3.35,18.46 -3.57,36.43l0.21 80.21c0.08,19.35 -2.59,24.42 -3.43,39.91 -2.98,55.19 -1.51,116.68 50.02,116.68z"/>
   <path class="fil0" d="M-3792.02 -1835.43c0,-89.59 -3.07,-56.7 17.49,-79.18 14.22,-15.54 7.92,-22.99 45.84,-14.16 0,45.44 -20,92.37 -63.33,93.33zm-103.33 -376.67l-0.01 156.68c-0.14,38.36 9.32,184.42 5.88,209.19 -3.54,25.51 -18.18,65.66 22.1,92.83 66.9,45.13 196.7,6.39 228.08,-109.31 11.15,-41.11 14.13,-83.13 -7.9,-117.53 -20.37,-31.81 -63.04,-51.85 -98.15,-51.85 -17.26,0 -34.24,5.35 -50,6.67 0,-48.65 -3.33,-86.7 -3.33,-136.67 0,-24.69 9.87,-96.67 -46.67,-96.67 -30.87,0 -50,26.23 -50,46.67z"/>
   <path class="fil0" d="M-1102.02 -1848.76c-22.66,0 -30.42,-1.02 -52.43,-20.91 -32.35,-29.24 -35.83,-99.09 49.09,-99.09 21.51,0 13.64,55.48 66.67,56.67 -9.61,18.16 -16.09,46.51 -36.46,56.87 -6.87,3.49 -15.97,6.46 -26.87,6.46zm-170 -70c0,30.79 2.48,49.54 16.52,76.81 22.84,44.34 87,93.19 143.48,93.19 63.28,0 85.04,-22.15 116.67,-43.33 13.87,9.29 37.31,26.32 59.63,25.57 48.84,-1.63 64.07,-59.92 25.72,-87.59 -30.19,-21.79 -31.24,-25.76 -23.34,-79.29 6.13,-41.57 14.31,-115.35 -45.35,-115.35 -22.62,0 -30.02,11.09 -43.33,20 -46.99,-70.17 -250,-45.65 -250,110z"/>
   <path class="fil0" d="M-238.69 -1842.09c-64.91,0 -71.1,-97.89 -47.35,-124.02 21.19,-23.31 47.33,-13.72 59.91,-11.66 7.72,1.27 47.44,-7.09 47.44,35.68 0,22.12 -7.17,49.65 -15.49,64.51 -8.85,15.81 -24.91,35.49 -44.51,35.49zm-13.33 96.67c58.98,0 94.68,-17.18 125.33,-58 48.12,-64.09 72.41,-186.78 -3.31,-244.03 -41.6,-31.45 -40.56,-10.17 -77.73,-25.52 -32.63,-13.47 -82.7,-3.74 -111.07,10.77 -18.42,9.42 -28.59,19.44 -42.45,34.21 -75.13,80.06 -26.26,282.56 109.22,282.56z"/>
   <path class="fil0" d="M44.65 -1762.09c56.19,0 52.47,-64.3 56.64,-103.35 2.82,-26.44 13.78,-70.46 32.42,-87.58 5.04,-4.63 20.16,-15.73 27.61,-15.73 25.67,0 33.99,96.39 28.59,131.93 -3.75,24.65 -4.7,57.63 13.67,75.81 37.37,36.98 84.4,2.14 84.4,-44.4 0,-82.29 6.17,-189.23 -62.74,-243.93 -33.8,-26.83 -70.71,-23.24 -108.26,-7.07 -14.74,6.35 -27.56,17.94 -39,21 -6.99,-14.56 -1.26,-20.41 -14.11,-35.89 -30.29,-36.48 -90.17,-13.64 -85.87,42.22l17.53 202.78c2.89,24.08 5.41,43.8 26.98,56.35 4.24,2.46 17.56,7.86 22.14,7.86z"/>
   <path class="fil0" d="M-2598.68 -1905.43c0,102.66 61.22,203.68 165.35,158.69 15.06,-6.51 22.96,-18.01 37.98,-22.02 9.8,6.56 43.76,39.62 75.91,-0.76 21.18,-26.59 4.14,-62.21 -1.15,-94 -3.92,-23.52 -5.07,-49.89 -7.6,-72.4 -2.73,-24.37 1.99,-53.66 -3.54,-73.12 -16.25,-57.18 -96.94,-40.22 -96.94,16.94 0,31.98 4.37,68.12 -0.71,99.29 -3.63,22.22 -27.69,52.34 -49.29,57.38 -43.57,-29.18 -6.67,-160.86 -6.67,-180 0,-46.39 -76.33,-83.26 -100.08,9.92 -6.39,25.07 -13.25,69.37 -13.25,100.08z"/>
   <path class="fil0" d="M-4208.68 -1938.76c0,54.08 1.6,100.63 28.88,147.79 33.35,57.65 108.65,62.87 156.42,40.75 14.42,-6.68 8.52,-10.11 22.22,-6.46 8.78,2.34 13.43,7.92 25.81,7.92 27.73,0 45.52,-22.01 46.85,-49.97 0.96,-20.01 -3.16,-25.77 -3.58,-43.3l-5.54 -141.13c-11.68,-59.12 -74.73,-55.59 -92.98,-17.51 -19.09,39.86 11.47,165.24 -54.76,165.24 -19.06,0 -26.67,-56.44 -26.67,-80 0,-24.04 6.75,-57.41 5.28,-72.3 -5.01,-51.06 -68.22,-60.79 -89.34,-21.76 -9.07,16.76 -12.61,45.56 -12.61,70.72z"/>
   <path class="fil0" d="M-4898.68 -2362.09l0 783.33c0,10.92 22.94,26.67 33.33,26.67 14.5,0 36.67,-19.15 36.67,-36.67l0 -756.66c0,-57.31 -70,-42.98 -70,-16.67z"/>
   <path class="fil0" d="M-1558.69 -1888.76c0,105.29 94.03,156.42 191.4,131.39 15.01,-3.86 31.2,-7.57 41.14,-15.52 38.55,-30.83 20.41,-85.87 -29.2,-85.87 -26.76,0 -30.19,10 -66.67,10 -17.51,0 -40,-16.02 -40,-33.33 0,-22.25 16.74,-64.03 56.67,-73.33 3.85,5.74 5.99,7.63 9.98,13.36 10.21,14.69 15.25,27.54 42.2,30.96 48.33,6.11 78.17,-56.67 17.06,-113.55 -48.02,-44.68 -123.54,-32.3 -170.5,17.96 -2.51,2.68 -2.31,2.63 -4.72,5.28 -23.57,25.89 -47.34,74.02 -47.34,112.66z"/>
   <path class="fil0" d="M-1915.35 -2202.09c0,111.37 0.26,202.74 10.29,313.05 15.43,169.71 176.38,162.59 176.38,86.95 0,-19.51 -15.7,-35.71 -31.2,-42.13 -29.87,-12.39 -46.06,19.5 -52.15,-94.52 -0.63,-11.86 0.67,-24.84 0.03,-36.7 -0.8,-14.82 -3.27,-15.99 -3.48,-33.19 -0.3,-24.43 0.57,-49.17 0.27,-73.6 -0.26,-20.5 -3.48,-29.9 -3.47,-69.87 0.01,-31.09 10.13,-103.33 -46.67,-103.33 -27.04,0 -50,25.06 -50,53.33z"/>
   <path class="fil0" d="M-885.35 -1892.09c0,52.86 20.03,107.67 62.2,131.12 47.85,26.6 88.86,13.54 138.28,-3.98 81.98,-29.07 45.26,-103.81 6.19,-103.81 -37.95,0 -123.15,74.39 -106.99,-40.24 12.09,-85.76 59.3,-39.76 73.65,-39.76 55.4,0 76.29,-82.59 -2.79,-107.21 -32.41,-10.09 -66.06,-2.69 -92.84,11.58 -45.23,24.11 -77.7,84.28 -77.7,152.3z"/>
   <path class="fil0" d="M-3448.68 -1982.09c0,45.76 1.09,189.43 18.73,221.26 19.34,34.89 87.2,38.07 91.2,-31.33 9.2,-159.69 55.39,-133.46 116.43,-140.23 62.01,-6.88 56.72,-96.37 -6.36,-96.37 -94.63,0 -90.04,15.58 -123.33,23.33 -4.61,-55.44 -96.67,-63.82 -96.67,23.33z"/>
   <path class="fil0" d="M-592.02 -1945.43c0,42.22 5.57,97.95 17.97,128.7 7.09,17.59 18.33,31.67 31.93,41.41 102.53,73.37 172.41,-70.48 56.77,-80.1 -4.39,-52.77 -6.67,-16.8 -6.67,-96.67 0,-40.52 6.02,-69.32 -15.6,-91.07 -22.34,-22.47 -51.98,-17.56 -70.28,5.19 -13.16,16.37 -14.13,63.04 -14.13,92.54z"/>
   <path class="fil0" d="M-1708.69 -1978.76c0,59.02 -8.69,151.61 22.75,190.58 69.17,85.74 147.51,14.04 106.46,-36.46 -7.79,-9.57 -20.74,-15.44 -25.19,-21.48 -11.15,-15.17 -2.52,-147.72 -6.43,-163.57 -14.11,-57.17 -97.59,-57.26 -97.59,30.92z"/>
   <path class="fil0" d="M-3612.02 -1935.43c0,44.62 4.7,92.31 15.16,128.17 24.28,83.24 83.39,83.7 110.89,57.87 19.94,-18.74 21.98,-40.14 7.37,-62.8 -13.44,-20.83 -33.92,0.24 -33.44,-93.23 0.11,-21.94 2.39,-63.28 -0.25,-83.08 -5.85,-43.83 -69.83,-60.01 -92.2,-9.42 -4.8,10.85 -7.52,47.18 -7.52,62.48z"/>
   <path class="fil0" d="M-188.69 -2188.76c0,61.46 55.92,65.59 87.59,34.26 12.92,-12.78 18.7,-17.06 32.44,-27.56 30.25,-23.1 53.3,-37.94 53.3,-73.37 0,-27.56 -41.87,-66 -85.87,-25.87 -11.41,10.41 -21.39,16.81 -33.37,26.63 -16.65,13.64 -54.1,39.51 -54.1,65.91z"/>
   <path class="fil0" d="M-3602.02 -2115.43c0,69.84 94,67.5 98.41,5.78 4.69,-65.68 -98.41,-65.56 -98.41,-5.78z"/>
   <path class="fil0" d="M-585.35 -2138.76c0,37.47 10.69,56.67 53.33,56.67 54.2,0 62.17,-96.67 -10,-96.67 -18.78,0 -43.33,21.17 -43.33,40z"/>
   <path class="fil0" d="M-1705.35 -2145.43c0,64.84 96.67,60.84 96.67,0 0,-60.77 -96.67,-63.75 -96.67,0z"/>
  </g>
  <g id="_2544394313632">
   <path class="fil0" d="M666.67 364.41c-22.54,0 -43.27,-22.54 -73.5,-39.83 -12.66,-7.24 -23.19,-13.05 -35.86,-20.8 -28.07,-17.18 -48.48,-25.68 -87.92,3.36 -15.62,11.5 -21.24,22.77 -22.65,47.35 -1.29,22.38 -5.5,42.63 -6.64,63.36 -1.2,21.8 -3.37,45.44 -5.85,64.15l-14.25 282.42c0,34.39 52.2,63.5 84.33,24.32 16.13,-19.67 12,-64.36 16.19,-103.81 7.04,-66.45 5.44,-158.41 13.75,-222.91 1.45,-11.24 5.46,-41.93 5.74,-54.26 29.77,15.75 31.81,20.79 55.15,34.85 43.73,26.35 85.25,29.96 128.89,2.51 18.45,-11.6 38.57,-31.16 49.3,-34.03 0,73.84 9.83,139.56 9.89,213.44 0.02,21.42 3.48,29.8 3.38,53.29 -0.09,20.57 2.93,30.54 3.31,53.35 1.28,75.25 75.13,80.61 94.51,31 10.04,-25.7 -0.34,-109.54 -3.94,-141.57l-3.81 -112.85c-1.59,-31.94 -6.7,-74.33 -6.67,-113.33 0.05,-76.41 13.03,-113.33 -66.67,-113.33 -42.33,0 -122.28,83.33 -136.67,83.33z"/>
   <path class="fil0" d="M2170 647.75c0,-43.07 44.13,-70 93.33,-70 13.4,0 26.39,11.23 36.67,16.67 0,27.11 6.67,58.78 6.67,86.67 -32.04,0 -47.37,10 -90,10 -19.52,0 -46.67,-26.23 -46.67,-43.33zm130 -163.33l-56.67 -3.33c-84.75,0 -170,78.65 -170,153.33 0,50.42 9.39,75.42 45.31,111.36 61.26,61.3 148.13,43.14 224.69,25.31 18.95,28.31 103.33,44.13 103.33,-26.67 0,-32.95 -31.81,-33.4 -38.6,-51.4 -15.55,-41.22 -7.96,-297.42 -8.14,-342.01 -0.11,-25.64 7.49,-45.97 -1.24,-68.6 -13.54,-35.09 -67.08,-45.66 -87.18,-3.15 -8.94,18.9 -8.06,38.81 -8.06,65.28 -0,22.9 -3.48,39.61 -3.44,66.55 0.03,24.44 0,48.89 0,73.33z"/>
   <path class="fil0" d="M3130 697.74l-33.33 0 3.22 -56.77c0.57,-19.7 3.44,-35.25 3.44,-59.89 16.31,-1.35 24.45,-13.52 62.11,1.23 78.43,30.72 20.64,115.44 -35.44,115.44zm-140 236.67c0,52.67 66.73,67.73 90.01,26.68 12.18,-21.47 10.1,-83.8 9.95,-110.05 -0.14,-24.12 3.37,-33.23 3.37,-56.62 10.43,0.87 11.84,3.33 23.33,3.33 95.46,0 183.33,-72.44 183.33,-160 0,-53.44 -12.26,-88.21 -52.76,-120.58 -69.76,-55.75 -142.94,-33.19 -154.27,-38.79 -14.14,-6.98 -8.94,-13.96 -36.3,-13.96 -60.59,0 -47.95,79.06 -49.98,116.68 -0.79,14.65 -2.98,13.94 -3.46,29.88 -0.33,10.96 0.54,22.59 0.22,33.55 -0.47,15.97 -2.7,15.23 -3.45,29.88 -4.12,80.06 -9.99,180.9 -9.99,260.01z"/>
   <path class="fil0" d="M4980 511.08c0,54.26 7.43,108.76 14.78,158.56 9.45,64.02 -0.13,124.78 58.56,124.78 61.67,0 40.39,-64.3 55.74,-144.26 2.19,-11.41 4,-18.16 7.06,-26.27 4.55,-12.04 7.78,-12.49 10.54,-22.8l10 0c24.53,105.31 94.24,80.38 107.92,34.59 7.6,-25.45 12.43,-42.12 42.08,-44.59 1.75,21.09 6.88,28.48 6.71,56.62 -0.14,22.99 -0.09,42.85 2.38,60.96 3.6,26.43 -9.55,82.42 54.24,82.42 54.17,0 43.33,-81.33 43.33,-116.67 0,-88.64 -22.27,-197.74 -120.47,-180.63 -39.67,6.91 -44.78,11.82 -72.86,30.63 -26.54,-17.77 -21.87,-30 -66.67,-30 -22.35,0 -42.92,14.13 -56.67,23.33 -1.61,-72.46 -96.67,-58.65 -96.67,-6.67z"/>
   <path class="fil0" d="M4736.67 694.41c-77.87,0 -64.83,-113.33 3.33,-113.33 68.54,0 99.54,18.72 45.7,82.37 -9.73,11.51 -30.07,30.97 -49.03,30.97zm-150 -60c0,147.66 138.02,187.67 218.69,138.69 10.52,-6.39 24.7,-19.37 34.64,-22.02 50.68,95.77 113.33,42.63 113.33,6.67 0,-54.39 -50.53,-12.26 -33.9,-167.23 1.21,-11.26 4.44,-37.48 3.28,-45.22 -10.41,-69.55 -76.63,-42.06 -76.64,-42.06 -7.7,0.48 -145.96,-69.19 -229.9,44.03 -14.73,19.86 -29.51,53.17 -29.51,87.15z"/>
   <path class="fil0" d="M3776.67 581.08c10.15,-19.19 58.9,-39.08 66.67,-10 -23.78,1.98 -14.17,10 -66.67,10zm-123.33 60c0,21.84 8.88,53.87 15.62,71.05 29.09,74.06 96.15,92.29 181.05,92.29 148.42,0 144.96,-113.33 66.67,-113.33 -15.35,0 -27.98,13.33 -43.33,13.33 -24.08,0 -101.59,8.14 -110,-23.33 38.24,0 85.78,-6.8 117.85,-22.15 130.99,-62.67 39.65,-237.61 -108.32,-191.65 -53,16.46 -89.98,61.72 -107.55,112.45 -5,14.45 -11.98,44.25 -11.98,61.35z"/>
   <path class="fil0" d="M2583.33 581.08c19.39,-28.96 44.97,-12.72 56.67,-10 -5.59,7.62 -12.26,8.59 -23.64,9.7 -9.98,0.98 -22.75,0.3 -33.03,0.3zm-123.33 43.33c0,48.41 1.44,78.51 34.23,122.43 48.57,65.04 101.25,69.28 176.08,54.55 41.24,-8.12 69.69,-14.66 69.69,-60.31 0,-23.56 -25.71,-43.72 -49.67,-42.85 -28.34,1.04 -105.93,36.82 -120.33,-17.15 207.8,0 228.67,-127.67 130.23,-186.9 -148.65,-89.44 -240.23,62.09 -240.23,130.23z"/>
   <path class="fil0" d="M4310 467.75c-109.93,0 -87.4,100 -26.67,100l23.33 0c0,57.3 9.02,117.55 47.45,159.22 43.17,46.8 189.22,101.6 189.22,4.11 0,-66.11 -104.58,-22.2 -129.74,-90.26 -4.01,-10.84 -10.26,-48.66 -10.26,-63.07 46.17,0 146.67,14.36 146.67,-43.33 0,-69.76 -51.77,-49.05 -143.33,-56.67 0,-37.96 10,-77.65 10,-143.33 0,-48.66 -95.76,-74.24 -96.66,23.34 -0.33,35.37 -10.01,72.97 -10.01,109.99z"/>
   <path class="fil0" d="M1750 644.41c0,82.41 -85.57,95.03 -113.49,40.16 -11,-21.62 -17.93,-46.4 -2.41,-69.4 18.92,-28.03 32.44,-18.22 69.34,-17.53 18.63,0.35 23.6,3.28 32.46,14.21 4.5,5.56 14.11,24.48 14.11,32.56zm-223.33 0c0,50.93 22.65,87.8 45.16,118.18 44.64,60.24 173.14,77.65 233.5,0.47 47.92,-61.28 61.15,-157.69 2.23,-216.2 -73.83,-73.32 -94.61,-46.66 -126.98,-49.52 -18.22,-1.61 -16.28,-5.41 -37.37,0.22 -67.37,17.97 -116.54,75.25 -116.54,146.85z"/>
   <path class="fil0" d="M5590 711.08c-44.63,0 -95.3,-30.88 -43.43,-103.43 8.78,-12.28 45.91,-52.15 65.89,-22.36 27.17,40.52 49.19,55.04 20.39,105.31 -8.54,14.9 -25,20.48 -42.85,20.48zm-163.33 -56.67c0,48.43 13.57,86.33 53.25,116.75 101.33,77.67 263.41,35.01 263.41,-130.08 0,-55.48 -26.65,-69.11 -45.54,-104.46 -39.56,-74.07 -137.41,-78.93 -207.46,-11.87 -0.49,0.48 -1.2,1.16 -1.69,1.64 -0.49,0.48 -1.17,1.19 -1.65,1.69 -25.39,26.3 -60.33,79.98 -60.33,126.33z"/>
   <path class="fil0" d="M5780 584.41c0,63.21 72.33,80.5 119.73,90.27 16.15,3.33 41.59,12.72 56.94,13.06l0 6.67c-30.94,7.2 -9.61,6.67 -50,6.67 -37.17,0 -21.7,-20 -70,-20 -38.94,0 -94.89,97.4 74.33,119.22 22.02,2.84 61.24,-7.33 77.66,-13.9 68.35,-27.3 119.03,-106.29 50.41,-164.4 -23.88,-20.22 -110.27,-44.92 -142.41,-47.59 5.52,-7.53 27.77,-20 40,-20 14.99,0 25.02,10 40,10 20.92,0 46.67,-19.5 46.67,-40 0,-20.97 1.05,-35.59 -24.64,-52.02 -76.29,-48.78 -218.69,31.26 -218.69,112.02z"/>
   <path class="fil0" d="M3970 571.08c0,44.15 22.92,75.09 57.68,92.32 30.26,15.01 83.55,23.63 115.65,24.34 -13.25,18.09 -53.15,12.53 -83.53,13.14 -63.14,1.26 -67.64,90.12 3.7,96.69 35.31,3.26 59.82,2.77 91.99,-7.67 159.66,-51.78 123.15,-162.87 44.21,-188.53 -16.91,-5.5 -42.91,-10.5 -60.62,-12.72 -28.89,-3.63 -41.56,-5.28 -65.76,-10.91 8.87,-7.71 22.49,-12.58 35.29,-14.98 20.78,-3.89 46.93,17.09 73.38,-6.36 26.59,-23.57 25.63,-92 -65.33,-92 -64.15,0 -146.67,45.43 -146.67,106.67z"/>
   <path class="fil0" d="M1073.33 701.08c-36.73,0 -36.67,-12.35 -36.67,-66.67 0,-38.14 26.88,-104.08 -34.59,-112.21 -24.58,-3.25 -41.69,13.39 -50.04,30.91 -20.48,43 -21.91,150.25 18.31,204.28 33.95,45.6 105.85,51.8 154.05,31.42 11.39,-4.82 18.57,-11.64 28.93,-14.4 27.87,52.68 93.33,29.49 93.33,-16.67 0,-12.81 -19.88,-68.69 -23.35,-133.31 -1.92,-35.63 8.93,-76.56 -19,-101 -27.85,-24.37 -79.03,-15.28 -81.06,44.24 -0.77,22.72 -5.12,81.1 -12.17,97.83 -7.16,17 -15.09,35.57 -37.76,35.57z"/>
   <path class="fil0" d="M103.33 177.75l0 783.33c0,10.92 22.94,26.67 33.33,26.67 14.5,0 36.67,-19.15 36.67,-36.67l0 -756.66c0,-57.31 -70,-42.98 -70,-16.67z"/>
   <path class="fil0" d="M3343.33 554.41c0,48.64 -1.75,181.88 18.7,217.97 15.21,26.85 86.31,46.07 91.42,-41.19 1.6,-27.37 11.21,-72.07 20.41,-92.92 25.44,-57.69 82.64,-33.72 117.44,-52.56 32.26,-17.47 41.11,-96.19 -51.14,-87.96 -42.5,3.8 -68.88,11.27 -96.83,29.99 -1.47,-66.08 -100,-85.49 -100,26.67z"/>
   <path class="fil0" d="M1270 551.08c0,56.59 8.79,177.93 26.95,226.38 15.14,40.39 69.13,45 87.65,11.55 14.57,-26.32 5.4,-26.72 5.4,-54.6 0,-35.53 3.26,-81.09 10,-110l68.11 -15.22c66.82,-14.17 51.39,-103.87 -18.6,-95.5 -35.46,4.24 -56.42,13.79 -86.18,20.72 -14.65,-27.69 -19.39,-33.33 -50,-33.33 -24,0 -43.33,24.24 -43.33,50z"/>
   <path class="fil0" d="M3903.33 367.75c0,20.45 0.04,42.86 30.6,52.97 40.1,13.26 61.04,-27.33 86.07,-46.3 55.23,-41.85 14.5,-93.33 -20,-93.33 -21.25,0 -46.04,20.09 -59.02,30.98 -11.61,9.74 -37.65,37.33 -37.65,55.69z"/>
  </g>
 </g>
</svg>
