<?xml version="1.0" encoding="UTF-8"?>
<!DOCTYPE svg PUBLIC "-//W3C//DTD SVG 1.1//EN" "http://www.w3.org/Graphics/SVG/1.1/DTD/svg11.dtd">
<!-- Creator: CorelDRAW 2021 (64-Bit) -->
<svg xmlns="http://www.w3.org/2000/svg" xml:space="preserve"  version="1.1" style="shape-rendering:geometricPrecision; text-rendering:geometricPrecision; image-rendering:optimizeQuality; fill-rule:evenodd; clip-rule:evenodd"
viewBox="0 0 6666.66 1166.66"
 xmlns:xlink="http://www.w3.org/1999/xlink"
 xmlns:xodm="http://www.corel.com/coreldraw/odm/2003">
 <defs>
  <style type="text/css">
   <![CDATA[
    .fil0 {fill:#FFFEFE}
   ]]>
  </style>
 </defs>
 <g id="Capa_x0020_1">
  <metadata id="CorelCorpID_0Corel-Layer"/>
  <g id="_2544369273312">
   <path class="fil0" d="M-4335.35 -1888.76c0,59.29 -54.83,53.33 -90,53.33 -41.26,0 -50.46,-23.33 -83.33,-23.33 -69.15,0 -80.37,123.33 103.33,123.33 89.2,0 166.67,-58.19 166.67,-136.67 0,-71.61 -17.16,-115.4 -85.65,-144.35 -78.47,-33.17 -147.69,-5.09 -147.69,-55.65 0,-35.81 40.71,-63.33 66.67,-63.33 35.04,0 50.94,-3.88 72.52,17.48 66.37,65.73 146.71,-33.54 36.19,-96.19 -19.25,-10.91 -68.98,-21.29 -98.71,-21.29 -184.28,0 -243.82,252.76 -72.59,289.24 57.83,12.33 132.59,3.46 132.59,57.42z"/>
   <path class="fil0" d="M-2142.02 -1848.76l-16.67 0c0,-61.28 -6.79,-63.23 10.7,-82.63 6.06,-6.72 31.8,-63.24 75.23,-33.29 34.4,23.71 12.02,54.7 -9.14,82.71 -10.65,14.09 -35.6,33.22 -60.12,33.22zm-130 -350l3.27 116.73c0.54,22.67 6.19,53.8 6.84,76.5 1.59,55.68 6.56,107.59 6.56,163.44 0,24.08 -6.11,48.88 -3.11,69.75 4.31,29.98 28.12,36.92 53.11,36.92 19.78,0 17.43,-12.33 39.83,-13.51 53.14,-2.81 82.5,-4.88 128.82,-41.17 41.43,-32.46 78.02,-87.34 78.02,-155.31 0,-81.74 -91.83,-141.39 -178.63,-118.64 -14.87,3.9 -18.21,8.91 -31.37,11.97l-5.26 -91.41c-5.13,-33.89 6.11,-67.29 -2.78,-90.54 -18.02,-47.1 -95.29,-51.48 -95.29,35.28z"/>
   <path class="fil0" d="M-2815.35 -1842.09c-29.07,0 -18.68,-32.88 -15.96,-73.28 29.58,-8.21 12.17,-36.72 49.3,-36.72 49.4,0 71.01,43.13 19.63,82.96 -9.32,7.23 -38.99,27.04 -52.96,27.04zm-73.33 320c18.7,0 34.03,-12.1 41.28,-25.39 13.07,-23.96 8.83,-96.39 8.71,-127.95 -0.1,-27.39 3.34,-40.57 3.34,-66.66 56.78,0 98.07,-23.43 131.48,-48.52 76.76,-57.63 103.42,-168.91 9.25,-232.22 -67.28,-45.22 -110.53,-22.06 -144.07,-19.26 -9.09,-25.12 -65.48,-31.3 -81.07,12.27 -4.8,13.42 -8.89,56.74 -8.93,74.4 -0.07,24.98 -3.34,47.13 -3.33,76.67 0,27.37 0.92,56.28 0.11,83.44 -0.5,16.78 -3.35,18.46 -3.57,36.43l0.21 80.21c0.08,19.35 -2.59,24.42 -3.43,39.91 -2.98,55.19 -1.51,116.68 50.02,116.68z"/>
   <path class="fil0" d="M-3792.02 -1835.43c0,-89.59 -3.07,-56.7 17.49,-79.18 14.22,-15.54 7.92,-22.99 45.84,-14.16 0,45.44 -20,92.37 -63.33,93.33zm-103.33 -376.67l-0.01 156.68c-0.14,38.36 9.32,184.42 5.88,209.19 -3.54,25.51 -18.18,65.66 22.1,92.83 66.9,45.13 196.7,6.39 228.08,-109.31 11.15,-41.11 14.13,-83.13 -7.9,-117.53 -20.37,-31.81 -63.04,-51.85 -98.15,-51.85 -17.26,0 -34.24,5.35 -50,6.67 0,-48.65 -3.33,-86.7 -3.33,-136.67 0,-24.69 9.87,-96.67 -46.67,-96.67 -30.87,0 -50,26.23 -50,46.67z"/>
   <path class="fil0" d="M-1102.02 -1848.76c-22.66,0 -30.42,-1.02 -52.43,-20.91 -32.35,-29.24 -35.83,-99.09 49.09,-99.09 21.51,0 13.64,55.48 66.67,56.67 -9.61,18.16 -16.09,46.51 -36.46,56.87 -6.87,3.49 -15.97,6.46 -26.87,6.46zm-170 -70c0,30.79 2.48,49.54 16.52,76.81 22.84,44.34 87,93.19 143.48,93.19 63.28,0 85.04,-22.15 116.67,-43.33 13.87,9.29 37.31,26.32 59.63,25.57 48.84,-1.63 64.07,-59.92 25.72,-87.59 -30.19,-21.79 -31.24,-25.76 -23.34,-79.29 6.13,-41.57 14.31,-115.35 -45.35,-115.35 -22.62,0 -30.02,11.09 -43.33,20 -46.99,-70.17 -250,-45.65 -250,110z"/>
   <path class="fil0" d="M-238.69 -1842.09c-64.91,0 -71.1,-97.89 -47.35,-124.02 21.19,-23.31 47.33,-13.72 59.91,-11.66 7.72,1.27 47.44,-7.09 47.44,35.68 0,22.12 -7.17,49.65 -15.49,64.51 -8.85,15.81 -24.91,35.49 -44.51,35.49zm-13.33 96.67c58.98,0 94.68,-17.18 125.33,-58 48.12,-64.09 72.41,-186.78 -3.31,-244.03 -41.6,-31.45 -40.56,-10.17 -77.73,-25.52 -32.63,-13.47 -82.7,-3.74 -111.07,10.77 -18.42,9.42 -28.59,19.44 -42.45,34.21 -75.13,80.06 -26.26,282.56 109.22,282.56z"/>
   <path class="fil0" d="M44.65 -1762.09c56.19,0 52.47,-64.3 56.64,-103.35 2.82,-26.44 13.78,-70.46 32.42,-87.58 5.04,-4.63 20.16,-15.73 27.61,-15.73 25.67,0 33.99,96.39 28.59,131.93 -3.75,24.65 -4.7,57.63 13.67,75.81 37.37,36.98 84.4,2.14 84.4,-44.4 0,-82.29 6.17,-189.23 -62.74,-243.93 -33.8,-26.83 -70.71,-23.24 -108.26,-7.07 -14.74,6.35 -27.56,17.94 -39,21 -6.99,-14.56 -1.26,-20.41 -14.11,-35.89 -30.29,-36.48 -90.17,-13.64 -85.87,42.22l17.53 202.78c2.89,24.08 5.41,43.8 26.98,56.35 4.24,2.46 17.56,7.86 22.14,7.86z"/>
   <path class="fil0" d="M-2598.68 -1905.43c0,102.66 61.22,203.68 165.35,158.69 15.06,-6.51 22.96,-18.01 37.98,-22.02 9.8,6.56 43.76,39.62 75.91,-0.76 21.18,-26.59 4.14,-62.21 -1.15,-94 -3.92,-23.52 -5.07,-49.89 -7.6,-72.4 -2.73,-24.37 1.99,-53.66 -3.54,-73.12 -16.25,-57.18 -96.94,-40.22 -96.94,16.94 0,31.98 4.37,68.12 -0.71,99.29 -3.63,22.22 -27.69,52.34 -49.29,57.38 -43.57,-29.18 -6.67,-160.86 -6.67,-180 0,-46.39 -76.33,-83.26 -100.08,9.92 -6.39,25.07 -13.25,69.37 -13.25,100.08z"/>
   <path class="fil0" d="M-4208.68 -1938.76c0,54.08 1.6,100.63 28.88,147.79 33.35,57.65 108.65,62.87 156.42,40.75 14.42,-6.68 8.52,-10.11 22.22,-6.46 8.78,2.34 13.43,7.92 25.81,7.92 27.73,0 45.52,-22.01 46.85,-49.97 0.96,-20.01 -3.16,-25.77 -3.58,-43.3l-5.54 -141.13c-11.68,-59.12 -74.73,-55.59 -92.98,-17.51 -19.09,39.86 11.47,165.24 -54.76,165.24 -19.06,0 -26.67,-56.44 -26.67,-80 0,-24.04 6.75,-57.41 5.28,-72.3 -5.01,-51.06 -68.22,-60.79 -89.34,-21.76 -9.07,16.76 -12.61,45.56 -12.61,70.72z"/>
   <path class="fil0" d="M-4898.68 -2362.09l0 783.33c0,10.92 22.94,26.67 33.33,26.67 14.5,0 36.67,-19.15 36.67,-36.67l0 -756.66c0,-57.31 -70,-42.98 -70,-16.67z"/>
   <path class="fil0" d="M-1558.69 -1888.76c0,105.29 94.03,156.42 191.4,131.39 15.01,-3.86 31.2,-7.57 41.14,-15.52 38.55,-30.83 20.41,-85.87 -29.2,-85.87 -26.76,0 -30.19,10 -66.67,10 -17.51,0 -40,-16.02 -40,-33.33 0,-22.25 16.74,-64.03 56.67,-73.33 3.85,5.74 5.99,7.63 9.98,13.36 10.21,14.69 15.25,27.54 42.2,30.96 48.33,6.11 78.17,-56.67 17.06,-113.55 -48.02,-44.68 -123.54,-32.3 -170.5,17.96 -2.51,2.68 -2.31,2.63 -4.72,5.28 -23.57,25.89 -47.34,74.02 -47.34,112.66z"/>
   <path class="fil0" d="M-1915.35 -2202.09c0,111.37 0.26,202.74 10.29,313.05 15.43,169.71 176.38,162.59 176.38,86.95 0,-19.51 -15.7,-35.71 -31.2,-42.13 -29.87,-12.39 -46.06,19.5 -52.15,-94.52 -0.63,-11.86 0.67,-24.84 0.03,-36.7 -0.8,-14.82 -3.27,-15.99 -3.48,-33.19 -0.3,-24.43 0.57,-49.17 0.27,-73.6 -0.26,-20.5 -3.48,-29.9 -3.47,-69.87 0.01,-31.09 10.13,-103.33 -46.67,-103.33 -27.04,0 -50,25.06 -50,53.33z"/>
   <path class="fil0" d="M-885.35 -1892.09c0,52.86 20.03,107.67 62.2,131.12 47.85,26.6 88.86,13.54 138.28,-3.98 81.98,-29.07 45.26,-103.81 6.19,-103.81 -37.95,0 -123.15,74.39 -106.99,-40.24 12.09,-85.76 59.3,-39.76 73.65,-39.76 55.4,0 76.29,-82.59 -2.79,-107.21 -32.41,-10.09 -66.06,-2.69 -92.84,11.58 -45.23,24.11 -77.7,84.28 -77.7,152.3z"/>
   <path class="fil0" d="M-3448.68 -1982.09c0,45.76 1.09,189.43 18.73,221.26 19.34,34.89 87.2,38.07 91.2,-31.33 9.2,-159.69 55.39,-133.46 116.43,-140.23 62.01,-6.88 56.72,-96.37 -6.36,-96.37 -94.63,0 -90.04,15.58 -123.33,23.33 -4.61,-55.44 -96.67,-63.82 -96.67,23.33z"/>
   <path class="fil0" d="M-592.02 -1945.43c0,42.22 5.57,97.95 17.97,128.7 7.09,17.59 18.33,31.67 31.93,41.41 102.53,73.37 172.41,-70.48 56.77,-80.1 -4.39,-52.77 -6.67,-16.8 -6.67,-96.67 0,-40.52 6.02,-69.32 -15.6,-91.07 -22.34,-22.47 -51.98,-17.56 -70.28,5.19 -13.16,16.37 -14.13,63.04 -14.13,92.54z"/>
   <path class="fil0" d="M-1708.69 -1978.76c0,59.02 -8.69,151.61 22.75,190.58 69.17,85.74 147.51,14.04 106.46,-36.46 -7.79,-9.57 -20.74,-15.44 -25.19,-21.48 -11.15,-15.17 -2.52,-147.72 -6.43,-163.57 -14.11,-57.17 -97.59,-57.26 -97.59,30.92z"/>
   <path class="fil0" d="M-3612.02 -1935.43c0,44.62 4.7,92.31 15.16,128.17 24.28,83.24 83.39,83.7 110.89,57.87 19.94,-18.74 21.98,-40.14 7.37,-62.8 -13.44,-20.83 -33.92,0.24 -33.44,-93.23 0.11,-21.94 2.39,-63.28 -0.25,-83.08 -5.85,-43.83 -69.83,-60.01 -92.2,-9.42 -4.8,10.85 -7.52,47.18 -7.52,62.48z"/>
   <path class="fil0" d="M-188.69 -2188.76c0,61.46 55.92,65.59 87.59,34.26 12.92,-12.78 18.7,-17.06 32.44,-27.56 30.25,-23.1 53.3,-37.94 53.3,-73.37 0,-27.56 -41.87,-66 -85.87,-25.87 -11.41,10.41 -21.39,16.81 -33.37,26.63 -16.65,13.64 -54.1,39.51 -54.1,65.91z"/>
   <path class="fil0" d="M-3602.02 -2115.43c0,69.84 94,67.5 98.41,5.78 4.69,-65.68 -98.41,-65.56 -98.41,-5.78z"/>
   <path class="fil0" d="M-585.35 -2138.76c0,37.47 10.69,56.67 53.33,56.67 54.2,0 62.17,-96.67 -10,-96.67 -18.78,0 -43.33,21.17 -43.33,40z"/>
   <path class="fil0" d="M-1705.35 -2145.43c0,64.84 96.67,60.84 96.67,0 0,-60.77 -96.67,-63.75 -96.67,0z"/>
  </g>
  <g id="_2544369275520">
   <path class="fil0" d="M556.67 -3032.25c-22.54,0 -43.27,-22.54 -73.5,-39.83 -12.66,-7.24 -23.19,-13.05 -35.86,-20.8 -28.07,-17.18 -48.48,-25.68 -87.92,3.36 -15.62,11.5 -21.24,22.77 -22.65,47.35 -1.29,22.38 -5.5,42.63 -6.64,63.36 -1.2,21.8 -3.37,45.44 -5.85,64.15l-14.25 282.42c0,34.39 52.2,63.5 84.33,24.32 16.13,-19.67 12,-64.36 16.19,-103.81 7.04,-66.45 5.44,-158.41 13.75,-222.91 1.45,-11.24 5.46,-41.93 5.74,-54.26 29.77,15.75 31.81,20.79 55.15,34.85 43.73,26.35 85.25,29.96 128.89,2.51 18.45,-11.6 38.57,-31.16 49.3,-34.03 0,73.84 9.83,139.56 9.89,213.44 0.02,21.42 3.48,29.8 3.38,53.29 -0.09,20.57 2.93,30.54 3.31,53.35 1.28,75.25 75.13,80.61 94.51,31 10.04,-25.7 -0.34,-109.54 -3.94,-141.57l-3.81 -112.85c-1.59,-31.94 -6.7,-74.33 -6.67,-113.33 0.05,-76.41 13.03,-113.33 -66.67,-113.33 -42.33,0 -122.28,83.33 -136.67,83.33z"/>
   <path class="fil0" d="M2060 -2748.92c0,-43.07 44.13,-70 93.33,-70 13.4,0 26.39,11.23 36.67,16.67 0,27.11 6.67,58.78 6.67,86.67 -32.04,0 -47.37,10 -90,10 -19.52,0 -46.67,-26.23 -46.67,-43.33zm130 -163.33l-56.67 -3.33c-84.75,0 -170,78.65 -170,153.33 0,50.42 9.39,75.42 45.31,111.36 61.26,61.3 148.13,43.14 224.69,25.31 18.95,28.31 103.33,44.13 103.33,-26.67 0,-32.95 -31.81,-33.4 -38.6,-51.4 -15.55,-41.22 -7.96,-297.42 -8.14,-342.01 -0.11,-25.64 7.49,-45.97 -1.24,-68.6 -13.54,-35.09 -67.08,-45.66 -87.18,-3.15 -8.94,18.9 -8.06,38.81 -8.06,65.28 -0,22.9 -3.48,39.61 -3.44,66.55 0.03,24.44 0,48.89 0,73.33z"/>
   <path class="fil0" d="M3020 -2698.92l-33.33 0 3.22 -56.77c0.57,-19.7 3.44,-35.25 3.44,-59.89 16.31,-1.35 24.45,-13.52 62.11,1.23 78.43,30.72 20.64,115.44 -35.44,115.44zm-140 236.67c0,52.67 66.73,67.73 90.01,26.68 12.18,-21.47 10.1,-83.8 9.95,-110.05 -0.14,-24.12 3.37,-33.23 3.37,-56.62 10.43,0.87 11.84,3.33 23.33,3.33 95.46,0 183.33,-72.44 183.33,-160 0,-53.44 -12.26,-88.21 -52.76,-120.58 -69.76,-55.75 -142.94,-33.19 -154.27,-38.79 -14.14,-6.98 -8.94,-13.96 -36.3,-13.96 -60.59,0 -47.95,79.06 -49.98,116.68 -0.79,14.65 -2.98,13.94 -3.46,29.88 -0.33,10.96 0.54,22.59 0.22,33.55 -0.47,15.97 -2.7,15.23 -3.45,29.88 -4.12,80.06 -9.99,180.9 -9.99,260.01z"/>
   <path class="fil0" d="M4870 -2885.59c0,54.26 7.43,108.76 14.78,158.56 9.45,64.02 -0.13,124.78 58.56,124.78 61.67,0 40.39,-64.3 55.74,-144.26 2.19,-11.41 4,-18.16 7.06,-26.27 4.55,-12.04 7.78,-12.49 10.54,-22.8l10 0c24.53,105.31 94.24,80.38 107.92,34.59 7.6,-25.45 12.43,-42.12 42.08,-44.59 1.75,21.09 6.88,28.48 6.71,56.62 -0.14,22.99 -0.09,42.85 2.38,60.96 3.6,26.43 -9.55,82.42 54.24,82.42 54.17,0 43.33,-81.33 43.33,-116.67 0,-88.64 -22.27,-197.74 -120.47,-180.63 -39.67,6.91 -44.78,11.82 -72.86,30.63 -26.54,-17.77 -21.87,-30 -66.67,-30 -22.35,0 -42.92,14.13 -56.67,23.33 -1.61,-72.46 -96.67,-58.65 -96.67,-6.67z"/>
   <path class="fil0" d="M4626.67 -2702.25c-77.87,0 -64.83,-113.33 3.33,-113.33 68.54,0 99.54,18.72 45.7,82.37 -9.73,11.51 -30.07,30.97 -49.03,30.97zm-150 -60c0,147.66 138.02,187.67 218.69,138.69 10.52,-6.39 24.7,-19.37 34.64,-22.02 50.68,95.77 113.33,42.63 113.33,6.67 0,-54.39 -50.53,-12.26 -33.9,-167.23 1.21,-11.26 4.44,-37.48 3.28,-45.22 -10.41,-69.55 -76.63,-42.06 -76.64,-42.06 -7.7,0.48 -145.96,-69.19 -229.9,44.03 -14.73,19.86 -29.51,53.17 -29.51,87.15z"/>
   <path class="fil0" d="M3666.67 -2815.59c10.15,-19.19 58.9,-39.08 66.67,-10 -23.78,1.98 -14.17,10 -66.67,10zm-123.33 60c0,21.84 8.88,53.87 15.62,71.05 29.09,74.06 96.15,92.29 181.05,92.29 148.42,0 144.96,-113.33 66.67,-113.33 -15.35,0 -27.98,13.33 -43.33,13.33 -24.08,0 -101.59,8.14 -110,-23.33 38.24,0 85.78,-6.8 117.85,-22.15 130.99,-62.67 39.65,-237.61 -108.32,-191.65 -53,16.46 -89.98,61.72 -107.55,112.45 -5,14.45 -11.98,44.25 -11.98,61.35z"/>
   <path class="fil0" d="M2473.33 -2815.59c19.39,-28.96 44.97,-12.72 56.67,-10 -5.59,7.62 -12.26,8.59 -23.64,9.7 -9.98,0.98 -22.75,0.3 -33.03,0.3zm-123.33 43.33c0,48.41 1.44,78.51 34.23,122.43 48.57,65.04 101.25,69.28 176.08,54.55 41.24,-8.12 69.69,-14.66 69.69,-60.31 0,-23.56 -25.71,-43.72 -49.67,-42.85 -28.34,1.04 -105.93,36.82 -120.33,-17.15 207.8,0 228.67,-127.67 130.23,-186.9 -148.65,-89.44 -240.23,62.09 -240.23,130.23z"/>
   <path class="fil0" d="M4200 -2928.92c-109.93,0 -87.4,100 -26.67,100l23.33 0c0,57.3 9.02,117.55 47.45,159.22 43.17,46.8 189.22,101.6 189.22,4.11 0,-66.11 -104.58,-22.2 -129.74,-90.26 -4.01,-10.84 -10.26,-48.66 -10.26,-63.07 46.17,0 146.67,14.36 146.67,-43.33 0,-69.76 -51.77,-49.05 -143.33,-56.67 0,-37.96 10,-77.65 10,-143.33 0,-48.66 -95.76,-74.24 -96.66,23.34 -0.33,35.37 -10.01,72.97 -10.01,109.99z"/>
   <path class="fil0" d="M1640 -2752.25c0,82.41 -85.57,95.03 -113.49,40.16 -11,-21.62 -17.93,-46.4 -2.41,-69.4 18.92,-28.03 32.44,-18.22 69.34,-17.53 18.63,0.35 23.6,3.28 32.46,14.21 4.5,5.56 14.11,24.48 14.11,32.56zm-223.33 0c0,50.93 22.65,87.8 45.16,118.18 44.64,60.24 173.14,77.65 233.5,0.47 47.92,-61.28 61.15,-157.69 2.23,-216.2 -73.83,-73.32 -94.61,-46.66 -126.98,-49.52 -18.22,-1.61 -16.28,-5.41 -37.37,0.22 -67.37,17.97 -116.54,75.25 -116.54,146.85z"/>
   <path class="fil0" d="M5480 -2685.59c-44.63,0 -95.3,-30.88 -43.43,-103.43 8.78,-12.28 45.91,-52.15 65.89,-22.36 27.17,40.52 49.19,55.04 20.39,105.31 -8.54,14.9 -25,20.48 -42.85,20.48zm-163.33 -56.67c0,48.43 13.57,86.33 53.25,116.75 101.33,77.67 263.41,35.01 263.41,-130.08 0,-55.48 -26.65,-69.11 -45.54,-104.46 -39.56,-74.07 -137.41,-78.93 -207.46,-11.87 -0.49,0.48 -1.2,1.16 -1.69,1.64 -0.49,0.48 -1.17,1.19 -1.65,1.69 -25.39,26.3 -60.33,79.98 -60.33,126.33z"/>
   <path class="fil0" d="M5670 -2812.25c0,63.21 72.33,80.5 119.73,90.27 16.15,3.33 41.59,12.72 56.94,13.06l0 6.67c-30.94,7.2 -9.61,6.67 -50,6.67 -37.17,0 -21.7,-20 -70,-20 -38.94,0 -94.89,97.4 74.33,119.22 22.02,2.84 61.24,-7.33 77.66,-13.9 68.35,-27.3 119.03,-106.29 50.41,-164.4 -23.88,-20.22 -110.27,-44.92 -142.41,-47.59 5.52,-7.53 27.77,-20 40,-20 14.99,0 25.02,10 40,10 20.92,0 46.67,-19.5 46.67,-40 0,-20.97 1.05,-35.59 -24.64,-52.02 -76.29,-48.78 -218.69,31.26 -218.69,112.02z"/>
   <path class="fil0" d="M3860 -2825.59c0,44.15 22.92,75.09 57.68,92.32 30.26,15.01 83.55,23.63 115.65,24.34 -13.25,18.09 -53.15,12.53 -83.53,13.14 -63.14,1.26 -67.64,90.12 3.7,96.69 35.31,3.26 59.82,2.77 91.99,-7.67 159.66,-51.78 123.15,-162.87 44.21,-188.53 -16.91,-5.5 -42.91,-10.5 -60.62,-12.72 -28.89,-3.63 -41.56,-5.28 -65.76,-10.91 8.87,-7.71 22.49,-12.58 35.29,-14.98 20.78,-3.89 46.93,17.09 73.38,-6.36 26.59,-23.57 25.63,-92 -65.33,-92 -64.15,0 -146.67,45.43 -146.67,106.67z"/>
   <path class="fil0" d="M963.33 -2695.59c-36.73,0 -36.67,-12.35 -36.67,-66.67 0,-38.14 26.88,-104.08 -34.59,-112.21 -24.58,-3.25 -41.69,13.39 -50.04,30.91 -20.48,43 -21.91,150.25 18.31,204.28 33.95,45.6 105.85,51.8 154.05,31.42 11.39,-4.82 18.57,-11.64 28.93,-14.4 27.87,52.68 93.33,29.49 93.33,-16.67 0,-12.81 -19.88,-68.69 -23.35,-133.31 -1.92,-35.63 8.93,-76.56 -19,-101 -27.85,-24.37 -79.03,-15.28 -81.06,44.24 -0.77,22.72 -5.12,81.1 -12.17,97.83 -7.16,17 -15.09,35.57 -37.76,35.57z"/>
   <path class="fil0" d="M-6.67 -3218.92l0 783.33c0,10.92 22.94,26.67 33.33,26.67 14.5,0 36.67,-19.15 36.67,-36.67l0 -756.66c0,-57.31 -70,-42.98 -70,-16.67z"/>
   <path class="fil0" d="M3233.33 -2842.25c0,48.64 -1.75,181.88 18.7,217.97 15.21,26.85 86.31,46.07 91.42,-41.19 1.6,-27.37 11.21,-72.07 20.41,-92.92 25.44,-57.69 82.64,-33.72 117.44,-52.56 32.26,-17.47 41.11,-96.19 -51.14,-87.96 -42.5,3.8 -68.88,11.27 -96.83,29.99 -1.47,-66.08 -100,-85.49 -100,26.67z"/>
   <path class="fil0" d="M1160 -2845.59c0,56.59 8.79,177.93 26.95,226.38 15.14,40.39 69.13,45 87.65,11.55 14.57,-26.32 5.4,-26.72 5.4,-54.6 0,-35.53 3.26,-81.09 10,-110l68.11 -15.22c66.82,-14.17 51.39,-103.87 -18.6,-95.5 -35.46,4.24 -56.42,13.79 -86.18,20.72 -14.65,-27.69 -19.39,-33.33 -50,-33.33 -24,0 -43.33,24.24 -43.33,50z"/>
   <path class="fil0" d="M3793.33 -3028.92c0,20.45 0.04,42.86 30.6,52.97 40.1,13.26 61.04,-27.33 86.07,-46.3 55.23,-41.85 14.5,-93.33 -20,-93.33 -21.25,0 -46.04,20.09 -59.02,30.98 -11.61,9.74 -37.65,37.33 -37.65,55.69z"/>
  </g>
  <g id="_2544366655520">
   <path class="fil0" d="M5158.55 690.5c-56.12,0 -56.94,-42.74 -56.68,-113.32 0.1,-26.65 1.39,-57.32 0.17,-83.5 -2.59,-55.8 -73.7,-62.63 -93.13,-16.15 -15.97,38.22 -3.03,194.8 16.25,236.35 25.35,54.59 73.57,73.28 140.05,73.28 18.5,0 19.77,-3.33 36.67,-3.33 0,41.05 -8.71,82.94 -27.5,105.83 -14.93,18.18 -59.67,40.84 -92.5,40.84 -19.04,0 -26.24,-6.67 -40,-6.67 -45.15,0 -67.7,62.12 -21.51,91.51 14.37,9.14 30.98,12.28 52.7,13.62 34.19,2.1 78.19,-11.35 103.28,-24 130.99,-66.03 113.34,-155.4 127.95,-262.04 2.65,-19.31 -2.2,-43.04 3.17,-60.17 19.22,-61.27 31.45,-85.34 16.88,-164.73 -18,-98.07 -98.62,-90.56 -110.2,-31.93 -3.88,19.64 -3.56,132.85 -5.38,167.95 -1.37,26.38 -26.05,36.44 -50.22,36.44z"/>
   <path class="fil0" d="M3688.55 613.83c0,-25.18 0.94,-34.5 20.32,-59.68 26.52,-34.43 57.09,-28.39 86.79,-4.1 14.66,11.99 18.01,15.43 39.55,20.45 0,35.71 6.67,59.8 6.67,90 -11.41,2.66 -17.17,4.3 -28.11,8.56 -32.96,12.83 -73.4,11.91 -99.47,-10.98 -9.91,-8.7 -25.76,-27.59 -25.76,-44.24zm143.33 -160c-8.99,-2.4 -20.02,-9.96 -32.34,-14.33 -167.29,-59.32 -305.67,209.72 -121.22,311.22 59.03,32.48 133.99,31.3 193.56,-0.22 14.77,9.89 24.94,23.33 50,23.33 30.64,0 50,-20.42 50,-53.33 0,-26 -22.46,-27.81 -28.74,-51.26 -11.31,-42.24 -8.11,-117.22 -12.67,-147.33 -5.61,-37.07 0.32,-219.13 -0.98,-225.63 -10.6,-53.31 -98.18,-71.46 -97.69,30.82 0.2,42.24 0.08,84.5 0.08,126.74z"/>
   <path class="fil0" d="M5865.22 593.83c0,-40.42 24.51,-70 50,-70 39.26,0 33.48,5.04 61.49,25.18 3.31,2.39 4.52,2.34 8.04,5.29 12.78,10.7 9.17,28.2 10.68,49.32 0.95,13.3 5.37,30.43 6.46,43.54 -7.63,3.66 -16.84,4.06 -26.26,7.07 -80.08,25.57 -110.4,-41.58 -110.4,-60.4zm126.67 -153.33c-80.89,-42.8 -180.25,1.35 -212.92,87.08 -26.81,70.37 -8.16,130 42.02,180.48 12.39,12.46 31.61,28.48 47.52,35.82 53.39,24.64 110.12,19.7 160.05,-6.72 12.49,8.36 26.18,23.33 46.67,23.33 32.59,0 50,-21.22 50,-53.33 0,-26.97 -36.67,-16.46 -36.67,-196.67l3.82 -139.52c3.91,-35.7 17.48,-93.81 -47.15,-93.81 -30.5,0 -43.74,31.25 -46.72,59.95 -3.65,35.14 -6.62,63.12 -6.62,103.38z"/>
   <path class="fil0" d="M548.56 543.83l-13.33 0 0 -173.33c81.88,0 103.33,15.55 103.33,83.33 0,40.9 -48.75,90 -90,90zm-113.33 -190l-0.02 110.02c-0.2,38.29 6.89,111.91 6.61,163.39 -0.13,24.18 5.21,129.69 20.87,149.13 28.78,35.76 95.24,30.26 83.46,-56.79l-4.25 -75.75c87.35,-7.27 142.24,-50.17 176.72,-119.94 21.47,-43.44 27.39,-106.42 5.56,-152.34 -39.09,-82.22 -98.91,-97.72 -192.28,-97.72 -49.42,0 -96.67,23.74 -96.67,80z"/>
   <path class="fil0" d="M4691.88 623.83c0,-45.59 64.49,-87.31 104.74,-48.07 0.49,0.48 1.14,1.23 1.62,1.71 22.16,22.33 20.31,6.16 20.31,39.69 0,19.97 -37.87,90.2 -102.06,42.06 -7.83,-5.87 -24.61,-24.68 -24.61,-35.39zm136.67 -146.67c-43.89,-10.22 -97.92,-36.11 -162.36,14.31 -7.87,6.16 -17.36,12.84 -23.39,19.94 -64.49,75.85 -69.11,143.57 3.19,214.98 96.67,95.5 198.05,19.53 205.9,17.43 11.69,7.82 12.01,13.37 26.57,20.1 82.04,37.89 111.87,-43.34 69.28,-75.94 -18.44,-14.11 -36.4,-4.01 -22.93,-81.25 7.32,-42.01 3.31,-74.31 -6.39,-116.1 -12.74,-54.88 -80.49,-48.55 -89.85,-13.48z"/>
   <path class="fil0" d="M905.22 570.5c27.56,-52.09 79.24,-41.87 86.67,-10 -25.59,12.28 -49.7,10 -86.67,10zm-113.33 53.33c0,80.56 62.87,180 153.33,180 45.52,0 153.33,-19 153.33,-66.67 0,-17 0.85,-27.78 -10.56,-39.43 -36.31,-37.06 -84.38,9.43 -136.1,9.43 -22.5,0 -42.35,-18.14 -46.67,-36.67 76.19,0 186.67,-15.92 186.67,-110 0,-67.17 -68.55,-123.33 -130,-123.33 -57.6,0 -92.04,15.73 -125.76,60.9 -19.91,26.67 -44.24,80.84 -44.24,125.76z"/>
   <path class="fil0" d="M6278.55 603.83c0,-43.69 61.83,-105.07 88.69,-35.35 7.09,18.41 14.65,31.69 16.36,43.77 5.24,37.05 -46.64,111.81 -86.22,42.76 -5.37,-9.37 -18.83,-39.56 -18.83,-51.17zm-96.67 0c0,71.85 61.36,176.67 150,176.67 28.72,0 40.68,-0.59 64.87,-15.13 28.43,-17.09 21.13,-19.92 38.47,-31.53 10.53,7.06 14.26,12.12 29,17.67 25.72,9.68 50.01,14.3 70.88,-4.46 25.01,-22.48 18.1,-54.93 0.81,-70.56 -12.28,-11.1 -25.77,-9.43 -36,-17.33 -28.3,-21.87 -3.04,-138.13 -30.59,-189.41 -6.11,-11.37 -17.3,-19.23 -30.65,-22.97 -23.87,-6.69 -30.66,7.06 -43.44,7.06 -17.42,0 -62.15,-43.92 -146.72,16.61 -34.33,24.57 -66.61,73.94 -66.61,133.39z"/>
   <path class="fil0" d="M4121.89 560.5c36.06,-68.16 112.59,-26.23 0,0zm-120 40c0,11.3 4.9,16.26 6.48,30.18 8.7,76.25 46.25,139.82 136.85,139.82 60.69,0 153.33,3.46 153.33,-66.67 0,-25.16 -21.25,-40 -50,-40 -35.27,0 -110.48,27.46 -133.33,-6.67 196.35,0 217.54,-230 56.67,-230 -71.63,0 -119.89,49.19 -146.62,110.05l-23.38 63.29z"/>
   <path class="fil0" d="M2845.22 577.17c3.83,-14.33 18.85,-25.35 30.46,-32.88 16.5,-10.71 28.6,-12.24 46.21,-3.78 -6.92,29.7 -49.13,36.67 -76.67,36.67zm-113.33 40c0,89.24 75.93,160 156.67,160 65.02,0 141.22,-44.17 92.73,-96.06 -27.74,-29.69 -52.93,-3.94 -109.39,-3.94l11.37 -5.3c28.81,-8.48 46.12,-6.06 84.9,-35.1 127.65,-95.6 5.62,-250.8 -131.91,-181.91 -10.89,5.46 -17.73,9.31 -26.7,16.63 -43.18,35.29 -77.66,85.63 -77.66,145.67z"/>
   <path class="fil0" d="M3031.89 537.17c0,48.35 34,74.89 72.81,90.53l120.52 42.8c-17.5,1.46 -29.32,6.67 -50,6.67 -19.98,0 -52.17,-5.38 -65.9,-2.65 -48.41,9.61 -55.96,102.65 42.57,102.65 208.85,0 246.53,-147.82 107.19,-203.86l-123.86 -36.14c1.1,-13.21 3.91,-13.78 13.09,-20.25 37.51,-26.44 45.2,6.91 83.58,6.91 15.84,0 22.51,-3.67 31.09,-12.24 55.63,-55.56 -45.07,-122.79 -127.16,-97.16 -43.65,13.63 -103.94,65.5 -103.94,122.73z"/>
   <path class="fil0" d="M2111.89 630.5c0,-37.01 30.04,-76.67 50,-76.67 26.56,0 25.94,13.38 49.99,20.01 24.5,6.76 30.01,6.71 30.01,53.33 0,33.78 -42.75,91.39 -102.99,46.32 -10.78,-8.06 -27.01,-25.38 -27.01,-42.99zm-100 -3.33c0,43.77 24.21,82.65 52.45,110.88 32.98,32.98 72.11,49.12 127.55,49.12 81.89,0 150,-89.37 150,-166.67 0,-40.56 -16.96,-91.27 -50.88,-119.12 -12.65,-10.38 -27.54,-14.45 -43.99,-19.34 -29.13,-8.67 -37.62,-28.2 -81.79,-28.2 -58.51,0 -116.56,55.26 -136.72,106.61 -5.45,13.87 -16.61,48.48 -16.61,66.72z"/>
   <path class="fil0" d="M2435.22 773.83c22.29,0 37.72,-12.29 44.32,-29.01 8.64,-21.89 11.63,-174.32 52.35,-174.32 21.05,0 32.85,-3.64 47.92,25.41 25.81,49.76 -14.96,142.74 23.23,173.44 28,22.51 82.19,16.87 82.19,-62.19 0,-77.68 8.69,-174.81 -79.89,-220.11 -75.02,-38.37 -122.08,1.07 -143.44,6.77 -8.75,-37.56 -17.14,-50 -56.67,-50 -27.32,0 -46.5,35.13 -42.57,65.61 4.02,31.22 4.31,74.59 8.28,105.34 8.97,69.54 0.91,159.04 64.29,159.04z"/>
   <path class="fil0" d="M5418.55 563.83c0,76.46 21.14,167.5 82.27,194.39 47.31,20.81 91.66,18.22 134.39,-4.39 4.53,6.76 7.21,13.25 14.62,18.72 38.46,28.37 83.26,-2.24 77.02,-46.71 -4.97,-35.42 -7.81,-66.41 -12.26,-101.38 -5.44,-42.77 12.13,-170.62 -59.38,-170.62 -58.11,0 -48.4,71.94 -46.68,103.35 1.87,34.01 4.57,34.12 -5.41,67.9 -13.72,46.42 -21.17,48.75 -44.58,48.75 -19.5,0 -25.47,-14.17 -30.5,-29.5 -22.57,-68.7 0.76,-146.62 -5.14,-168.04 -13.41,-48.67 -81.73,-50.04 -95.24,6.66 -4.19,17.58 -9.12,58.08 -9.12,80.88z"/>
   <path class="fil0" d="M1131.89 407.17c-60.73,1.35 -63.82,93.33 0,93.33 0,61.63 3.48,135.53 19.94,180.05 10.21,27.61 19.74,41.45 39.2,60.8 33.25,33.06 43.67,35.81 87.52,35.81 73.72,0 80.76,-85.13 17.06,-97.28 -18.02,-3.44 -8.13,0.61 -23.72,0.61 -43.47,0 -40,-137.79 -40,-173.33 57.72,0 102.19,11.13 117.81,-28.94 15.3,-39.23 -13.25,-66 -54.42,-67.79 -10.75,-0.47 -22.52,0.76 -33.22,-0.11 -12.93,-1.06 -13.68,-3.16 -30.18,-3.16 0,-34.31 6.3,-91.13 -6.11,-110.55 -21.41,-33.52 -76.91,-33.56 -88.79,22.32 -4.13,19.44 -5.1,65.77 -5.1,88.23z"/>
   <path class="fil0" d="M115.22 160.5l0 783.33c0,10.92 22.94,26.67 33.33,26.67 14.5,0 36.67,-19.15 36.67,-36.67l0 -756.66c0,-57.31 -70,-42.98 -70,-16.67z"/>
   <path class="fil0" d="M1698.55 780.5c35.15,0 53.98,-1.63 86.63,-20.04 57.85,-32.62 43.47,-96.63 -13.29,-96.63 -34.85,0 -52.3,37.69 -90.24,10.24 -45.85,-33.16 15.83,-110.24 36.91,-110.24 28.3,0 9.78,56.67 66.67,56.67 15.84,0 22.51,-3.67 31.09,-12.24 39.39,-39.33 3.26,-125.28 -83.56,-142.19 -53.3,-10.37 -108.8,38.65 -130.31,71.64 -13.96,21.4 -23.93,44.76 -30.63,72.7 -23.79,99.26 60.78,170.08 126.74,170.08z"/>
   <path class="fil0" d="M1868.55 527.17c0,72.71 -0.43,171.69 49.1,220.9 74.85,74.36 136.57,-10.12 94.59,-51.25 -19.44,-19.04 -38.66,-1.73 -43.7,-96.3 -1.59,-29.8 4.28,-63.33 -1.75,-91.58 -13.93,-65.26 -98.23,-60.55 -98.23,18.23z"/>
   <path class="fil0" d="M1501.89 773.83c51.94,0 85.09,-78.62 -6.67,-100 -1.52,-18.2 -10.23,-17.67 -10.01,-76.66 0.1,-26.52 4.19,-61.83 -5.5,-81.17 -22.98,-45.84 -90.24,-33.22 -91.24,27.74 -0.32,19.36 -2.58,24.85 -3.38,40.18 -1.15,21.83 8.19,91.31 16.31,113.72 15.41,42.57 43.49,76.18 100.49,76.18z"/>
   <path class="fil0" d="M1875.22 387.17c0,66.33 96.85,65.08 98.93,2.96 2.22,-66.61 -98.93,-65.26 -98.93,-2.96z"/>
   <path class="fil0" d="M1445.22 440.5c56.72,0 78.82,-96.67 -6.67,-96.67 -54.89,0 -57.04,96.67 6.67,96.67z"/>
  </g>
  <g id="_2544366654752">
   <path class="fil0" d="M2366.67 -1880.45c-50.92,0 -55.05,43.93 -59.02,74.31 -12.43,95.18 -29.91,211.8 -34.32,305.68 -1.01,21.44 -6.66,39.31 -6.66,63.34 0,31.13 44.85,75.75 84.29,30.96 22.18,-25.19 17.22,-99.7 24.28,-149.05l18.28 -151.72c2.36,-16.83 6.48,-34.88 6.48,-53.52 25.76,6 55.7,43.33 116.67,43.33 44.43,0 67.22,-29.03 100,-36.67 0,72.6 -0.27,145.04 3.31,213.35 1.67,31.66 8.76,68.22 9.98,100.02 3.45,89.57 81.79,80.61 96.29,29.4 4.72,-16.68 -5.71,-118.6 -8.68,-140.35 -3.28,-24.01 -0.06,-54.23 -0.8,-79.2l-3.45 -73.23c-0.18,-49.29 26.19,-179.99 -53.32,-179.99 -22.23,0 -34.58,15.63 -72.22,34.44 -11.98,5.99 -62.5,33.03 -72.06,34 -25.11,2.54 -103.69,-65.11 -149.05,-65.11z"/>
   <path class="fil0" d="M4093.33 -1550.45c0,-22.4 6.69,-36.09 24.03,-52.64 13.93,-13.3 27.76,-19.4 49.74,-14.7 19.92,4.25 29.72,15.96 32.93,37.31 2.68,17.87 5.16,45.62 6.63,63.36 -10.54,5.06 -45.17,16.67 -60,16.67 -24.23,0 -53.33,-26.35 -53.33,-50zm103.33 -160c-41.59,-19.96 -111.35,1.03 -150.16,39.84 -12.44,12.44 -23.48,27.6 -32.53,44.13 -69.06,126.11 62.96,279.33 222.69,202.69 33.36,49.81 106.67,38.45 106.67,-13.33 0,-45.02 -28.06,-29.3 -36.04,-63.97 -13.11,-56.96 -10.63,-208.88 -10.63,-276.03 0,-34.9 6.67,-56.97 6.67,-90 0,-39.14 -54.95,-68.57 -87.35,-24.01 -16.98,23.36 -19.32,146.62 -19.32,180.68z"/>
   <path class="fil0" d="M6876.67 -1493.79c-33.16,0 -40,-5.79 -40,-40 0,-22.91 19.37,-63.33 60,-63.33 8.33,0 18.33,13.17 33.33,16.67 0,35.07 -14.1,86.67 -53.33,86.67zm-140 -33.33c0,72.53 59.21,133.33 130,133.33 35.85,0 69.69,-15.27 96.67,-33.33 44.41,66.32 116.36,22.26 108.81,-22.02 -7.63,-44.78 -24.27,-6.17 -35.98,-77.48 -10.96,-66.72 -3.59,-48.06 -6.1,-103.9 -1.54,-34.2 -24.72,-63.27 -50.07,-63.27 -19.83,0 -21.79,12.67 -40.37,7.41 -7.93,-2.24 -13.03,-5.12 -20.52,-6.52 -110.81,-20.69 -182.44,85.38 -182.44,165.77z"/>
   <path class="fil0" d="M4470 -1590.45l2.43 -4.23c4.11,-5.55 1.07,-1.96 4.46,-5.54 52.84,-55.7 72.39,1.11 32.46,9.13 -8.78,1.76 -29.33,0.65 -39.35,0.65zm-123.33 56.67c0,200.2 253.33,184.67 253.33,100 0,-14.51 -5.41,-26.05 -12.65,-34.02 -37.15,-40.87 -97.2,23.06 -130.69,-22.65 50.54,0 85.56,-4.04 116.62,-23.38 93,-57.93 58.46,-209.95 -53.28,-209.95 -82.38,0 -173.33,97.66 -173.33,190z"/>
   <path class="fil0" d="M5520 -1827.12l0 83.33c-15.43,0.35 -46.92,6 -57.94,12.06 -40.4,22.22 -33.4,71.09 2.42,86.83 16.37,7.2 44.85,1.81 62.19,-2.23 0,67.27 -0.78,246.67 100,246.67 70.97,0 74.9,-95.3 13.33,-96.67 -13.06,-56.05 -16.67,-90.93 -16.67,-150 50.31,0 122.12,11.85 125.91,-47.35 4.05,-63.21 -90.04,-49.31 -129.24,-49.31 0,-57.32 14.06,-157.2 -52.73,-152.56 -36.06,2.51 -47.27,35.4 -47.27,69.23z"/>
   <path class="fil0" d="M3573.33 -1473.79c-12.39,0 -28.19,-6 -36.8,-9.87 -20.22,-9.08 -19.87,-17.16 -19.87,-36.8 0,-31.98 9.36,-76.67 46.67,-76.67 41.28,0 73.33,4.93 73.33,53.33 0,26.61 -38,70 -63.33,70zm-153.33 -53.33c0,52.56 4.55,78.04 45.79,114.21 38.11,33.43 122.63,52 175.65,17.23l42.85 -33.82c101.53,-105.68 25.25,-249.01 -51.11,-257.45 -21.22,-2.35 -51.64,-9.2 -69.43,-8.8 -95.72,2.18 -143.74,82.04 -143.74,168.63z"/>
   <path class="fil0" d="M5816.67 -1540.45c0,-44.95 13.69,-68.42 57.61,-50.94 46.72,18.59 62.39,14.62 62.39,64.28 0,38.46 -63.04,71.89 -99.31,32.65 -10.08,-10.91 -20.69,-26.06 -20.69,-45.98zm-100 -10c0,82.38 63.39,170 150,170 47.44,0 95.81,-10.4 125.33,-48 24.3,-30.95 44.67,-58.54 44.67,-108.66 0,-37.83 -21.47,-84.74 -49.46,-107.21 -14.24,-11.43 -29.73,-20.71 -48.52,-28.15 -11.83,-4.69 -19.44,-5.61 -32.13,-7.87 -17.22,-3.07 -15.16,-6.17 -29.33,-10.66 -42.67,-13.51 -84.02,-2.31 -114.86,29.61 -24.26,25.11 -45.71,73.95 -45.71,110.96z"/>
   <path class="fil0" d="M4936.67 -1727.12c-22.65,5.28 -58.25,2.71 -67.8,42.52 -6.86,28.62 15.41,57.48 47.8,57.48l23.33 0c0,57.6 8.1,107.76 19.93,153.4 26.91,103.77 150.07,96 150.07,39.94 0,-32.39 -12.82,-55.76 -53.33,-56.67 -2.55,-10.94 -5.32,-16.03 -8.06,-28.61l-11.94 -108.06c57.76,0 110,9.51 110,-56.67 0,-50.33 -73.3,-40 -113.33,-40 0,-44.81 11.56,-125.16 -7.02,-152.98 -19.29,-28.86 -62.98,-26.56 -79.2,0.09 -17.11,28.11 -10.45,109.48 -10.45,149.55z"/>
   <path class="fil0" d="M7113.33 -1597.12c0,37.23 29.01,57.13 57.04,66.3 17.73,5.8 29.43,9.93 49.36,13.97 17.54,3.55 32.81,9 50.27,13.06 -4.23,5.78 -3.09,10 -33.33,10 -27.15,0 -89.99,-4.4 -100.62,-0.64 -36.38,12.9 -66.53,100.64 73.95,100.64 157.43,0 242.04,-112.25 127.36,-184.03 -41.21,-25.79 -84.44,-27.77 -97.36,-35.97 42.41,-9.88 15.69,6.67 66.67,6.67 38.76,0 60.9,-62.83 14.14,-90.81 -91.98,-55.03 -207.47,38.83 -207.47,100.81z"/>
   <path class="fil0" d="M5270 -1490.46c-73.98,0 -30,-105.13 -30,-116.67 0,-30.23 -9.1,-53.33 -50,-53.33 -81.71,0 -99.07,266.67 70,266.67 48.45,0 62.21,-2.46 103.33,-30 29.45,43.97 84.89,31.04 91.44,-14.98l-12.86 -70.26c-5.43,-32.38 -10.22,-126.7 -26.39,-146.94 -16.48,-20.64 -86.22,-37.5 -85.57,52.14 0.31,42.72 1.35,113.38 -59.95,113.38z"/>
   <path class="fil0" d="M2900 -1487.12c-3.83,-16.42 -10,-32.35 -10,-53.33 0,-51.91 17.71,-101.75 -35.23,-111.75 -54.78,-10.35 -60.46,59.4 -64.01,89.44 -3.13,26.48 9.63,97.25 25.99,125.57 29.06,50.31 106.12,58.26 155.23,45.38 14.86,-3.9 18.2,-8.91 31.36,-11.97 12.01,44.98 90,38.2 90,-13.33 0,-34.25 -16.2,-90.88 -16.8,-139.87 -0.72,-58.8 7.15,-110.13 -59.87,-110.13 -17.26,0 -34.75,19.81 -38.65,34.68 -7.86,29.96 9.16,91.92 -14.56,132.1 -5.72,9.7 -8.16,12.72 -23.19,13.48 -12.14,0.62 -27.68,-0.26 -40.26,-0.26z"/>
   <path class="fil0" d="M1953.33 -2000.45l0 783.33c0,10.92 22.94,26.67 33.33,26.67 14.5,0 36.67,-19.15 36.67,-36.67l0 -756.66c0,-57.31 -70,-42.98 -70,-16.67z"/>
   <path class="fil0" d="M6113.33 -1630.45c0,50.86 8,207.79 37.31,239.35 14.44,15.55 39.17,23.24 61.43,9.39 22.96,-14.29 21.17,-29.57 27.2,-56.14 10.55,-46.48 46.9,-165.93 97.4,-165.93 8.56,0 83.33,14.52 83.33,-43.33 0,-72.08 -133.02,-77.56 -190.03,-3.36 -4.62,6.01 -14.44,19.31 -19.97,23.36l3.33 -43.33c0,-54.59 -100,-91.65 -100,40z"/>
   <path class="fil0" d="M3143.33 -1583.79c0,38.82 16.11,153.85 31.24,188.75 20.46,47.2 92.47,42.83 95.49,-25.35 1.65,-37.35 0.84,-100.27 30.5,-129.49 18.22,-17.94 53.77,-8.41 80.98,-25.69 37.93,-24.09 24.98,-88.22 -21.55,-88.22 -41.13,0 -84.52,11.81 -116.67,33.33 -14.49,-62.19 -77.3,-49.99 -92.2,-15.54 -4.37,10.1 -7.8,47.75 -7.8,62.2z"/>
   <path class="fil0" d="M6483.33 -1617.12c0,23.45 6.02,59.61 9.51,80.49 5.06,30.24 8.25,48.98 18.5,74.83 34.24,86.35 171.99,112.33 171.99,18.01 0,-15.88 -15.69,-30.29 -27.8,-35.54 -23.26,-10.09 -37.54,4.28 -51.52,-15.15 -28.25,-39.3 -16.53,-176.45 -18.69,-184.62 -2.52,-9.53 -9.29,-18.5 -16.56,-23.46 -20.36,-13.89 -35.22,-13.65 -55.5,-1.29 -8.74,5.33 -13.2,11.43 -17.74,22.26 -5.52,13.16 -12.19,47.68 -12.19,64.47z"/>
   <path class="fil0" d="M6513.33 -1810.45c0,51.98 46.66,67.35 92.58,29.25 30.56,-25.35 90.75,-64.48 90.75,-99.25 0,-31.86 -40.91,-72.45 -92.49,-25.82 -11.56,10.45 -22.67,19 -34.64,28.69 -20.04,16.22 -56.2,40.68 -56.2,67.13z"/>
  </g>
 </g>
</svg>
