<?xml version="1.0" encoding="UTF-8"?>
<!DOCTYPE svg PUBLIC "-//W3C//DTD SVG 1.1//EN" "http://www.w3.org/Graphics/SVG/1.1/DTD/svg11.dtd">
<!-- Creator: CorelDRAW 2021 (64-Bit) -->
<svg xmlns="http://www.w3.org/2000/svg" xml:space="preserve" width="4.33333in" height="4.33333in" version="1.1" style="shape-rendering:geometricPrecision; text-rendering:geometricPrecision; image-rendering:optimizeQuality; fill-rule:evenodd; clip-rule:evenodd"
viewBox="0 0 4333.33 4333.33"
 xmlns:xlink="http://www.w3.org/1999/xlink"
 xmlns:xodm="http://www.corel.com/coreldraw/odm/2003">
 <defs>
  <style type="text/css">
   <![CDATA[
    .fil0 {fill:white}
   ]]>
  </style>
   <clipPath id="id0">
    <rect x="-12666.67" y="3593.34" width="4266.66" height="4266.66"/>
   </clipPath>
 </defs>
 <g id="Capa_x0020_1">
  <metadata id="CorelCorpID_0Corel-Layer"/>
  <g style="clip-path:url(#id0)">
   <image id="_1000164675.png" x="-12666.67" y="3593.34" width="4266.66" height="4266.66" xlink:href="prestamo_material_Images\prestamo_material_ImgID1.png"/>
  </g>
  <g id="_2409455106176">
   <path class="fil0" d="M2963.22 4115.51c31.27,-43.7 89.43,-59.44 138.96,-67.24 36.25,-5.7 113.7,39.88 134.73,71.65 -20.77,0.02 -47.38,8.55 -67.56,12.43 -44.71,8.61 -30.38,4.62 -67.34,-7.59 -38.15,-12.6 -108.55,22.25 -138.79,-9.26zm-1092.97 -22.25c3.74,-13.83 5.93,-13.06 20,-13.33l-20 13.33zm1536.08 -93.19l30.02 11.56 -22.14 22.28 -7.87 -33.83zm-1132.75 -113.48l146.67 0c-22.09,47.72 22.3,47.81 33.33,93.33 -18.89,-9.49 -176.79,-90.48 -180,-93.33zm776.67 -6.67c21.89,14.48 44.35,60.7 46.67,86.67 -33.17,8 -59.59,12.11 -92.4,24.27 -23.51,8.71 -65.16,35.67 -77.6,39.07 -10.84,-7.57 -9.47,-14.24 -28,-22 -43,-18 -87.19,-22.02 -81.22,-77.22 26.23,-18.39 126.06,7.46 155.84,22.6 24.44,12.43 50.7,12.98 74.7,-2.06 33.44,-20.95 6.46,-53 2.01,-71.32zm-776.67 6.67l-10 -3.33 10 3.33zm476.67 -6.67c0.32,-0.32 0.96,0.51 0.96,0.96 0,0.19 0.41,0.41 0.4,0.4 -0.08,-0.08 -5.84,3.11 -1.36,-1.36zm-746.66 86.67c-24.67,0 -64.26,16.43 -86.67,26.67 7.07,-29.36 13.9,-58.9 16.67,-90 54.7,0.1 114.54,-35.49 163.33,-60 -4.52,19.74 -78.29,117.58 -93.33,123.33zm807.7 -179.94l-1.04 13.27 -453.32 4.13 -4.35 -60.72c155.04,-0.07 307.08,-6.74 461,-6.74l-2.3 50.06zm-583.41 -100.02l41.57 30.72 5.2 72.5 -50.53 -34.04 3.76 -69.18zm49.04 -66.72l313.33 -3.33c9.95,0 20.24,0.29 30.13,0.13 14.35,-0.23 19.7,-3.21 30.26,-3.43 12.21,-0.25 76.41,34.17 82.94,43.3l-313.36 3.3c-23.56,-0.13 -37.52,3.35 -59.95,3.53 -30.83,0.24 -25.7,1.8 -48.13,-15.39 -8.6,-6.59 -30.02,-20.86 -35.22,-28.11zm906.67 363.33c-10.07,-15.83 -3.86,-72.34 -51.4,-135.27 -23.06,-30.52 -75.6,-81.48 -118.6,-61.4 0.07,-128.54 115.93,-222.43 246.88,-233.13 32.64,-2.67 116.76,8.98 135.2,25.4 -7.76,7.53 -35.69,20.65 -47.36,29.11 -44.19,32 -85.73,74.19 -113.35,119.98 -20.61,34.18 -36.53,75.15 -45.43,111.24 -14.22,57.65 -5.94,87.99 -5.93,144.07zm-1825.54 -507.94c15.83,32.16 -0.48,31.99 -8.94,56.87 -8.99,26.44 7.03,39.27 10.35,65.19 5.93,46.25 -6.2,84.47 -45.91,109.18 -23.69,14.74 -35.91,11.57 -60.08,9.95 -73.57,-4.94 -28.06,56.78 -76.52,83.45 -25.79,14.19 -29.11,6.26 -48.88,28.82 -20.81,-10.21 -43.69,-29.38 -65.6,-41.07 -87.85,-46.83 -140.05,-67.65 -241.93,-88.07 -110.84,-22.22 -278.34,-26.39 -383.61,20.28 0,-50.07 13.81,-21.63 26.62,-57.01 8.49,-23.47 -9.5,-40.87 -23.28,-56.32 21.67,-30.6 47.05,-28.37 79.48,-37.19 51.81,-14.07 31.62,-43.57 34.77,-74.65 19.53,-20.36 80,-9.18 108.2,-22.38 30.7,-14.37 23.74,-55.41 48.48,-84.85 35.59,-42.35 121.01,-78.44 174.8,-88.53 194.46,-36.5 331.2,115.68 334.61,117.28 27.6,12.95 33.67,-3.84 52.99,-6.35 19.17,29.04 -4.8,35.99 19.6,60.4 27.59,27.59 48.36,1.41 64.86,5zm905.54 407.94c-87.78,0.65 -81.07,19.19 -116.63,86.71 -22.23,42.21 -48.6,87.98 -77.1,126.23 -24.04,32.26 -98.42,83.4 -57.46,121.58 60.25,56.15 174.23,-150.94 196.74,-192.3 42.15,-77.45 26.51,-67.6 111.16,-25.59 27.96,13.88 111.17,64.97 133.48,70.05 19.69,4.48 57.2,-8.08 68.57,-24.58 18.01,-26.11 14.15,-56.72 11.24,-85.43 49.55,0 124.28,-3.7 168.64,-28.02 18.72,-10.26 23.76,-19.2 38.02,-28.64 -2.92,32.76 -21.85,73.36 30.79,125.88 24.13,24.09 82.2,56.74 115.88,57.45 -26.28,109.31 85.9,132.91 161.09,121.06 41.24,-6.5 21.66,-2.96 56.84,7.68 34.57,10.46 93.67,-5.63 130.17,-13.98 23.25,-5.31 31.22,-18.78 41.77,-34.63 18.55,3.83 26.56,14.82 47.46,-2.8 46.45,-39.15 -31.98,-91.84 -39.39,-125.28 -10.52,-47.52 -12.37,-17.5 -23.74,-103.04 -3.66,-27.54 7.56,-83.52 17.65,-110.49 48.25,-128.92 167.57,-208.57 304.81,-208.52 0,40.28 6.85,66.58 37.59,92.4 10.59,8.89 29.04,18.69 42.41,24.26 16.52,6.89 41.03,7.67 53.33,13.34 -10.02,15.15 -25.11,22.21 -51.08,65.59 -13.17,21.99 -33.45,60.46 -35.59,84.41 -23.92,-15.82 -38.8,-31.9 -66.06,-6.05 -19.83,18.8 -30.61,44.68 -30.61,72.72 -42.24,-21.22 -128.32,-46.33 -142.48,-57.52 20.4,-17.03 18.12,4.25 45.86,-55.76 27.08,-58.59 -35.65,-112.37 -82.87,-32.87 -16.79,28.27 -17.56,49.53 3.18,75.8 -30.19,26.63 -47.52,19.22 -31.42,118.09 17.83,109.57 79.81,166.4 154.87,72.75 40.4,-50.41 59.5,-53.39 59.52,-100.48 36.22,9.91 30.29,31.99 76.67,-20 -0.03,50.03 4.93,100.23 27.77,145.56 70.24,139.44 131.24,78.37 121.65,35.25 -4.96,-22.28 -84.99,-71.53 -64.81,-199.55 26.39,-167.38 192.93,-211.5 207.99,-228.68 25.75,-29.36 6.7,-117.35 -132.59,-19.26 -25.46,-50.69 -100.05,-18.14 -113.33,-66.67 10.15,-20.43 31.92,-18.83 45.48,-37.86 14.5,-20.35 8.29,-44.71 -10.88,-56.74 -34.3,-21.52 -94.71,-9.35 -84.27,-81.67 5.87,-40.67 55.87,-75.18 95.01,-69.29 22.55,3.39 38.83,23.19 63.75,18.3 33.26,-6.54 18.76,-31.31 54.53,-33.02 18.07,5.56 25.85,57.62 86.38,3.62 12.46,9.28 14.86,25.01 34.66,29 45.01,9.07 73.8,-59.3 14.09,-104.42 -43.7,-33.04 -72.21,5.43 -92.96,-0.08 -40.88,-10.85 -61.01,-18.61 -101.46,6.69 -33.98,21.24 -19.69,-15.05 -102.97,3.5 -31.44,7 -59.67,21.67 -82.21,44.46 -53.88,54.48 -67.56,114.09 -32.48,184.19 -14.45,-0.05 -27.91,4.9 -41.33,5.35 -23.33,0.78 -230.49,-169.8 -466.78,16.55 -86.18,67.97 -127.23,192.95 -101.89,298.1l-53.28 -10.29c4.64,-11.03 24.69,-162.05 -9.02,-200.73 -11.74,-13.48 -128.31,-75.83 -145.52,-84.48 -19.42,-9.76 -26.78,-24.91 -49.13,-27.54 -39.93,-4.69 -321.24,6.38 -383.04,6.38 -48.41,-0 -99.09,-1.16 -146.77,0.36 -21.49,0.69 -38.7,13.94 -40.1,36.53 -1.87,30.2 16.41,32.92 30.2,49.78l2.46 76.7c-19.33,10.19 -39.46,8.76 -52.44,29.97 -20.3,33.18 -5.58,20.96 -41.06,42.28 -29.91,17.97 -90.11,44.85 -122.29,47.71 -15.92,-34.94 -7.56,-73.16 -60.65,-152.68 -89.88,-134.62 -272.19,-210.65 -429.35,-210.65 -6.63,-16.14 -15.4,-36.48 -27.33,-49.33 -21.77,-23.46 -29.41,-16.17 -53.16,-23.02 -8.82,-2.54 -39.57,-66.74 -92.79,-64.33 -50.1,2.27 -33.25,-15.98 -102.22,-51.15 -123.09,-62.76 -251.95,-84.88 -384.44,-25.44 -79.52,35.67 -132.78,70.81 -166.72,153.28 -33.23,-0.01 -71.45,5.77 -98.22,21.78 -40.85,24.42 -34.55,37.23 -47.27,76.06 -45.76,14.98 -103.58,43.81 -107.91,99.02 -1.61,20.6 3.43,25.64 7.42,42.75 4.71,20.2 -31.89,55.63 -0.68,123.73 -69.31,57.98 -113.25,167.28 -81.77,255.13 19.96,55.71 89.58,41.1 76.63,-26.35 -10.11,-52.68 -2.33,-94.13 29.29,-137.97 101.04,-140.11 426.83,-88.08 564.14,-29.09 96.45,41.44 277.99,146.92 238,277.98 -24.15,79.15 -66.49,57.07 -88.64,87.93 -54.37,75.75 110.07,98.1 162.46,-50.85 51.49,-146.38 -54.61,-226.61 -72.3,-257.92 25.61,-15.43 78.65,-41.35 82.19,-82.19 64.46,0.12 101.26,-39.92 136.39,-79.72 42.31,4.13 112.19,43.89 142.86,73.81 38.99,38.03 68.52,87.15 78.84,141.17 30.96,162.2 -100.21,194.55 -55.8,245.8 24.26,28 49.74,12.91 70.3,-8.48 82.7,-86.02 87.57,-229.57 38.59,-333.76 -48.13,-102.39 -138.91,-164.17 -244.51,-195.49 -0.03,-18.84 -10.02,-94.67 -7.87,-100.95 20.37,-7.39 111.74,11.63 136.79,18.7 118.65,33.47 219.21,104.01 263.5,223.17 29.78,80.1 17.06,186.11 -31.03,257.14 -43.59,64.38 -61.6,59.23 -80.58,82.75 -14.43,17.88 -14.31,39.54 3.04,55.35 24,21.85 38.99,7.15 60.22,-2.09 36.37,40.76 94.33,4.81 136.19,-20.48 33.06,-19.98 80.28,-61.04 104.5,-92.17 62.15,-79.87 115.22,-119.57 168.58,-228.09l66.67 46.67z"/>
   <path class="fil0" d="M837.62 1011.13l-30 40zm-354.03 -264.54c60.76,-27.63 304.76,-10.87 267.18,97.12 -25.77,74.07 -96.06,122.79 -180.59,123.02 -34.45,0.09 -46.78,-12.06 -76.59,-26.81 0,-32.07 -6.86,-61.96 -6.76,-93.24 0.11,-35.3 -3.24,-66.77 -3.24,-100.09zm360 256.67c-20.7,72.95 15.92,309.34 29.96,393.37 9.87,59.02 38.31,115.65 109.6,96.17 76.17,-20.82 51.34,-101.1 58.06,-158.58 7.96,-68.08 17.96,-98.68 70.06,-143.28 38.47,-32.93 39.29,-19.65 81.96,-24.7 27.07,-3.21 54.25,-25.55 56.63,-53.37 2.98,-34.8 10,-55.92 -16.93,-82.26 -42.39,-41.46 -118.09,-31 -165.42,-3.41 -19.5,11.36 -51.26,35.67 -67.25,42.74 0,-50.09 -2.85,-111.09 -74.22,-119.33 -22.21,-2.57 -28.05,6.51 -46.71,11.04 7.06,-24.31 19.47,-45.81 28.42,-77.55 67.7,-240.02 -221.68,-355.45 -467.52,-294.18 -109,27.17 -207.89,106.37 -251.94,211.4 -21.1,50.33 -54.15,127.52 3.69,166.9 27.18,18.5 60.51,19.61 88.21,1.68 33.78,-21.85 29.98,-41.5 45.51,-71.16l37.98 414.45c-0.19,56.15 -6.15,83.73 17.61,135.72 41.99,91.88 165.78,48.02 154.82,-44.54l-12.41 -207.87c-0.21,-22.47 -7.26,-48.02 -6.78,-69.89 49.29,-0.06 29.44,7.13 106.2,-0.46 29.83,-2.95 60.72,-13.75 88.6,-24.73 21.58,-8.5 51.95,-26.52 71.13,-42.21 19.42,-15.89 43.95,-44.81 60.74,-55.93z"/>
   <path class="fil0" d="M2033.77 2066.67c-31.89,27.37 -105.59,49.94 -149.46,5.87 -34.11,-34.27 -35.98,-119.53 -11.53,-160.08 28.95,-48.02 92.33,-61.99 133.49,-21.87 18.69,18.22 16.04,55.54 17.35,82.64 1.45,29.83 9.65,65.32 10.15,93.44zm379.81 -150.07c11.49,-41.98 71.36,-45.77 96.67,-23.33 -26.91,24.58 -57.98,23.33 -96.67,23.33zm-190 203.33c-23.22,-16.56 -20.7,-18 -24.39,-45.61l-15.46 -124.54c-9.5,-128.93 -13.04,-195.3 10.8,-335.56 6.52,-38.39 18.04,-81.4 -11.65,-113.59 -28.47,-30.87 -67.03,-36.62 -103.83,-15.22 -35.13,20.43 -38.07,63.79 -44.05,99.28 -5.69,33.79 -15.32,95.45 -14.76,128.57 -81.31,-5.84 -86.55,-17.48 -170.44,12.9 -44.59,16.15 -79.71,52.1 -107.27,89.39 -95.13,128.73 -66.4,472.66 247.26,440.59 21.21,-2.17 55.11,-13.11 74.73,-21.95 43.59,-19.63 24.61,-3.23 64.62,13.5 51.62,21.57 113.2,-9.65 114.43,-67.76 31.37,23.59 43.03,100.19 180,100 62.3,-0.08 179.69,-15.8 231.96,-51.37 73.99,-50.36 24.33,-166.47 -66.63,-143.3 -41.93,10.68 -63.95,23.01 -110.49,29.52 -39.54,5.53 -95.23,20.46 -94.85,-38.18 37.13,10.75 127.52,-3.29 164.33,-19 182.23,-77.78 159.67,-263.51 10.05,-322.05 -102.44,-40.08 -207.9,-10.92 -272.12,76.65 -26.52,36.16 -45.77,89.64 -57,132.99 -21.41,82.62 -5.91,125.03 -5.26,174.75z"/>
   <path class="fil0" d="M1383.71 2739.8c-0.96,81.5 18.81,107.14 -19.43,154.15 -18.19,22.36 -96.75,35.63 -121.71,-29.67 -15.3,-40.02 9.61,-106.8 34.26,-141.12 12.91,-17.98 31.33,-40.65 52.91,-26.32 3.12,2.07 53.8,42.7 53.98,42.96zm343.21 -283.21c-22.66,0 -42.06,5.5 -63.35,6.65 -22.66,1.24 -51.31,-2.21 -72.98,0.35 -34.93,4.12 -69.57,36.76 -70.33,73 -23.28,-11.69 -36.63,-23.62 -65.82,-19.35 -20.43,2.98 -42.83,15.53 -54.18,32.69 -182.9,-90.31 -323.34,125.62 -323.34,286.67 0,196.86 216.71,304.73 373.34,196.67 30.02,19.71 32.7,36.17 77.44,42.56 104.72,14.95 138.93,-60.58 114.92,-111.59 -16.65,-35.37 -40.48,-40.88 -73.83,-49.51 -22.22,-76.1 -9,-59.43 -5.4,-108.32 4.02,-54.56 3.58,-65.29 0.33,-119.94 -1.55,-25.96 -9.74,-55.37 -10.14,-76.53 61.78,31.31 151.51,18.22 170.87,22.23 3.95,11.17 6.41,192.87 11.5,232.07 8.44,65.07 -1.04,144.97 43.43,199.9 21.1,26.06 42.07,40.13 76.02,44.17 54.87,6.53 145.12,-32.76 119.18,-112.68 -13.52,-41.63 -36.53,-42.09 -68.54,-54.81 -12.77,-35.83 -19.13,-272.3 -19.13,-324.2 18.94,-0.03 105.6,-3.75 121.31,-8.69 30.85,-9.68 57.7,-40.96 58.63,-74.81 0.89,-32.82 -24.69,-67.43 -55.98,-77.15 -17.37,-5.39 -104.95,-7.21 -123.97,-2.7 0,-36.52 10.67,-103.34 4.25,-130.91 -8.45,-36.28 -40.62,-64.22 -77.58,-63.98 -36.42,0.23 -70.69,24.58 -79.07,62.5 -8.22,37.19 -7.59,94.39 -7.59,135.74z"/>
   <path class="fil0" d="M737.54 2589.31c-18.93,-26.69 -25.82,-45.26 -55.31,-64.69 -45.83,-30.2 -125.45,-4.3 -165.3,51.99 -11.25,15.9 -37.25,66.6 -46.68,73.32 -4.18,-165.68 -172.97,-142.36 -167.53,-32.04 1.79,36.21 53.04,264.19 64.84,314.72 10.86,46.54 8.62,112.93 49.21,140.79 46.35,31.81 102.67,8.15 122.27,-41.35 5.63,-14.22 6.27,-98.64 24.87,-165.13 8.69,-31.07 33.35,-118.26 53,-136.99 20.06,29.89 18.21,118.26 32.3,157.7 18.05,50.54 76.2,73.77 121.19,42.46 48.34,-33.64 32.96,-90.61 47.13,-142.86 9.95,-36.71 35.86,-109.84 79.37,-113.96 43.19,81.59 -38.54,291.47 -19.78,346.46 17.96,52.65 88.5,69.66 129.09,32.85 32.14,-29.13 41.06,-111.64 48.75,-154.58 17.65,-98.61 37.03,-257.85 -40.5,-335.63 -64.71,-64.92 -147.13,-67.36 -221.98,-20.18 -24.44,15.41 -38.94,34.42 -54.97,47.13z"/>
   <path class="fil0" d="M3286.92 1199.93c15.09,21.91 12.5,42.56 46.02,60.65 27.17,14.66 59.62,11.97 85.46,-5.83 47.25,-32.56 46.02,-112.7 81.85,-138.15 28.24,65.11 15.56,183.96 2.45,255.78 -5.19,28.4 -21.2,49.17 -14.54,79.57 11.17,50.89 68.79,78.87 115.37,54.6 47.59,-24.79 53.78,-83.35 63.14,-130.19 18.6,-93.02 18.93,-252.07 -24.15,-338.69 -53.75,-108.09 -158.78,-117.29 -248.94,-44.39 -42.78,-11.71 -44.41,-56.76 -159.72,10.28 -10.07,-9.81 -28.13,-73.74 -93.93,-60.7 -49.87,9.89 -67.15,46.7 -69.67,93.77 -3.65,67.99 4.42,370.48 52.47,424.17 31.59,35.3 77.44,40.89 114.82,9.79 39.15,-32.57 22.72,-88.67 22.59,-134.07 -0.09,-33.04 7.76,-113.11 26.76,-136.57z"/>
   <path class="fil0" d="M2203.59 716.59c-74.71,0 -172.89,-13.65 -185.59,74.7 -4.88,33.96 16.96,66.35 47.16,80.4 27.88,12.97 88.57,8.23 125.1,8.23 0,145.44 -12.87,426.06 66.6,546.74 55.07,83.63 189.46,77.45 220.67,53.87 33.82,-25.56 44.27,-72.14 20.87,-108.74 -23.7,-37.09 -72.07,-40.02 -111.47,-41.86 -3.91,-16.58 -10.73,-27.83 -14.71,-45.29 -22.74,-99.57 -21.87,-239.37 -21.96,-344.71 -0.02,-22.48 2.96,-41.55 3.33,-60 25.58,0 51.22,-0.21 76.79,-0.12 25.39,0.08 48.39,4.32 76.67,3.58 43,-1.12 81.98,-29.41 84.32,-74.68 2.17,-41.86 -25.93,-82.09 -71.2,-85.35 -51.35,-3.7 -103.77,-3.43 -156.58,-3.43 8.57,-90.17 48.46,-261.94 -63.58,-266.67 -22.85,-0.96 -46.23,9.98 -62.35,27.4 -23.96,25.88 -18.5,37.28 -20.96,69.04l-13.1 166.9z"/>
   <path class="fil0" d="M3363.59 2836.59c-4.75,-26.32 6.8,-72.27 24.2,-92.47 19.7,-22.87 53.49,-32.93 82.59,-34.32 32.74,-1.57 65.35,3.89 87.33,29.33 34.82,40.31 39.26,19.52 39.27,80.79 0.02,164.64 -206.49,165.84 -233.39,16.67zm66.67 -283.33c-177.94,26.35 -275.73,202.44 -207.67,371.01 26.92,66.67 78.53,131.94 146.73,159.94 76.39,31.35 181.52,31.93 253.16,-12.28 27.83,-17.17 20.09,-9.06 40.13,12.48 55.2,59.3 126.06,28.23 141.93,-23.43 18.26,-59.45 -28.47,-73.91 -35.55,-113.1 -17.28,-95.57 9.9,-339.38 -75.17,-388.19 -57.54,-33.02 -71.39,15.26 -120.92,1 -45.38,-13.07 -96.57,-14.23 -142.65,-7.41z"/>
   <path class="fil0" d="M4096.92 1246.59c-25.69,125.48 -216.46,126.5 -234.71,68.05 -15.55,-49.78 6.72,-161.09 42.28,-203.81 21.34,-25.63 64.67,-31.88 93.15,-14.96 64.73,38.46 117.43,62.07 99.28,150.72zm-173.33 -316.67c-168.86,25.52 -226.25,194.84 -226.59,346.69 -0.19,85.3 20.19,145.11 93.15,193.42 65.82,43.57 162.26,54.33 237.57,34.03 154.66,-41.69 263.11,-171.43 229.08,-337.35 -16.86,-82.23 -43.13,-126.3 -113.88,-172.78 -77.94,-51.21 -121.49,-78.79 -219.33,-64z"/>
   <path class="fil0" d="M2800.25 1143.26c3.81,42.76 14.26,105.52 5.32,145.32 -8.63,38.45 -78.03,51.34 -111.99,51.34 -15.64,-23.68 -27.11,-46.31 -33.18,-73.48 -11.41,-51.1 -8.64,-140.61 57.45,-149.31 31.74,-4.18 42.81,26.08 82.4,26.13zm-113.33 -183.33c-172.41,29.7 -226.51,219.61 -176.32,369.65 23.07,69 55.04,135.44 128.34,161.67 34.37,12.3 88.05,13.23 123.15,3.87 47.4,-12.65 64.44,-23.96 106.11,-41.45 24.32,-10.21 35.54,29.96 102.34,33.04 40.06,1.85 76.2,-18.27 89.23,-57.28 11.94,-35.74 -7.6,-78.55 -41.09,-94.58 -34.11,-16.32 -32.52,-5.83 -46.3,-100.36 -9.9,-67.91 19.56,-272.48 -108.21,-250.55 -38.04,6.53 -18.3,7.36 -51.54,-9.81 -38.93,-20.11 -83.61,-21.44 -125.7,-14.19z"/>
   <path class="fil0" d="M2152.62 2830.67c4.21,-1.85 57.93,-1.34 74.29,-4.07 211.49,-35.3 214.57,-252.79 58.83,-308.83 -220.5,-79.35 -316.46,168.23 -293.99,343.97 28.87,225.79 249.11,243.65 424.61,174.29 116.9,-46.2 65.19,-183.41 -40.69,-157.22 -40.57,10.04 -163.98,59.92 -202.8,11.81 -9.36,-11.6 -24.96,-46.37 -20.25,-59.95z"/>
   <path class="fil0" d="M1946.33 1339.33c-20.76,60.61 -99.06,17.93 -138.15,6 -56.19,-17.14 -111.62,13.39 -111.63,74.59 -0.02,64.72 53.39,75.39 102.7,94.33 49.98,19.2 116.39,26.54 167.33,8.66 90.23,-31.67 174.69,-138.72 146.52,-239.17 -36.22,-129.11 -167.42,-92.35 -262.85,-130.49 1.3,-22.7 17.8,-44.8 37.67,-55.67 33.02,-18.05 40.15,-17.13 76.24,-8.24 120.85,29.76 171.31,-139.8 4.74,-164.74 -55.24,-8.27 -106.04,0.5 -155.13,28.81 -161.8,93.29 -169.04,297.3 -23.91,350.24 76.56,27.93 140.72,27.69 156.48,35.67z"/>
   <path class="fil0" d="M1430.62 1174.19c5.39,-8.91 13.17,-10.06 22.97,-10.93l-22.97 10.93zm-13.7 -167.59c-86.38,14.28 -137.04,73.37 -166.96,153.04 -36.45,97.07 -50.45,161.13 -15.3,262.55 69.42,200.31 394.37,98.17 405.63,-9.36 4.68,-44.7 -28.23,-84.84 -73.44,-86.65 -46.71,-1.87 -153.84,78.95 -180.13,40.43 -33.35,-48.87 55,-4.77 159.63,-67.24 214.56,-128.1 76.78,-326.86 -129.44,-292.78z"/>
   <path class="fil0" d="M2632.52 2613.53c-6.65,-16.89 7.71,-68.26 -44.5,-98.09 -32.86,-18.78 -81.28,-8.58 -102.62,22.96 -20.99,31.02 -18.11,90.69 -14.4,127.43 9.28,91.91 13.22,294.08 59.05,377.61 40.78,74.33 146.16,58.46 154.18,-42.88 5.07,-64.02 -9.52,-203.79 38.28,-248.39 82.63,-77.11 158,11.75 220.16,-43.17 29.16,-25.76 35.85,-69.61 14.2,-102.35 -23.81,-36.02 -60.2,-39.82 -99.79,-46.9 -107.96,-19.3 -222.37,54.11 -224.56,53.77z"/>
   <path class="fil0" d="M3946.92 2269.93c-36.44,8.18 -63.01,30.32 -66.52,70.14 -5.8,65.69 -9.06,363.69 -4.2,410.58 8.24,79.64 -5.74,183.05 13.6,263.07 15.35,63.5 90.39,132.33 155.68,121.79 79.28,-12.81 95.41,-110.27 15.12,-155.92 -28.04,-15.94 -17.84,-88.51 -21.4,-118.6 -8.78,-74.17 1.03,-321.67 1.27,-410.85 0.08,-30.56 4.01,-109.2 -6.86,-133.56 -15.72,-35.2 -48.65,-55.19 -86.69,-46.65z"/>
   <path class="fil0" d="M3056.92 2539.93c-98.5,27.24 -56.37,113.79 -56.52,213.19 -0.04,23.84 1.44,69.33 4.62,92.04 8.21,58.67 0.06,130.21 5.78,187.55 5.5,55.05 35.69,103.81 98.65,93.16 71.68,-12.13 62.58,-75.6 60.7,-125.84 -2.37,-63 0.92,-123.93 -6,-187.34 -3.06,-28.08 -2.75,-64.15 -3.8,-92.86 -1.05,-28.52 -5.25,-61.26 -6.7,-89.96 -2.65,-52.29 -37.37,-106.35 -96.74,-89.93z"/>
   <path class="fil0" d="M1673.59 713.26c-49.85,5.56 -45.05,14.61 -79.69,43.64 -11.03,9.24 -53.87,50.22 -62.67,60.67 -51.44,61.08 -19.05,143.61 62.39,139.18 32.52,-1.77 54.28,-26.13 75.8,-47.66 16.52,-16.52 50.67,-45.33 63.28,-60.05 50.88,-59.36 11.81,-143.7 -59.12,-135.78z"/>
   <path class="fil0" d="M3060.25 2269.93c-55.83,14.44 -74.56,52.62 -70.74,107.2 8.67,123.71 167.31,109.06 167.71,-27.22 0.16,-52.08 -48.44,-92.54 -96.98,-79.98z"/>
   <path class="fil0" d="M1503.59 3989.92c-39.55,12.23 -21.56,39.06 -50.02,53.31 -28.52,14.28 -57.26,5.32 -80.84,-12.44 -47.52,-35.8 -114.35,22.91 -27.21,80.54 68.15,45.08 188.42,12.42 206.94,-72.82 6.85,-31.54 -18.02,-58.12 -48.87,-48.59z"/>
   <path class="fil0" d="M2783.59 3363.26c-60.57,26.06 -49.48,149.04 19.6,119.67 59.19,-25.16 50.62,-149.89 -19.6,-119.67z"/>
   <path class="fil0" d="M2906.92 3423.26c-84.57,34.9 -63.99,132.58 -2.25,111.21 73.83,-25.55 69.59,-139 2.25,-111.21z"/>
   <path class="fil0" d="M1450.26 3823.26c-58.48,17.99 -24.64,118.2 33.08,103.33 56.37,-14.51 26.01,-121.52 -33.08,-103.33z"/>
   <path class="fil0" d="M1296.92 3906.59c-65.98,20.26 -14.03,115.42 37.79,97.92 59.48,-20.09 12.15,-113.25 -37.79,-97.92z"/>
   <polygon class="fil0" points="2993.59,3606.59 70.26,83.26 "/>
  </g>
 </g>
</svg>
