<?xml version="1.0" encoding="UTF-8"?>
<!DOCTYPE svg PUBLIC "-//W3C//DTD SVG 1.1//EN" "http://www.w3.org/Graphics/SVG/1.1/DTD/svg11.dtd">
<!-- Creator: CorelDRAW 2021 (64-Bit) -->
<svg xmlns="http://www.w3.org/2000/svg" xml:space="preserve" width="4.33333in" height="4.33333in" version="1.1" style="shape-rendering:geometricPrecision; text-rendering:geometricPrecision; image-rendering:optimizeQuality; fill-rule:evenodd; clip-rule:evenodd"
viewBox="0 0 4333.33 4333.33"
 xmlns:xlink="http://www.w3.org/1999/xlink"
 xmlns:xodm="http://www.corel.com/coreldraw/odm/2003">
 <defs>
  <style type="text/css">
   <![CDATA[
    .fil0 {fill:white}
   ]]>
  </style>
   <clipPath id="id0">
    <rect x="-12666.67" y="3593.34" width="4266.66" height="4266.66"/>
   </clipPath>
   <clipPath id="id1">
    <rect x="-7930" y="4040" width="4266.66" height="4266.66"/>
   </clipPath>
 </defs>
 <g id="Capa_x0020_1">
  <metadata id="CorelCorpID_0Corel-Layer"/>
  <g id="_2409454077120">
   <path class="fil0" d="M2093.33 3843.03c3.06,-13.16 10.27,-23.51 13.33,-36.67 33.23,0 34.84,-14.14 60,-20 -1.34,16.13 -12.34,32.1 -22.3,41.03 -9.29,8.33 -9.5,7.27 -24.12,9.21 -13.55,1.8 -15.2,3.69 -26.91,6.42zm153.33 -70c1.54,-14.06 -1.61,-5.7 7.37,-12.63 14.17,-10.93 25.17,-8.77 35.96,5.96 -27.86,-7.39 -16.1,0.32 -43.33,6.67zm-26.67 -86.67c-10.17,6.81 -13.32,13.36 -20,23.33 -18.21,-0.41 -43.96,-10.65 -76.67,6.67l0 -20c35.72,-8.32 66,-63.06 86.61,-90.06l30.84 -35.83c14.43,-16.2 33.21,-42.26 55.89,-57.44 -2.11,25.43 -31.57,66.7 -45.23,84.76 -10.36,13.7 -18.48,25 -27.58,39.09 -14.59,22.59 -9.16,26.7 -3.85,49.48zm-1690 -470c0,-18.08 -1.99,-20.6 17.9,-35.43 49.12,-36.62 125.21,32.72 150.92,-29.08 9.14,-21.96 1.43,-29.41 20.26,-46.41 66.09,-59.65 137.67,-58.91 209.63,-11.13 16.47,10.94 22.13,17.85 35.44,31.22 45.3,45.47 28.34,20.83 109.17,20.83 52.85,0 84.72,36.55 101.93,78.07 7.68,18.52 14.74,26.86 14.74,48.59 0,16.27 -30,22.06 -30,53.33 0,55.76 56.67,29.03 56.67,63.33 0,47.63 -74.48,26.24 -72.26,82.95 0.67,17.24 12.26,25.79 12.26,40.38 0,38.38 -39.41,16.39 -60.19,43.14 -14.38,18.52 -9.13,31.46 -5.91,53.43 -10.06,-2.44 -28.24,-15.72 -38.64,-21.83 -48.14,-28.28 -155.3,-81.67 -209.81,-100.19 -32.95,-11.2 -61.61,-21.14 -96.74,-29.93 -61.88,-15.48 -148.89,-28.59 -221.57,-20.81 -34.72,3.72 -73,10.22 -103.43,19.91 -15.09,4.8 -30.85,10.39 -45.96,17.37 -18.04,8.33 -31.9,19.8 -41.09,22.25 -4.6,-6.87 -10,-8.65 -10,-16.67 0,-57.37 100,0.39 100,-70 0,-22.43 -52.63,-63.82 12.16,-101.17 38.22,-22.03 41.65,-12.16 61.17,-12.16 17.3,0 47.12,-17.44 40.29,-53.31 -2.71,-14.24 -6.96,-15.13 -6.96,-26.69zm100 -123.33c-34.39,-2.86 -76.08,-8.13 -107.84,8.83 -12.03,6.42 -30.34,18.31 -39.71,26.95 -36.57,33.7 -33.06,82.92 -40.65,89.35 -7.55,6.4 -55.33,15.28 -82.4,47.6 -20.24,24.17 -45.33,67.54 -36.07,107.26 -39.17,18.8 -62.07,26.71 -76.41,73.59 -6.31,20.66 -7.9,39.21 -1.58,61.06 6.78,23.47 20.4,29.04 31.33,45.35 -58.63,87.55 -58.2,210.16 3.24,296.76 40.17,56.61 106.12,14.8 67.46,-44.12 -88.15,-134.32 -11.83,-289.3 215.97,-289.3 75.19,0 171.93,16.77 230,40 90.07,36.03 121.97,51.25 210.02,96.65 13.3,6.86 26.59,15.47 39.32,24.01 222.83,149.46 137.32,270.24 137.32,289.34 0,69.06 96.67,77.31 96.67,-83.33 0,-79.65 -69.41,-185.02 -116.67,-216.67 5.41,-23.23 10,-21.72 10,-53.33 11.36,-2.65 21.69,-10.55 30.11,-16.56 34.38,-24.51 36.56,-60.93 36.56,-106.77 29.02,-7.75 60,-55.33 60,-93.33 27.98,-6.52 60.89,-3.33 90,-3.33 61.59,0 109.9,19.39 155.27,38.07 13.83,5.69 18.49,9.67 30.37,16.3 31.59,17.62 57.88,37.42 83.53,63.14 17.79,17.84 29.72,31.62 44.69,51.98 6.8,9.25 12.53,17.57 18.35,28.32 106.7,197.2 17.88,294.56 41.09,335.53 9.5,16.76 57.48,52.92 80.72,-39.31 32.56,-129.19 -1.61,-273.96 -78.27,-376.43l-56.58 -63.42c-101.83,-102.17 -272.68,-159.41 -419.87,-131.14 -59.19,11.37 25.83,-6.96 -42.63,-136.35 214.56,0 457.65,62.76 621.06,195.61 30.91,25.13 59.05,48.09 83.7,79.64 55.78,71.39 95.24,142.01 95.24,241.42 0,51.87 -16.44,104.46 -37.22,136.11 -34.34,52.31 -86.11,55.82 -86.11,90.55 0,25.77 14.23,40 40,40 38.24,0 77.88,-41.22 100,-66.67 0,52.54 44.58,67.15 68.58,38.58 25.41,-30.24 4.78,-10.6 39.3,-27.37 8.34,-4.05 13.72,-7.06 20.78,-12.55 10.27,-7.98 8.92,-12.02 21.33,-15.33 18.87,80.98 183.33,80.87 183.33,-46.67l0 -23.33c0,-58.3 -50.55,-122.59 -96.67,-133.33 3.43,-12.82 17.09,-26.76 25.27,-38.07 29.22,-40.39 61.4,-89.87 61.4,-145.27 0,-76.92 -79.84,-101.37 -145.9,-35.9l-109.24 124.09c-6.87,9.52 -6.56,12.04 -18.19,15.14 -1.52,-68.18 -85.24,-180.24 -130.83,-225.83 -127.81,-127.81 -295.57,-205.67 -473.3,-243.36 -47.22,-10.02 -105.73,-20.17 -156.08,-23.92 -27,-2.02 -59.08,-0.9 -86.01,-4.08 -15.31,-1.81 -20.39,-3.48 -36.99,0.61 -17.77,4.38 -17.91,8.41 -30.12,16.59 -8.93,-13.34 -37.14,-29.96 -53.33,-36.67 -91.49,-37.9 -105.77,7.92 -139.21,-27.46 -44.46,-47.04 -101.81,-63.06 -169.79,-73.63 -48.13,-7.49 -89.14,15.14 -122.06,33.37 -36.04,19.97 -63.32,45.22 -82.28,81.05z"/>
   <path class="fil0" d="M3750 1323.04c-1.2,-6.31 4.2,-11.85 2.11,-2.11 -0.05,0.23 0.09,13.75 -2.11,2.11zm-383.33 -80c-24.68,0 -50.25,-24.57 -59.96,-40.04 -35.4,-56.37 -27.13,-183.3 79.96,-183.3 88.7,0 87.85,97.56 42.76,166.09 -9.76,14.83 -42.78,57.24 -62.76,57.24zm376.67 -133.33c0,57.75 -1.22,155.16 10,203.33 -13.66,-10.01 -13.72,-39.58 -59.5,-53.83 -10.57,-3.29 -21.41,-2.76 -31.07,-8.93 -28.19,-17.99 -39.43,-82.44 -39.43,-113.91 0,-20.76 13.33,-61.09 13.33,-140 0,-31.87 -4.36,-76.79 -15.46,-97.87 -19.81,-37.61 -64.06,-56.87 -105.83,-36.76 -14.81,7.13 -14.43,10.63 -25.37,17.96 -18.58,-4.33 -46.39,-20 -76.67,-20l-50 0c-64.85,0 -138.08,48.24 -170.9,82.43 -67.83,70.65 -80.93,190.81 -47.89,293.03 19.09,59.04 59.78,106.61 111.89,138.11 71.58,43.26 165.98,41.87 232.6,-14.54 10.61,-8.98 16.5,-18.24 27.63,-25.7 15.3,10.25 14.74,18.17 27.58,29.09 10.41,8.85 21.52,17.13 32.36,24.3 84.03,55.61 176.72,30.32 176.72,-56.72 7.77,11.19 15.67,66.67 86.67,66.67 55.74,0 75.48,-54.05 81.98,-101.35 7.96,-57.86 7.76,-113.63 18.83,-167.83 5.78,-28.28 8.39,-48.69 22.46,-70.87 9.59,-15.12 42.22,-23.67 64.79,-28.54 47.82,-10.33 101.93,-23.38 101.93,-91.41 0,-42.45 -40.28,-76.67 -76.67,-76.67 -38.7,0 -122.52,29.38 -130,30 0,-30.46 -1.61,-41.21 -13.37,-59.96 -27.65,-44.09 -105.26,-55.22 -137.9,12.03 -9.04,18.62 -19.98,99.85 -21.82,124.84 -3.52,47.79 -6.91,92.23 -6.91,143.09z"/>
   <path class="fil0" d="M203.33 856.37c0,102.61 82.3,188.17 179.57,220.43 140.88,46.71 223.59,-17.06 346.14,47.19 7.78,4.08 10.38,5.39 14.36,12.31 16.08,27.95 -4.35,68.53 -18.09,88.72 -13.98,20.54 -31.24,27.98 -54.14,39.19 -50.16,24.54 -103.46,11.48 -164.53,8.85 -29.89,-1.28 -54.04,-5.12 -86.64,-6.7l-87.16 -6.18c-115.19,-13.2 -140.46,119.07 -56.86,153.54 22.79,9.4 174.13,14.3 219.75,20.25 123.28,16.07 224.78,4.85 319.57,-68.96 45.05,-35.07 94.69,-127.4 94.69,-188.64l0 -30c0,-144.26 -167.67,-213.33 -286.67,-213.33l-86.67 0c-14.08,0 -18.53,2.42 -26.98,2.67 -9.57,0.28 -12.76,-2.05 -26.38,-2.63 -63.52,-2.7 -154.59,-49.97 -99.17,-109.23 4.89,-5.24 8.27,-9.03 12.83,-13.84 46.68,-49.18 185.4,-93.64 253.02,-93.64 87.39,0 61.07,23.33 110,23.33 21.2,0 43.87,-9.97 55.38,-21.29l7.8 -8.87c32.74,-41.51 16.42,-99.65 -29.74,-123.27 -72.72,-37.21 -83.81,-29.9 -166.76,-29.9 -80.58,0 -208.23,47.96 -273.15,86.85 -56.64,33.94 -103.92,76.27 -132.46,137.54 -7.88,16.93 -17.73,52.73 -17.73,75.61z"/>
   <path class="fil0" d="M2283.33 3096.37l-6.5 3.83 6.5 -3.83zm0 0c22.57,-30.81 151.4,-77.9 202.41,-87.59 87.57,-16.64 121.31,-8.75 195.57,2.94 12.49,1.97 23.63,1.59 32.86,3.81 12.43,2.99 16.47,6.45 29.16,7.5 11.67,-17.42 20,-36.56 32.8,-53.87 13.67,-18.48 25.08,-32.4 41.37,-48.63 37.34,-37.22 81.87,-70.62 134.52,-88.81 38.15,-13.19 71.16,-22.22 114.57,-22.1 101.36,0.29 188.11,36.32 257.66,102.5l40.99 49.01c7.07,9.44 12.64,16.01 17.97,25.36 5.66,9.92 11.91,20.12 16.88,29.79 20.96,40.81 35.65,92.11 40.22,139.78 9.64,100.66 -13.82,204.19 -70.74,279.88 -6.07,8.07 -12.02,17.04 -18.78,24.55l-44.96 45.04c-127.2,118.44 -347.23,118.54 -483.33,-18.33 -47.26,-47.52 -82.6,-103.09 -101.13,-168.87 -20.57,-73 -14.7,-91.73 -14.7,-165.3 -39.89,-26.71 -35.26,-25.4 -86.26,-40.41 -79.91,-23.5 -137.37,-29.32 -223.82,-29.67 -51.05,-0.21 -88.74,12.86 -113.25,13.41zm420 -163.33c-22.21,-0.49 -50.73,-13.33 -136.67,-13.33 -133.17,0 -269.22,59.16 -370.04,136.63l-80.86 72.47c-9.93,10.31 -14.15,17.55 -24.98,28.35 -8.26,8.24 -15.24,17.61 -22.26,27.74 -33.68,48.54 5.62,107.72 65.8,62.46 117.29,-88.22 294.85,-100.07 441.69,-63.66 13.13,3.26 34.32,11.59 47.33,12.67 0,74.43 15.49,136.39 36.63,190.04 18.59,47.2 55.78,107.79 89.19,140.81 50.22,49.63 64.71,65.2 130.35,99.65 117.23,61.52 265.41,60.92 383.88,2.89 59.28,-29.04 112.49,-72.22 153.8,-122.87 43.12,-52.86 75.44,-120.54 92.18,-187.82 38.87,-156.28 -6,-340.02 -113.46,-448.59 -181.04,-182.91 -451.43,-190.23 -628.4,-13.27 -24.07,24.07 -29.53,26.41 -48.84,54.49 -5.81,8.45 -10.54,14.18 -15.33,21.34z"/>
   <path class="fil0" d="M1630 1773.04c0,114.89 36.81,193.46 -9.01,240.99 -32.78,34.01 -85.51,29.73 -102.13,-9.85 -12.48,-29.73 -26.67,-113.58 -28.98,-147.69 -0.96,-14.16 -4.84,-22.83 -2.5,-39.24 4.53,-31.69 18.02,-68.48 -23.45,-101.48 -49.17,-39.13 -137.26,-20.29 -137.26,103.93 0,92.74 20.4,186.56 46.65,253.35 20.33,51.72 64.96,93.14 115.72,110.95 80.55,28.26 141.87,2.79 160.97,2.36 0,105.76 -26.07,134.39 -76.17,197.17 -22.24,27.86 -44.22,41.35 -85.12,51.54 -163.29,40.69 -188.55,-25.89 -243.02,26.98 -58.37,56.65 -16.5,147.65 94.31,147.65 100.57,0 216.26,-7.48 293.36,-63.31 20.85,-15.1 37.22,-32.43 55.83,-50.83 131.13,-129.65 120.8,-254.04 120.8,-422.53 0,-11.36 0.74,-25.46 -0.17,-36.49 -1.06,-12.83 -3.58,-16.7 -3.41,-33.53 0.24,-23.46 6.91,-51.48 6.91,-103.31 0,-43.4 -11.27,-162.73 -47.48,-192.52 -34.96,-28.76 -91.17,-26.54 -121.21,17.16 -6.26,9.1 -14.64,35.26 -14.64,48.69z"/>
   <path class="fil0" d="M2703.33 1799.7c42.72,0 128.07,18.64 130.26,59.74l-0.36 80.37c0.51,17 3.44,18.3 3.44,36.56 -21.71,11.49 -45.46,53.33 -113.33,53.33 -66.65,0 -93.88,-40.59 -100.39,-106.43 -5.74,-58.13 38.8,-123.57 80.39,-123.57zm16.67 -160c-87.09,0 -141.24,23.67 -188.64,84.69 -95.75,123.28 -95.13,259.72 -4.76,378.71 74.74,98.41 213.29,104.4 319.15,62.35 12.38,-4.92 25.55,-13.43 34.25,-15.75 7.1,5.2 18.3,23.04 32.74,33.93 75.58,57.04 183.54,-39.87 109.72,-119.72 -32.84,-35.53 -22.04,-93.25 -25.96,-140.7 -2.9,-34.93 -2.41,-39.67 1.77,-75.46 1.88,-16.16 -1.78,-16.28 -1.85,-34.7 -0.06,-15.84 3.25,-21.45 3.7,-36.57 1.91,-63.74 -5.51,-204.65 0.83,-249.22 11.89,-83.65 -59.72,-111.07 -86.31,-103.36 -12.32,3.57 -22.35,5.55 -32.52,11.24 -58.06,32.49 -42.06,132.95 -41.86,204.91 0.06,19.74 2.95,24.57 -12.33,19.26 -12.96,-4.51 -17.91,-7.43 -33.21,-10.97 -22.97,-5.32 -48.11,-8.63 -74.7,-8.63z"/>
   <path class="fil0" d="M2863.33 669.7c-33.11,0 -77.46,5.44 -101.13,15.54 -79.76,34.04 -57.25,154.46 31.13,154.46 22.63,0 32.26,-6.67 60,-6.67 0,176.6 -37.44,441.53 116.64,550.03 37.76,26.59 126.35,60.45 174.33,14.27 45.18,-43.49 23.71,-116.06 -32.19,-133.07 -28.26,-8.6 -61.19,2.94 -80.24,-63.09 -11.41,-39.54 -18.54,-79.33 -18.54,-124.8l0 -203.33c0,-20.28 3.33,-24.31 3.33,-43.33 25.76,0 66.54,1.33 88.07,-1.93 40.03,-6.06 76.36,8.66 111.19,-28.81 47.27,-50.85 7.67,-132.59 -52.6,-132.59l-136.67 3.33c0,-81.97 -3.43,-135.05 10.43,-216.24 6.19,-36.26 16.42,-81.35 -16.16,-111.37 -40.21,-37.06 -98.23,-24.59 -124.28,17.6 -39.94,64.69 -23.98,269.86 -33.33,310z"/>
   <path class="fil0" d="M3323.33 2029.7c-18.44,0 -54.8,-8.08 -63.73,-16.26 -25.74,-23.58 -22.93,-70.85 -22.93,-103.74 0,-17.55 15,-45.93 22.78,-57.22 49.22,-71.47 115.27,3.85 130.53,10.58 24.43,10.77 23.36,0.48 23.36,36.64 0,34.27 -8.19,67.35 -19.85,90.15 -10.3,20.14 -49.49,39.85 -70.15,39.85zm-250 -93.33c0,74.32 29.94,148.79 67.47,185.87 24.89,24.58 39.41,37.26 77.02,49.64 120.93,39.8 155.98,20.49 255.5,-32.17 26.09,38.96 86.3,65.33 134.38,41.04 38.3,-19.35 61.93,-79.8 19.87,-125.29 -27.24,-29.46 -20.04,5.34 -32.94,-47.06 -34.24,-139.04 -6.3,-236.17 -18.75,-281.26 -1.92,-6.97 -5.3,-14.27 -9.29,-20.7 -21.01,-33.87 -45.18,-36.73 -76.6,-36.73 -29.72,0 -37.15,15.83 -53.33,26.67 -17.35,-9.18 -21.43,-12.65 -42.79,-20.54 -63.66,-23.54 -138.47,-16.76 -198.31,16.11 -45.3,24.88 -87.23,90.54 -105.11,138.23 -13.39,35.71 -17.13,68.91 -17.13,106.2z"/>
   <path class="fil0" d="M940 2063.04c-34.34,0 -66.67,-5.94 -66.67,-50 0,-39.02 20.41,-102.96 52.71,-127.29 41.54,-31.28 81.68,-5.4 113.96,-2.71 0,57.83 8.43,78.22 -11.85,124.82 -7.97,18.33 -14.78,30.15 -31.37,38.63 -15.27,7.81 -33.54,16.55 -56.79,16.55zm-230 -53.33c0,175.89 183.18,268.26 354.54,184.54 29.13,-14.24 34.68,-22.85 52.13,-34.54 9.22,13.78 28.37,23.67 45.64,31.02 22.37,9.54 35.26,9.74 62.95,13.87 74.85,11.18 120.75,-57.98 90.46,-117.28 -28.23,-55.25 -83.05,-29.71 -97.18,-56.15 -20.93,-39.17 -9.87,-111.49 -8.41,-154.7 0.95,-28.3 -3.15,-46.94 -3.31,-76.91 -0.25,-44.04 -31.12,-86.53 -73.47,-86.53 -64.45,0 -35.66,20.36 -78.65,8.74 -150.64,-40.71 -271.83,28.08 -320.96,174.98 -9.78,29.24 -23.72,75.61 -23.72,112.94z"/>
   <path class="fil0" d="M1130 1186.37c0,-33.77 1.92,-46.6 15.56,-71.11 33.41,-60.02 44.78,-32.23 94.44,-32.23 30.38,0 52.35,-39.09 78.99,11.01 30.59,57.52 57.27,115.25 -14.54,156.78 -37.81,21.87 -108.21,37.97 -147.06,-1.85 -14.95,-15.33 -27.4,-33.35 -27.4,-62.6zm-160 -23.33c0,90.41 9.23,125.33 70.98,199.02 14.44,17.23 42.94,39.16 65.11,48.22 78.75,32.17 161.6,30.44 240.1,-1.05 59.69,-23.94 112.09,-66.83 141.64,-125.03 8.48,-16.7 14.02,-28.45 18.98,-47.68 13.51,-52.29 -0.79,-118.33 -20.59,-166.38 -25.7,-62.37 -58.22,-114.76 -120.63,-146.03 -29.83,-14.94 -75.95,-27.74 -115.59,-27.74 -25.76,0 -34.03,7.97 -52.37,14.29 -15.92,5.48 -40.48,6.07 -59.06,10.94 -37.32,9.78 -62.73,27.22 -86.09,50.57 -46.43,46.43 -82.47,119.55 -82.47,190.86z"/>
   <path class="fil0" d="M1916.67 1896.37c0,90.2 20.05,229.49 91.89,278.12 70.47,47.7 172.85,39.89 243.43,-2.8 11.16,-6.75 18.92,-15.33 31.35,-18.65 9.16,39.34 74.45,71.8 123.99,30.66 39.73,-33 24.83,-85.15 16.25,-127.57 -9.68,-47.84 -26.98,-268.02 -36.83,-293.17 -11.34,-28.96 -38.35,-56.28 -76.32,-55.35 -34.71,0.84 -63.23,20.28 -75.2,54 -10.6,29.86 -6.82,146.84 -12.67,187.33 -8.15,56.49 -44.45,97.44 -109.23,97.44 -19.96,0 -26.28,-58.87 -29.04,-77.63 -7.5,-51.11 -6.94,-94.85 -1.27,-146.01 2.36,-21.33 5.22,-27.56 9.66,-43.68 36.09,-131.17 -151.57,-181.1 -169.09,14.25 -2.84,31.65 -6.93,70.61 -6.93,103.07z"/>
   <path class="fil0" d="M2070 1119.7l0 50c0,58.06 45.8,141.07 75.78,170.88 51.29,50.99 98.34,82.45 180.88,82.45 33.93,0 76.37,-17.81 98.65,-31.36 45.93,-27.92 61.35,-39.9 61.35,-95.31 0,-29.58 -27.69,-57.35 -52.03,-64.66 -74.61,-22.41 -106.49,73.12 -168.82,2.18 -92.74,-105.54 16.16,-200.85 54.19,-200.85 13.24,0 48.5,31.21 55.3,41.37 15.54,23.21 14.23,34.23 46.71,49.96 47.67,23.08 111.32,-12.28 111.32,-71.32 0,-66.45 -70.93,-125.37 -123.11,-156.89 -85.65,-51.73 -199.1,-11.78 -262.77,57.67 -40.22,43.88 -77.45,102.01 -77.45,165.88z"/>
   <path class="fil0" d="M1770 1433.04c98.48,0 115.65,-117.94 40.09,-153.43 -34.86,-16.37 -35.14,13.94 -56.06,-60.61 -8.42,-30 -15.85,-59.66 -21.2,-92.13 -10.44,-63.3 -10.01,-107.2 -15.68,-157.65l-0.49 -172.85c0,-42.16 -3.15,-71.8 -3.35,-113.35 -0.2,-39.91 6.69,-71.7 6.69,-119.98 0,-77.3 -140.02,-111.3 -159.11,7.56 -14.85,92.39 -3.84,147.77 -4.15,222.37l-0.09 193.43c2.91,53.82 8.8,123.25 18.08,175.25 7.54,42.24 19.39,89.12 31.49,125.18 20.22,60.28 42.45,103.24 99.26,130.74 15.18,7.35 43.67,15.48 64.52,15.48z"/>
   <path class="fil0" d="M2566.67 1103.04l0 76.67c0,46.24 7.85,134.65 24.22,175.78 9.71,24.39 23.67,42.88 42.85,57.15 39.53,29.43 113.63,41.58 155.43,6.22 44.76,-37.86 29.11,-132.37 -52.49,-139.16 -8.72,-104.76 -14.8,-137.09 -6.48,-243.15 4.83,-61.67 18.96,-121.17 -6.75,-156.96 -36.52,-50.84 -134.33,-52.9 -147.07,59.81 -1.68,14.85 -3.19,21.37 -3,40.33 0.19,19.48 -2.61,24.47 -3.36,39.97 -1.44,29.81 -3.34,51.92 -3.34,83.33z"/>
   <path class="fil0" d="M2010 1436.37c45.46,0 83.33,-36.48 83.33,-66.67 0,-36.79 -7.17,-71.25 -47.05,-86.29 -21.63,-8.16 -24.6,-0.9 -28.41,-28.26 -5.31,-38.18 -8.25,-223.61 -3.14,-257.38 2.61,-17.23 4.57,-42 0.7,-60.18 -12.5,-58.78 -105.23,-85.12 -144.16,-19.95 -29.49,49.37 -12.17,125.75 -18.43,181.57 -3.64,32.43 1.3,155.98 6.63,187.67 5.7,33.89 10.53,50.8 23.77,76.23 18.85,36.2 72.33,73.25 126.75,73.25z"/>
   <path class="fil0" d="M2986.67 3069.7c0,22.15 2.56,46.67 40,46.67 20.76,0 29.07,-15.1 38.5,-28.17 39.14,-54.29 148.17,0.67 148.17,51.5l0 13.33c0,32.9 -59.55,53.33 -96.67,53.33 -17.3,0 -56.87,-23.41 -82.81,17.19 -6.87,10.75 -20.52,30.91 -20.52,46.15 0,22.59 29.09,63.51 70.64,23.97 20.16,-19.19 55.98,7.3 126.11,-27.22 77.04,-37.93 110.24,-113.26 69.87,-183.37 -56.81,-98.66 -183.21,-121.39 -250.05,-73.48 -13.2,9.46 -43.24,39.17 -43.24,60.1z"/>
   <path class="fil0" d="M1510 3789.7c0,-62 33.91,-45.22 56.67,-43.33l-56.67 43.33zm-83.33 0c0,35.65 9.83,63.3 34.06,85.94 38.14,35.64 68.24,1 114.48,-34.07 65.63,-49.79 98.13,-47.81 98.13,-98.54 0,-12.52 -10.57,-25.43 -17.37,-32.63 -18.65,-19.72 -66.71,-47.37 -102.63,-47.37 -39.2,0 -73.87,6.51 -98.24,38.43 -16.48,21.58 -28.43,58.5 -28.43,88.24z"/>
   <path class="fil0" d="M1856.67 653.04c0,29.28 10.15,54.03 26.91,69.76 39.33,36.94 95.44,25.57 118.41,-7.79 38.74,-56.28 30.61,-161.98 -65.31,-161.98 -50.7,0 -80,51.6 -80,100z"/>
   <path class="fil0" d="M2590 636.37c0,27.82 7.91,44.44 22.44,60.89 36.66,41.53 144.23,45 144.23,-90.89 0,-33.11 -38.22,-70 -83.33,-70 -48.66,0 -83.33,50.59 -83.33,100z"/>
   <path class="fil0" d="M1263.33 3689.7c0,78.73 133.63,89.19 113.95,-0.38 -17.28,-78.64 -113.95,-61.59 -113.95,0.38z"/>
   <path class="fil0" d="M2936.67 3433.03c0,70.19 74.63,70.15 97.59,47.59 44.88,-44.09 -24.52,-120.09 -79.68,-79.67 -7.45,5.46 -17.91,20.31 -17.91,32.08z"/>
   <path class="fil0" d="M1563.33 3556.37c0,-13.63 -8.68,-29.47 -15.75,-37.59 -29.5,-33.86 -72.48,-20.37 -83.87,14.93 -10.94,33.9 28.78,77.48 65.61,65.61 20.76,-6.69 34,-27.2 34,-42.95z"/>
   <polygon class="fil0" points="2900,1419.7 2916.67,1419.7 2916.67,1416.37 2900,1416.37 "/>
  </g>
  <g style="clip-path:url(#id0)">
   <image id="_1000164675.png" x="-12666.67" y="3593.34" width="4266.66" height="4266.66" xlink:href="Solicitar_Ayuda_Images\Solicitar_Ayuda_ImgID1.png"/>
  </g>
  <g style="clip-path:url(#id1)">
   <image id="_1000164684.png" x="-7930" y="4040" width="4266.66" height="4266.66" xlink:href="Solicitar_Ayuda_Images\Solicitar_Ayuda_ImgID2.png"/>
  </g>
 </g>
</svg>
