<?xml version="1.0" encoding="UTF-8"?>
<!DOCTYPE svg PUBLIC "-//W3C//DTD SVG 1.1//EN" "http://www.w3.org/Graphics/SVG/1.1/DTD/svg11.dtd">
<!-- Creator: CorelDRAW 2021 (64-Bit) -->
<svg xmlns="http://www.w3.org/2000/svg" xml:space="preserve" version="1.1" style="shape-rendering:geometricPrecision; text-rendering:geometricPrecision; image-rendering:optimizeQuality; fill-rule:evenodd; clip-rule:evenodd"
viewBox="0 0 5999.99 1233.33"
 xmlns:xlink="http://www.w3.org/1999/xlink"
 xmlns:xodm="http://www.corel.com/coreldraw/odm/2003">
 <defs>
  <style type="text/css">
   <![CDATA[
    .fil6 {fill:#E995BC}
    .fil0 {fill:#F89FA5}
    .fil7 {fill:#FEA18E}
    .fil3 {fill:#FEFEFE}
    .fil2 {fill:#FFBE7D}
    .fil4 {fill:#FFDDA1}
    .fil5 {fill:#FFEDCE}
    .fil1 {fill:white}
   ]]>
  </style>
 </defs>
 <g id="Capa_x0020_1">
  <metadata id="CorelCorpID_0Corel-Layer"/>
  <g id="_2544121517296">
   <path class="fil0" d="M645.13 -3158.39c10.59,-3.99 87.83,-69.51 94.96,-78.17 32.74,-39.75 27.39,-93.07 -30.96,-102.66 -24.8,-4.07 -50.47,6.37 -68.23,16.86 -68.77,40.62 -87.48,64.63 -178.77,91.05 -80.26,23.23 -184.01,8.72 -280.52,76.19 -30,20.97 -73.21,56.23 -90.5,86.2 -10.36,17.96 -4.67,144.46 -4.67,175.8l210.21 -0.03c68.06,0.17 91.57,-21.33 167.08,-49.7 42.4,-15.93 109.22,-47.3 153.61,-59.59 28.39,-7.86 25.07,-10.21 43.07,-27.11l135.59 -151.11c40.51,-53.62 27.25,-24.69 35.46,-108.61 4.17,-42.61 9.72,-82.68 15.03,-124.08 5.13,-40 18.87,-83.47 22.55,-120.47 8.37,-84.27 -117.12,-79.17 -143.85,29.04 -8.87,35.92 -16.08,82.89 -19.95,121.46 -3.9,38.89 8.9,22.5 33.48,37.77 10.57,6.56 30.82,25.36 34.76,38.42 20.67,68.59 -95.22,142.44 -128.37,148.74z"/>
   <path class="fil1" d="M1233.33 -3383.33c-17.88,-76.74 -78.2,-453.33 -136.67,-453.33 -7.65,0 -43.33,10.47 -43.33,33.33l3.33 473.33c0,41.91 -8.4,201.38 -2.01,232 6.59,31.6 24.73,41.33 52.01,41.33 28.42,0 29.38,-71.61 26.49,-106.49 -3.33,-40.27 -3.19,-85.01 -3.16,-130.17 0.04,-77.06 -6.67,-182.82 -6.67,-260l2.43 4.23c15.7,32.61 43.46,180.89 48.19,218.48 5.98,47.5 2.98,118.73 19.34,147.32 18.43,32.22 53.39,25.13 66.73,3.32 15.7,-25.67 16.51,-51.19 21.83,-88.17 1.81,-12.57 31.18,-159.22 37.9,-175.43 1.98,-4.77 1.79,-3.85 3.58,-6.42 0,64.65 -3.84,335.31 3.6,393.07 0.8,6.17 3.93,14.34 7.72,18.95 16.63,20.24 45.37,14.39 62.83,-14.54 23.63,-39.15 9.59,-110.85 9.06,-154.01 -0.43,-34.79 3.72,-79.08 -1.27,-112.06l-15.28 -444.72c-2.23,-41.35 13.41,-90.02 -39.98,-90.02 -20.36,0 -36.01,17.99 -39.17,34.17 -4.05,20.78 -3.87,47.92 -6.48,66.85 -13.07,94.79 -21.24,155.59 -43.05,250.28 -4.96,21.54 -8.93,38.02 -13.25,60.09 -2.45,12.54 -3.83,18.3 -6.72,29.94l-7 26.33c-0.19,0.53 -0.55,1.61 -1,2.33z"/>
   <path class="fil1" d="M4579.99 -3703.33c0,21.39 7.84,15.85 6.91,43.31 -0.59,17.47 -3.74,22.67 -3.66,43.28 0.06,14.89 0.89,32.14 0.09,46.76l-15.28 218.06c-4.22,28.09 -2.6,59.45 -4.92,88.41l-6.59 86.74c-0.45,15.18 0.13,31.55 0.19,46.85 0.09,20.6 -3.07,25.82 -3.64,43.27 -2.31,69.97 67.75,59.73 79.44,35.85 3.22,-6.58 3.81,-9.49 5.32,-18.27l-1.2 -74.27c-0.06,-22.87 2.39,-35.4 3.35,-53.31 0.96,-17.74 -0.02,-38.7 -0.09,-56.76 -0.09,-22.73 3.58,-30.45 3.49,-53.18 -0.23,-54.55 6.91,-122.13 6.57,-160.09l6.68 -49.99 52.5 204.16c7.8,37.06 16.07,68.19 22.36,107.64 5.22,32.67 -3.02,80.06 37.18,93 34.61,11.15 45.76,-14.28 62.27,-53.82 21.09,-50.54 45.13,-145.45 59.02,-200.98l26.67 -103.33c0,88.3 13.34,159.53 13.33,246.67 -0,43.33 0.15,86.68 -0.01,130.01 -0.46,124.8 60.38,98.92 78.75,72.06 10.02,-14.66 10.43,-27.3 7.15,-44.35 -10.88,-56.46 -10.94,-135.81 -6.06,-194.56l-14.5 -445.15c-5.19,-19.93 -61.92,-81.69 -106.59,54.06 -44.48,135.18 -57.35,220.17 -89.94,340.06l-4.35 12.31c-0.21,0.5 -0.65,1.53 -1.1,2.23 -17.3,-74.23 -55.28,-194.18 -79.57,-267.09 -7.2,-21.61 -48.64,-170.91 -84.06,-174.3 -20.83,-1.99 -49.7,10.64 -49.7,34.72z"/>
   <path class="fil1" d="M2083.33 -3540c0,-60.08 -3.82,-147.28 59.8,-133.38 27.85,6.08 45.5,30.18 52.99,57.25l17.2 276.13c0,54 -7.3,187.64 -45.65,227.68 -12.69,13.25 -9.16,8.37 -24.35,15.65 -15.8,-23.6 -13.77,-8.49 -34.54,-55.46 -8.59,-19.42 -12.64,-49.46 -16.06,-73.94 -6.79,-48.61 -15.72,-148.98 -12.76,-203.94l5.39 -74.83c1.68,-13.77 -2.04,-19.77 -2.04,-35.15zm-80 73.33c0,122.65 -5.59,293.59 61.92,391.41 37.14,53.81 109.74,53.54 155.63,12.81 18.79,-16.69 31.24,-42.89 41.54,-68.46 28.09,-69.8 27.16,-168.12 27.62,-249.13l-10.94 -179.06c-11.46,-65.78 -35.71,-125.65 -89.03,-164.3 -26.09,-18.91 -51.98,-24.78 -95.22,-27.94 -90.11,-6.58 -91.52,224.71 -91.52,284.68z"/>
   <path class="fil1" d="M5189.99 -3100c-28.31,0 -48.15,-98.6 -51.96,-124.7 -19.25,-131.74 -7.96,-210.53 -8.04,-338.63 -0.03,-50.68 -0.16,-126.67 62.52,-109.34 51.85,14.33 54.28,78.48 54.15,122.67 -0.17,57.5 8.29,108.23 9.9,166.77 0.46,16.94 3.52,20.69 3.63,39.86 0.11,19.16 -2.75,24.71 -3.54,40.03 -2.42,46.89 -11.09,203.34 -66.66,203.34zm-140 -403.33c0,110.11 -24.06,470 143.33,470 52.1,0 83.73,-36.02 102.69,-70.64 22.03,-40.22 27.67,-86.26 34.96,-141.7 7.17,-54.46 2.35,-105.1 2.35,-164.32 0,-87.79 -4.15,-220.83 -65.76,-284.24 -35.18,-36.21 -54.79,-50.96 -120.47,-56.46 -22.63,-1.89 -40.96,3.34 -55.8,25.33 -8.88,13.17 -18.7,44.7 -23.32,63.34 -11.88,47.87 -17.98,100.81 -17.98,158.69z"/>
   <path class="fil1" d="M645.13 -3158.39c33.15,-6.3 149.04,-80.15 128.37,-148.74 -3.94,-13.06 -24.19,-31.86 -34.76,-38.42 -24.58,-15.27 -37.39,1.12 -33.48,-37.77 3.87,-38.57 11.08,-85.54 19.95,-121.46 26.73,-108.21 152.23,-113.3 143.85,-29.04 -3.68,37 -17.42,80.48 -22.55,120.47 -5.31,41.4 -10.85,81.47 -15.03,124.08 -8.21,83.93 5.05,54.99 -35.46,108.61l-135.59 151.11c-18,16.89 -14.69,19.25 -43.07,27.11 -44.39,12.29 -111.21,43.66 -153.61,59.59 -75.52,28.37 -99.02,49.87 -167.08,49.7l-210.21 0.03c0,-31.33 -5.69,-157.84 4.67,-175.8 17.29,-29.97 60.49,-65.23 90.5,-86.2 96.5,-67.47 200.26,-52.96 280.52,-76.19 91.29,-26.42 110,-50.43 178.77,-91.05 17.76,-10.49 43.43,-20.93 68.23,-16.86 58.35,9.59 63.7,62.91 30.96,102.66 -7.13,8.66 -84.38,74.18 -94.96,78.17zm-274.17 -169.52c48.85,-41.49 28.88,-79.34 89.54,-103.98 -6.49,24.95 -21.24,51.02 -32.05,73.62 -30.46,63.71 -48.97,39.81 -122.14,84.65 -23.9,14.64 -38.15,25.5 -42.35,60.14 -58.07,19.63 -96.05,44.74 -138.93,81.92 -6.91,5.99 -10.72,11.63 -18.05,18.51 -7.22,6.79 -12.87,12.23 -20.32,17.56l-0.2 -91.17c0,-17.17 37.09,-117.65 45.72,-137.69 23.45,-54.44 43.78,-72.36 83.46,-103.38 55.12,-43.09 99.08,-67.91 156.28,-123.69 47.03,-45.87 96.93,-135.56 165.07,-102.29 27.06,13.21 49.34,62.48 21.26,95.37 -9.52,11.15 -16.83,6.41 -31.2,15.37 -23.33,14.55 -25.13,27.48 -39.57,53.7 -9.88,17.94 -32.44,33.39 -47.37,46.16 -27.93,23.87 -26.86,9.41 -42.29,50.78 -7.18,19.26 -23.15,48.23 -26.86,64.42zm-85.41 101.9c4.06,-48.15 92.69,-53.96 128.3,-83.52 26.28,-21.82 51.59,-102.38 71.6,-141.69 10.48,-20.59 22.52,-55.32 36.78,-69.86 15.32,-15.62 15.94,-9.91 34.57,-18.59 12.61,-5.87 15.22,-19.53 23.31,-30.29 28.07,-37.34 52.9,-17.74 73.54,-26.76 10.62,-4.65 15.64,-14.29 34.97,-18 14.92,-2.87 29.85,1.01 40.19,9.18 34.7,27.43 -11.97,28.61 -30.52,150.74 -21.67,142.69 5.66,70.26 -83.28,129.87 -30.44,20.41 -105.32,60.83 -142.61,70.8 -39.84,10.65 -145.63,29.52 -186.87,28.13zm274.46 -440.66zm36.67 -233.7l-36.67 233.7zm36.67 -233.7c12.56,-20.34 10.22,-38.28 31.15,-61.82 12.78,-14.37 35.7,-29.66 65.53,-29.11 120.54,2.22 115.61,192.09 -50.02,340.88 -27.81,-3.66 -101.44,-52.8 -121.92,-67.64 -106.6,-77.22 -135.43,-195.5 -49.43,-233.35 65.19,-28.7 106.39,33.03 124.69,51.04zm-36.67 233.7c17.35,4.04 74.69,43.1 86.67,40 22.83,-5.91 100.17,-116.24 119.85,-150.15 38.3,-65.99 67.01,-176.99 -11.76,-231.28 -71.61,-49.35 -156.67,24.04 -158.09,88.09 -24.27,-6.48 -32.73,-64.57 -113.44,-63.54 -51.94,0.67 -87.72,40.86 -92.86,87.23 -3.31,29.87 4.25,55.35 12.46,73.48 3.63,8.01 10.27,20.41 15.29,28.05 24.2,36.85 53.94,64.64 89.01,90.99 8.43,6.34 20.88,13.15 26.22,20.45 -45.33,0 -72.96,6.76 -107.16,49.5 -73.17,91.45 -80.98,88.33 -163.85,156.16 -32.83,26.87 -46.1,26.26 -89.83,70.17 -42.16,42.34 -63.94,100.8 -80.57,159.43 -5.12,18.04 -17.9,45.01 -18.73,61.26 -5.15,100.72 0.14,217.59 0.14,320.14 71.11,0 142.22,-0.02 213.33,0 16.56,0 36.59,2.11 51.37,-1.96l77.06 -29.61c13.13,-4.66 24.63,-10.72 37.26,-16.08 14.1,-5.98 24.95,-7.85 38.77,-14.56l112.68 -47.32c38.66,-14.4 41.93,-7.49 70.37,-36.29 30.28,-30.66 167.22,-182.38 171.65,-205.02 3.14,-16.05 3.39,-31.89 4.23,-49.1 4.32,-87.53 26.22,-196.19 41.02,-279.08 5.69,-31.85 -7.49,-58.07 -36.77,-65.29 -28.5,-7.02 -67.81,2.05 -90.97,14.31 -8.3,-35.64 -43.67,-50.9 -80.07,-33.41 -40.29,19.35 5.17,9.2 -53.2,13.47 -24.06,1.76 -34.18,11.54 -46.73,19.94 0,-37.36 -8.54,-47.91 -23.33,-70z"/>
   <path class="fil1" d="M2526.66 -3553.33l3.33 -113.33c78.52,1.75 96.67,184.12 96.67,250 0,79.47 9.48,274.27 -86.67,296.67 0,-72.75 1.13,-152.09 -6.18,-217.15l-7.27 -159.4c-0.03,-18.91 0.11,-37.86 0.11,-56.78zm-86.67 -143.33l10.51 176.2 -0.51 373.8c0,119.64 29.68,100 103.33,100 13.48,0 33.28,-14.19 42.74,-20.59l36.53 -30.14c47.45,-50.68 67.67,-128.4 67.4,-199.26 -0.5,-136.36 22.37,-232.08 -51.3,-342.05 -34.13,-50.95 -82.44,-101.29 -165.38,-101.29 -14.98,0 -43.33,21.75 -43.33,43.33z"/>
   <path class="fil1" d="M1586.66 -3120c-65.96,0 -46.11,-68.32 -54.24,-129.09 -3.18,-23.75 -4.97,-58.09 -8.18,-81.82 -1.93,-14.24 0.07,-28.17 -1.08,-42.25 -6.5,-79.23 0.67,-283.14 -3.49,-313.18 -9.57,-69.06 -85.48,-73.7 -71.08,21.07l4.74 318.59c0,62.71 0.62,153.26 14.66,202.01 8.33,28.91 22.5,59.67 40.68,79.31 17.08,18.47 40.76,28.67 68,28.67 123.47,0 139.75,-276.52 139.89,-376.78 0.03,-21.4 3.58,-29.85 3.5,-53.18 -0.14,-39.97 -4.92,-66.95 0.86,-109.13 4.23,-30.88 2,-73.03 7.19,-106.19 7.27,-46.56 -6.52,-74.72 -48.09,-74.72 -31.72,0 -30.09,28.06 -30.01,60 0.08,30 0,60 0.01,90 0,14.21 0.53,29.37 0.11,43.44 -0.52,17.37 -3.6,22.72 -3.52,43.15 0.11,26.18 2.49,68.23 -0.83,92.5 -1.75,12.77 -2.56,23.19 -2.39,40.94 0.39,40.97 -16.81,266.63 -56.7,266.63z"/>
   <path class="fil1" d="M4403.33 -3533.33c0,40 8.83,75.94 10,113.34 1.75,55.89 6.67,94.17 6.67,159.99 -18.22,-0.41 -47.41,-6.29 -63.33,-10l40.22 -249.77c2.18,-9.66 0.72,-6.98 6.44,-13.56zm-120 486.67c63.41,0 45.59,-122.74 66.67,-166.67 26.49,0 51.07,10 80,10 25.18,108.07 -8.31,160 66.67,160 51.28,0 22.86,-97.31 17.52,-124.19 -5.44,-27.39 -17.8,-101.17 -17.5,-129.17 0.91,-83.65 -40.12,-297.19 -39.84,-406.82 0.12,-49.16 -38.57,-46.49 -76.85,-46.49 -32.12,0 -32.78,134 -40.48,179.52l-31.93 191.4c-12.67,73.77 -41.06,195.03 -60.27,269.78 -4.44,17.3 -8.94,27.89 -0.8,42.63 4.71,8.54 24.22,20.01 36.81,20.01z"/>
   <path class="fil1" d="M1840 -3683.33c51.07,11.9 32.34,117.14 23.34,153.34l-20.01 49.99c0,-71.07 -3.33,-131.44 -3.33,-203.33zm-73.33 -6.67l3.22 173.45c0.02,18.31 2.65,21.44 3.46,36.54 0.75,13.89 -0.32,29.4 -0.15,43.48 0.23,18.52 3.37,21.22 3.6,39.73 0.91,74.07 6.53,129.85 6.53,206.8 0,16.46 -2.45,113.8 1.7,124.96 10.26,27.56 29.07,21.7 48.3,21.7 13.39,0 23.33,-33.33 23.33,-33.33 0,-20.24 -7.45,-43.04 -9.74,-63.59 -11.44,-102.78 -6.93,-109.43 -6.93,-213.07l3.33 0c0,16.85 16.48,83.83 20.85,105.81 8.01,40.27 37.44,225.89 99.33,211.26 53.08,-12.56 10.28,-78.15 -4.03,-116.56 -9.45,-25.37 -18.61,-56.8 -25.5,-84.5 -7.56,-30.41 -12.82,-58.49 -19.27,-90.73 -22.85,-114.22 -27.53,-77.19 11.96,-155.26 26.74,-52.87 19.99,-84.4 19.99,-150.01 0,-23.98 -10.69,-50.93 -22.44,-64.22 -46.03,-52.04 -157.56,-78.92 -157.56,7.56z"/>
   <path class="fil1" d="M3396.66 -3480c0,-68.04 -3.33,-131.99 -3.33,-203.33 60.52,14.1 25.94,177.32 3.33,203.33zm-76.67 -216.67l3.22 200.11c0.5,16.78 3.35,18.45 3.57,36.43 0.17,13.23 -0.63,27.08 -0.24,40.24 0.5,16.79 3.35,18.45 3.57,36.43 1.16,94.78 6.83,177.5 6.53,280.14 -0.17,56.77 4.39,60 50,60 12.25,0 26.2,-26.8 20.42,-53.58 -13.98,-64.72 -17.09,-173.7 -17.09,-243.09 0,-9.39 1.44,-6.17 6.67,-10l20.28 103.06c8.19,41.05 37.51,225.49 99.95,210.72 20.4,-4.83 26.44,-30 26.44,-37.11 0,-10.82 -24.28,-58.59 -31.29,-78.71 -28.61,-82.15 -37.43,-139.93 -53.98,-222.68 -13.51,-67.54 -12.12,-37.77 23.1,-110.79 23.52,-48.77 18.84,-81.39 18.84,-134.49 0,-29.21 -5.36,-51.46 -17.2,-69.46 -38.8,-59.01 -162.8,-85.74 -162.8,-7.2z"/>
   <path class="fil0" d="M370.95 -3327.91c3.71,-16.19 19.68,-45.16 26.86,-64.42 15.43,-41.37 14.36,-26.91 42.29,-50.78 14.93,-12.77 37.5,-28.22 47.37,-46.16 14.44,-26.22 16.24,-39.15 39.57,-53.7 14.37,-8.96 21.69,-4.23 31.2,-15.37 28.07,-32.89 5.8,-82.16 -21.26,-95.37 -68.15,-33.27 -118.04,56.42 -165.07,102.29 -57.19,55.78 -101.15,80.6 -156.28,123.69 -39.68,31.02 -60.01,48.94 -83.46,103.38 -8.63,20.04 -45.72,120.51 -45.72,137.69l0.2 91.17c7.45,-5.33 13.1,-10.77 20.32,-17.56 7.33,-6.88 11.15,-12.52 18.05,-18.51 42.87,-37.18 80.85,-62.29 138.93,-81.92 4.21,-34.64 18.45,-45.5 42.35,-60.14 73.17,-44.84 91.69,-20.94 122.14,-84.65 10.8,-22.6 25.56,-48.67 32.05,-73.62 -60.66,24.64 -40.69,62.49 -89.54,103.98z"/>
   <path class="fil1" d="M3163.33 -3656.67c49.04,4.08 40,47.67 40,103.33 0,47.93 -8.1,104.2 -36.67,123.33 0,-79.56 -3.33,-149.38 -3.33,-226.67zm-76.67 -36.67c0,25.88 6.67,41.5 6.67,70 0,39.93 2.3,157.24 -5.25,191.42 -5.61,25.44 -0.7,165.39 -4.57,212.09 -1.97,23.76 5.67,121.15 9.71,146.6 2.5,15.77 0.9,19.93 11.77,28.23 28.87,22.04 68.61,13.08 68.46,-41.55l-6.79 -280.12c41.39,-3.44 89.68,-45.37 102.67,-87.33 18.23,-58.83 17.96,-180.68 -14.59,-234.09 -32.88,-53.94 -77.13,-45.25 -138.08,-45.25 -12.27,0 -30,26.44 -30,40z"/>
   <path class="fil0" d="M596.66 -3900.36c-18.3,-18.01 -59.5,-79.74 -124.69,-51.04 -85.99,37.85 -57.17,156.13 49.43,233.35 20.48,14.83 94.11,63.98 121.92,67.64 165.62,-148.79 170.56,-338.66 50.02,-340.88 -29.83,-0.55 -52.76,14.74 -65.53,29.11 -20.93,23.54 -18.59,41.48 -31.15,61.82z"/>
   <path class="fil1" d="M3573.33 -3670c0,31.53 2.6,52.96 3.35,83.55 2.02,82.25 -3.36,167.12 -3.35,249.79 0,55.07 -1.44,107.93 3.16,163.51 3.04,36.78 -16.66,133.16 43.51,133.16 57.94,0 143.33,13.23 143.33,-40 0,-44 -67.32,-33.33 -113.33,-33.33 0,-41.85 6.98,-275.47 0,-290 18.33,0 41.54,3.06 58.18,-1.82 40.98,-12.03 40.7,-74.85 -21.51,-74.85l-36.67 0c0,-62.43 3.33,-113.65 3.33,-176.67 19.1,1.59 53.93,15.31 63.32,15.1 26.6,-0.6 80.41,-55.3 -8.73,-83.02 -57.71,-17.94 -134.59,-34.46 -134.59,54.59z"/>
   <path class="fil1" d="M2749.99 -3670c0,51.77 5.03,69.06 3.3,119.81l-3.24 293.37c0.5,14.04 -0.09,29.39 -0.14,43.56 -0.08,19.35 2.59,24.43 3.43,39.91 2,37.01 -16.31,133.35 43.32,133.35 57.94,0 143.33,13.23 143.33,-40 0,-44 -67.32,-33.33 -113.33,-33.33 0,-41.85 6.97,-275.47 0,-290 18.33,0 41.53,3.06 58.18,-1.82 40.98,-12.03 40.7,-74.85 -21.51,-74.85l-36.67 0c0,-62.13 3.33,-113.56 3.33,-176.67 19.1,1.59 53.93,15.31 63.32,15.1 26.6,-0.6 80.41,-55.3 -8.73,-83.02 -57.71,-17.94 -134.59,-34.46 -134.59,54.59z"/>
   <path class="fil0" d="M285.54 -3226.01c41.25,1.39 147.03,-17.47 186.87,-28.13 37.28,-9.96 112.17,-50.39 142.61,-70.8 88.94,-59.61 61.61,12.81 83.28,-129.87 18.55,-122.13 65.22,-123.31 30.52,-150.74 -10.34,-8.17 -25.27,-12.05 -40.19,-9.18 -19.33,3.71 -24.35,13.35 -34.97,18 -20.64,9.02 -45.47,-10.58 -73.54,26.76 -8.09,10.76 -10.7,24.42 -23.31,30.29 -18.64,8.68 -19.26,2.97 -34.57,18.59 -14.26,14.54 -26.3,49.27 -36.78,69.86 -20.02,39.31 -45.32,119.87 -71.6,141.69 -35.61,29.56 -124.24,35.37 -128.3,83.52z"/>
   <path class="fil1" d="M5369.99 -3616.67c0,71.02 3.12,96.41 36.67,163.33 35.85,71.52 92.09,145.69 80.65,233.93 -19.19,147.95 -58.49,102.73 -100.65,102.73 -0.35,0 -26.49,17.23 -13.55,46.7 26.93,61.34 186.88,40.75 186.88,-173.37 0,-36.02 -8.21,-69 -16.62,-96.72 -9.07,-29.91 -24.61,-51.91 -37.83,-78.83 -38.05,-77.47 -103.95,-160.61 -38.88,-257.78 18.85,1.57 63.33,16.88 63.33,-33.33 0,-25.98 -35.24,-43.33 -63.33,-43.33 -55.75,0 -96.67,78.72 -96.67,136.67z"/>
   <path class="fil1" d="M3903.33 -3260l0 36.67c0,34.67 -19.58,113.33 -50,113.33 -33.04,0 -49.83,-21.96 -66.85,13.43 -11.77,24.47 23.06,56.57 46.85,56.57 102.32,0 143.33,-107.72 143.33,-190 0,-88.94 -31.96,-150.45 -70.15,-216.52 -7.16,-12.39 -13.72,-24.87 -21.78,-38.22 -32.65,-54.09 -40.83,-138.02 -4.74,-191.93 15.24,0.34 66.67,17.49 66.67,-30 0,-44.34 -107.81,-93.32 -152.21,41.12 -14.07,42.59 -12.13,112.98 3.54,154.22 8.33,21.93 15.75,42.29 25.3,61.37 25.27,50.44 80.04,127.37 80.04,189.96z"/>
   <path class="fil1" d="M3989.99 -3713.33c0,38.95 50.82,43.33 86.67,43.33 0,15.31 -0.56,31.61 -0.11,46.78 0.52,17.41 3.65,22.69 3.52,43.15 -0.33,52.87 8.71,131.98 10.03,179.97 0.76,27.59 0.64,65.59 4.63,92.03 4.22,27.89 2.74,58.96 5.77,87.56 3.02,28.51 2.84,60.47 2.82,93.84 -0.02,26.11 -5.65,44.7 10.79,59.23 35.85,31.7 65.88,-8.06 65.88,-32.57 0,-196.8 -33.33,-369.87 -33.33,-566.67 12.28,2.86 34.11,8.57 48.01,4.91 41.93,-11.06 40.38,-56.52 15.03,-67.94l-139.79 -10.2c-17.57,-0.12 -19.21,-3.4 -33.33,-3.54 -18.82,-0.19 -46.58,14.39 -46.58,30.12z"/>
   <path class="fil1" d="M3616.66 -3803.33c0,13.06 12.4,23.33 26.67,23.33 10.11,0 173.33,-82.73 173.33,-106.67 0,-35.2 -25.53,-56.67 -36.67,-56.67 -23.89,0 -60.9,39.78 -87.7,62.3 -14.66,12.32 -75.63,60.13 -75.63,77.7z"/>
  </g>
  <g id="_2544121489936">
   <path class="fil2" d="M853.98 653.94c3.39,-7.56 5.17,-10.74 5.98,-22.69 12.12,12.91 2.89,7.17 12.28,11.18 13.7,-2.83 27.53,-10.53 44.17,-14.35 22.95,-5.28 35.41,-1.4 47.14,-11.41 -3.62,-4.25 2.56,-5.95 -21.55,-8.85 -9.15,-1.09 -9.39,-1.2 -18.05,-3.15 -14.97,-3.35 -24.3,-5.37 -39.39,-11.64 -24.1,-10.01 -44.43,-23.13 -61.13,-38.49 -169.63,-156.14 -147.37,-405.85 -158.75,-434.7 -3.69,0.61 -9.98,-3.84 -11.36,16.36 -0.51,7.45 0.14,19.17 0.01,27.25 -2.11,131.94 -54.85,304.04 -156.37,392.16 -28.09,24.39 -60.58,41.65 -99.84,49.28 -37,7.2 -33.04,-2.32 -40.14,11.76l8.3 3.91c1.02,0.33 1.87,0.55 2.94,0.83l32.41 5.63c162.31,32.98 233.33,248.47 249.14,400.52 1.75,16.81 3.26,28.28 3.41,45.68 0.35,40.15 -1.1,36.94 11.5,39.12 4.06,-12.13 4.94,-59.48 5.96,-75.79 8.39,-134.61 71.35,-316.07 183.34,-382.63z"/>
   <path class="fil3" d="M5334.68 643.33l0 143.33c-0.02,32.66 3.46,52.25 3.34,83.32 -0.08,21.89 -2.44,66.68 0.7,85.96 9.91,60.78 82.62,55.95 82.62,0.71 0,-21.4 -10.46,-5.31 -10.09,-49.91l0.09 -420.09c6.72,7.74 9.61,19 13.82,29.52l36.6 96.73c27.8,77.37 69.05,187.03 91.51,265.16 25,87 8.52,142.59 89.01,119.54 15.64,-4.48 15.78,-7.24 19.91,-23.43 13.69,-53.67 12.76,-98.55 18.67,-151.33l7.13 -162.87c-0.19,-29.87 3.37,-50.79 3.35,-83.31 -0.01,-35.54 10.56,-198.19 -2.8,-233.86 -13.25,-35.34 -61.2,-33.3 -69.33,5.1 -3.06,14.47 2.08,56.89 2.15,78.77 0.1,31.08 -3.36,50.66 -3.35,83.32 0.02,27.79 -0.11,55.59 0.05,83.38 0.17,28.81 -3.52,50.9 -3.33,83.33 0.1,17.5 -1.48,24.58 -2.89,37.11l-3.78 82.88c0.05,19.48 -3.37,23.18 -3.37,39.96 -0.44,-0.7 -0.93,-2.72 -1.07,-2.26l-5.3 -14.71c-41.94,-140.19 -72.37,-272.13 -128.87,-407.8 -14.16,-34 -42.21,-101.9 -84.76,-101.9 -6.58,0 -32.86,30.32 -39.51,53.82 -7.91,27.91 -10.49,257.13 -10.49,279.51z"/>
   <path class="fil3" d="M5088.02 490c0,-31.42 2.41,-98.84 33.61,-110 34.26,-12.26 69.69,20.55 79.93,56.47 7.56,26.52 3.11,99.31 8.39,134.94 11.28,76.03 11.57,219.56 -5.18,288.66 -6.81,28.11 -12.93,59.85 -31.97,81.37 -10.55,11.92 -11.95,9.07 -24.77,15.23 -7.32,-10.93 -11.48,-10.82 -18.95,-24.39 -6.54,-11.87 -9.97,-18.14 -15.66,-31.01 -13.83,-31.27 -20.54,-119.44 -24.91,-158.43l3.07 -212.84c-0.49,-17.13 -3.56,-20.35 -3.56,-40zm-80 106.67c0,90.63 -0.99,221.27 24.54,298.79 19.1,57.99 44.27,124.55 118.79,124.55 152.02,0 142.73,-253.4 143.38,-366.71 0.14,-24.85 -3.56,-35.06 -3.42,-59.91 0.38,-65.9 -8.95,-148.25 -42.59,-204.08 -17.15,-28.46 -33.29,-47.2 -62.03,-64.64 -21.08,-12.79 -66.17,-26.83 -97.1,-22.74 -78.8,10.44 -81.57,227.65 -81.57,294.74z"/>
   <path class="fil3" d="M1931.35 933.33c0,-20 0.08,-40.02 -0.02,-60.02 -0.13,-25.38 3.53,-36.23 3.43,-59.9l3.26 -120.08c39.44,26.41 50.06,149.39 27.74,201.07 -8.92,20.66 -17.61,27.68 -34.41,38.93zm6.67 -333.33l-0.02 -170.02c-0.13,-24.4 3.36,-34.7 3.36,-56.65 10.77,2.88 11.57,7.23 15.5,17.83 14.98,40.35 21.45,181.86 -18.84,208.84zm-73.33 -160c0,25.56 0,51.11 0,76.67l-3.35 73.32c-3.47,64.23 3.38,146.81 -3.49,229.84l-5.72 146.07c5.74,44.68 24.8,44.11 52.56,44.11 25.43,0 43.09,-6.63 61.23,-15.44 49.18,-23.86 85.44,-95.36 85.44,-154.56 0,-54.63 2.01,-166.3 -43.33,-196.67 72.83,-108.76 48.08,-343.33 -90,-343.33 -77.85,0 -53.33,38.85 -53.33,140z"/>
   <path class="fil3" d="M3331.35 933.33c0,-74.97 6.67,-169.63 6.67,-243.33 38.94,26.07 71.15,202.15 -6.67,243.33zm6.67 -333.33l-0.02 -176.69c0.86,-16.13 5.39,-37.84 6.68,-53.31 4.31,4.96 7.63,8.29 11.08,15.59 3.03,6.4 5.37,14.89 7.02,22.98 7.44,36.5 8.32,119.53 -1.31,154.89 -4.87,17.88 -9.79,27.4 -23.45,36.55zm-76.67 -250c0,27.3 8.53,60.77 5.37,81.81 -5.2,34.69 -0.41,174.23 -1.93,224.96 -0.52,17.37 -3.61,22.72 -3.52,43.15 0.12,28.89 2.27,60.94 -1.85,88.15l-6.35 170.05c7.51,49.62 12.67,51.88 58.28,51.88 95.62,0 143.33,-103.37 143.33,-203.33 0,-44.21 -6.12,-96.48 -23.32,-133.35 -5.65,-12.11 -13.48,-20.96 -20.02,-33.31 46.44,-69.36 52.72,-212.82 1.46,-288.13 -35.9,-52.76 -151.46,-84.62 -151.46,-1.87z"/>
   <path class="fil3" d="M1671.35 933.33c-64.09,0 -50.93,-59.92 -56.42,-130.25 -11.56,-148.32 -10.25,-198.13 -10.25,-346.41 0,-41.05 12.73,-140 -46.67,-140 -10.65,0 -24.23,18.7 -26.01,27.32 -4.98,24.06 2.08,78.93 2.79,102.57 0.52,17.35 -0.11,35.94 -0.11,53.44 0,72.25 -0.21,144.53 -0.11,216.78 0.03,21.07 3.62,27.71 3.53,49.81 -0.31,70.04 6.15,163.07 49.29,217.37 29.53,37.17 93.92,51.51 141.75,-2.84 15.38,-17.48 27.4,-44.94 35.17,-68.16 17.26,-51.54 25.68,-109.21 30.62,-172.71 5.09,-65.26 5.03,-242.1 12.17,-294.5 2.19,-16.07 0.37,-30.87 2.84,-47.17 5.75,-38 9.54,-101.93 -41.93,-101.93 -33.28,0 -36.97,20.04 -36.75,53.25l0.19 230.19c-0.52,17.38 -3.61,22.72 -3.52,43.15 0.28,63.06 -15.24,310.07 -56.59,310.07z"/>
   <path class="fil3" d="M3071.35 933.33c-64.78,0 -47.11,-68.13 -53.82,-129.51 -15.39,-140.86 -12.85,-196.96 -12.85,-347.15 0,-31.02 12.75,-140 -40,-140 -35.02,0 -35.1,40.46 -30.91,70.91l4.24 315.76c0,62.85 0.54,153.65 13.92,202.74 5.9,21.65 21.69,59.49 35.19,74.81 44,49.96 105.3,48.24 146.59,-5.18 42.53,-55.02 53.59,-155.08 61.56,-225.11l9.44 -163.89c-0.14,-39.97 -4.92,-66.95 0.86,-109.13 4.25,-31.02 2.49,-72.27 7.7,-105.67 7.31,-46.78 -7.78,-75.24 -48.61,-75.24 -31.72,0 -30.09,28.06 -30,60l0.14 133.47c-0.24,18.92 -3.56,23.06 -3.58,43.09 -0.04,27.35 2.53,67.13 -0.37,92.96l-6.17 83.83c-1.97,40.77 -14.84,223.33 -53.34,223.33z"/>
   <path class="fil3" d="M4361.35 523.33c11.11,8.14 5.59,7.82 7.34,26l12.68 127.32c0.63,12.04 -0.87,24.22 0.47,36.2l2.85 80.48c-18.89,0 -47.17,-6.23 -63.33,-10l40 -260zm-110 483.33c30.1,0 40.61,-39.42 45.29,-68.04l14.71 -98.62c27.57,0 54.24,10 83.33,10l13.14 96.86c1.38,18.51 -7.15,63.14 50.2,63.14 54.65,0 26.11,-93.95 20.86,-120.86 -17.26,-88.41 -20.75,-178.82 -30.86,-269.14l-20.96 -175.71c-14.79,-114.73 18.61,-140.96 -79.04,-140.96 -28.97,0 -31.52,53.85 -33.65,76.36 -12.72,134.61 -21.46,167.07 -42.57,294.09 -12.55,75.47 -41.52,196.76 -61.14,272.21 -4.24,16.3 -9.5,27.59 1.87,42.79 7.52,10.05 22.24,17.89 38.82,17.89z"/>
   <path class="fil3" d="M2414.68 573.33c0,-33.65 -3.33,-62.61 -3.33,-100 0,-34.44 0,-68.89 0,-103.33 59.53,13.87 24.58,154.09 10.56,190.56 -3.25,8.46 -2.24,7.05 -7.22,12.78zm-76.67 -223.33c0,213.93 16.67,402.34 16.67,610 0,15.2 -5.79,18.81 1.34,31.76 12.43,22.57 26.01,18.24 48.66,18.24 10.9,0 14.4,-15.26 18.35,-25.15 7.49,-18.78 4.02,-16.42 -0.22,-36.26 -8.6,-40.17 -14.84,-121.74 -14.79,-165.26 0.04,-31.11 0,-62.22 0,-93.33l3.33 0c0,16.43 39.34,195 43.31,210.02 46.45,175.58 103.36,111.93 103.36,86.64 0,-33.19 -8.88,-36.13 -22.91,-70.43 -8.72,-21.31 -14,-39.15 -20.82,-62.52l-47.42 -216.31c-2.31,-16.15 -0.46,-7.5 16.7,-41.86 29.88,-59.85 34.44,-62.86 34.44,-145.56 0,-66.56 -15.29,-100.77 -59.9,-123.43 -20.99,-10.67 -80.83,-30.15 -105.01,-8.15 -6.17,5.62 -15.09,20.92 -15.09,31.58z"/>
   <path class="fil3" d="M2784.68 620c0,-21.61 -3.51,-29.94 -3.38,-53.29l0.04 -170.04c41.59,9.69 40,27.71 40,86.67 0,21.81 -4.51,128.08 -36.67,136.67zm-73.33 -170c0,17.74 0.35,35.78 0.13,53.46l-5.24 108.1c-3.51,21.7 -8.6,26.12 -4.74,44.63 9.56,45.75 -0.16,153.78 -0.16,217.13 0,20.61 5.53,112.87 14.75,128.59 14.85,25.34 75.04,28.44 75.54,-31.9 0.15,-18.42 -3.71,-23.06 -3.74,-43.24 -0.11,-80.67 -6.56,-140.89 -6.56,-230.11 0,-10.54 8.67,-10.59 18.95,-14.39 11.89,-4.39 15.16,-5.6 25.09,-11.58 79.49,-47.87 72.63,-120 72.63,-204.04 0,-70.41 -33.95,-146.67 -103.33,-146.67 -36.67,0 -94.94,-11.04 -91.19,48.56 1.01,16.12 3.78,19.65 4.55,38.09 0.74,17.69 3.31,23.04 3.31,43.36z"/>
   <path class="fil3" d="M1278.02 356.67c0,46.85 8.11,91.55 22.3,127.7l71.09 148.91c42.19,85.65 76.09,201.96 21.96,292.06 -34.38,57.23 -51.97,14.65 -92.01,14.65 -52.47,0 -62.45,83.33 56.67,83.33 32.48,0 63.89,-18.74 82.39,-34.27 18.43,-15.46 36.69,-48.65 45.59,-74.41 77.79,-225.31 -127.98,-381.07 -127.98,-551.31 0,-21.58 0.7,-40 11.27,-58.73 28.66,-50.77 45.02,-14.95 75,-20.06 7.44,-1.27 27.06,-26.28 27.06,-27.88 0,-42.69 -96.28,-87.49 -160.99,-0.99 -19.35,25.86 -32.34,57.33 -32.34,100.99z"/>
   <path class="fil3" d="M2104.68 383.33l43.33 0c0,26.33 3.51,39.31 3.41,63.26 -0.09,23.37 -0.17,46.74 -0.06,70.1 0.14,26.95 -3.52,39.67 -3.38,66.62 0.12,23.34 -0.07,46.7 0.04,70.04 0.13,24.3 -5.24,41.13 -1.99,61.86l5.31 204.79c-24.39,0 -46.67,5.78 -46.67,40 0,24.78 24.68,33.33 50,33.33l116.67 0c34.62,0 73.63,-70.64 -8.47,-78.23l-34.86 1.56c0,-84.84 -8.53,-312.21 -0.49,-383.82 5.51,-49.05 0.81,-108.93 -2.85,-152.85 16.87,0 40.14,3.13 54.44,-2.22 2.38,-0.89 14.72,-8.98 16.28,-10.38 17.49,-15.76 13.63,-54.06 -30.73,-54.06l-146.67 0c-64.13,0 -52.21,70 -13.33,70z"/>
   <path class="fil3" d="M4751.35 346.67c0,44.32 32.56,36.67 73.33,36.67 0,18.51 3.33,19.77 3.33,36.67 0,42.22 -0.01,84.44 0,126.67 0.02,74.74 -8.74,173.67 -0.49,247.15l3.82 126.18c-17.94,0 -28.47,-1.63 -38.34,11.66 -22.86,30.78 -8.93,61.67 41.67,61.67l113.33 0c41.76,0 56.61,-63.45 15.28,-75.29 -4.51,-1.29 -18.65,-2.44 -23.81,-2.89l-34.81 1.52 0 -536.67c45.96,0 76.67,5.07 76.67,-43.33 0,-11.8 -20.69,-23.33 -33.33,-23.33l-146.67 0c-25.31,0 -50,8.56 -50,33.33z"/>
   <path class="fil3" d="M3704.68 340c0,50.3 21.67,43.33 73.33,43.33l3.33 80c0,28.89 -0.09,57.79 0.01,86.68 0.11,30.42 -3.38,48.44 -3.35,79.99l-0.07 136.75c-0.09,22.1 3.5,28.74 3.52,49.81 0.03,17.82 -0.12,35.7 -0.19,53.52 -0.09,22.09 3.41,28.69 3.41,49.93 -15.6,0 -29.74,-1.17 -38.86,11.14 -25.7,34.72 -3.57,62.19 42.19,62.19l113.33 0c41.76,0 56.62,-63.45 15.29,-75.29 -19.65,-5.63 -38.64,-1.37 -58.62,-1.37 0,-92.91 -3.33,-175.66 -3.33,-266.67 0,-48.89 3.33,-86.08 3.33,-133.33 -0,-45.56 0,-91.11 0,-136.67 28.28,0 76.67,6.93 76.67,-36.67 0,-21.14 -19.05,-30 -40,-30l-140 0c-20.49,0 -50,9.2 -50,26.67z"/>
   <path class="fil3" d="M872.24 642.43c-11.62,31.56 24.25,116 62.28,141.07 23.37,15.4 36.92,13.07 47.36,19.82 -0.78,0.46 -1.91,0.83 -2.51,1.05l-13.39 3.86c-66.07,16.23 -94.93,99.58 -98.74,161.74 -0.79,12.86 2.7,24.47 -5.89,29.43 -9.54,-19.86 2.33,-65.2 -30.81,-128.81 -34.47,-66.18 -72.45,-56.89 -88.35,-67.26 9.4,-6.89 32.41,-8.57 47.09,-18.7 35.58,-24.56 66.98,-91.73 64.69,-130.69 -112,66.56 -174.95,248.02 -183.34,382.63 -1.02,16.31 -1.9,63.66 -5.96,75.79 -12.61,-2.18 -11.16,1.03 -11.5,-39.12 -0.15,-17.4 -1.66,-28.87 -3.41,-45.68 -15.81,-152.06 -86.83,-367.54 -249.14,-400.52l-32.41 -5.63c-1.07,-0.28 -1.92,-0.5 -2.94,-0.83l-8.3 -3.91c7.1,-14.09 3.14,-4.57 40.14,-11.76 39.26,-7.64 71.75,-24.89 99.84,-49.28 101.51,-88.12 154.25,-260.22 156.37,-392.16 0.13,-8.08 -0.52,-19.8 -0.01,-27.25 1.38,-20.2 7.67,-15.75 11.36,-16.36 11.38,28.85 -10.88,278.56 158.75,434.7 16.69,15.36 37.03,28.48 61.13,38.49 15.09,6.27 24.42,8.29 39.39,11.64 8.67,1.94 8.9,2.05 18.05,3.15 24.11,2.89 17.93,4.59 21.55,8.85 -11.72,10.02 -24.19,6.14 -47.14,11.41 -16.64,3.83 -30.46,11.52 -44.17,14.35zm-567.56 -19.1c45.24,0 98.65,17.09 134.07,39.26 20.55,12.86 45.28,38.13 61.83,54.84 25.62,25.89 55.63,73.04 71.92,104.75 19.15,37.29 44.47,104.74 54.72,148.61 2.38,10.19 2.73,14.76 4.94,25.06 3.05,14.2 7.04,30.65 8.92,47.74 2.06,18.83 5.9,35.51 6.83,53.17l3.54 86.46c1.61,12.55 2.86,14.02 13.22,16.78 5.95,-12.39 8.93,-81.88 10.1,-103.23 3.89,-70.89 27.53,-164.41 55.59,-231.07 5.31,-12.62 14.82,-30.24 17.64,-42.36 52.7,4.39 93.29,115.24 103.72,166.28 3.04,14.87 5.66,72.15 9.61,80.39 14.41,-10.55 3.3,-12.61 7.53,-45.8 9.61,-75.33 44.09,-197.84 133.4,-213.27 13.35,-2.31 11.53,0.95 22.4,-4.26 -3.67,-9.09 0.09,-3.7 -9.55,-7.12 -0.03,-0.01 -12.08,-2.46 -13.81,-2.85 -11.66,-2.68 -17.44,-5.39 -26.73,-9.94 -43.3,-21.19 -78.63,-78.33 -89.91,-126.76 17.22,-4.01 37.42,-17.95 58.74,-24.59 23.59,-7.35 52.35,-11.58 74.59,-12.08 -0.57,-25.63 -13.23,-14.41 -37.63,-19.04 -28.94,-5.49 -83.56,-21.81 -105.06,-41.61 -8.6,-7.93 -7.31,-7.72 -7.31,-22.69 -11.91,1.3 -8.44,10.35 -25.28,-4.47l-62.06 -74.85 -46.52 -86.82c-24.29,-60.44 -38.4,-103.65 -51.44,-175.23l-11.37 -121.96c0.23,-20.11 -3,-28.31 -3.33,-43.33l-13.33 0c-10.07,121.07 -1.6,80.58 -23.8,209.54 -13.05,75.83 -60.6,185.96 -108.76,244.57 -41.27,50.22 -66.52,76.73 -129.76,103.58 -64.69,27.46 -86.94,-1.07 -87.69,32.31z"/>
   <path class="fil3" d="M4511.35 676.67l3.35 73.31c1.43,26.52 -0.67,51.56 2.33,74.34 7.1,53.97 10.24,86.16 30.88,125.79 41.97,80.63 193.44,88.11 193.44,16.56 0,-28.34 -17.81,-33.33 -43.33,-33.33 -0.07,0 -53.21,28.02 -83.21,-30.13 -22.75,-44.1 -25.61,-138.94 -19.22,-185.63 7.96,-58.06 -7.48,-255.31 38.44,-318.22 23.72,-32.49 53.07,-5.71 83.72,-19.62 37.68,-17.09 30,-101.42 -84.94,-61.61 -84.84,29.39 -109.19,119.78 -114.91,205.09 -3.28,48.93 -6.55,101.44 -6.55,153.45z"/>
   <path class="fil3" d="M3958.02 680l5.64 147.69c12.56,90.71 24.34,166.49 122.84,183.83 123.24,21.7 122.22,-78.19 64.85,-78.19 -25.56,0 -5.9,6.67 -26.67,6.67 -116.85,0 -80,-219.54 -80,-323.33 0,-62.2 5.87,-137.7 21.5,-185.16 27.43,-83.26 58.31,-30.31 99.93,-53.4 18.12,-10.05 27.02,-38.24 6.26,-59.14 -19.75,-19.89 -75.85,-7.41 -95.35,0.05 -85.32,32.66 -105.66,118.26 -112.6,207.4 -3.8,48.85 -6.41,100.56 -6.41,153.59z"/>
   <path class="fil3" d="M3501.35 413.33c0,50.03 6.64,86.62 6.67,136.67 0.02,26.96 -3.42,43.61 -3.45,66.55 -0.03,21.77 1.95,52.26 -0.37,72.96l-9.51 277.15c0,70.82 76.88,40 83.33,40 51.27,0 63.16,10 80,10 34.24,0 56.27,-38.38 32.48,-62.48 -18.66,-18.9 -68.69,-14.19 -105.81,-14.19 -16.06,-23.98 -13.33,-34.98 -13.33,-66.67 0,-55.14 3.53,-100.99 3.33,-153.34 -0.28,-71.3 10.69,-20.18 3.52,-106.83 -3.08,-37.26 -0.46,-214.35 5.23,-251.37 8.77,-57.13 -82.07,-91.5 -82.07,51.54z"/>
   <path class="fil4" d="M853.98 653.94c2.29,38.95 -29.11,106.13 -64.69,130.69 -14.69,10.14 -37.69,11.82 -47.09,18.7 15.9,10.37 53.87,1.08 88.35,67.26 33.14,63.61 21.26,108.94 30.81,128.81 8.59,-4.95 5.1,-16.57 5.89,-29.43 3.81,-62.15 32.67,-145.5 98.74,-161.74l13.39 -3.86c0.6,-0.21 1.73,-0.59 2.51,-1.05 -10.44,-6.76 -23.99,-4.42 -47.36,-19.82 -38.04,-25.07 -73.9,-109.52 -62.28,-141.07 -9.38,-4.01 -0.15,1.73 -12.28,-11.18 -0.81,11.95 -2.59,15.13 -5.98,22.69z"/>
   <path class="fil3" d="M5101.35 250c0,13.06 12.4,23.33 26.67,23.33 15.47,0 142.58,-73.16 161.38,-88.61 31.82,-26.15 -6.78,-74.72 -28.05,-74.72 -22.85,0 -59.47,42.31 -86.67,63.33l-39.19 34.14c-8.83,8.94 -34.14,29.09 -34.14,42.53z"/>
   <path class="fil3" d="M867.92 426.67c0.66,-0.51 1.67,-1.04 2.13,-1.3l4.31 -2.48c26.43,-14.32 34.99,-31.06 39.22,-68.01l7.33 12.81c0.73,2.1 1.7,7.85 2.43,10.74 3.54,13.88 10.96,28.85 22.08,37.31 4.56,3.47 3.53,2.22 8.26,5.15l8.77 5.77c-56.6,38.43 -27.94,47.58 -47.67,80.15 -6.42,-61.04 -19.67,-63.26 -46.88,-80.15zm-36.57 -3.33l0 6.67c45.77,0 68.66,47.68 76.53,83.47 2.44,11.11 6.54,38.22 6.8,49.86 0.45,-0.71 0.89,-2.77 1.02,-2.31l7.52 -42.48c7.97,-38.91 31.52,-88.54 78.13,-88.54l0 -6.67c-61.01,-5.07 -83.33,-87.17 -83.33,-136.67l-3.33 0c0,32.39 -9.75,66.21 -21.01,88.99 -11.94,24.16 -30.16,45 -62.32,47.68z"/>
   <path class="fil5" d="M867.92 426.67c27.21,16.89 40.46,19.11 46.88,80.15 19.72,-32.57 -8.93,-41.71 47.67,-80.15l-8.77 -5.77c-4.73,-2.93 -3.7,-1.68 -8.26,-5.15 -11.12,-8.46 -18.55,-23.44 -22.08,-37.31 -0.74,-2.89 -1.7,-8.64 -2.43,-10.74l-7.33 -12.81c-4.24,36.95 -12.79,53.69 -39.22,68.01l-4.31 2.48c-0.46,0.26 -1.47,0.8 -2.13,1.3z"/>
  </g>
  <g id="_2544121489744">
   <path class="fil6" d="M-8419.37 4685.83c-6.72,-34.31 42.14,-42.56 47.22,-12.93 6.19,36.19 -42,39.59 -47.22,12.93zm78.62 -154.44c-13.33,21.23 -10.91,51.07 -20.62,75.89 -10.12,25.88 -51.71,23.61 -42.96,-19.43 13.03,-64.11 13.09,-106.28 91.45,-104.62 30.26,0.63 65.12,5.67 79.27,-18.17 18.54,-31.21 -5.71,-56.12 -23.26,-68.81 -37.93,-27.43 -106.92,-28.09 -133.83,28.56 -15.93,33.53 -53.8,19.7 -44.39,-14.33 20.18,-72.99 134.82,-100.22 200.19,-55.84 36.5,24.78 74.41,72.42 43.98,130.1 -33.48,63.47 -85.26,35.61 -149.82,46.66zm-329.9 364.44c5.22,5.31 -3.44,0.17 8.76,6.25 18.47,9.2 59.57,8.93 79.03,8.46 99.06,-2.41 132.52,-37.27 156,-45.1 15.12,-5.04 217.95,54.51 370.33,-100.09 163.57,-165.96 128.52,-416.19 -44.98,-537.41 -192.26,-134.32 -437.31,-69.61 -545.72,100.45 -74.8,117.35 -74.7,259.87 4.32,380.67 8.93,13.65 37.97,43.97 38.91,56.84 4.18,56.81 -60.58,110.64 -66.64,129.93z"/>
   <path class="fil1" d="M-5986.19 4479.16l0 360c0,103.5 86.67,73.34 86.67,30 0,-15.51 -10.42,-8.53 -10.09,-49.91l0.09 -420.09c13.39,19.27 82.51,221.17 96.67,256.67 19.43,48.71 39.16,113.91 52.74,167.26 10.95,43.05 0.4,108.05 78.71,84.19 13.92,-4.24 14.76,-4.24 19.23,-17.44 11.43,-33.7 14.85,-98.58 18.83,-134.5 1.32,-11.92 -0.31,-24.04 0.66,-36 12.11,-148.93 13.16,-299.61 13.16,-450.17 0,-7.82 -6.99,-24.4 -10.78,-29.22 -5.61,-7.14 -14.83,-11.62 -26.33,-12.17 -26.8,-1.3 -36.53,13.57 -36.36,44.59 0.31,54.51 -0,109.04 0.22,163.55l-3.3 116.7c-0.03,19.28 -3.05,22.72 -3.56,39.78 -0.39,13.04 0.83,27.19 0.13,40.12l-6.68 116.65 -7.19 -16.14c-1.47,-4.72 -3.11,-11.81 -4.98,-18.35 -29.67,-103.44 -113.78,-425.28 -173.53,-479.81 -27.41,-25.01 -38.28,-14.54 -52.81,-0.89 -23.14,21.75 -28.39,57.63 -28.19,91.81 0.31,52.89 -3.29,98.1 -3.29,153.38z"/>
   <path class="fil1" d="M-6172.86 4862.49c-11.83,0 -29.37,-35.09 -33.91,-46.09 -14.5,-35.2 -20.2,-96 -25.2,-134.8l-4.24 -175.79c0.8,-14.83 3.27,-15.99 3.48,-33.19 0.52,-42.15 -9.18,-157.65 23.51,-179.87 14.48,-9.84 39.64,-5.3 53.09,3 32.32,19.95 40.17,61.97 40.01,99.99 -0.27,64.05 9.02,129.88 9.79,193.54 0.2,16.35 2.75,17.95 3.4,30.15l-16.52 156.46c-6.88,28.7 -21.11,86.59 -53.41,86.59zm3.33 66.67c162.59,0 140,-305.69 140,-413.33 0,-133.5 -34.48,-275.89 -152.89,-300.44 -72.68,-15.07 -88.06,8.46 -106.7,64.19 -7.98,23.86 -13.72,48.77 -16.81,76.52 -2.93,26.33 -7.13,54.98 -6.97,83.02l0.04 173.38c0,31.43 0.49,59.67 4.24,89.09 3.19,24.96 6.27,55.27 11.72,78.28 16.14,68.1 46.27,149.3 127.37,149.3z"/>
   <path class="fil1" d="M-4942.86 4382.49l2.97 -60.37c1.26,-19.37 -2.69,-34.08 18.94,-22.12 59.87,33.09 78.8,161.63 78.11,225.81 -0.35,32.85 7.12,60.8 1.91,95.28 -6.55,43.28 0.26,107.66 -31.88,171.45 -16.54,32.83 -21.78,33.23 -53.38,49.95l-16.67 -460zm-76.67 276.67l0 150c0,124.23 28.7,106.67 110,106.67 5.56,0 31.26,-16.67 36.24,-20.43 12.76,-9.66 21.46,-15.49 32.98,-27.01 89.39,-89.39 74.11,-247.66 74.11,-382.56 0,-63.01 -34.58,-137.42 -62.35,-174.32 -8.3,-11.02 -17.47,-23.66 -26.7,-33.3 -59.33,-61.91 -189.44,-89.74 -172.9,16.19 2.33,14.93 4.56,44.8 5.22,58.16 1.16,23.46 2.71,35.54 3.31,60.02 0.87,35.78 7.2,84.75 2.93,122.76 -4.09,36.44 -2.85,82.14 -2.85,123.82z"/>
   <path class="fil1" d="M-3446.19 4415.83l0 -70c0,-22.17 3.33,-28.85 3.33,-50 41.19,0.92 67.4,61.14 76.71,96.63 24.83,94.67 29.76,269.07 2.17,365.59 -11.53,40.33 -28.38,75.02 -68.88,84.45l-7.57 -265.76c-2.28,-16.59 -2.44,-32.93 -2.35,-54.32 0.09,-22.1 -3.5,-28.74 -3.52,-49.81 -0.03,-18.91 0.11,-37.86 0.11,-56.78zm-86.67 -146.67c0,56.3 10.22,104.23 10.01,159.99 -0.24,64.45 -2.68,388.18 3.09,430.25 9.49,69.25 23.43,56.43 100.24,56.43 35.12,0 89.4,-60.73 107.36,-89.3 8.37,-13.3 14.89,-29.52 20.63,-46.04 11.7,-33.67 18.92,-70.61 18.7,-114.63 -0.22,-43.27 -1.43,-92.65 2.82,-130.51 13.61,-121.15 -68.22,-312.85 -219.51,-312.85 -6.15,0 -24.92,10.36 -29.24,14.09 -7.31,6.32 -14.09,20.17 -14.09,32.57z"/>
   <path class="fil1" d="M-3709.53 4842.49c-64.12,0 -48.96,-71.21 -53.52,-129.81 -6.1,-78.46 -9.81,-75.59 -9.81,-170.19 0,-49.8 2.69,-224.63 -3.75,-266.25 -8.85,-57.28 -54.5,-64.88 -69.85,-27.33 -7.23,17.67 -1.31,30.26 0.09,47.09 2.88,34.54 -0.6,71.39 3.02,103.65 11.97,106.61 -14.49,298.15 15.75,417.58 34.52,136.3 167.85,159.02 216.74,-9.4 24.04,-82.8 20.22,-125.05 30.42,-199.58 2.49,-18.2 0.25,-37.36 0.8,-55.86 0.56,-18.61 3.54,-30.1 3.45,-53.22 -0.15,-39.94 0.88,-131.91 5.75,-167.59 3.48,-25.54 7.89,-81.62 -1.8,-103.05 -9.01,-19.94 -21.81,-22.71 -43.96,-22.71 -31.72,0 -30.09,28.06 -30,60 0.09,34.72 1.95,152.49 -1.93,178.08 -4.47,29.52 0.25,61.59 -1.39,91.94 -2.7,50.07 -15.46,306.65 -60.02,306.65z"/>
   <path class="fil1" d="M-3082.86 4425.83l3.33 0c0,19.89 5.38,45.79 6.67,66.67 2.78,45.15 10.13,83.39 10,136.67 -0.07,29.52 3.33,46.14 3.33,73.33 -13.34,0 -27.22,-3.15 -41.62,-5.04 -20.05,-2.65 -24.49,0.19 -21.14,-23.8 3.65,-26.15 8.53,-56.13 13.22,-84.03 4.77,-28.34 26.2,-143.96 26.2,-163.8zm-156.67 456.67c0,21.93 72.41,78.58 90.53,-32.81l16.14 -100.52c28.71,0 52.2,10 83.33,10l11.93 98.07c3.17,22.53 -6.22,61.93 51.41,61.93 10.89,0 17.28,-4.34 22.65,-10.68 21.07,-24.87 4.41,-71.9 -2.96,-109.01 -5.43,-27.31 -8.18,-57.44 -13.96,-86.04 -5.06,-25.04 -3.01,-60.7 -6.22,-90.44l-31.44 -265.23c-4.59,-32.46 -3.11,-60.19 -4.67,-95.32 -2.37,-53.35 -37.92,-49.94 -80.07,-49.94 -28.57,0 -31.67,129.86 -36.47,163.53 -8.62,60.48 -17.2,116.3 -28.26,175.07 -11.12,59.09 -20.67,109.2 -33.32,166.67 -5.8,26.34 -38.61,151.04 -38.61,164.73z"/>
   <path class="fil1" d="M-4239.53 4422.49l15.75 137.58c3.47,26.04 1.68,130.11 7.58,142.42l-60.98 -8.69c-6.22,-3.69 -4.43,-2.52 -2.7,-17.66l40.34 -253.65zm-156.67 456.67c0,28.33 71.07,80.26 89.57,-30.43 5.78,-34.57 9.66,-67.67 17.09,-99.57 18.45,0 50.58,6.4 67.53,9.14 18.04,2.91 15.94,-2.19 22.48,57.52 6.02,54.91 -6.35,103.35 56.65,103.35 52.94,0 21.96,-101.81 17.1,-130.43 -14.65,-86.23 -13.57,-88.35 -20.18,-173.16 -6.27,-80.44 -26.69,-196.63 -30.16,-259.85l-6.72 -89.94c-2.18,-50.89 -13.45,-53.3 -76.7,-53.3 -31.36,0 -30.98,127.09 -37.15,162.85 -27.08,157.15 -40.67,260.91 -80.15,419.84 -4.27,17.19 -19.36,66.76 -19.36,83.97z"/>
   <path class="fil1" d="M-7686.19 4205.83c56.47,29.88 64.91,69.05 64.36,126.18 -0.47,48.77 -23.41,117.81 -54.36,140.48 0,-91.35 -10,-173.18 -10,-266.67zm-26.67 710c34.81,0 46.9,-20.75 46.79,-56.54 -0.1,-33.23 1.24,-73.4 -2.55,-101.04 -3.63,-26.48 -0.95,-73.8 -0.83,-102.5 0.09,-22.1 -3.5,-28.74 -3.52,-49.81 -0.03,-17.8 0.11,-35.64 0.11,-53.45 31.34,-8.37 72.27,-58.14 89.33,-87.33 86.56,-148.18 7.61,-346 -119.33,-346 -23.15,0 -38.17,-1.98 -56.5,20.25 -13.59,16.48 2.19,50.1 6.2,93.38 4.91,52.89 10.57,103.54 10.28,159.72 -0.12,23.38 3.24,33.28 3.49,53.18l-5.89 391.05c-4.65,33.38 3.91,79.09 32.43,79.09z"/>
   <path class="fil1" d="M-7502.86 4399.16c0,23.33 -0.03,46.67 0,70 0.04,28.22 -3.52,45 -3.41,69.92 0.1,24.47 0.05,48.94 0.08,73.41 0.07,58.45 -5.94,30.48 -0.18,100.17 2.62,31.59 1.51,164.98 5.33,178 12.87,43.83 77.92,31.82 134.85,31.82 66.95,0 60.83,-73.33 13.33,-73.33l-76.67 0c0,-43.66 -1.92,-142.54 2.43,-174.24l0.93 -89.11c-0.78,-14.87 -3.03,-12.16 -3.35,-26.65 31.64,0 86.67,7.48 86.67,-40 0,-40.96 -63.46,-36.67 -86.67,-36.67l3.33 -176.67c17,1.41 54.47,15.4 63.36,15.13 25.29,-0.76 80.67,-55.41 -8.77,-83.06 -164.91,-50.98 -131.26,38.81 -131.26,161.26z"/>
   <path class="fil1" d="M-3986.19 4422.49c-0.45,-0.7 -0.93,-2.72 -1.07,-2.26 -2.14,6.69 -1.7,-3.79 -2.02,-4.65 -13.18,-35.07 -51.07,-213.48 -102.73,-175.84 -34.98,25.49 -25.98,24.15 9.6,132.3l58.13 151.87c10.07,25.03 11.8,24.17 11.41,58.6 -0.53,46.12 10.02,84.85 10.02,133.31l-4.13 145.87c-0.53,3.84 -4.98,21.72 -5.27,25.13 -1.32,15.62 11.91,29.92 24.19,34.5 15.41,5.75 31.29,1.76 41.15,-9.56 26.88,-30.86 17.4,-165.33 17.4,-225.94 0,-81.44 -5.48,-158.35 12.65,-230.68 11.76,-46.89 84.57,-235.98 14.01,-235.98 -21.32,0 -32.66,16.11 -39.87,30.13 -7.01,13.63 -15.37,38.77 -19.47,53.87 -5.25,19.32 -9.51,38.43 -13.16,56.84 -3.74,18.81 -10.83,43.58 -10.83,62.5z"/>
   <path class="fil1" d="M-5576.19 4685.83c0,49.98 3.45,88.13 3.26,136.74l3.62 66.38c6.19,46.44 83.34,33.54 139.79,33.54 7.74,0 24.37,-7.11 29.49,-10.51 22.61,-15.02 21.69,-62.82 -26.15,-62.82l-73.33 0 3.33 -290c33.32,0 83.33,7.16 83.33,-40 0,-12.13 -6.6,-20.3 -14.16,-25.84 -20,-14.7 -45.79,-10.83 -72.51,-10.83l3.33 -176.67c11.98,0.27 21.93,3.65 30.72,5.94 9.41,2.45 23.77,8.52 30.6,9.43 14.68,1.96 42.01,-21 42.01,-32.04 0,-24.54 0.31,-37.48 -51.36,-51.97 -95.84,-26.89 -139.3,-26.85 -128.81,102.15 5.29,65.09 -3.16,256.47 -3.16,346.49z"/>
   <path class="fil1" d="M-4719.53 4682.49l6.88 206.46c6.19,46.44 83.34,33.54 139.79,33.54 52.55,0 62.71,-73.33 3.33,-73.33l-73.33 0 3.33 -290c33.33,0 83.33,7.16 83.33,-40 0,-12.13 -6.61,-20.3 -14.16,-25.84 -20,-14.7 -45.8,-10.83 -72.51,-10.83l3.33 -176.67c22.46,0.5 50.83,13.96 61.32,15.37 14.68,1.96 42.01,-21 42.01,-32.04 0,-24.54 0.31,-37.48 -51.37,-51.97 -48.85,-13.7 -105.87,-32.42 -124.99,22.29 -11.35,32.49 -5.35,46.44 -3.63,79.67 5.62,109.19 -3.35,227.11 -3.35,343.34z"/>
   <path class="fil1" d="M-7066.19 4255.83c0,44.7 42,36.67 76.67,36.67 0,51.02 7.51,91.07 1.41,131.41 -6.66,43.99 3.22,93.39 -3.33,136.67 -5.02,33.17 5.26,215.54 5.26,268.59 -24.39,0 -46.67,5.78 -46.67,40 0,27.56 28.64,33.33 56.67,33.33 48.92,0 113.79,8.28 134.44,-12.23 25.74,-25.56 22.83,-60.85 -32.91,-66l-34.86 1.56c0,-48.69 -3.35,-87.32 -3.33,-133.33 0.01,-23.36 -0.02,-46.72 0.08,-70.07 0.1,-25.1 -4.41,-39.1 -3.52,-66.7l6.78 -199.9c0.06,-27.4 -3.33,-41.91 -3.33,-66.66 22.69,0 80,5.1 80,-33.33 0,-18.44 -19.22,-33.33 -36.67,-33.33l-150 0c-21.74,0 -46.67,11.82 -46.67,33.33z"/>
   <path class="fil1" d="M-6572.86 4255.83c0,44.7 42,36.67 76.67,36.67 0,42.12 7.96,91.98 2.42,132.43 -5.43,39.58 2.3,95.61 -3.33,136.67 -5.24,38.22 4.24,210.71 4.24,267.58 -24.39,0 -46.67,5.78 -46.67,40 0,24.78 24.68,33.33 50,33.33l110 0c44.89,0 77.5,-70.9 -1.81,-78.23l-34.86 1.56 -3.31 -203.35c0.14,-26.69 -4.89,-41.33 -3.39,-66.64l5.3 -131.41c5.85,-38.68 -1.93,-101.47 -1.93,-135.26 22.69,0 80,5.1 80,-33.33 0,-20.85 -18.48,-33.33 -40,-33.33l-146.67 0c-21.74,0 -46.67,11.82 -46.67,33.33z"/>
   <path class="fil1" d="M-6809.53 4519.16c0,117.43 -17.6,341.95 84.35,388.98 98.02,45.22 170.35,-8.87 138.28,-51.53 -21.81,-29.01 -49.89,-7.46 -55.96,-7.46 -31,0 -53.09,-14.82 -64.56,-35.44 -11.33,-20.38 -19.04,-53.41 -18.74,-84.59 0.17,-18.43 -3.75,-28.96 -1.57,-44.57 4.33,-31.09 -0.87,-105.73 4.39,-152.54 6.01,-53.55 -3.65,-160.56 33.02,-220.32 22.24,-36.24 51.54,-9.47 81.98,-21.35 36.73,-14.33 40.65,-101.02 -74.98,-64.99 -76.21,23.74 -104.06,86.73 -116.73,163.27 -6.26,37.8 -9.46,85.8 -9.46,130.54z"/>
   <path class="fil1" d="M-8670.65 4895.83c6.06,-19.28 70.82,-73.11 66.64,-129.93 -0.94,-12.87 -29.98,-43.19 -38.91,-56.84 -79.02,-120.8 -79.13,-263.32 -4.32,-380.67 108.41,-170.07 353.47,-234.77 545.72,-100.45 173.51,121.22 208.55,371.44 44.98,537.41 -152.37,154.6 -355.2,95.04 -370.33,100.09 -23.48,7.83 -56.94,42.7 -156,45.1 -19.46,0.47 -60.56,0.74 -79.03,-8.46 -12.2,-6.08 -3.54,-0.94 -8.76,-6.25zm-62.21 -386.67c0,20.11 2.59,46.8 7.02,62.98 7.98,29.21 0.47,15.39 15.08,58.25 14.66,42.99 36.87,83.05 64.08,115.92 12.93,15.63 29.42,21.06 2.76,78.44 -24.61,52.98 -55.61,55.12 -55.61,91.06 63.58,14.81 28.17,13.33 106.67,13.33 40.12,0 105.52,-16.54 131.94,-31.39 34.08,-19.16 18.82,-16.26 58.44,-9 85.77,15.7 163.69,4.89 240.14,-25.75l63 -33.66c37.07,-22.21 76.99,-59.63 102.7,-93.97 30,-40.06 50.98,-84.7 63.18,-133.49 20.51,-82.02 10.83,-179.12 -24.96,-250.52 -10.91,-21.76 -21.45,-42.56 -35.85,-60.82 -7.32,-9.28 -13.33,-17.42 -21.1,-25.57 -9.69,-10.17 -13.23,-17.21 -23.22,-26.78 -27.78,-26.62 -80.71,-60.69 -114.28,-75.72 -128.39,-57.46 -298.09,-47.75 -411.93,34.73l-54.01 42.66 -42.07 51.26c-42.81,64.83 -71.99,129.5 -71.99,218.01z"/>
   <path class="fil1" d="M-5362.86 4345.83c0,102.81 16.64,127.98 64.48,215.52 10.07,18.43 18.56,32.5 27.76,52.24 50.57,108.48 13.66,238.91 -25.57,238.91 -38.38,0 -49.32,-23.06 -65.86,14.27 -6.78,15.3 5.46,37.46 19.13,45.8 48.27,29.41 112.96,-13.73 133.28,-46.85 43.75,-71.29 46.29,-163.61 19.74,-242.85 -10.11,-30.19 -23.18,-50.52 -36.28,-77.06 -31.36,-63.58 -91.87,-139.33 -56.81,-233.43 13.33,-35.79 18.89,-23.21 50.12,-23.21 45.11,0 43.7,-80 -33.33,-80 -55.83,0 -96.67,78.54 -96.67,136.67z"/>
   <path class="fil1" d="M-7309.53 4252.49c0,32.95 54.27,40 86.67,40 0,11.7 -0.64,25.22 -0.02,36.69 1.72,31.93 7.05,77.91 6.66,113.34 -0.41,37.43 6.59,87.51 6.82,109.85 0.14,14.11 -0.8,24.99 1.28,38.72l15.26 298.07c23.19,15.52 21.92,22.8 44.59,14.87 32.22,-11.26 28.74,-37.48 28.74,-64.87 0,-25.88 -0.47,-45.97 -2.85,-67.15l-3.91 -69.43c-0.29,-45.37 -8.05,-89.5 -9.93,-133.4l-13.33 -166.67c-0.63,-11.77 0.3,-24.9 0.15,-36.82 -0.25,-20.33 -3.46,-30.06 -3.46,-69.87 16.4,3.82 37.65,8.67 53.02,3.18 44.33,-15.85 39.3,-70.15 -12.84,-70.02 -43.88,0.11 -133.46,-10.05 -150.08,-9.75 -20.17,0.37 -46.77,14.09 -46.77,33.26z"/>
   <path class="fil1" d="M-8340.75 4531.39c64.56,-11.04 116.34,16.81 149.82,-46.66 30.43,-57.69 -7.48,-105.32 -43.98,-130.1 -65.36,-44.37 -180.01,-17.15 -200.19,55.84 -9.41,34.03 28.47,47.86 44.39,14.33 26.91,-56.65 95.89,-55.99 133.83,-28.56 17.56,12.7 41.8,37.6 23.26,68.81 -14.15,23.84 -49.02,18.8 -79.27,18.17 -78.36,-1.65 -78.43,40.51 -91.45,104.62 -8.74,43.04 32.85,45.3 42.96,19.43 9.7,-24.82 7.29,-54.66 20.62,-75.89z"/>
   <path class="fil1" d="M-8419.37 4685.83c5.22,26.66 53.41,23.26 47.22,-12.93 -5.07,-29.63 -53.93,-21.38 -47.22,12.93z"/>
  </g>
  <g id="_2543982276496">
   <path class="fil7" d="M922.39 -1013.91c22.77,19.21 36.48,21.01 64.81,1.57 15.51,-10.65 45.39,-28.04 51.27,-44.92 41.79,-119.97 -51.39,-92.8 -72.73,-93.14 15.39,-20.21 97.85,-10.31 66.99,-70.22 -26.95,-52.32 -83.31,-28 -110.22,-30.39 9.09,-20.48 40.53,-10.72 54.41,-21.34 19.61,-24.01 -13.21,-59.94 -25.96,-69.77 -27.56,-21.24 -67.76,-1.57 -100.71,-9.32 -7.65,-34.84 36.74,-60.98 60.51,-73.81 30.95,-16.72 60.08,-31.97 86.37,-50.29 26.21,-18.26 57.34,-38.15 72.85,-63.9 22.07,-36.67 -8.59,-80.54 -46.03,-72.96 -21.19,4.29 -72.09,29.97 -97.86,38.96 -55.03,19.2 -117.26,27.76 -145.22,61.55 -32.18,38.87 -115.03,106.78 -140.52,136.13 -10.42,11.99 -55.06,111.3 -71.02,139.04 -14.17,24.62 -10.54,23.74 -10.46,56.39 0.16,63.03 -2.74,154.34 -0.19,210.26 1.44,31.46 43.13,53.17 74.21,62.72 43.85,13.48 76.19,13.65 116.92,-2.14 33.22,-12.88 65.17,-24.33 97.43,-39.23 47.62,-22 53.7,-45.68 75.17,-65.19z"/>
   <path class="fil1" d="M1702.39 -1380.33c-17.88,-76.74 -78.2,-453.33 -136.67,-453.33 -7.65,0 -43.33,10.47 -43.33,33.33l3.33 473.33c0,41.91 -8.4,201.38 -2.01,232 6.59,31.6 24.73,41.33 52.01,41.33 28.42,0 29.38,-71.61 26.49,-106.49 -3.33,-40.27 -3.19,-85.01 -3.16,-130.17 0.04,-77.06 -6.67,-182.82 -6.67,-260l2.43 4.23c15.7,32.61 43.46,180.89 48.19,218.48 5.98,47.5 2.98,118.73 19.34,147.32 18.43,32.22 53.39,25.13 66.73,3.32 15.7,-25.67 16.51,-51.19 21.83,-88.17 1.81,-12.57 31.18,-159.22 37.9,-175.43 1.98,-4.77 1.79,-3.85 3.58,-6.42 0,64.65 -3.84,335.31 3.6,393.07 0.8,6.17 3.93,14.34 7.72,18.95 16.63,20.24 45.37,14.39 62.83,-14.54 23.63,-39.15 9.59,-110.85 9.06,-154.01 -0.43,-34.79 3.72,-79.08 -1.27,-112.06l-15.28 -444.72c-2.23,-41.35 13.41,-90.02 -39.98,-90.02 -20.36,0 -36.01,17.99 -39.17,34.17 -4.05,20.78 -3.87,47.92 -6.48,66.85 -13.07,94.79 -21.24,155.59 -43.05,250.28 -4.96,21.54 -8.93,38.02 -13.25,60.09 -2.45,12.54 -3.83,18.3 -6.72,29.94l-7 26.33c-0.19,0.53 -0.55,1.61 -1,2.33z"/>
   <path class="fil1" d="M2552.39 -1537c0,-60.08 -3.82,-147.28 59.8,-133.38 27.85,6.08 45.5,30.18 52.99,57.25l17.2 276.13c0,54 -7.3,187.64 -45.65,227.68 -12.69,13.25 -9.16,8.37 -24.35,15.65 -15.8,-23.6 -13.77,-8.49 -34.54,-55.46 -8.59,-19.42 -12.64,-49.46 -16.06,-73.94 -6.79,-48.61 -15.72,-148.98 -12.76,-203.94l5.39 -74.83c1.68,-13.77 -2.04,-19.77 -2.04,-35.15zm-80 73.33c0,122.65 -5.59,293.59 61.92,391.41 37.14,53.81 109.74,53.54 155.63,12.81 18.79,-16.69 31.24,-42.89 41.54,-68.46 28.09,-69.8 27.16,-168.12 27.62,-249.13l-10.94 -179.06c-11.46,-65.78 -35.71,-125.65 -89.03,-164.3 -26.09,-18.91 -51.98,-24.78 -95.22,-27.94 -90.11,-6.58 -91.52,224.71 -91.52,284.68z"/>
   <path class="fil1" d="M4485.72 -1097c-28.18,0 -48.22,-98.4 -52,-124.67 -19.26,-133.75 -7.84,-209.2 -8,-338.67 -0.04,-31.06 1.01,-56.56 8.65,-81.35 15.58,-50.61 75.61,-35.57 98.1,14.62 16.07,35.87 6.24,105.45 14.67,162 4.17,28.01 3.74,55.44 5.25,84.76l0 79.98c-2.48,48.13 -10.33,203.34 -66.65,203.34zm-140 -403.33c0,103.75 -3.15,163.44 7.21,266.12 3.66,36.28 10.33,61.22 20.71,92.63 18.7,56.64 45.24,111.25 115.41,111.25 51.99,0 83.85,-36.02 102.69,-70.65 45.22,-83.16 37.31,-208.36 37.31,-306.02 0,-88.17 -3.99,-220.66 -65.76,-284.24 -35.18,-36.21 -54.79,-50.96 -120.48,-56.46 -53.14,-4.44 -66.89,39.38 -79.12,88.68 -11.88,47.87 -17.98,100.81 -17.98,158.69z"/>
   <path class="fil1" d="M2995.72 -1550.33l3.33 -113.33c78.52,1.75 96.67,184.12 96.67,250 0,79.47 9.48,274.27 -86.67,296.67 0,-72.75 1.13,-152.09 -6.18,-217.15l-7.27 -159.4c-0.03,-18.91 0.11,-37.86 0.11,-56.78zm-86.67 -143.33l10.51 176.2 -0.51 373.8c0,119.64 29.68,100 103.33,100 13.48,0 33.28,-14.19 42.74,-20.59l36.53 -30.14c47.45,-50.68 67.67,-128.4 67.4,-199.26 -0.5,-136.36 22.37,-232.08 -51.3,-342.05 -34.13,-50.95 -82.44,-101.29 -165.38,-101.29 -14.98,0 -43.33,21.75 -43.33,43.33z"/>
   <path class="fil1" d="M2055.72 -1117c-65.96,0 -46.11,-68.32 -54.24,-129.09 -3.18,-23.75 -4.97,-58.09 -8.18,-81.82 -1.93,-14.24 0.07,-28.17 -1.08,-42.25 -6.5,-79.23 0.67,-283.14 -3.49,-313.18 -9.57,-69.06 -85.48,-73.7 -71.08,21.07l4.74 318.59c0,62.71 0.62,153.26 14.66,202.01 8.33,28.91 22.5,59.67 40.68,79.31 17.08,18.47 40.76,28.67 68,28.67 123.47,0 139.75,-276.52 139.89,-376.78 0.03,-21.4 3.58,-29.85 3.5,-53.18 -0.14,-39.97 -4.92,-66.95 0.86,-109.13 4.23,-30.88 2,-73.03 7.19,-106.19 7.27,-46.56 -6.52,-74.72 -48.09,-74.72 -31.72,0 -30.09,28.06 -30.01,60 0.08,30 0,60 0.01,90 0,14.21 0.53,29.37 0.11,43.44 -0.52,17.37 -3.6,22.72 -3.52,43.15 0.11,26.18 2.49,68.23 -0.83,92.5 -1.75,12.77 -2.56,23.19 -2.39,40.94 0.39,40.97 -16.81,266.63 -56.7,266.63z"/>
   <path class="fil1" d="M3929.06 -1117c-67.72,0 -46.35,-67.3 -55.25,-128.08 -19.88,-135.73 -5.97,-400.02 -12.17,-437.83 -9.56,-58.23 -76.09,-88.61 -72.69,22.69l9.19 420.81c5.09,37.96 2.07,63.94 11.98,98.02 19.17,65.97 45.69,107.73 118.94,107.73 27.96,0 52.58,-26.71 66.7,-46.63 40.4,-57 49.71,-156.25 57.2,-226.13l7.53 -186.32c-1.59,-35.65 0.67,-67.93 4.75,-104.73l3.63 -53.03c4.65,-59.23 7.33,-103.15 -46.48,-103.15 -51.52,0 -20.79,71.9 -30.91,145.76l-5.64 221.02c-0.02,20.05 -3.35,24.16 -3.5,43.17 -0.32,39.44 -16.65,226.72 -53.28,226.72z"/>
   <path class="fil1" d="M5309.06 -1527l6.67 0c0,54.19 16.67,163.97 16.67,246.67l0 23.33c-18.89,0 -47.17,-6.23 -63.33,-10l29.98 -193.35c3.51,-21.23 10.02,-43.02 10.02,-66.65zm-110 483.33c45.12,0 46.35,-81.13 52.33,-117.67 2.86,-17.46 7.67,-31.86 7.67,-48.99 29.5,0 53.07,10 83.33,10 2.53,30.42 12.69,66.15 13.39,99.94 0.65,31.2 1.31,60.06 53.27,60.06 51.54,0 21.7,-100.27 17.48,-120.82 -11.35,-55.28 -19.02,-121.39 -20.82,-179.18l-30.98 -265.69c-15.22,-115.79 21.42,-140.99 -82.35,-140.99 -32.85,0 -33.29,133.05 -40.98,179.02l-31.49 191.85c-12.04,62.37 -24.4,123.33 -39.53,183.8 -7.81,31.2 -14.46,57.5 -21.62,88.43 -3.96,17.12 -10.09,25.77 1.48,42.32 6.98,10 22.63,17.91 38.8,17.91z"/>
   <path class="fil1" d="M2309.06 -1680.33c51.07,11.9 32.34,117.14 23.34,153.34l-20.01 49.99c0,-71.07 -3.33,-131.44 -3.33,-203.33zm-73.33 -6.67l3.22 173.45c0.02,18.31 2.65,21.44 3.46,36.54 0.75,13.89 -0.32,29.4 -0.15,43.48 0.23,18.52 3.37,21.22 3.6,39.73 0.91,74.07 6.53,129.85 6.53,206.8 0,16.46 -2.45,113.8 1.7,124.96 10.26,27.56 29.07,21.7 48.3,21.7 13.39,0 23.33,-33.33 23.33,-33.33 0,-20.24 -7.45,-43.04 -9.74,-63.59 -11.44,-102.78 -6.93,-109.43 -6.93,-213.07l3.33 0c0,16.85 16.48,83.83 20.85,105.81 8.01,40.27 37.44,225.89 99.33,211.26 53.08,-12.56 10.28,-78.15 -4.03,-116.56 -9.45,-25.37 -18.61,-56.8 -25.5,-84.5 -7.56,-30.41 -12.82,-58.49 -19.27,-90.73 -22.85,-114.22 -27.53,-77.19 11.96,-155.26 26.74,-52.87 19.99,-84.4 19.99,-150.01 0,-23.98 -10.69,-50.93 -22.44,-64.22 -46.03,-52.04 -157.56,-78.92 -157.56,7.56z"/>
   <path class="fil1" d="M4779.06 -1600.33c0,25.28 -4.95,46.57 -9.99,66.68 -2.58,10.3 -4.28,18.09 -7.84,28.82 -1.97,5.93 -3.51,10.19 -5.39,14.61l-6.78 13.22 -3.33 -76.67c0,-27.8 0.19,-55.66 0.11,-83.45 -0.03,-10.63 -3.78,-32.6 -2.69,-36.19 4.61,-15.34 35.91,-5.31 35.91,72.98zm-106.67 -96.67l0 76.67c0,168.05 16.67,325.2 16.67,493.33 0,21.24 -4.87,36.54 -3.51,53.28 3.16,38.87 37.78,33.39 53.51,33.39 10.83,0 14.48,-15.29 18.38,-25.19 6.47,-16.41 3.8,-16.89 -0.31,-36.18 -5.06,-23.74 -9.33,-54.69 -11.23,-78.82 -4.45,-56.54 -3.51,-115.88 -3.51,-176.49 0.44,0.7 0.97,1.03 1.11,2.22 0.15,1.2 0.87,1.74 1.07,2.26 4.58,12.12 -2.05,-7.69 1.83,4.84 18.32,59.16 44.21,314.19 113.09,315.52 28.5,0.55 32.9,-23.72 32.9,-44.84l-41.2 -108.8c-23.96,-81.11 -30.83,-138.54 -47.52,-216.02 -4.35,-20.2 -5.7,-15.8 1.59,-28.71 53.89,-95.43 43.8,-97.85 43.8,-206.48 0,-48.93 -35.03,-79.51 -70.41,-92.92 -16.39,-6.21 -48.81,-14.36 -68,-11.8 -23.79,3.17 -38.26,19.19 -38.26,44.72z"/>
   <path class="fil7" d="M892.31 -1727.64c39.59,-18.44 91.34,-34.98 133.73,-52.31 37.52,-15.34 37.98,-9.41 30.67,30.84 -3.67,20.2 -8.74,59.46 -15.52,74.22 -14.51,2.93 -137.82,-5.31 -143.76,-10.11 -9.88,-8.41 -6.79,-28.04 -5.13,-42.64zm153.12 -88.82c-20.1,10.98 -45.2,21.2 -67.13,32.01 -78.68,38.79 -97.93,62.14 -124.96,26.41 -20.06,-26.51 -0.26,-37.95 15.61,-59.1 14.59,-19.44 28.06,-35.95 43.33,-56.63 7.58,-10.26 32.66,-50.81 46.21,-49.46 6.71,0.67 85.71,86.5 86.93,106.76zm-258.12 4.98c-2.56,-20.39 17.88,-107.78 22.92,-134.56 6.5,-34.58 15.04,-24.22 47.46,-15.91 19.81,5.08 45.75,10.33 61.9,17.35 1.09,20.52 -39.76,81.69 -52.15,102.67 -27.25,46.17 -26.75,65.2 -80.14,30.45zm97.67 -187.29c-107.46,14.02 -211.63,123.3 -170.94,253.5 16.04,51.33 24.94,25.44 2.2,72.24 -48.83,100.53 16.3,85.14 85.06,58.24 31.93,-12.49 18.2,5.04 85.23,14.12 126.93,17.19 232.31,-82.98 231.96,-199.73 -0.36,-118.68 -106.85,-214.9 -233.5,-198.37z"/>
   <path class="fil1" d="M972.05 -1350.28c0.19,-15.5 8.96,-19.65 18.43,-28.57 40.81,-38.44 54.02,-79.09 69.32,-55.82 19.54,29.72 -50.45,93.74 -87.74,84.39zm-49.66 336.37c-21.47,19.5 -27.55,43.19 -75.17,65.19 -32.25,14.9 -64.2,26.35 -97.43,39.23 -40.73,15.79 -73.06,15.62 -116.92,2.14 -31.08,-9.55 -72.77,-31.26 -74.21,-62.72 -2.56,-55.92 0.34,-147.23 0.19,-210.26 -0.08,-32.65 -3.7,-31.77 10.46,-56.39 15.97,-27.74 60.61,-127.05 71.02,-139.04 25.49,-29.35 108.34,-97.25 140.52,-136.13 27.97,-33.79 90.19,-42.35 145.22,-61.55 25.77,-8.99 76.67,-34.67 97.86,-38.96 37.43,-7.59 68.1,36.28 46.03,72.96 -15.5,25.75 -46.64,45.64 -72.85,63.9 -26.3,18.32 -55.43,33.57 -86.37,50.29 -23.77,12.83 -68.17,38.98 -60.51,73.81 32.95,7.75 73.15,-11.92 100.71,9.32 12.75,9.83 45.57,45.76 25.96,69.77 -13.87,10.61 -45.31,0.85 -54.41,21.34 26.91,2.38 83.28,-21.93 110.22,30.39 30.86,59.91 -51.6,50.01 -66.99,70.22 21.34,0.34 114.52,-26.83 72.73,93.14 -5.88,16.88 -35.76,34.28 -51.27,44.92 -28.33,19.44 -42.04,17.65 -64.81,-1.57zm159.78 -634.13c33,-5.22 29.28,-16.83 62.28,15.65 9.6,9.45 13.07,12.12 10.31,30.97 -2.39,16.33 1.57,22.93 -6.3,33.54l-129.44 134.21c-17.88,15.11 -58.78,65.51 -65.12,67.78 -0.7,0.25 -75.53,-0.45 -81.39,-1.63 3.56,-46.38 176.28,-84.99 217.52,-175.11 24.28,-53.04 -27.78,-74.17 -34.21,-84.37 3.81,-14.04 10.04,-18.46 26.36,-21.04zm94.41 -23.35c5.79,17.54 5.25,22.02 -7.52,34.73 -13.16,-4.06 -21.18,-17.06 -29.06,-26.16 10.94,-9.06 19.71,-14.28 36.58,-8.57zm-291.59 -327.37c126.66,-16.52 233.15,79.69 233.5,198.37 0.36,116.75 -105.03,216.92 -231.96,199.73 -67.02,-9.08 -53.3,-26.61 -85.23,-14.12 -68.76,26.9 -133.88,42.29 -85.06,-58.24 22.73,-46.8 13.83,-20.92 -2.2,-72.24 -40.69,-130.2 63.48,-239.48 170.94,-253.5zm-189.26 181.76c0,29.67 0.17,57.1 9.62,83.71 8.7,24.48 13.96,-1.58 -7.54,58.37 -6.43,17.93 -23.21,58.35 -1.2,80.38 29.09,29.13 88.15,6.57 115.83,-2.81 19.65,-6.66 30.61,13.68 69.96,13.68 -0.7,0.44 -1.89,0.09 -2.26,1.07 -1.74,4.67 -0.31,0.39 -4.66,2.01l-58.42 18.25c-30.64,12.19 -29.78,20.47 -48.76,41.23l-91.59 85.08c-42.8,35.78 -54.08,51.87 -77.65,99.02 -8.74,17.48 -56.67,106.15 -56.67,120l0 276.67c0,15.15 34.97,35.4 47.7,42.31 37.59,20.41 69.69,21.03 108.97,21.03 31.26,0 179.27,-52.94 210.05,-93.28 6.88,-9.01 16.65,-14.36 19.95,-26.72 41.52,11.09 18.46,36.13 90.63,-12.7 26.63,-18.03 36.9,-21.45 43.5,-49.84 7.4,-31.86 18.01,-81.98 -27.46,-94.12 21.17,-31.61 23.33,-19.24 23.33,-53.33 0,-13.82 -12.53,-28.46 -21.28,-35.39 -12.51,-9.91 -21.49,-17.49 -42.06,-17.94 0,-25.41 8.28,-16.44 4.59,-37.55 -2.76,-15.74 -8.62,-24.51 -14.59,-35.79 41.61,-9.69 100,-58.63 100,-90 0,-25.96 2.82,-29.02 -13.33,-33.33 2.13,-7.96 32.75,-41.23 40.81,-49.19 10.6,-10.48 60.69,-56.02 65.13,-71.54 8.5,-29.75 -1.56,-58.91 16.41,-76.92 34.42,-34.5 13.29,-66.12 -22.28,-45.61 -6.15,3.55 -12.71,11.33 -19.47,14.07 -17.47,7.09 -7.22,-2.78 -25.61,0.8 -13.58,2.65 -2.63,5.05 -31.65,5.05 21.35,-40.35 36.67,-75.85 36.67,-126.67 0,-87.41 -57.05,-169.37 -127.72,-202.28 -58.57,-27.28 -120.76,-27.37 -179.1,-1.2 -8.04,3.61 -9.86,3.78 -17.92,8.75 -6.73,4.15 -9.53,6.41 -15.98,10.69 -52.92,35.11 -95.95,106.31 -95.95,174.05z"/>
   <path class="fil1" d="M3219.06 -1667c0,51.77 5.03,69.06 3.3,119.81l-3.24 293.37c0.5,14.04 -0.09,29.39 -0.14,43.56 -0.08,19.35 2.59,24.43 3.43,39.91 2,37.01 -16.31,133.35 43.32,133.35 57.94,0 143.33,13.23 143.33,-40 0,-44 -67.32,-33.33 -113.33,-33.33 0,-41.85 6.97,-275.47 0,-290 18.33,0 41.53,3.06 58.18,-1.82 40.98,-12.03 40.7,-74.85 -21.51,-74.85l-36.67 0c0,-62.13 3.33,-113.56 3.33,-176.67 19.1,1.59 53.93,15.31 63.32,15.1 26.6,-0.6 80.41,-55.3 -8.73,-83.02 -57.71,-17.94 -134.59,-34.46 -134.59,54.59z"/>
   <path class="fil1" d="M4899.06 -1703.67c0,44.7 42,36.67 76.67,36.67 0,43.42 7.62,90.3 2.85,132.85 -4.63,41.27 1.41,94.4 -3.33,136.67 -5.25,46.78 3.82,205.02 3.82,267.15 -19.57,0 -33.78,1.43 -43.57,23.2 -15.63,34.74 11.24,44.05 38.83,48.21 23.22,3.5 20.78,8.59 48.08,8.59 17.04,0 20.57,-5.74 34.76,-8.8 17.59,-3.8 20.7,2.13 38.57,2.13 39.62,0 63.07,-59.78 17.8,-74.47 -6.1,-1.98 -15.74,-3.09 -22.94,-3.76l-34.86 1.56 0.11 -490.11c-0.47,-16.24 -3.12,-15.44 -3.44,-29.89 24.02,0 56.67,3.22 56.67,-30 0,-60.3 -118.53,-53.33 -163.33,-53.33 -21.74,0 -46.67,11.82 -46.67,33.33z"/>
   <path class="fil1" d="M5462.39 -1600.33c0,166.24 120,218.51 120,370 0,29.82 -10.87,74.99 -21.03,95.64 -21.17,43.03 -38.9,21.03 -82.31,21.03 -11.25,16.8 -30.1,34.64 -1,61 5.96,5.4 25.31,15.67 34.33,15.67 132.29,0 166.59,-180.76 124.68,-301.35 -35.78,-102.94 -156.53,-218.07 -78.02,-335.32 17.7,0.39 43.78,11.67 58.65,-8.02 34.61,-45.84 -67.32,-118.59 -128.07,-18.07 -14.79,24.47 -27.24,61.08 -27.24,99.43z"/>
   <path class="fil1" d="M4089.06 -1707c0,35.02 54.52,40 86.67,40 0,15.52 -0.33,31.33 -0.13,46.8l6.98 136.36c1.26,15.24 3.29,23.4 3.1,43.56l7.63 135.7c3.58,26.19 3.68,57.74 5.95,87.38 2.25,29.3 3.15,59.38 3.14,93.53 -0.01,30.78 -7.14,56.33 26.52,69.98 19.4,7.86 50.15,-15.88 50.15,-39.98 0,-197.89 -33.33,-371.96 -33.33,-570 12.28,2.86 34.11,8.57 48.01,4.91 41.93,-11.06 40.38,-56.52 15.03,-67.94 -8.89,-4.01 -20.01,-3.83 -33,-3.67 -16,0.2 -23.45,-0.91 -34.28,-2.38 -13.12,-1.79 -25.65,0.03 -38.6,-1.4 -37.25,-4.12 -113.82,-17.8 -113.82,27.15z"/>
   <path class="fil1" d="M3532.39 -1707c0,32.31 46.42,40 83.33,40 6.04,25.95 0.43,51.26 4.24,79.09l19.13 320.87c-0.07,27.25 5.29,54.84 6.65,80.02 5.06,93.85 -15.61,106.7 20.57,129.72 26.91,17.12 53.12,-13.42 55.82,-36.63 2.46,-21.2 -10.83,-213.8 -13.29,-246.19 -8.07,-106.28 -19.78,-206.87 -19.78,-323.55 10.41,4.99 39.8,7.58 50.63,4.11 34.87,-11.17 51.41,-71.5 -17.19,-70.89 -43.64,0.39 -83.37,-6.66 -106.73,-6.6 -12.81,0.04 -83.37,-14.59 -83.37,30.04z"/>
   <path class="fil1" d="M1045.43 -1816.46c-1.22,-20.26 -80.22,-106.09 -86.93,-106.76 -13.56,-1.36 -38.63,39.19 -46.21,49.46 -15.28,20.69 -28.74,37.19 -43.33,56.63 -15.87,21.15 -35.66,32.59 -15.61,59.1 27.03,35.72 46.28,12.38 124.96,-26.41 21.93,-10.81 47.03,-21.03 67.13,-32.01z"/>
   <path class="fil7" d="M1055.81 -1627c6.44,10.19 58.49,31.33 34.21,84.37 -41.25,90.12 -213.97,128.73 -217.52,175.11 5.86,1.18 80.69,1.88 81.39,1.63 6.34,-2.26 47.24,-52.67 65.12,-67.78l129.44 -134.21c7.87,-10.62 3.91,-17.21 6.3,-33.54 2.76,-18.85 -0.71,-21.52 -10.31,-30.97 -32.99,-32.47 -29.27,-20.86 -62.28,-15.65 -16.32,2.58 -22.55,7 -26.36,21.04z"/>
   <path class="fil1" d="M4969.06 -1800.33c0,13.06 12.4,23.33 26.67,23.33 14.11,0 74.9,-36.7 93.33,-46.67 14.66,-7.93 29.33,-16.83 43.99,-26.01 26.78,-16.78 52.83,-30.72 24.24,-72.21 -30.33,-44.01 -62.18,1.49 -112.59,43.85 -14.66,12.32 -75.64,60.13 -75.64,77.7z"/>
   <path class="fil1" d="M787.31 -1811.48c53.39,34.75 52.89,15.72 80.14,-30.45 12.38,-20.98 53.24,-82.15 52.15,-102.67 -16.15,-7.02 -42.09,-12.27 -61.9,-17.35 -32.43,-8.31 -40.96,-18.67 -47.46,15.91 -5.04,26.78 -25.47,114.17 -22.92,134.56z"/>
   <path class="fil1" d="M892.31 -1727.64c-1.67,14.59 -4.76,34.23 5.13,42.64 5.94,4.8 129.26,13.04 143.76,10.11 6.77,-14.76 11.85,-54.02 15.52,-74.22 7.31,-40.26 6.85,-46.19 -30.67,-30.84 -42.39,17.33 -94.14,33.87 -133.73,52.31z"/>
   <path class="fil7" d="M972.05 -1350.28c37.29,9.36 107.28,-54.67 87.74,-84.39 -15.3,-23.27 -28.51,17.38 -69.32,55.82 -9.47,8.92 -18.24,13.06 -18.43,28.57z"/>
   <path class="fil7" d="M1140 -1662.83c7.88,9.1 15.9,22.1 29.06,26.16 12.77,-12.71 13.3,-17.19 7.52,-34.73 -16.87,-5.71 -25.64,-0.49 -36.58,8.57z"/>
  </g>
 </g>
</svg>
