<?xml version="1.0" encoding="UTF-8"?>
<!DOCTYPE svg PUBLIC "-//W3C//DTD SVG 1.1//EN" "http://www.w3.org/Graphics/SVG/1.1/DTD/svg11.dtd">
<!-- Creator: CorelDRAW 2021 (64-Bit) -->
<svg xmlns="http://www.w3.org/2000/svg" xml:space="preserve" version="1.1" style="shape-rendering:geometricPrecision; text-rendering:geometricPrecision; image-rendering:optimizeQuality; fill-rule:evenodd; clip-rule:evenodd"
viewBox="0 0 6666.66 1166.66"
 xmlns:xlink="http://www.w3.org/1999/xlink"
 xmlns:xodm="http://www.corel.com/coreldraw/odm/2003">
 <defs>
  <style type="text/css">
   <![CDATA[
    .fil0 {fill:#FFFEFE}
   ]]>
  </style>
 </defs>
 <g id="Capa_x0020_1">
  <metadata id="CorelCorpID_0Corel-Layer"/>
  <g id="_2544382234736">
   <path class="fil0" d="M679.21 643.81c0,59.29 -54.83,53.33 -90,53.33 -41.26,0 -50.46,-23.33 -83.33,-23.33 -69.15,0 -80.37,123.33 103.33,123.33 89.2,0 166.67,-58.19 166.67,-136.67 0,-71.61 -17.16,-115.4 -85.65,-144.35 -78.47,-33.17 -147.69,-5.09 -147.69,-55.65 0,-35.81 40.71,-63.33 66.67,-63.33 35.04,0 50.94,-3.88 72.52,17.48 66.37,65.73 146.71,-33.54 36.19,-96.19 -19.25,-10.91 -68.98,-21.29 -98.71,-21.29 -184.28,0 -243.82,252.76 -72.59,289.24 57.83,12.33 132.59,3.46 132.59,57.42z"/>
   <path class="fil0" d="M2872.54 683.81l-16.67 0c0,-61.28 -6.79,-63.23 10.7,-82.63 6.06,-6.72 31.8,-63.24 75.23,-33.29 34.4,23.71 12.02,54.7 -9.14,82.71 -10.65,14.09 -35.6,33.22 -60.12,33.22zm-130 -350l3.27 116.73c0.54,22.67 6.19,53.8 6.84,76.5 1.59,55.68 6.56,107.59 6.56,163.44 0,24.08 -6.11,48.88 -3.11,69.75 4.31,29.98 28.12,36.92 53.11,36.92 19.78,0 17.43,-12.33 39.83,-13.51 53.14,-2.81 82.5,-4.88 128.82,-41.17 41.43,-32.46 78.02,-87.34 78.02,-155.31 0,-81.74 -91.83,-141.39 -178.63,-118.64 -14.87,3.9 -18.21,8.91 -31.37,11.97l-5.26 -91.41c-5.13,-33.89 6.11,-67.29 -2.78,-90.54 -18.02,-47.1 -95.29,-51.48 -95.29,35.28z"/>
   <path class="fil0" d="M2199.2 690.48c-29.07,0 -18.68,-32.88 -15.96,-73.28 29.58,-8.21 12.17,-36.72 49.3,-36.72 49.4,0 71.01,43.13 19.63,82.96 -9.32,7.23 -38.99,27.04 -52.96,27.04zm-73.33 320c18.7,0 34.03,-12.1 41.28,-25.39 13.07,-23.96 8.83,-96.39 8.71,-127.95 -0.1,-27.39 3.34,-40.57 3.34,-66.66 56.78,0 98.07,-23.43 131.48,-48.52 76.76,-57.63 103.42,-168.91 9.25,-232.22 -67.28,-45.22 -110.53,-22.06 -144.07,-19.26 -9.09,-25.12 -65.48,-31.3 -81.07,12.27 -4.8,13.42 -8.89,56.74 -8.93,74.4 -0.07,24.98 -3.34,47.13 -3.33,76.67 0,27.37 0.92,56.28 0.11,83.44 -0.5,16.78 -3.35,18.46 -3.57,36.43l0.21 80.21c0.08,19.35 -2.59,24.42 -3.43,39.91 -2.98,55.19 -1.51,116.68 50.02,116.68z"/>
   <path class="fil0" d="M1222.54 697.15c0,-89.59 -3.07,-56.7 17.49,-79.18 14.22,-15.54 7.92,-22.99 45.84,-14.16 0,45.44 -20,92.37 -63.33,93.33zm-103.33 -376.67l-0.01 156.68c-0.14,38.36 9.32,184.42 5.88,209.19 -3.54,25.51 -18.18,65.66 22.1,92.83 66.9,45.13 196.7,6.39 228.08,-109.31 11.15,-41.11 14.13,-83.13 -7.9,-117.53 -20.37,-31.81 -63.04,-51.85 -98.15,-51.85 -17.26,0 -34.24,5.35 -50,6.67 0,-48.65 -3.33,-86.7 -3.33,-136.67 0,-24.69 9.87,-96.67 -46.67,-96.67 -30.87,0 -50,26.23 -50,46.67z"/>
   <path class="fil0" d="M3912.54 683.81c-22.66,0 -30.42,-1.02 -52.43,-20.91 -32.35,-29.24 -35.83,-99.09 49.09,-99.09 21.51,0 13.64,55.48 66.67,56.67 -9.61,18.16 -16.09,46.51 -36.46,56.87 -6.87,3.49 -15.97,6.46 -26.87,6.46zm-170 -70c0,30.79 2.48,49.54 16.52,76.81 22.84,44.34 87,93.19 143.48,93.19 63.28,0 85.04,-22.15 116.67,-43.33 13.87,9.29 37.31,26.32 59.63,25.57 48.84,-1.63 64.07,-59.92 25.72,-87.59 -30.19,-21.79 -31.24,-25.76 -23.34,-79.29 6.13,-41.57 14.31,-115.35 -45.35,-115.35 -22.62,0 -30.02,11.09 -43.33,20 -46.99,-70.17 -250,-45.65 -250,110z"/>
   <path class="fil0" d="M4775.87 690.48c-64.91,0 -71.1,-97.89 -47.35,-124.02 21.19,-23.31 47.33,-13.72 59.91,-11.66 7.72,1.27 47.44,-7.09 47.44,35.68 0,22.12 -7.17,49.65 -15.49,64.51 -8.85,15.81 -24.91,35.49 -44.51,35.49zm-13.33 96.67c58.98,0 94.68,-17.18 125.33,-58 48.12,-64.09 72.41,-186.78 -3.31,-244.03 -41.6,-31.45 -40.56,-10.17 -77.73,-25.52 -32.63,-13.47 -82.7,-3.74 -111.07,10.77 -18.42,9.42 -28.59,19.44 -42.45,34.21 -75.13,80.06 -26.26,282.56 109.22,282.56z"/>
   <path class="fil0" d="M5059.2 770.48c56.19,0 52.47,-64.3 56.64,-103.35 2.82,-26.44 13.78,-70.46 32.42,-87.58 5.04,-4.63 20.16,-15.73 27.61,-15.73 25.67,0 33.99,96.39 28.59,131.93 -3.75,24.65 -4.7,57.63 13.67,75.81 37.37,36.98 84.4,2.14 84.4,-44.4 0,-82.29 6.17,-189.23 -62.74,-243.93 -33.8,-26.83 -70.71,-23.24 -108.26,-7.07 -14.74,6.35 -27.56,17.94 -39,21 -6.99,-14.56 -1.26,-20.41 -14.11,-35.89 -30.29,-36.48 -90.17,-13.64 -85.87,42.22l17.53 202.78c2.89,24.08 5.41,43.8 26.98,56.35 4.24,2.46 17.56,7.86 22.14,7.86z"/>
   <path class="fil0" d="M2415.87 627.15c0,102.66 61.22,203.68 165.35,158.69 15.06,-6.51 22.96,-18.01 37.98,-22.02 9.8,6.56 43.76,39.62 75.91,-0.76 21.18,-26.59 4.14,-62.21 -1.15,-94 -3.92,-23.52 -5.07,-49.89 -7.6,-72.4 -2.73,-24.37 1.99,-53.66 -3.54,-73.12 -16.25,-57.18 -96.94,-40.22 -96.94,16.94 0,31.98 4.37,68.12 -0.71,99.29 -3.63,22.22 -27.69,52.34 -49.29,57.38 -43.57,-29.18 -6.67,-160.86 -6.67,-180 0,-46.39 -76.33,-83.26 -100.08,9.92 -6.39,25.07 -13.25,69.37 -13.25,100.08z"/>
   <path class="fil0" d="M805.87 593.81c0,54.08 1.6,100.63 28.88,147.79 33.35,57.65 108.65,62.87 156.42,40.75 14.42,-6.68 8.52,-10.11 22.22,-6.46 8.78,2.34 13.43,7.92 25.81,7.92 27.73,0 45.52,-22.01 46.85,-49.97 0.96,-20.01 -3.16,-25.77 -3.58,-43.3l-5.54 -141.13c-11.68,-59.12 -74.73,-55.59 -92.98,-17.51 -19.09,39.86 11.47,165.24 -54.76,165.24 -19.06,0 -26.67,-56.44 -26.67,-80 0,-24.04 6.75,-57.41 5.28,-72.3 -5.01,-51.06 -68.22,-60.79 -89.34,-21.76 -9.07,16.76 -12.61,45.56 -12.61,70.72z"/>
   <path class="fil0" d="M115.87 170.48l0 783.33c0,10.92 22.94,26.67 33.33,26.67 14.5,0 36.67,-19.15 36.67,-36.67l0 -756.66c0,-57.31 -70,-42.98 -70,-16.67z"/>
   <path class="fil0" d="M3455.87 643.81c0,105.29 94.03,156.42 191.4,131.39 15.01,-3.86 31.2,-7.57 41.14,-15.52 38.55,-30.83 20.41,-85.87 -29.2,-85.87 -26.76,0 -30.19,10 -66.67,10 -17.51,0 -40,-16.02 -40,-33.33 0,-22.25 16.74,-64.03 56.67,-73.33 3.85,5.74 5.99,7.63 9.98,13.36 10.21,14.69 15.25,27.54 42.2,30.96 48.33,6.11 78.17,-56.67 17.06,-113.55 -48.02,-44.68 -123.54,-32.3 -170.5,17.96 -2.51,2.68 -2.31,2.63 -4.72,5.28 -23.57,25.89 -47.34,74.02 -47.34,112.66z"/>
   <path class="fil0" d="M3099.2 330.48c0,111.37 0.26,202.74 10.29,313.05 15.43,169.71 176.38,162.59 176.38,86.95 0,-19.51 -15.7,-35.71 -31.2,-42.13 -29.87,-12.39 -46.06,19.5 -52.15,-94.52 -0.63,-11.86 0.67,-24.84 0.03,-36.7 -0.8,-14.82 -3.27,-15.99 -3.48,-33.19 -0.3,-24.43 0.57,-49.17 0.27,-73.6 -0.26,-20.5 -3.48,-29.9 -3.47,-69.87 0.01,-31.09 10.13,-103.33 -46.67,-103.33 -27.04,0 -50,25.06 -50,53.33z"/>
   <path class="fil0" d="M4129.2 640.48c0,52.86 20.03,107.67 62.2,131.12 47.85,26.6 88.86,13.54 138.28,-3.98 81.98,-29.07 45.26,-103.81 6.19,-103.81 -37.95,0 -123.15,74.39 -106.99,-40.24 12.09,-85.76 59.3,-39.76 73.65,-39.76 55.4,0 76.29,-82.59 -2.79,-107.21 -32.41,-10.09 -66.06,-2.69 -92.84,11.58 -45.23,24.11 -77.7,84.28 -77.7,152.3z"/>
   <path class="fil0" d="M1565.87 550.48c0,45.76 1.09,189.43 18.73,221.26 19.34,34.89 87.2,38.07 91.2,-31.33 9.2,-159.69 55.39,-133.46 116.43,-140.23 62.01,-6.88 56.72,-96.37 -6.36,-96.37 -94.63,0 -90.04,15.58 -123.33,23.33 -4.61,-55.44 -96.67,-63.82 -96.67,23.33z"/>
   <path class="fil0" d="M4422.54 587.15c0,42.22 5.57,97.95 17.97,128.7 7.09,17.59 18.33,31.67 31.93,41.41 102.53,73.37 172.41,-70.48 56.77,-80.1 -4.39,-52.77 -6.67,-16.8 -6.67,-96.67 0,-40.52 6.02,-69.32 -15.6,-91.07 -22.34,-22.47 -51.98,-17.56 -70.28,5.19 -13.16,16.37 -14.13,63.04 -14.13,92.54z"/>
   <path class="fil0" d="M3305.87 553.81c0,59.02 -8.69,151.61 22.75,190.58 69.17,85.74 147.51,14.04 106.46,-36.46 -7.79,-9.57 -20.74,-15.44 -25.19,-21.48 -11.15,-15.17 -2.52,-147.72 -6.43,-163.57 -14.11,-57.17 -97.59,-57.26 -97.59,30.92z"/>
   <path class="fil0" d="M1402.54 597.15c0,44.62 4.7,92.31 15.16,128.17 24.28,83.24 83.39,83.7 110.89,57.87 19.94,-18.74 21.98,-40.14 7.37,-62.8 -13.44,-20.83 -33.92,0.24 -33.44,-93.23 0.11,-21.94 2.39,-63.28 -0.25,-83.08 -5.85,-43.83 -69.83,-60.01 -92.2,-9.42 -4.8,10.85 -7.52,47.18 -7.52,62.48z"/>
   <path class="fil0" d="M4825.87 343.81c0,61.46 55.92,65.59 87.59,34.26 12.92,-12.78 18.7,-17.06 32.44,-27.56 30.25,-23.1 53.3,-37.94 53.3,-73.37 0,-27.56 -41.87,-66 -85.87,-25.87 -11.41,10.41 -21.39,16.81 -33.37,26.63 -16.65,13.64 -54.1,39.51 -54.1,65.91z"/>
   <path class="fil0" d="M1412.54 417.15c0,69.84 94,67.5 98.41,5.78 4.69,-65.68 -98.41,-65.56 -98.41,-5.78z"/>
   <path class="fil0" d="M4429.2 393.81c0,37.47 10.69,56.67 53.33,56.67 54.2,0 62.17,-96.67 -10,-96.67 -18.78,0 -43.33,21.17 -43.33,40z"/>
   <path class="fil0" d="M3309.2 387.15c0,64.84 96.67,60.84 96.67,0 0,-60.77 -96.67,-63.75 -96.67,0z"/>
  </g>
 </g>
</svg>
